<?xml version='1.0' encoding='UTF-8' standalone='no'?>
<!-- Created with Inkscape (http://www.inkscape.org/) -->
<svg xmlns="http://www.w3.org/2000/svg" width="170.78125" version="1.1" height="284.37494" id="svg5476">
 <defs  id="defs5478"/>
 <sodipodi:namedview xmlns:sodipodi="http://sodipodi.sourceforge.net/DTD/sodipodi-0.dtd" fit-margin-top="0" fit-margin-left="0" showgrid="false" fit-margin-bottom="0" pagecolor="#ffffff" bordercolor="#666666" id="base" borderopacity="1.0" fit-margin-right="0"/>
 <metadata  id="metadata5481">
  <rdf:RDF xmlns:rdf="http://www.w3.org/1999/02/22-rdf-syntax-ns#">
   <cc:Work xmlns:cc="http://creativecommons.org/ns#" rdf:about="" xmlns:rdf="http://www.w3.org/1999/02/22-rdf-syntax-ns#">
    <dc:format xmlns:dc="http://purl.org/dc/elements/1.1/">image/svg+xml</dc:format>
    <dc:type xmlns:dc="http://purl.org/dc/elements/1.1/" rdf:resource="http://purl.org/dc/dcmitype/StillImage" xmlns:rdf="http://www.w3.org/1999/02/22-rdf-syntax-ns#"/>
    <dc:title xmlns:dc="http://purl.org/dc/elements/1.1/"/>
   </cc:Work>
  </rdf:RDF>
 </metadata>
 <g  id="layer1" transform="translate(-250.94644,-303.25953)">
  <g  id="g51555" transform="translate(237.38822,-453.14942)">
   <rect  width="164.14973" x="15.657366" y="795.07355" rx="8.3594322" ry="6.1423426" height="204.76086" style="fill:#333333;fill-opacity:0.3392857;stroke:none" id="rect47912"/>
   <path  style="fill:#1a1a1a;stroke:none" id="rect46158" d="m 14.995716,756.40895 c -0.79766,0 -1.4375,0.63984 -1.4375,1.4375 l 0,281.49995 c 0,0.7976 0.63984,1.4375 1.4375,1.4375 l 167.906244,0 c 0.79766,0 1.4375,-0.6399 1.4375,-1.4375 l 0,-281.49995 c 0,-0.79766 -0.63984,-1.4375 -1.4375,-1.4375 l -167.906244,0 z m 34.499995,6.75 c 0.99412,0 1.8125,0.78714 1.8125,1.78125 0,0.99411 -0.81838,1.8125 -1.8125,1.8125 -0.99411,0 -1.78125,-0.81839 -1.78125,-1.8125 0,-0.99411 0.78714,-1.78125 1.78125,-1.78125 z m 9,0 c 0.99412,0 1.8125,0.78714 1.8125,1.78125 0,0.99411 -0.81838,1.8125 -1.8125,1.8125 -0.99411,0 -1.78125,-0.81839 -1.78125,-1.8125 0,-0.99411 0.78714,-1.78125 1.78125,-1.78125 z m 9,0 c 0.99412,0 1.8125,0.78714 1.8125,1.78125 0,0.99411 -0.81838,1.8125 -1.8125,1.8125 -0.99411,0 -1.78125,-0.81839 -1.78125,-1.8125 0,-0.99411 0.78714,-1.78125 1.78125,-1.78125 z m 9,0 c 0.99412,0 1.8125,0.78714 1.8125,1.78125 0,0.99411 -0.81838,1.8125 -1.8125,1.8125 -0.99411,0 -1.78125,-0.81839 -1.78125,-1.8125 0,-0.99411 0.78714,-1.78125 1.78125,-1.78125 z m 9,0 c 0.99411,0 1.8125,0.78714 1.8125,1.78125 0,0.99411 -0.81839,1.8125 -1.8125,1.8125 -0.99411,0 -1.78125,-0.81839 -1.78125,-1.8125 0,-0.99411 0.78714,-1.78125 1.78125,-1.78125 z m 8.96875,0 c 0.99411,0 1.8125,0.78714 1.8125,1.78125 0,0.99411 -0.81839,1.8125 -1.8125,1.8125 -0.99411,0 -1.78125,-0.81839 -1.78125,-1.8125 0,-0.99411 0.78714,-1.78125 1.78125,-1.78125 z m 8.999999,0 c 0.99411,0 1.8125,0.78714 1.8125,1.78125 0,0.99411 -0.81839,1.8125 -1.8125,1.8125 -0.99411,0 -1.78125,-0.81839 -1.78125,-1.8125 0,-0.99411 0.78714,-1.78125 1.78125,-1.78125 z m 9,0 c 0.99411,0 1.8125,0.78714 1.8125,1.78125 0,0.99411 -0.81839,1.8125 -1.8125,1.8125 -0.99411,0 -1.78125,-0.81839 -1.78125,-1.8125 0,-0.99411 0.78714,-1.78125 1.78125,-1.78125 z m 9.03125,0 c 0.99411,0 1.78125,0.81839 1.78125,1.8125 0,0.99411 -0.78714,1.78125 -1.78125,1.78125 -0.99411,0 -1.8125,-0.78714 -1.8125,-1.78125 0,-0.99411 0.81839,-1.8125 1.8125,-1.8125 z m 8.96875,0 c 0.99411,0 1.78125,0.81839 1.78125,1.8125 0,0.99411 -0.78714,1.78125 -1.78125,1.78125 -0.99411,0 -1.8125,-0.78714 -1.8125,-1.78125 0,-0.99411 0.81839,-1.8125 1.8125,-1.8125 z m 9,0 c 0.99411,0 1.78125,0.81839 1.78125,1.8125 0,0.99411 -0.78714,1.78125 -1.78125,1.78125 -0.99411,0 -1.8125,-0.78714 -1.8125,-1.78125 0,-0.99411 0.81839,-1.8125 1.8125,-1.8125 z m 9,0 c 0.99411,0 1.78125,0.81839 1.78125,1.8125 0,0.99411 -0.78714,1.78125 -1.78125,1.78125 -0.99411,0 -1.8125,-0.78714 -1.8125,-1.78125 0,-0.99411 0.81839,-1.8125 1.8125,-1.8125 z M 26.526961,765.0652 c 3.00047,-0.10282 5.5219,2.25799 5.625,5.25 0.10305,2.99035 -2.22003,5.48864 -5.21875,5.59375 l -0.0312,0 c -3.00046,0.10282 -5.49064,-2.22674 -5.59375,-5.21875 -0.103102,-2.99201 2.21829,-5.52218 5.21875,-5.625 z m 145.062499,0 c 3.00046,-0.10282 5.52189,2.25799 5.625,5.25 0.10305,2.99035 -2.25129,5.48864 -5.25,5.59375 -3.00046,0.10282 -5.52189,-2.22674 -5.625,-5.21875 -0.10311,-2.99201 2.24954,-5.52218 5.25,-5.625 z m -131.781249,43.0625 7.90625,0 0,21.6875 3.09375,0 0,-6.4375 c -1e-5,-0.49088 0.12955,-0.89973 0.375,-1.1875 0.24543,-0.28775 0.64257,-0.43749 1.21875,-0.4375 0.57616,10e-6 1.00487,0.16017 1.25,0.4375 0.2451,0.27735 0.34374,0.67579 0.34375,1.1875 l 0,8.0625 c -1e-5,0.5332 -0.12827,0.9209 -0.4375,1.1875 -0.30926,0.2666 -0.70835,0.40625 -1.15625,0.40625 l -12.59375,0 c -0.4694,0 -0.85775,-0.11914 -1.15625,-0.375 -0.2985,-0.25586 -0.4375,-0.66406 -0.4375,-1.21875 0,-0.53385 0.12826,-0.95215 0.4375,-1.21875 0.30924,-0.2666 0.70833,-0.40625 1.15625,-0.40625 l 4.6875,0 0,-18.46875 -4.6875,0 c -0.4694,2e-5 -0.85775,-0.15037 -1.15625,-0.40625 -0.2985,-0.25584 -0.4375,-0.66404 -0.4375,-1.21875 0,-0.53318 0.12826,-0.92055 0.4375,-1.1875 0.30924,-0.2669 0.70833,-0.40623 1.15625,-0.40625 z m 52.84375,0 10.624999,0 c 0.57616,2e-5 1.05337,0.07 1.4375,0.1875 0.3841,0.11754 0.7617,0.3454 1.15625,0.71875 0.39451,0.3734 0.6533,0.77151 0.78125,1.1875 0.12791,0.41604 0.18748,0.97398 0.1875,1.65625 l 0,6.5625 c -2e-5,0.66147 -0.0596,1.19858 -0.1875,1.625 -0.12795,0.42644 -0.3659,0.82488 -0.75,1.1875 -0.38413,0.36264 -0.80275,0.62176 -1.21875,0.75 -0.41603,0.12827 -0.87306,0.18751 -1.40625,0.1875 l -9.031249,0 0,7.625 10.999999,0 c 0.46938,0 0.85773,0.15007 1.15625,0.40625 0.29848,0.25619 0.43748,0.66406 0.4375,1.21875 -2e-5,0.5332 -0.12827,0.9209 -0.4375,1.1875 -0.30926,0.2666 -0.70835,0.40625 -1.15625,0.40625 l -14.187499,0 0,-10.4375 c 0,-2.41079 1.18294,-3.62499 3.59375,-3.625 l 8.999999,0 0,-7.625 -10.999999,0 c -0.46941,2e-5 -0.85775,-0.15037 -1.15625,-0.40625 -0.29851,-0.25584 -0.4375,-0.66404 -0.4375,-1.21875 0,-0.53318 0.12825,-0.92055 0.4375,-1.1875 0.30924,-0.2669 0.70833,-0.40623 1.15625,-0.40625 z m 52.843749,0 11,0 c 0.9173,2e-5 1.67316,0.2982 2.28125,0.90625 0.60805,0.6081 0.90623,1.3952 0.90625,2.3125 l 0,6.125 c -2e-5,0.72528 -0.0589,1.3021 -0.21875,1.75 -0.15985,0.44793 -0.48765,0.89585 -1,1.34375 0.46938,0.4271 0.78742,0.89519 0.96875,1.375 0.1813,0.47983 0.24998,1.06707 0.25,1.75 l 0,6.125 c -2e-5,0.91732 -0.2982,1.70443 -0.90625,2.3125 -0.60809,0.60807 -1.36395,0.90625 -2.28125,0.90625 l -11,0 c -0.46941,0 -0.85775,-0.11914 -1.15625,-0.375 -0.29851,-0.25586 -0.4375,-0.66406 -0.4375,-1.21875 0,-0.53385 0.12825,-0.95215 0.4375,-1.21875 0.30924,-0.2666 0.70833,-0.40625 1.15625,-0.40625 l 11,0 0,-5.3125 c -2e-5,-0.83202 -0.14976,-1.41861 -0.4375,-1.78125 -0.28778,-0.36262 -0.66538,-0.53124 -1.15625,-0.53125 l -6.28125,0 c -0.46876,10e-6 -0.85743,-0.15005 -1.15625,-0.40625 -0.29884,-0.25617 -0.43751,-0.66405 -0.4375,-1.21875 -1e-5,-0.53319 0.1595,-0.92089 0.46875,-1.1875 0.30924,-0.26659 0.67708,-0.40624 1.125,-0.40625 l 6.28125,0 c 0.49087,10e-6 0.86847,-0.16861 1.15625,-0.53125 0.28774,-0.36262 0.43748,-0.9492 0.4375,-1.78125 l 0,-5.3125 -11,0 c -0.46941,2e-5 -0.85775,-0.15037 -1.15625,-0.40625 -0.29851,-0.25584 -0.4375,-0.66404 -0.4375,-1.21875 0,-0.53318 0.12825,-0.92055 0.4375,-1.1875 0.30924,-0.2669 0.70833,-0.40623 1.15625,-0.40625 z m -104.906249,52 c 0.55468,2e-5 0.96289,0.16995 1.21875,0.46875 0.25586,0.29885 0.40625,0.68687 0.40625,1.15625 l 0,11.96875 6.1875,0 0,-9.25 c -1e-5,-0.46938 0.12955,-0.85773 0.375,-1.15625 0.24543,-0.29848 0.64322,-0.43748 1.21875,-0.4375 0.55468,2e-5 0.96255,0.13902 1.21875,0.4375 0.25617,0.29852 0.40624,0.68687 0.40625,1.15625 l 0,9.25 c 0.46939,10e-6 0.82648,0.11883 1.125,0.375 0.29849,0.2562 0.46874,0.66407 0.46875,1.21875 -1e-5,0.53321 -0.15952,0.92091 -0.46875,1.1875 -0.30926,0.26661 -0.6771,0.40626 -1.125,0.40625 l 0,6.53125 c -1e-5,1.06641 -0.55796,1.59375 -1.625,1.59375 -1.06642,0 -1.59376,-0.52734 -1.59375,-1.59375 l 0,-6.53125 -9.40625,0 0,-15.15625 c 0,-0.46938 0.12956,-0.8574 0.375,-1.15625 0.24544,-0.2988 0.64258,-0.46873 1.21875,-0.46875 z m 53.625,0 11.031249,0 c 0.11735,10e-6 0.23708,0.0153 0.34375,0.0312 0.15761,0.0266 0.30287,0.0629 0.4375,0.125 0.13817,0.0604 0.26152,0.15262 0.375,0.25 0.14924,0.1281 0.26912,0.29728 0.34375,0.5 0.0746,0.20272 0.0937,0.44142 0.0937,0.71875 -2e-5,0.53323 -0.12827,0.92092 -0.4375,1.1875 -0.15463,0.13331 -0.34196,0.24585 -0.53125,0.3125 -0.19442,0.0682 -0.40105,0.0938 -0.625,0.0937 l -7.843749,0 0,7.65625 5.906249,0 c 0.57616,10e-6 1.03286,0.0391 1.40625,0.15625 0.18668,0.0586 0.36943,0.15507 0.5625,0.28125 0.19999,0.12504 0.388,0.27405 0.59375,0.46875 0.39451,0.37339 0.6533,0.76141 0.78125,1.15625 0.12791,0.39487 0.18748,0.89129 0.1875,1.53125 l 0,6.84375 c -2e-5,0.55469 -0.029,1.04362 -0.125,1.40625 -0.0961,0.36263 -0.31512,0.71973 -0.65625,1.125 -0.17058,0.20263 -0.36808,0.38965 -0.5625,0.53125 -0.18244,0.13067 -0.39407,0.24078 -0.59375,0.3125 -0.41603,0.14941 -0.93231,0.21875 -1.59375,0.21875 l -7.124999,0 c -0.36264,0 -0.67026,-0.029 -0.96875,-0.125 -0.29851,-0.096 -0.67709,-0.24544 -1.125,-0.4375 l -1.21875,-0.5625 c -0.70443,-0.31966 -1.18164,-0.56868 -1.4375,-0.75 -0.0577,-0.0409 -0.11158,-0.0986 -0.15625,-0.15625 -0.0544,-0.0703 -0.0899,-0.12351 -0.125,-0.21875 -0.003,-0.008 0.003,-0.0231 0,-0.0312 -0.0582,-0.16909 -0.0937,-0.38057 -0.0937,-0.625 0,-0.21321 0.0191,-0.40715 0.0937,-0.59375 0.0746,-0.1866 0.1945,-0.37125 0.34375,-0.53125 0.2985,-0.31998 0.66666,-0.46875 1.09375,-0.46875 0.29817,0 0.61588,0.0794 1,0.25 l 0.96875,0.40625 c 0.34179,0.17058 0.64973,0.34082 0.9375,0.46875 0.28775,0.12793 0.53645,0.1875 0.75,0.1875 l 7.406249,0 0,-7.65625 -9.437499,0 0,-14.0625 z m 51.062499,0 1.90625,0 c 0.30371,10e-6 0.56656,0.0956 0.8125,0.28125 0.0813,0.0601 0.17529,0.13868 0.25,0.21875 0.22411,0.24025 0.35022,0.51258 0.40625,0.8125 0.0177,0.10043 0.0312,0.2059 0.0312,0.3125 0,0.11736 -0.0127,0.20583 -0.0312,0.3125 -0.001,0.01 0.002,0.0217 0,0.0312 -0.0185,0.0955 -0.0287,0.19449 -0.0625,0.28125 -0.003,0.009 0.003,0.0221 0,0.0312 -0.0746,0.18209 -0.20068,0.3571 -0.34375,0.5 -0.0747,0.0746 -0.16467,0.13153 -0.25,0.1875 -0.17157,0.11002 -0.34845,0.18336 -0.5625,0.21875 -0.10657,0.0186 -0.22656,0.0313 -0.34375,0.0312 l 0,10.375 10.6875,0 c 0.38411,10e-6 0.71273,0.045 0.96875,0.125 0.1274,0.0386 0.21697,0.0661 0.3125,0.125 0.10647,0.0631 0.18089,0.13233 0.25,0.21875 0.12792,0.16 0.21729,0.37882 0.28125,0.65625 0.064,0.27743 0.0937,0.60515 0.0937,1 l 0,7.1875 c -10e-6,0.51102 -0.0686,0.8863 -0.21875,1.1875 -0.017,0.0361 -0.0121,0.0918 -0.0312,0.125 -0.0571,0.0937 -0.1443,0.18047 -0.21875,0.25 -0.32001,0.29883 -0.84702,0.4375 -1.59375,0.4375 l -11.65625,0 c -0.19206,0 -0.36705,-0.0115 -0.53125,-0.0312 -0.17562,-0.0208 -0.32628,-0.0507 -0.46875,-0.0937 -0.13578,-0.0393 -0.23693,-0.0666 -0.34375,-0.125 -0.106,-0.058 -0.20394,-0.14144 -0.28125,-0.21875 -0.0828,-0.0828 -0.12687,-0.16862 -0.1875,-0.28125 -0.0555,-0.10139 -0.12089,-0.217 -0.15625,-0.34375 -0.0773,-0.25863 -0.0937,-0.54362 -0.0937,-0.90625 l 0,-21.28125 c 0,-0.23469 0.0162,-0.46322 0.0625,-0.65625 0.048,-0.19206 0.12272,-0.35057 0.21875,-0.5 0.19205,-0.2988 0.56054,-0.46873 1.09375,-0.46875 z m 1.8125,16.78125 0,4.9375 9.40625,0 0,-4.9375 -9.40625,0 z m -107.281249,35.25 14.1875,0 0,9.28125 0,0.375 c -1e-5,0.4909 -0.0495,0.79884 -0.15625,0.9375 -0.10679,0.13869 -0.32488,0.3672 -0.6875,0.6875 l -4.5,3.875 c -0.44793,0.38347 -0.70639,0.65235 -0.78125,0.8125 -0.0749,0.16017 -0.0938,0.54884 -0.0937,1.125 l 0,6.1875 c -1e-5,1.06641 -0.5586,1.625 -1.625,1.625 -1.06641,0 -1.59376,-0.55859 -1.59375,-1.625 l 0,-7.6875 c -1e-5,-0.55468 0.0299,-0.93358 0.0937,-1.09375 0.0638,-0.16015 0.32291,-0.41861 0.75,-0.78125 l 4.40625,-3.8125 c 0.51171,-0.46939 0.80044,-0.77733 0.875,-0.9375 0.0745,-0.16014 0.12499,-0.59699 0.125,-1.34375 l 0,-4.4375 -9.40625,0 c 0,0.38414 -0.13867,0.7523 -0.4375,1.09375 -0.29883,0.34149 -0.68685,0.50002 -1.15625,0.5 -0.49023,2e-5 -0.89941,-0.138 -1.1875,-0.46875 -0.28809,-0.33071 -0.40625,-0.71938 -0.40625,-1.125 l 0,-1.59375 c 0,-0.38409 0.139,-0.75225 0.4375,-1.09375 0.2985,-0.34145 0.68685,-0.49998 1.15625,-0.5 z m 56.03125,0 6.218749,0 c 0.5117,2e-5 0.91014,0.1387 1.1875,0.4375 0.27733,0.29885 0.40623,0.68687 0.40625,1.15625 l 0,9.25 c 0.49087,10e-6 0.93911,0.0693 1.3125,0.21875 0.37335,0.14943 0.77082,0.44858 1.21875,0.875 0.4479,0.42644 0.65623,1.12241 0.65625,2.125 l 0,7.625 c -2e-5,0.98177 -0.25783,1.76791 -0.8125,2.34375 -0.55471,0.57585 -1.35093,0.875 -2.375,0.875 l -9.406249,0 c -0.98178,0 -1.76791,-0.29915 -2.34375,-0.875 -0.57585,-0.57584 -0.84375,-1.36198 -0.84375,-2.34375 l 0,-7.625 c 0,-1.00259 0.19824,-1.70897 0.625,-2.125 0.42675,-0.416 0.82421,-0.68391 1.21875,-0.84375 0.39453,-0.15982 0.85286,-0.24999 1.34375,-0.25 l 0,-9.25 c -1e-5,-0.44789 0.13964,-0.81541 0.40625,-1.125 0.26659,-0.30955 0.65429,-0.46873 1.1875,-0.46875 z m 49.656249,0 12.59375,0 c 0.42641,2e-5 0.80499,0.14846 1.125,0.46875 0.31997,0.32034 0.46873,0.69859 0.46875,1.125 l 0,21.6875 c -2e-5,0.44792 -0.11818,0.84701 -0.40625,1.15625 -0.2881,0.30924 -0.69728,0.46875 -1.1875,0.46875 l -1.59375,0 c -0.46942,0 -0.85776,-0.18001 -1.15625,-0.5 -0.29852,-0.31999 -0.43751,-0.69857 -0.4375,-1.125 -1e-5,-0.4694 0.13898,-0.85742 0.4375,-1.15625 0.29849,-0.29883 0.68683,-0.4375 1.15625,-0.4375 l 0,-10.3125 -11,0 c -0.42644,10e-6 -0.80502,-0.14875 -1.125,-0.46875 -0.31999,-0.31997 -0.46875,-0.69855 -0.46875,-1.125 l 0,-8.1875 c 0,-0.42641 0.13899,-0.80466 0.4375,-1.125 0.2985,-0.32029 0.68684,-0.46873 1.15625,-0.46875 z m -48.062499,3.1875 0,7.65625 3.031249,0 0,-7.65625 -3.031249,0 z m 49.656249,0 0,5 9.40625,0 0,-5 -9.40625,0 z m -52.843749,10.84375 0,7.65625 9.406249,0 0,-7.65625 -9.406249,0 z m 0,37.96875 9.406249,0 c 0.89647,2e-5 1.66274,0.31871 2.28125,0.9375 0.61847,0.61884 0.90623,1.38544 0.90625,2.28125 l 0,18.46875 c -2e-5,0.91732 -0.2982,1.70443 -0.90625,2.3125 -0.60809,0.60807 -1.36395,0.90625 -2.28125,0.90625 l -9.406249,0 c -0.89649,0 -1.66277,-0.31868 -2.28125,-0.9375 -0.61849,-0.61881 -0.90625,-1.38541 -0.90625,-2.28125 l 0,-18.46875 c 0,-0.89581 0.28776,-1.66241 0.90625,-2.28125 0.61848,-0.61879 1.38476,-0.93748 2.28125,-0.9375 z m 54.499999,2.375 c 0.49023,2e-5 0.88964,0.14944 1.15625,0.4375 0.26659,0.28811 0.37499,0.85549 0.375,1.6875 l 0,3.09375 3.03125,0 0,-3.09375 c -1e-5,-0.68292 0.0895,-1.19985 0.28125,-1.5625 0.19172,-0.36261 0.61001,-0.56248 1.25,-0.5625 0.49087,2e-5 0.85838,0.14944 1.125,0.4375 0.26659,0.28811 0.40623,0.85549 0.40625,1.6875 l 0,3.09375 0.96875,0 c 0.68292,2e-5 1.19985,0.10972 1.5625,0.3125 0.36261,0.20282 0.53123,0.63153 0.53125,1.25 -2e-5,0.59767 -0.1784,0.9743 -0.5625,1.1875 -0.38413,0.21323 -0.89129,0.34377 -1.53125,0.34375 l -0.96875,0 0,3.53125 0.96875,0 c 0.68292,10e-6 1.19985,0.10971 1.5625,0.3125 0.36261,0.20281 0.53123,0.60027 0.53125,1.21875 -2e-5,0.59767 -0.1784,1.00554 -0.5625,1.21875 -0.38413,0.21322 -0.89129,0.34376 -1.53125,0.34375 l -0.96875,0 0,3.09375 c -2e-5,0.6823 -0.0892,1.19987 -0.28125,1.5625 -0.19207,0.36263 -0.61004,0.5625 -1.25,0.5625 -0.49025,0 -0.85841,-0.14941 -1.125,-0.4375 -0.26661,-0.28808 -0.40626,-0.85612 -0.40625,-1.6875 l 0,-3.09375 -3.03125,0 0,3.09375 c -1e-5,0.6823 -0.0895,1.19987 -0.28125,1.5625 -0.19174,0.36263 -0.61004,0.5625 -1.25,0.5625 -0.49089,0 -0.85841,-0.14941 -1.125,-0.4375 -0.26661,-0.28808 -0.40626,-0.85612 -0.40625,-1.6875 l 0,-3.09375 -0.96875,0 c -0.68295,10e-6 -1.19987,-0.10969 -1.5625,-0.3125 -0.36263,-0.20279 -0.53125,-0.6315 -0.53125,-1.25 0,-0.59699 0.17838,-0.97395 0.5625,-1.1875 0.38411,-0.21353 0.89127,-0.34374 1.53125,-0.34375 l 0.96875,0 0,-3.53125 -0.96875,0 c -0.68295,2e-5 -1.19987,-0.10969 -1.5625,-0.3125 -0.36263,-0.20278 -0.53125,-0.60024 -0.53125,-1.21875 0,-0.59699 0.17838,-1.00519 0.5625,-1.21875 0.38411,-0.21352 0.89127,-0.34373 1.53125,-0.34375 l 0.96875,0 0,-3.09375 c -1e-5,-0.68292 0.0895,-1.19985 0.28125,-1.5625 0.19172,-0.36261 0.60937,-0.56248 1.25,-0.5625 z m -102.656249,0.375 c 1.06705,2e-5 1.62499,0.52737 1.625,1.59375 l 0,4.6875 3.40625,-2.9375 c 0.10676,-0.1061 0.27603,-0.25682 0.5,-0.40625 0.22395,-0.14939 0.48241,-0.21873 0.78125,-0.21875 0.4479,2e-5 0.84699,0.16929 1.15625,0.5 0.30923,0.33075 0.43749,0.74937 0.4375,1.21875 -1e-5,0.27736 -0.0488,0.49579 -0.1875,0.6875 -0.13869,0.19175 -0.35744,0.43101 -0.65625,0.6875 l -4.625,3.9375 4.1875,3.5625 c 0.44855,0.36264 0.79751,0.67156 1,0.90625 0.20246,0.23471 0.28124,0.53386 0.28125,0.875 -1e-5,0.44792 -0.12827,0.82553 -0.4375,1.15625 -0.30926,0.33073 -0.70835,0.50001 -1.15625,0.5 -0.34181,10e-6 -0.72983,-0.18033 -1.15625,-0.5 -0.27736,-0.2565 -0.45574,-0.41471 -0.5625,-0.5 l -2.96875,-2.5625 0,4.625 c -1e-5,1.06641 -0.55795,1.59375 -1.625,1.59375 -1.06641,0 -1.59376,-0.52734 -1.59375,-1.59375 l 0,-4.625 -2.96875,2.5625 c -0.42709,0.36264 -0.75554,0.63184 -0.96875,0.78125 -0.21322,0.14942 -0.45117,0.21876 -0.75,0.21875 -0.4694,10e-6 -0.85775,-0.18001 -1.15625,-0.5 -0.2985,-0.31998 -0.4375,-0.68684 -0.4375,-1.15625 0,-0.25585 0.0589,-0.51529 0.21875,-0.75 0.15983,-0.23469 0.4974,-0.58332 1.03125,-1.03125 l 4.21875,-3.5625 -4.625,-3.9375 c -0.27734,-0.23501 -0.47559,-0.45376 -0.625,-0.65625 -0.14941,-0.20246 -0.21875,-0.44139 -0.21875,-0.71875 0,-0.44855 0.139,-0.84634 0.4375,-1.1875 0.2985,-0.34113 0.68685,-0.53123 1.15625,-0.53125 0.25586,2e-5 0.4541,0.0397 0.625,0.125 0.1709,0.0853 0.40039,0.26564 0.65625,0.5 l 3.40625,2.9375 0,-4.6875 c -1e-5,-1.06638 0.52734,-1.59373 1.59375,-1.59375 z m 48.15625,0.46875 0,18.46875 9.406249,0 0,-18.46875 -9.406249,0 z m 56.031249,7.46875 0,3.53125 3.03125,0 0,-3.53125 -3.03125,0 z M 26.526961,1022.2214 c 3.00047,-0.1028 5.5219,2.258 5.625,5.25 0.10305,2.9904 -2.22003,5.4886 -5.21875,5.5938 l -0.0312,0 c -3.00046,0.1028 -5.49064,-2.2268 -5.59375,-5.2188 -0.103102,-2.992 2.21829,-5.5222 5.21875,-5.625 z m 145.062499,0 c 3.00046,-0.1028 5.52189,2.258 5.625,5.25 0.10305,2.9904 -2.25129,5.4886 -5.25,5.5938 -3.00046,0.1028 -5.52189,-2.2268 -5.625,-5.2188 -0.10311,-2.992 2.24954,-5.5222 5.25,-5.625 z"/>
   <g  id="g50630">
    <g  id="g46263" transform="translate(-460.94702,566.38106)">
     <circle  cx="4.3200002" cy="4.3200002" style="fill:none;stroke:#ffbf00;stroke-width:1.15199995" r="1.584" id="connector0pad-10" d="m 5.9040002,4.3200002 c 0,0.874819 -0.709181,1.584 -1.584,1.584 -0.8748191,0 -1.584,-0.709181 -1.584,-1.584 0,-0.8748191 0.7091809,-1.584 1.584,-1.584 0.874819,0 1.584,0.7091809 1.584,1.584 z" transform="matrix(0,1.25,1.25,0,604.04115,193.19272)"/>
     <circle  cx="4.3200002" cy="11.52" style="fill:none;stroke:#ffbf00;stroke-width:1.15199995" r="1.584" id="connector1pad-5" d="m 5.9040002,11.52 c 0,0.874819 -0.709181,1.584 -1.584,1.584 -0.8748191,0 -1.584,-0.709181 -1.584,-1.584 0,-0.874819 0.7091809,-1.5839995 1.584,-1.5839995 0.874819,0 1.584,0.7091805 1.584,1.5839995 z" transform="matrix(0,1.25,1.25,0,586.04131,193.19272)"/>
     <circle  cx="4.3200002" cy="11.52" style="fill:none;stroke:#ffbf00;stroke-width:1.15199995" r="1.584" id="connector1pad-4-8" d="m 5.9040002,11.52 c 0,0.874819 -0.709181,1.584 -1.584,1.584 -0.8748191,0 -1.584,-0.709181 -1.584,-1.584 0,-0.874819 0.7091809,-1.5839995 1.584,-1.5839995 0.874819,0 1.584,0.7091805 1.584,1.5839995 z" transform="matrix(0,1.25,1.25,0,577.04146,193.19272)"/>
     <circle  cx="4.3200002" cy="11.52" style="fill:none;stroke:#ffbf00;stroke-width:1.15199995" r="1.584" id="connector1pad-0-12" d="m 5.9040002,11.52 c 0,0.874819 -0.709181,1.584 -1.584,1.584 -0.8748191,0 -1.584,-0.709181 -1.584,-1.584 0,-0.874819 0.7091809,-1.5839995 1.584,-1.5839995 0.874819,0 1.584,0.7091805 1.584,1.5839995 z" transform="matrix(0,1.25,1.25,0,568.04161,193.19272)"/>
     <circle  cx="4.3200002" cy="11.52" style="fill:none;stroke:#ffbf00;stroke-width:1.15199995" r="1.584" id="connector1pad-4-5-9" d="m 5.9040002,11.52 c 0,0.874819 -0.709181,1.584 -1.584,1.584 -0.8748191,0 -1.584,-0.709181 -1.584,-1.584 0,-0.874819 0.7091809,-1.5839995 1.584,-1.5839995 0.874819,0 1.584,0.7091805 1.584,1.5839995 z" transform="matrix(0,1.25,1.25,0,559.04176,193.19272)"/>
     <circle  cx="4.3200002" cy="11.52" style="fill:none;stroke:#ffbf00;stroke-width:1.15199995" r="1.584" id="connector1pad-47-4" d="m 5.9040002,11.52 c 0,0.874819 -0.709181,1.584 -1.584,1.584 -0.8748191,0 -1.584,-0.709181 -1.584,-1.584 0,-0.874819 0.7091809,-1.5839995 1.584,-1.5839995 0.874819,0 1.584,0.7091805 1.584,1.5839995 z" transform="matrix(0,1.25,1.25,0,550.04192,193.19272)"/>
     <circle  cx="4.3200002" cy="11.52" style="fill:none;stroke:#ffbf00;stroke-width:1.15199995" r="1.584" id="connector1pad-4-2-34" d="m 5.9040002,11.52 c 0,0.874819 -0.709181,1.584 -1.584,1.584 -0.8748191,0 -1.584,-0.709181 -1.584,-1.584 0,-0.874819 0.7091809,-1.5839995 1.584,-1.5839995 0.874819,0 1.584,0.7091805 1.584,1.5839995 z" transform="matrix(0,1.25,1.25,0,541.04207,193.19272)"/>
     <circle  cx="4.3200002" cy="11.52" style="fill:none;stroke:#ffbf00;stroke-width:1.15199995" r="1.584" id="connector1pad-0-1-1" d="m 5.9040002,11.52 c 0,0.874819 -0.709181,1.584 -1.584,1.584 -0.8748191,0 -1.584,-0.709181 -1.584,-1.584 0,-0.874819 0.7091809,-1.5839995 1.584,-1.5839995 0.874819,0 1.584,0.7091805 1.584,1.5839995 z" transform="matrix(0,1.25,1.25,0,532.04222,193.19272)"/>
     <circle  cx="4.3200002" cy="11.52" style="fill:none;stroke:#ffbf00;stroke-width:1.15199995" r="1.584" id="connector1pad-4-5-0-39" d="m 5.9040002,11.52 c 0,0.874819 -0.709181,1.584 -1.584,1.584 -0.8748191,0 -1.584,-0.709181 -1.584,-1.584 0,-0.874819 0.7091809,-1.5839995 1.584,-1.5839995 0.874819,0 1.584,0.7091805 1.584,1.5839995 z" transform="matrix(0,1.25,1.25,0,523.04237,193.19272)"/>
     <circle  cx="4.3200002" cy="11.52" style="fill:none;stroke:#ffbf00;stroke-width:1.15199995" r="1.584" id="connector1pad-4-2-3-6" d="m 5.9040002,11.52 c 0,0.874819 -0.709181,1.584 -1.584,1.584 -0.8748191,0 -1.584,-0.709181 -1.584,-1.584 0,-0.874819 0.7091809,-1.5839995 1.584,-1.5839995 0.874819,0 1.584,0.7091805 1.584,1.5839995 z" transform="matrix(0,1.25,1.25,0,514.04253,193.19272)"/>
     <circle  cx="4.3200002" cy="11.52" style="fill:none;stroke:#ffbf00;stroke-width:1.15199995" r="1.584" id="connector1pad-0-1-9-9" d="m 5.9040002,11.52 c 0,0.874819 -0.709181,1.584 -1.584,1.584 -0.8748191,0 -1.584,-0.709181 -1.584,-1.584 0,-0.874819 0.7091809,-1.5839995 1.584,-1.5839995 0.874819,0 1.584,0.7091805 1.584,1.5839995 z" transform="matrix(0,1.25,1.25,0,505.04268,193.19272)"/>
     <circle  cx="4.3200002" cy="11.52" style="fill:none;stroke:#ffbf00;stroke-width:1.15199995" r="1.584" id="connector1pad-4-5-0-3-1" d="m 5.9040002,11.52 c 0,0.874819 -0.709181,1.584 -1.584,1.584 -0.8748191,0 -1.584,-0.709181 -1.584,-1.584 0,-0.874819 0.7091809,-1.5839995 1.584,-1.5839995 0.874819,0 1.584,0.7091805 1.584,1.5839995 z" transform="matrix(0,1.25,1.25,0,496.04284,193.19272)"/>
     <line  style="fill:none;stroke:#ffffff;stroke-width:0.71999991;stroke-linecap:round" id="line72110" y1="194.13496" y2="194.13496" x1="562.21143" x2="566.71143"/>
     <line  style="fill:none;stroke:#ffffff;stroke-width:0.71999991;stroke-linecap:round" id="line72112" y1="194.13496" y2="196.38496" x1="566.71143" x2="568.96143"/>
     <line  style="fill:none;stroke:#ffffff;stroke-width:0.71999991;stroke-linecap:round" id="line72114" y1="200.88496" y2="203.13496" x1="568.96143" x2="566.71143"/>
     <line  style="fill:none;stroke:#ffffff;stroke-width:0.71999991;stroke-linecap:round" id="line72116" y1="196.38496" y2="194.13496" x1="550.96143" x2="553.21143"/>
     <line  style="fill:none;stroke:#ffffff;stroke-width:0.71999991;stroke-linecap:round" id="line72118" y1="194.13496" y2="194.13496" x1="553.21143" x2="557.71143"/>
     <line  style="fill:none;stroke:#ffffff;stroke-width:0.71999991;stroke-linecap:round" id="line72120" y1="194.13496" y2="196.38496" x1="557.71143" x2="559.96143"/>
     <line  style="fill:none;stroke:#ffffff;stroke-width:0.71999991;stroke-linecap:round" id="line72122" y1="200.88496" y2="203.13496" x1="559.96143" x2="557.71143"/>
     <line  style="fill:none;stroke:#ffffff;stroke-width:0.71999991;stroke-linecap:round" id="line72124" y1="203.13496" y2="203.13496" x1="557.71143" x2="553.21143"/>
     <line  style="fill:none;stroke:#ffffff;stroke-width:0.71999991;stroke-linecap:round" id="line72126" y1="203.13496" y2="200.88496" x1="553.21143" x2="550.96143"/>
     <line  style="fill:none;stroke:#ffffff;stroke-width:0.71999991;stroke-linecap:round" id="line72128" y1="194.13496" y2="196.38496" x1="562.21143" x2="559.96143"/>
     <line  style="fill:none;stroke:#ffffff;stroke-width:0.71999991;stroke-linecap:round" id="line72130" y1="200.88496" y2="203.13496" x1="559.96143" x2="562.21143"/>
     <line  style="fill:none;stroke:#ffffff;stroke-width:0.71999991;stroke-linecap:round" id="line72132" y1="203.13496" y2="203.13496" x1="566.71143" x2="562.21143"/>
     <line  style="fill:none;stroke:#ffffff;stroke-width:0.71999991;stroke-linecap:round" id="line72134" y1="194.13496" y2="194.13496" x1="535.21143" x2="539.71143"/>
     <line  style="fill:none;stroke:#ffffff;stroke-width:0.71999991;stroke-linecap:round" id="line72136" y1="194.13496" y2="196.38496" x1="539.71143" x2="541.96143"/>
     <line  style="fill:none;stroke:#ffffff;stroke-width:0.71999991;stroke-linecap:round" id="line72138" y1="200.88496" y2="203.13496" x1="541.96143" x2="539.71143"/>
     <line  style="fill:none;stroke:#ffffff;stroke-width:0.71999991;stroke-linecap:round" id="line72140" y1="196.38496" y2="194.13496" x1="541.96143" x2="544.21143"/>
     <line  style="fill:none;stroke:#ffffff;stroke-width:0.71999991;stroke-linecap:round" id="line72142" y1="194.13496" y2="194.13496" x1="544.21143" x2="548.71143"/>
     <line  style="fill:none;stroke:#ffffff;stroke-width:0.71999991;stroke-linecap:round" id="line72144" y1="194.13496" y2="196.38496" x1="548.71143" x2="550.96143"/>
     <line  style="fill:none;stroke:#ffffff;stroke-width:0.71999991;stroke-linecap:round" id="line72146" y1="200.88496" y2="203.13496" x1="550.96143" x2="548.71143"/>
     <line  style="fill:none;stroke:#ffffff;stroke-width:0.71999991;stroke-linecap:round" id="line72148" y1="203.13496" y2="203.13496" x1="548.71143" x2="544.21143"/>
     <line  style="fill:none;stroke:#ffffff;stroke-width:0.71999991;stroke-linecap:round" id="line72150" y1="203.13496" y2="200.88496" x1="544.21143" x2="541.96143"/>
     <line  style="fill:none;stroke:#ffffff;stroke-width:0.71999991;stroke-linecap:round" id="line72152" y1="196.38496" y2="194.13496" x1="523.96143" x2="526.21143"/>
     <line  style="fill:none;stroke:#ffffff;stroke-width:0.71999991;stroke-linecap:round" id="line72154" y1="194.13496" y2="194.13496" x1="526.21143" x2="530.71143"/>
     <line  style="fill:none;stroke:#ffffff;stroke-width:0.71999991;stroke-linecap:round" id="line72156" y1="194.13496" y2="196.38496" x1="530.71143" x2="532.96143"/>
     <line  style="fill:none;stroke:#ffffff;stroke-width:0.71999991;stroke-linecap:round" id="line72158" y1="200.88496" y2="203.13496" x1="532.96143" x2="530.71143"/>
     <line  style="fill:none;stroke:#ffffff;stroke-width:0.71999991;stroke-linecap:round" id="line72160" y1="203.13496" y2="203.13496" x1="530.71143" x2="526.21143"/>
     <line  style="fill:none;stroke:#ffffff;stroke-width:0.71999991;stroke-linecap:round" id="line72162" y1="203.13496" y2="200.88496" x1="526.21143" x2="523.96143"/>
     <line  style="fill:none;stroke:#ffffff;stroke-width:0.71999991;stroke-linecap:round" id="line72164" y1="194.13496" y2="196.38496" x1="535.21143" x2="532.96143"/>
     <line  style="fill:none;stroke:#ffffff;stroke-width:0.71999991;stroke-linecap:round" id="line72166" y1="200.88496" y2="203.13496" x1="532.96143" x2="535.21143"/>
     <line  style="fill:none;stroke:#ffffff;stroke-width:0.71999991;stroke-linecap:round" id="line72168" y1="203.13496" y2="203.13496" x1="539.71143" x2="535.21143"/>
     <line  style="fill:none;stroke:#ffffff;stroke-width:0.71999991;stroke-linecap:round" id="line72170" y1="194.13496" y2="194.13496" x1="508.2114" x2="512.71143"/>
     <line  style="fill:none;stroke:#ffffff;stroke-width:0.71999991;stroke-linecap:round" id="line72172" y1="194.13496" y2="196.38496" x1="512.71143" x2="514.96143"/>
     <line  style="fill:none;stroke:#ffffff;stroke-width:0.71999991;stroke-linecap:round" id="line72174" y1="200.88496" y2="203.13496" x1="514.96143" x2="512.71143"/>
     <line  style="fill:none;stroke:#ffffff;stroke-width:0.71999991;stroke-linecap:round" id="line72176" y1="196.38496" y2="194.13496" x1="514.96143" x2="517.21143"/>
     <line  style="fill:none;stroke:#ffffff;stroke-width:0.71999991;stroke-linecap:round" id="line72178" y1="194.13496" y2="194.13496" x1="517.21143" x2="521.71143"/>
     <line  style="fill:none;stroke:#ffffff;stroke-width:0.71999991;stroke-linecap:round" id="line72180" y1="194.13496" y2="196.38496" x1="521.71143" x2="523.96143"/>
     <line  style="fill:none;stroke:#ffffff;stroke-width:0.71999991;stroke-linecap:round" id="line72182" y1="200.88496" y2="203.13496" x1="523.96143" x2="521.71143"/>
     <line  style="fill:none;stroke:#ffffff;stroke-width:0.71999991;stroke-linecap:round" id="line72184" y1="203.13496" y2="203.13496" x1="521.71143" x2="517.21143"/>
     <line  style="fill:none;stroke:#ffffff;stroke-width:0.71999991;stroke-linecap:round" id="line72186" y1="203.13496" y2="200.88496" x1="517.21143" x2="514.96143"/>
     <line  style="fill:none;stroke:#ffffff;stroke-width:0.71999991;stroke-linecap:round" id="line72188" y1="196.38496" y2="200.88496" x1="505.9614" x2="505.9614"/>
     <line  style="fill:none;stroke:#ffffff;stroke-width:0.71999991;stroke-linecap:round" id="line72190" y1="194.13496" y2="196.38496" x1="508.2114" x2="505.9614"/>
     <line  style="fill:none;stroke:#ffffff;stroke-width:0.71999991;stroke-linecap:round" id="line72192" y1="200.88496" y2="203.13496" x1="505.9614" x2="508.2114"/>
     <line  style="fill:none;stroke:#ffffff;stroke-width:0.71999991;stroke-linecap:round" id="line72194" y1="203.13496" y2="203.13496" x1="512.71143" x2="508.2114"/>
     <line  style="fill:none;stroke:#ffffff;stroke-width:0.71999991;stroke-linecap:round" id="line72196" y1="194.13496" y2="194.13496" x1="571.21143" x2="575.71143"/>
     <line  style="fill:none;stroke:#ffffff;stroke-width:0.71999991;stroke-linecap:round" id="line72198" y1="194.13496" y2="196.38496" x1="575.71143" x2="577.96143"/>
     <line  style="fill:none;stroke:#ffffff;stroke-width:0.71999991;stroke-linecap:round" id="line72202" y1="200.88496" y2="203.13496" x1="577.96143" x2="575.71143"/>
     <line  style="fill:none;stroke:#ffffff;stroke-width:0.71999991;stroke-linecap:round" id="line72204" y1="194.13496" y2="196.38496" x1="571.21143" x2="568.96143"/>
     <line  style="fill:none;stroke:#ffffff;stroke-width:0.71999991;stroke-linecap:round" id="line72206" y1="200.88496" y2="203.13496" x1="568.96143" x2="571.21143"/>
     <line  style="fill:none;stroke:#ffffff;stroke-width:0.71999991;stroke-linecap:round" id="line72208" y1="203.13496" y2="203.13496" x1="575.71143" x2="571.21143"/>
     <line  style="fill:none;stroke:#ffffff;stroke-width:0.71999991;stroke-linecap:round" id="line72110-9-1" y1="194.05049" y2="194.05049" x1="598.17255" x2="602.67255"/>
     <line  style="fill:none;stroke:#ffffff;stroke-width:0.71999991;stroke-linecap:round" id="line72112-3-5" y1="194.05049" y2="196.30049" x1="602.67255" x2="604.92255"/>
     <line  style="fill:none;stroke:#ffffff;stroke-width:0.71999991;stroke-linecap:round" id="line72114-5-2" y1="200.80049" y2="203.05049" x1="604.92255" x2="602.67255"/>
     <line  style="fill:none;stroke:#ffffff;stroke-width:0.71999991;stroke-linecap:round" id="line72116-4-2" y1="196.30049" y2="194.05049" x1="586.92255" x2="589.17255"/>
     <line  style="fill:none;stroke:#ffffff;stroke-width:0.71999991;stroke-linecap:round" id="line72118-2-9" y1="194.05049" y2="194.05049" x1="589.17255" x2="593.67255"/>
     <line  style="fill:none;stroke:#ffffff;stroke-width:0.71999991;stroke-linecap:round" id="line72120-7-0" y1="194.05049" y2="196.30049" x1="593.67255" x2="595.92255"/>
     <line  style="fill:none;stroke:#ffffff;stroke-width:0.71999991;stroke-linecap:round" id="line72122-2-5" y1="200.80049" y2="203.05049" x1="595.92255" x2="593.67255"/>
     <line  style="fill:none;stroke:#ffffff;stroke-width:0.71999991;stroke-linecap:round" id="line72124-6-1" y1="203.05049" y2="203.05049" x1="593.67255" x2="589.17255"/>
     <line  style="fill:none;stroke:#ffffff;stroke-width:0.71999991;stroke-linecap:round" id="line72126-7-8" y1="203.05049" y2="200.80049" x1="589.17255" x2="586.92255"/>
     <line  style="fill:none;stroke:#ffffff;stroke-width:0.71999991;stroke-linecap:round" id="line72128-2-3" y1="194.05049" y2="196.30049" x1="598.17255" x2="595.92255"/>
     <line  style="fill:none;stroke:#ffffff;stroke-width:0.71999991;stroke-linecap:round" id="line72130-2-6" y1="200.80049" y2="203.05049" x1="595.92255" x2="598.17255"/>
     <line  style="fill:none;stroke:#ffffff;stroke-width:0.71999991;stroke-linecap:round" id="line72132-0-8" y1="203.05049" y2="203.05049" x1="602.67255" x2="598.17255"/>
     <line  style="fill:none;stroke:#ffffff;stroke-width:0.71999991;stroke-linecap:round" id="line72140-5-8" y1="196.30049" y2="194.05049" x1="577.92255" x2="580.17255"/>
     <line  style="fill:none;stroke:#ffffff;stroke-width:0.71999991;stroke-linecap:round" id="line72142-9-6" y1="194.05049" y2="194.05049" x1="580.17255" x2="584.67255"/>
     <line  style="fill:none;stroke:#ffffff;stroke-width:0.71999991;stroke-linecap:round" id="line72144-1-1" y1="194.05049" y2="196.30049" x1="584.67255" x2="586.92255"/>
     <line  style="fill:none;stroke:#ffffff;stroke-width:0.71999991;stroke-linecap:round" id="line72146-8-6" y1="200.80049" y2="203.05049" x1="586.92255" x2="584.67255"/>
     <line  style="fill:none;stroke:#ffffff;stroke-width:0.71999991;stroke-linecap:round" id="line72148-1-6" y1="203.05049" y2="203.05049" x1="584.67255" x2="580.17255"/>
     <line  style="fill:none;stroke:#ffffff;stroke-width:0.71999991;stroke-linecap:round" id="line72150-7-7" y1="203.05049" y2="200.80049" x1="580.17255" x2="577.92255"/>
     <line  style="fill:none;stroke:#ffffff;stroke-width:0.71999991;stroke-linecap:round" id="line72196-2-0" y1="194.05049" y2="194.05049" x1="607.17255" x2="611.67255"/>
     <line  style="fill:none;stroke:#ffffff;stroke-width:0.71999991;stroke-linecap:round" id="line72198-1-4" y1="194.05049" y2="196.30049" x1="611.67255" x2="613.92255"/>
     <line  style="fill:none;stroke:#ffffff;stroke-width:0.71999991;stroke-linecap:round" id="line72200-9" y1="196.30049" y2="200.80049" x1="613.92255" x2="613.92255"/>
     <line  style="fill:none;stroke:#ffffff;stroke-width:0.71999991;stroke-linecap:round" id="line72202-6-8" y1="200.80049" y2="203.05049" x1="613.92255" x2="611.67255"/>
     <line  style="fill:none;stroke:#ffffff;stroke-width:0.71999991;stroke-linecap:round" id="line72204-1-9" y1="194.05049" y2="196.30049" x1="607.17255" x2="604.92255"/>
     <line  style="fill:none;stroke:#ffffff;stroke-width:0.71999991;stroke-linecap:round" id="line72206-1-4" y1="200.80049" y2="203.05049" x1="604.92255" x2="607.17255"/>
     <line  style="fill:none;stroke:#ffffff;stroke-width:0.71999991;stroke-linecap:round" id="line72208-5-9" y1="203.05049" y2="203.05049" x1="611.67255" x2="607.17255"/>
    </g>
    <g style="font-size:4px;font-style:normal;font-variant:normal;font-weight:normal;font-stretch:normal;line-height:125%;letter-spacing:0px;word-spacing:0px;fill:#ffffff;fill-opacity:1;stroke:none;font-family:OCRA;-inkscape-font-specification:OCRA" id="text46769" xml:space="preserve">
     <text x="46.46701" y="774.44391" id="tspan46771">0</text>
    </g>
    <g style="font-size:4px;font-style:normal;font-variant:normal;font-weight:normal;font-stretch:normal;line-height:125%;letter-spacing:0px;word-spacing:0px;fill:#ffffff;fill-opacity:1;stroke:none;font-family:OCRA;-inkscape-font-specification:OCRA" id="text46773" xml:space="preserve">
     <text x="55.666458" y="774.44391" id="tspan46775">1</text>
    </g>
    <g style="font-size:4px;font-style:normal;font-variant:normal;font-weight:normal;font-stretch:normal;line-height:125%;letter-spacing:0px;word-spacing:0px;fill:#ffffff;fill-opacity:1;stroke:none;font-family:OCRA;-inkscape-font-specification:OCRA" id="text46777" xml:space="preserve">
     <text x="64.865921" y="774.44391" id="tspan46779">2</text>
    </g>
    <g style="font-size:4px;font-style:normal;font-variant:normal;font-weight:normal;font-stretch:normal;line-height:125%;letter-spacing:0px;word-spacing:0px;fill:#ffffff;fill-opacity:1;stroke:none;font-family:OCRA;-inkscape-font-specification:OCRA" id="text46781" xml:space="preserve">
     <text x="74.065369" y="774.44391" id="tspan46783">3</text>
    </g>
    <g style="font-size:4px;font-style:normal;font-variant:normal;font-weight:normal;font-stretch:normal;line-height:125%;letter-spacing:0px;word-spacing:0px;fill:#ffffff;fill-opacity:1;stroke:none;font-family:OCRA;-inkscape-font-specification:OCRA" id="text46785" xml:space="preserve">
     <text x="83.164841" y="774.44391" id="tspan46787">4</text>
    </g>
    <g style="font-size:4px;font-style:normal;font-variant:normal;font-weight:normal;font-stretch:normal;line-height:125%;letter-spacing:0px;word-spacing:0px;fill:#ffffff;fill-opacity:1;stroke:none;font-family:OCRA;-inkscape-font-specification:OCRA" id="text46789" xml:space="preserve">
     <text x="92.464264" y="774.44391" id="tspan46791">5</text>
    </g>
    <g style="font-size:4px;font-style:normal;font-variant:normal;font-weight:normal;font-stretch:normal;line-height:125%;letter-spacing:0px;word-spacing:0px;fill:#ffffff;fill-opacity:1;stroke:none;font-family:OCRA;-inkscape-font-specification:OCRA" id="text46793" xml:space="preserve">
     <text x="101.66373" y="774.44391" id="tspan46795">6</text>
    </g>
    <g style="font-size:4px;font-style:normal;font-variant:normal;font-weight:normal;font-stretch:normal;line-height:125%;letter-spacing:0px;word-spacing:0px;fill:#ffffff;fill-opacity:1;stroke:none;font-family:OCRA;-inkscape-font-specification:OCRA" id="text46797" xml:space="preserve">
     <text x="110.86317" y="774.44391" id="tspan46799">7</text>
    </g>
    <g style="font-size:4px;font-style:normal;font-variant:normal;font-weight:normal;font-stretch:normal;line-height:125%;letter-spacing:0px;word-spacing:0px;fill:#ffffff;fill-opacity:1;stroke:none;font-family:OCRA;-inkscape-font-specification:OCRA" id="text46801" xml:space="preserve">
     <text x="129.26207" y="774.44391" id="tspan46803">9</text>
    </g>
    <g style="font-size:4px;font-style:normal;font-variant:normal;font-weight:normal;font-stretch:normal;line-height:125%;letter-spacing:0px;word-spacing:0px;fill:#ffffff;fill-opacity:1;stroke:none;font-family:OCRA;-inkscape-font-specification:OCRA" id="text46805" xml:space="preserve">
     <text x="137.02011" y="774.44391" id="tspan46807">10</text>
    </g>
    <g style="font-size:4px;font-style:normal;font-variant:normal;font-weight:normal;font-stretch:normal;line-height:125%;letter-spacing:0px;word-spacing:0px;fill:#ffffff;fill-opacity:1;stroke:none;font-family:OCRA;-inkscape-font-specification:OCRA" id="text46809" xml:space="preserve">
     <text x="146.21957" y="774.44391" id="tspan46811">11</text>
    </g>
    <g style="font-size:4px;font-style:normal;font-variant:normal;font-weight:normal;font-stretch:normal;line-height:125%;letter-spacing:0px;word-spacing:0px;fill:#ffffff;fill-opacity:1;stroke:none;font-family:OCRA;-inkscape-font-specification:OCRA" id="text46813" xml:space="preserve">
     <text x="120.06262" y="774.44391" id="tspan46815">8</text>
    </g>
   </g>
   <g  id="g47395" transform="translate(-20.708127,122.73354)">
    <path  style="fill:#333333;fill-opacity:1;stroke:none" id="rect46959" d="m 53.1875,674.8125 c -5.20111,0 -9.40625,3.16549 -9.40625,7.09375 l 0,31.90625 c 0,3.92826 4.20514,7.09375 9.40625,7.09375 l 27.28125,0 c 5.20111,0 9.375,-3.16549 9.375,-7.09375 l 0,-31.90625 c 0,-3.92826 -4.17389,-7.09375 -9.375,-7.09375 l -27.28125,0 z m 7.34375,10.59375 7.90625,0 0,21.6875 3.09375,0 0,-6.4375 c -1.6e-5,-0.49088 0.129541,-0.89973 0.375,-1.1875 0.245426,-0.28775 0.642561,-0.43749 1.21875,-0.4375 0.576153,10e-6 1.004864,0.16017 1.25,0.4375 0.245098,0.27735 0.343731,0.67579 0.34375,1.1875 l 0,8.0625 c -1.9e-5,0.5332 -0.128274,0.9209 -0.4375,1.1875 -0.309263,0.2666 -0.708352,0.40625 -1.15625,0.40625 l -12.59375,0 c -0.469406,0 -0.857752,-0.11914 -1.15625,-0.375 -0.298506,-0.25586 -0.437504,-0.66406 -0.4375,-1.21875 -4e-6,-0.53385 0.128251,-0.95215 0.4375,-1.21875 0.30924,-0.2666 0.708329,-0.40625 1.15625,-0.40625 l 4.6875,0 0,-18.46875 -4.6875,0 c -0.469406,2e-5 -0.857752,-0.15037 -1.15625,-0.40625 -0.298506,-0.25584 -0.437504,-0.66404 -0.4375,-1.21875 -4e-6,-0.53318 0.128251,-0.92055 0.4375,-1.1875 0.30924,-0.2669 0.708329,-0.40623 1.15625,-0.40625 z"/>
    <path  style="fill:#333333;fill-opacity:1;stroke:none" id="rect46959-9" d="m 106.03125,674.8125 c -5.20111,0 -9.40625,3.16549 -9.40625,7.09375 l 0,31.90625 c 0,3.92826 4.20514,7.09375 9.40625,7.09375 l 27.28125,0 c 5.20111,0 9.40625,-3.16549 9.40625,-7.09375 l 0,-31.90625 c 0,-3.92826 -4.20514,-7.09375 -9.40625,-7.09375 l -27.28125,0 z m 7.34375,10.59375 10.625,0 c 0.57616,2e-5 1.05337,0.07 1.4375,0.1875 0.3841,0.11754 0.7617,0.3454 1.15625,0.71875 0.39451,0.3734 0.6533,0.77151 0.78125,1.1875 0.12791,0.41604 0.18748,0.97398 0.1875,1.65625 l 0,6.5625 c -2e-5,0.66147 -0.0596,1.19858 -0.1875,1.625 -0.12795,0.42644 -0.3659,0.82488 -0.75,1.1875 -0.38413,0.36264 -0.80275,0.62176 -1.21875,0.75 -0.41603,0.12827 -0.87306,0.18751 -1.40625,0.1875 l -9.03125,0 0,7.625 11,0 c 0.46938,0 0.85773,0.15007 1.15625,0.40625 0.29848,0.25619 0.43748,0.66406 0.4375,1.21875 -2e-5,0.5332 -0.12827,0.9209 -0.4375,1.1875 -0.30926,0.2666 -0.70835,0.40625 -1.15625,0.40625 l -14.1875,0 0,-10.4375 c 0,-2.41079 1.18294,-3.62499 3.59375,-3.625 l 9,0 0,-7.625 -11,0 c -0.46941,2e-5 -0.85775,-0.15037 -1.15625,-0.40625 -0.29851,-0.25584 -0.4375,-0.66404 -0.4375,-1.21875 0,-0.53318 0.12825,-0.92055 0.4375,-1.1875 0.30924,-0.2669 0.70833,-0.40623 1.15625,-0.40625 z"/>
    <path  style="fill:#333333;fill-opacity:1;stroke:none" id="rect46959-3" d="m 158.875,674.8125 c -5.20111,0 -9.375,3.16549 -9.375,7.09375 l 0,31.90625 c 0,3.92826 4.17389,7.09375 9.375,7.09375 l 27.28125,0 c 5.20111,0 9.40625,-3.16549 9.40625,-7.09375 l 0,-31.90625 c 0,-3.92826 -4.20514,-7.09375 -9.40625,-7.09375 l -27.28125,0 z m 7.34375,10.59375 11,0 c 0.9173,2e-5 1.67316,0.2982 2.28125,0.90625 0.60805,0.6081 0.90623,1.3952 0.90625,2.3125 l 0,6.125 c -2e-5,0.72528 -0.0589,1.3021 -0.21875,1.75 -0.15985,0.44793 -0.48765,0.89585 -1,1.34375 0.46938,0.4271 0.78742,0.89519 0.96875,1.375 0.1813,0.47983 0.24998,1.06707 0.25,1.75 l 0,6.125 c -2e-5,0.91732 -0.2982,1.70443 -0.90625,2.3125 -0.60809,0.60807 -1.36395,0.90625 -2.28125,0.90625 l -11,0 c -0.46941,0 -0.85775,-0.11914 -1.15625,-0.375 -0.29851,-0.25586 -0.4375,-0.66406 -0.4375,-1.21875 0,-0.53385 0.12825,-0.95215 0.4375,-1.21875 0.30924,-0.2666 0.70833,-0.40625 1.15625,-0.40625 l 11,0 0,-5.3125 c -2e-5,-0.83202 -0.14976,-1.41861 -0.4375,-1.78125 -0.28778,-0.36262 -0.66538,-0.53124 -1.15625,-0.53125 l -6.28125,0 c -0.46876,10e-6 -0.85743,-0.15005 -1.15625,-0.40625 -0.29884,-0.25617 -0.43751,-0.66405 -0.4375,-1.21875 -1e-5,-0.53319 0.1595,-0.92089 0.46875,-1.1875 0.30924,-0.26659 0.67708,-0.40624 1.125,-0.40625 l 6.28125,0 c 0.49087,10e-6 0.86847,-0.16861 1.15625,-0.53125 0.28774,-0.36262 0.43748,-0.9492 0.4375,-1.78125 l 0,-5.3125 -11,0 c -0.46941,2e-5 -0.85775,-0.15037 -1.15625,-0.40625 -0.29851,-0.25584 -0.4375,-0.66404 -0.4375,-1.21875 0,-0.53318 0.12825,-0.92055 0.4375,-1.1875 0.30924,-0.2669 0.70833,-0.40623 1.15625,-0.40625 z"/>
    <path  style="fill:#333333;fill-opacity:1;stroke:none" id="rect46959-7" d="m 53.1875,726.84375 c -5.20111,0 -9.40625,3.16549 -9.40625,7.09375 l 0,31.875 c 0,3.92826 4.20514,7.09375 9.40625,7.09375 l 27.28125,0 c 5.20111,0 9.375,-3.16549 9.375,-7.09375 l 0,-31.875 c 0,-3.92826 -4.17389,-7.09375 -9.375,-7.09375 l -27.28125,0 z m 8.125,10.5625 c 0.55468,2e-5 0.962883,0.16995 1.21875,0.46875 0.255851,0.29885 0.406242,0.68687 0.40625,1.15625 l 0,11.96875 6.1875,0 0,-9.25 c -1.5e-5,-0.46938 0.129543,-0.85773 0.375,-1.15625 0.245427,-0.29848 0.643214,-0.43748 1.21875,-0.4375 0.554671,2e-5 0.962548,0.13902 1.21875,0.4375 0.256167,0.29852 0.406232,0.68687 0.40625,1.15625 l 0,9.25 c 0.469383,10e-6 0.826479,0.11883 1.125,0.375 0.298483,0.2562 0.468731,0.66407 0.46875,1.21875 -1.9e-5,0.53321 -0.159524,0.92091 -0.46875,1.1875 -0.309263,0.26661 -0.677102,0.40626 -1.125,0.40625 l 0,6.53125 c -1.8e-5,1.06641 -0.55796,1.59375 -1.625,1.59375 -1.066421,0 -1.593765,-0.52734 -1.59375,-1.59375 l 0,-6.53125 -9.40625,0 0,-15.15625 c -5e-6,-0.46938 0.129552,-0.8574 0.375,-1.15625 0.245437,-0.2988 0.642572,-0.46873 1.21875,-0.46875 z"/>
    <path  style="fill:#333333;fill-opacity:1;stroke:none" id="rect46959-77" d="m 106.03125,726.84375 c -5.20111,0 -9.40625,3.16549 -9.40625,7.09375 l 0,31.875 c 0,3.92826 4.20514,7.09375 9.40625,7.09375 l 27.28125,0 c 5.20111,0 9.40625,-3.16549 9.40625,-7.09375 l 0,-31.875 c 0,-3.92826 -4.20514,-7.09375 -9.40625,-7.09375 l -27.28125,0 z m 8.90625,10.5625 11.03125,0 c 0.46938,2e-5 0.85773,0.15009 1.15625,0.40625 0.29848,0.25621 0.43748,0.66409 0.4375,1.21875 -2e-5,0.53323 -0.12827,0.92092 -0.4375,1.1875 -0.30926,0.26662 -0.70835,0.40627 -1.15625,0.40625 l -7.84375,0 0,7.65625 5.90625,0 c 0.57616,10e-6 1.03286,0.0391 1.40625,0.15625 0.37335,0.1172 0.7617,0.37664 1.15625,0.75 0.39451,0.37339 0.6533,0.76141 0.78125,1.15625 0.12791,0.39487 0.18748,0.89129 0.1875,1.53125 l 0,6.84375 c -2e-5,0.55469 -0.029,1.04362 -0.125,1.40625 -0.0961,0.36263 -0.31512,0.71973 -0.65625,1.125 -0.34116,0.40527 -0.74025,0.69434 -1.15625,0.84375 -0.41603,0.14941 -0.93231,0.21875 -1.59375,0.21875 l -7.125,0 c -0.36264,0 -0.67026,-0.029 -0.96875,-0.125 -0.29851,-0.096 -0.67709,-0.24544 -1.125,-0.4375 l -1.21875,-0.5625 c -0.70443,-0.31966 -1.18164,-0.56868 -1.4375,-0.75 -0.25586,-0.18131 -0.375,-0.51888 -0.375,-1.03125 0,-0.42643 0.13899,-0.80501 0.4375,-1.125 0.2985,-0.31998 0.66666,-0.46875 1.09375,-0.46875 0.29817,0 0.61588,0.0794 1,0.25 l 0.96875,0.40625 c 0.34179,0.17058 0.64973,0.34082 0.9375,0.46875 0.28775,0.12793 0.53645,0.1875 0.75,0.1875 l 7.40625,0 0,-7.65625 -9.4375,0 0,-14.0625 z"/>
    <path  style="fill:#333333;fill-opacity:1;stroke:none" id="rect46959-34" d="m 158.875,726.84375 c -5.20111,0 -9.375,3.16549 -9.375,7.09375 l 0,31.875 c 0,3.92826 4.17389,7.09375 9.375,7.09375 l 27.28125,0 c 5.20111,0 9.40625,-3.16549 9.40625,-7.09375 l 0,-31.875 c 0,-3.92826 -4.20514,-7.09375 -9.40625,-7.09375 l -27.28125,0 z m 7.125,10.5625 1.90625,0 c 0.40494,2e-5 0.76366,0.17971 1.0625,0.5 0.29882,0.32034 0.43749,0.69859 0.4375,1.125 -1e-5,0.46942 -0.13868,0.85777 -0.4375,1.15625 -0.29884,0.29852 -0.68751,0.43752 -1.15625,0.4375 l 0,10.375 10.6875,0 c 0.76821,10e-6 1.27537,0.14877 1.53125,0.46875 0.25584,0.32 0.37498,0.86655 0.375,1.65625 l 0,7.1875 c -2e-5,0.7461 -0.14878,1.26367 -0.46875,1.5625 -0.32001,0.29883 -0.84702,0.4375 -1.59375,0.4375 l -11.65625,0 c -0.76823,0 -1.31576,-0.15951 -1.625,-0.46875 -0.30925,-0.30924 -0.4375,-0.80599 -0.4375,-1.53125 l 0,-21.28125 c 0,-0.46938 0.0892,-0.8574 0.28125,-1.15625 0.19205,-0.2988 0.56054,-0.46873 1.09375,-0.46875 z m 1.8125,16.78125 0,4.9375 9.40625,0 0,-4.9375 -9.40625,0 z"/>
    <path  style="fill:#333333;fill-opacity:1;stroke:none" id="rect46959-8" d="m 53.1875,778.84375 c -5.20111,0 -9.40625,3.16549 -9.40625,7.09375 l 0,31.875 c 0,3.92826 4.20514,7.09375 9.40625,7.09375 l 27.28125,0 c 5.20111,0 9.375,-3.16549 9.375,-7.09375 l 0,-31.875 c 0,-3.92826 -4.17389,-7.09375 -9.375,-7.09375 l -27.28125,0 z m 7.34375,10.59375 14.1875,0 0,9.28125 0,0.375 c -1.9e-5,0.4909 -0.0495,0.79884 -0.15625,0.9375 -0.10679,0.13869 -0.324889,0.3672 -0.6875,0.6875 l -4.5,3.875 c -0.44793,0.38347 -0.706394,0.65235 -0.78125,0.8125 -0.07488,0.16017 -0.09376,0.54884 -0.09375,1.125 l 0,6.1875 c -1.3e-5,1.06641 -0.558606,1.625 -1.625,1.625 -1.066417,0 -1.59376,-0.55859 -1.59375,-1.625 l 0,-7.6875 c -1e-5,-0.55468 0.02994,-0.93358 0.09375,-1.09375 0.06379,-0.16015 0.322906,-0.41861 0.75,-0.78125 l 4.40625,-3.8125 c 0.511703,-0.46939 0.80044,-0.77733 0.875,-0.9375 0.07453,-0.16014 0.124984,-0.59699 0.125,-1.34375 l 0,-4.4375 -9.40625,0 c -7e-6,0.38414 -0.138679,0.7523 -0.4375,1.09375 -0.298834,0.34149 -0.686855,0.50002 -1.15625,0.5 -0.490239,2e-5 -0.899418,-0.138 -1.1875,-0.46875 -0.28809,-0.33071 -0.406254,-0.71938 -0.40625,-1.125 l 0,-1.59375 c -4e-6,-0.38409 0.138994,-0.75225 0.4375,-1.09375 0.298498,-0.34145 0.686844,-0.49998 1.15625,-0.5 z"/>
    <path  style="fill:#333333;fill-opacity:1;stroke:none" id="rect46959-4" d="m 106.03125,778.84375 c -5.20111,0 -9.40625,3.16549 -9.40625,7.09375 l 0,31.875 c 0,3.92826 4.20514,7.09375 9.40625,7.09375 l 27.28125,0 c 5.20111,0 9.40625,-3.16549 9.40625,-7.09375 l 0,-31.875 c 0,-3.92826 -4.20514,-7.09375 -9.40625,-7.09375 l -27.28125,0 z m 10.53125,10.59375 6.21875,0 c 0.5117,2e-5 0.91014,0.1387 1.1875,0.4375 0.27733,0.29885 0.40623,0.68687 0.40625,1.15625 l 0,9.25 c 0.49087,10e-6 0.90786,0.0693 1.28125,0.21875 0.37335,0.14943 0.80207,0.44858 1.25,0.875 0.4479,0.42644 0.65623,1.12241 0.65625,2.125 l 0,7.625 c -2e-5,0.98177 -0.25783,1.76791 -0.8125,2.34375 -0.55471,0.57585 -1.35093,0.875 -2.375,0.875 l -9.40625,0 c -0.98178,0 -1.76791,-0.29915 -2.34375,-0.875 -0.57585,-0.57584 -0.84375,-1.36198 -0.84375,-2.34375 l 0,-7.625 c 0,-1.00259 0.19824,-1.70897 0.625,-2.125 0.42675,-0.416 0.82421,-0.68391 1.21875,-0.84375 0.39453,-0.15982 0.85286,-0.24999 1.34375,-0.25 l 0,-9.25 c -1e-5,-0.44789 0.13964,-0.81541 0.40625,-1.125 0.26659,-0.30955 0.65429,-0.46873 1.1875,-0.46875 z m 1.59375,3.1875 0,7.65625 3.03125,0 0,-7.65625 -3.03125,0 z m -3.1875,10.84375 0,7.65625 9.40625,0 0,-7.65625 -9.40625,0 z"/>
    <path  style="fill:#333333;fill-opacity:1;stroke:none" id="rect46959-0" d="m 158.875,778.84375 c -5.20111,0 -9.375,3.16549 -9.375,7.09375 l 0,31.875 c 0,3.92826 4.17389,7.09375 9.375,7.09375 l 27.28125,0 c 5.20111,0 9.40625,-3.16549 9.40625,-7.09375 l 0,-31.875 c 0,-3.92826 -4.20514,-7.09375 -9.40625,-7.09375 l -27.28125,0 z m 7.34375,10.59375 12.59375,0 c 0.42641,2e-5 0.80499,0.14846 1.125,0.46875 0.31997,0.32034 0.46873,0.69859 0.46875,1.125 l 0,21.6875 c -2e-5,0.44792 -0.11818,0.84701 -0.40625,1.15625 -0.2881,0.30924 -0.69728,0.46875 -1.1875,0.46875 l -1.59375,0 c -0.46942,0 -0.85776,-0.18001 -1.15625,-0.5 -0.29852,-0.31999 -0.43751,-0.69857 -0.4375,-1.125 -1e-5,-0.4694 0.13898,-0.85742 0.4375,-1.15625 0.29849,-0.29883 0.68683,-0.4375 1.15625,-0.4375 l 0,-10.3125 -11,0 c -0.42644,10e-6 -0.80502,-0.14875 -1.125,-0.46875 -0.31999,-0.31997 -0.46875,-0.69855 -0.46875,-1.125 l 0,-8.1875 c 0,-0.42641 0.13899,-0.80466 0.4375,-1.125 0.2985,-0.32029 0.68684,-0.46873 1.15625,-0.46875 z m 1.59375,3.1875 0,5 9.40625,0 0,-5 -9.40625,0 z"/>
    <path  style="fill:#333333;fill-opacity:1;stroke:none" id="rect46959-04" d="m 53.1875,830.84375 c -5.20111,0 -9.40625,3.16549 -9.40625,7.09375 l 0,31.90625 c 0,3.92826 4.20514,7.09375 9.40625,7.09375 l 27.28125,0 c 5.20111,0 9.375,-3.16549 9.375,-7.09375 l 0,-31.90625 c 0,-3.92826 -4.17389,-7.09375 -9.375,-7.09375 l -27.28125,0 z m 13.625,13.34375 c 1.067045,2e-5 1.624987,0.52737 1.625,1.59375 l 0,4.6875 3.40625,-2.9375 c 0.106754,-0.1061 0.276025,-0.25682 0.5,-0.40625 0.223941,-0.14939 0.482404,-0.21873 0.78125,-0.21875 0.447898,2e-5 0.846987,0.16929 1.15625,0.5 0.309226,0.33075 0.437481,0.74937 0.4375,1.21875 -1.9e-5,0.27736 -0.04885,0.49579 -0.1875,0.6875 -0.138691,0.19175 -0.357441,0.43101 -0.65625,0.6875 l -4.625,3.9375 4.1875,3.5625 c 0.448549,0.36264 0.797507,0.67156 1,0.90625 0.202455,0.23471 0.281231,0.53386 0.28125,0.875 -1.9e-5,0.44792 -0.128274,0.82553 -0.4375,1.15625 -0.309263,0.33073 -0.708352,0.50001 -1.15625,0.5 -0.341814,10e-6 -0.729835,-0.18033 -1.15625,-0.5 -0.27736,-0.2565 -0.455745,-0.41471 -0.5625,-0.5 l -2.96875,-2.5625 0,4.625 c -1.3e-5,1.06641 -0.557955,1.59375 -1.625,1.59375 -1.066417,0 -1.59376,-0.52734 -1.59375,-1.59375 l 0,-4.625 -2.96875,2.5625 c -0.42709,0.36264 -0.75554,0.63184 -0.96875,0.78125 -0.213222,0.14942 -0.451177,0.21876 -0.75,0.21875 -0.469406,10e-6 -0.857752,-0.18001 -1.15625,-0.5 -0.298506,-0.31998 -0.437504,-0.68684 -0.4375,-1.15625 -4e-6,-0.25585 0.05892,-0.51529 0.21875,-0.75 0.159827,-0.23469 0.497391,-0.58332 1.03125,-1.03125 l 4.21875,-3.5625 -4.625,-3.9375 c -0.277348,-0.23501 -0.47559,-0.45376 -0.625,-0.65625 -0.149418,-0.20246 -0.218754,-0.44139 -0.21875,-0.71875 -4e-6,-0.44855 0.138994,-0.84634 0.4375,-1.1875 0.298498,-0.34113 0.686844,-0.53123 1.15625,-0.53125 0.255854,2e-5 0.454096,0.0397 0.625,0.125 0.170892,0.0853 0.400384,0.26564 0.65625,0.5 l 3.40625,2.9375 0,-4.6875 c -1e-5,-1.06638 0.527333,-1.59373 1.59375,-1.59375 z"/>
    <path  style="fill:#333333;fill-opacity:1;stroke:none" id="rect46959-2" d="m 106.03125,830.84375 c -5.20111,0 -9.40625,3.16549 -9.40625,7.09375 l 0,31.90625 c 0,3.92826 4.20514,7.09375 9.40625,7.09375 l 27.28125,0 c 5.20111,0 9.40625,-3.16549 9.40625,-7.09375 l 0,-31.90625 c 0,-3.92826 -4.20514,-7.09375 -9.40625,-7.09375 l -27.28125,0 z m 8.9375,10.59375 9.40625,0 c 0.89647,2e-5 1.66274,0.31871 2.28125,0.9375 0.61847,0.61884 0.90623,1.38544 0.90625,2.28125 l 0,18.46875 c -2e-5,0.91732 -0.2982,1.70443 -0.90625,2.3125 -0.60809,0.60807 -1.36395,0.90625 -2.28125,0.90625 l -9.40625,0 c -0.89649,0 -1.66277,-0.31868 -2.28125,-0.9375 -0.61849,-0.61881 -0.90625,-1.38541 -0.90625,-2.28125 l 0,-18.46875 c 0,-0.89581 0.28776,-1.66241 0.90625,-2.28125 0.61848,-0.61879 1.38476,-0.93748 2.28125,-0.9375 z m 0,3.21875 0,18.46875 9.40625,0 0,-18.46875 -9.40625,0 z"/>
    <path  style="fill:#333333;fill-opacity:1;stroke:none" id="rect46959-6" d="m 158.875,830.84375 c -5.20111,0 -9.375,3.16549 -9.375,7.09375 l 0,31.90625 c 0,3.92826 4.17389,7.09375 9.375,7.09375 l 27.28125,0 c 5.20111,0 9.40625,-3.16549 9.40625,-7.09375 l 0,-31.90625 c 0,-3.92826 -4.20514,-7.09375 -9.40625,-7.09375 l -27.28125,0 z m 10.59375,12.96875 c 0.49023,2e-5 0.88964,0.14944 1.15625,0.4375 0.26659,0.28811 0.37499,0.85549 0.375,1.6875 l 0,3.09375 3.03125,0 0,-3.09375 c -1e-5,-0.68292 0.0895,-1.19985 0.28125,-1.5625 0.19172,-0.36261 0.61001,-0.56248 1.25,-0.5625 0.49087,2e-5 0.85838,0.14944 1.125,0.4375 0.26659,0.28811 0.40623,0.85549 0.40625,1.6875 l 0,3.09375 0.96875,0 c 0.68292,2e-5 1.19985,0.10972 1.5625,0.3125 0.36261,0.20282 0.53123,0.63153 0.53125,1.25 -2e-5,0.59767 -0.1784,0.9743 -0.5625,1.1875 -0.38413,0.21323 -0.89129,0.34377 -1.53125,0.34375 l -0.96875,0 0,3.53125 0.96875,0 c 0.68292,10e-6 1.19985,0.10971 1.5625,0.3125 0.36261,0.20281 0.53123,0.60027 0.53125,1.21875 -2e-5,0.59767 -0.1784,1.00554 -0.5625,1.21875 -0.38413,0.21322 -0.89129,0.34376 -1.53125,0.34375 l -0.96875,0 0,3.09375 c -2e-5,0.6823 -0.0892,1.19987 -0.28125,1.5625 -0.19207,0.36263 -0.61004,0.5625 -1.25,0.5625 -0.49025,0 -0.85841,-0.14941 -1.125,-0.4375 -0.26661,-0.28808 -0.40626,-0.85612 -0.40625,-1.6875 l 0,-3.09375 -3.03125,0 0,3.09375 c -1e-5,0.6823 -0.0895,1.19987 -0.28125,1.5625 -0.19174,0.36263 -0.61004,0.5625 -1.25,0.5625 -0.49089,0 -0.85841,-0.14941 -1.125,-0.4375 -0.26661,-0.28808 -0.40626,-0.85612 -0.40625,-1.6875 l 0,-3.09375 -0.96875,0 c -0.68295,10e-6 -1.19987,-0.10969 -1.5625,-0.3125 -0.36263,-0.20279 -0.53125,-0.6315 -0.53125,-1.25 0,-0.59699 0.17838,-0.97395 0.5625,-1.1875 0.38411,-0.21353 0.89127,-0.34374 1.53125,-0.34375 l 0.96875,0 0,-3.53125 -0.96875,0 c -0.68295,2e-5 -1.19987,-0.10969 -1.5625,-0.3125 -0.36263,-0.20278 -0.53125,-0.60024 -0.53125,-1.21875 0,-0.59699 0.17838,-1.00519 0.5625,-1.21875 0.38411,-0.21352 0.89127,-0.34373 1.53125,-0.34375 l 0.96875,0 0,-3.09375 c -1e-5,-0.68292 0.0895,-1.19985 0.28125,-1.5625 0.19172,-0.36261 0.60937,-0.56248 1.25,-0.5625 z M 171,852.125 l 0,3.53125 3.03125,0 0,-3.53125 -3.03125,0 z"/>
   </g>
   <path  style="font-size:15.2023344px;font-style:normal;font-variant:normal;font-weight:normal;font-stretch:normal;line-height:125%;letter-spacing:0px;word-spacing:0px;fill:#ffffff;fill-opacity:1;stroke:none;font-family:Bauhaus 93;-inkscape-font-specification:Bauhaus 93" id="tspan9117-2" d="m 102.24499,1013.7923 c -1.16957,0 -2.13611,0.3578 -2.906249,1.0313 -0.77014,0.6734 -1.15625,1.5027 -1.15625,2.5312 l 0,1 0,4.4688 0,0.8125 c 0,0.8563 -0.43054,1.2812 -1.25,1.2812 -0.34145,0 -0.63029,-0.071 -0.87499,-0.25 -0.2447,-0.1786 -0.375,-0.4067 -0.375,-0.6563 0,-0.2582 0.13883,-0.4733 0.375,-0.6562 0.23616,-0.1829 0.51368,-0.2812 0.84374,-0.2812 0.26177,0 0.51947,0.064 0.78125,0.2187 l 0,-2.6562 c -0.38128,-0.026 -0.65596,-0.031 -0.84375,-0.031 -1.18366,0 -2.22875,0.3372 -3.09374,1 -0.86499,0.6627 -1.28125,1.4357 -1.28125,2.3437 0,0.9381 0.44182,1.7295 1.3125,2.375 0.87068,0.6455 1.91847,0.9687 3.18749,0.9687 0.63736,0 1.26893,-0.1016 1.875,-0.3125 0.60606,-0.2109 1.10733,-0.4866 1.499999,-0.8437 0.68288,-0.6197 1.03124,-1.4208 1.03125,-2.4062 l 0,-0.9063 0,-2.2812 1.625,0 0,-2.375 -1.625,0 0,-1.0938 c 0,-0.5594 0.22795,-0.8437 0.71875,-0.8437 0.37071,0 0.63505,0.1643 0.78125,0.5 l 2.59375,-1.5625 c -0.86674,-0.9167 -1.9291,-1.375 -3.21875,-1.375 z"/>
   <path  style="fill:none;stroke:#b3b3b3;stroke-width:7.69135618;stroke-opacity:1" id="path51427-9" d="m 166.77056,725.92136 c -11.23631,0.3929 -20.65815,-8.55723 -21.04427,-19.99066 -0.38612,-11.43344 8.40969,-21.02057 19.646,-21.41347 11.23631,-0.39289 20.65815,8.55723 21.04427,19.99067 0.38591,11.42707 -8.40024,21.01123 -19.62999,21.4129" transform="matrix(0.32705663,0,0,0.32141407,117.38167,800.96263)"/>
   <path  style="fill:none;stroke:#b3b3b3;stroke-width:7.69135618;stroke-opacity:1" id="path51427-8" d="m 166.77056,725.92136 c -11.23631,0.3929 -20.65815,-8.55723 -21.04427,-19.99066 -0.38612,-11.43344 8.40969,-21.02057 19.646,-21.41347 11.23631,-0.39289 20.65815,8.55723 21.04427,19.99067 0.38591,11.42707 -8.40024,21.01123 -19.62999,21.4129" transform="matrix(0.32705663,0,0,0.32141407,-27.618332,800.96264)"/>
   <path  style="fill:none;stroke:#b3b3b3;stroke-width:7.69135618;stroke-opacity:1" id="path51427-86" d="m 166.77056,725.92136 c -11.23631,0.3929 -20.65815,-8.55723 -21.04427,-19.99066 -0.38612,-11.43344 8.40969,-21.02057 19.646,-21.41347 11.23631,-0.39289 20.65815,8.55723 21.04427,19.99067 0.38591,11.42707 -8.40024,21.01123 -19.62999,21.4129" transform="matrix(0.32705663,0,0,0.32141407,-27.618333,543.81977)"/>
   <path  style="fill:none;stroke:#b3b3b3;stroke-width:7.69135618;stroke-opacity:1" id="path51427-2" d="m 166.77056,725.92136 c -11.23631,0.3929 -20.65815,-8.55723 -21.04427,-19.99066 -0.38612,-11.43344 8.40969,-21.02057 19.646,-21.41347 11.23631,-0.39289 20.65815,8.55723 21.04427,19.99067 0.38591,11.42707 -8.40024,21.01123 -19.62999,21.4129" transform="matrix(0.32705663,0,0,0.32141407,117.47095,543.81977)"/>
  </g>
 </g>
</svg>
