<?xml version='1.0' encoding='UTF-8' standalone='no'?>
<!-- Created with Inkscape (http://www.inkscape.org/) -->
<svg width="204.375" version="1.1" xmlns="http://www.w3.org/2000/svg" height="199.78125" id="svg6369">
 <g id="copper0">
  <defs id="defs6371"/>
  <sodipodi:namedview fit-margin-top="0" fit-margin-left="0" showgrid="false" fit-margin-bottom="0" xmlns:sodipodi="http://sodipodi.sourceforge.net/DTD/sodipodi-0.dtd" pagecolor="#ffffff" bordercolor="#666666" id="base" borderopacity="1.0" fit-margin-right="0"/>
  <metadata id="metadata6374">
   <rdf:RDF xmlns:rdf="http://www.w3.org/1999/02/22-rdf-syntax-ns#">
    <cc:Work xmlns:rdf="http://www.w3.org/1999/02/22-rdf-syntax-ns#" xmlns:cc="http://creativecommons.org/ns#" rdf:about="">
     <dc:format xmlns:dc="http://purl.org/dc/elements/1.1/">image/svg+xml</dc:format>
     <dc:type xmlns:rdf="http://www.w3.org/1999/02/22-rdf-syntax-ns#" rdf:resource="http://purl.org/dc/dcmitype/StillImage" xmlns:dc="http://purl.org/dc/elements/1.1/"/>
     <dc:title xmlns:dc="http://purl.org/dc/elements/1.1/"/>
    </cc:Work>
   </rdf:RDF>
  </metadata>
  <g id="layer1" transform="translate(-194.691,-292.45832)">
   <g style="font-size:5px;font-style:normal;font-variant:normal;font-weight:normal;font-stretch:normal;line-height:125%;letter-spacing:0px;word-spacing:0px;fill:#000000;fill-opacity:1;stroke:none;font-family:OCRA;-inkscape-font-specification:OCRA" id="text13195" xml:space="preserve"/>
   <g style="font-size:5px;font-style:normal;font-variant:normal;font-weight:normal;font-stretch:normal;line-height:125%;letter-spacing:0px;word-spacing:0px;fill:#000000;fill-opacity:1;stroke:none;font-family:OCRA;-inkscape-font-specification:OCRA" id="text13199" xml:space="preserve"/>
   <g style="font-size:5px;font-style:normal;font-variant:normal;font-weight:normal;font-stretch:normal;line-height:125%;letter-spacing:0px;word-spacing:0px;fill:#000000;fill-opacity:1;stroke:none;font-family:OCRA;-inkscape-font-specification:OCRA" id="text13203" xml:space="preserve"/>
   <g id="g7546">
    <path style="fill:none;stroke:#ffffff;stroke-opacity:1" id="rect7795" d="m 203.15975,292.95832 -7.96875,7.125 0,122.5 10.84375,10.59375 0.125,0 0,0.125 0.53125,0.53125 -0.53125,0.53125 0,57.375 182.65625,0 0,-17.9375 1.0625,0 8.6875,-9.03125 0,-117.75 -7.875,-7.6875 0,-7.84375 -0.0625,0 0,-28.40625 -10.375,-10.125 -177.09375,0 z m 7.09375,3.40625 c 2.93361,-0.10081 5.39919,2.22264 5.5,5.15625 0.10075,2.93197 -2.19311,5.36569 -5.125,5.46875 -2.93361,0.10081 -5.39919,-2.19139 -5.5,-5.125 -0.10081,-2.93361 2.19139,-5.39919 5.125,-5.5 z m 179.875,55.25 c 2.93361,-0.10081 5.39919,2.19139 5.5,5.125 0.10075,2.93197 -2.19311,5.39694 -5.125,5.5 -2.93361,0.10081 -5.39919,-2.19139 -5.5,-5.125 -0.10081,-2.93361 2.19139,-5.39919 5.125,-5.5 z m -69.71875,3.59375 c 0.5671,0 1.03125,0.46414 1.03125,1.03125 0,0.5671 -0.46415,1.03125 -1.03125,1.03125 -0.5671,0 -1.03125,-0.46415 -1.03125,-1.03125 0,-0.56712 0.46415,-1.03125 1.03125,-1.03125 z m 5.125,0 c 0.56711,0 1.03125,0.46414 1.03125,1.03125 0,0.5671 -0.46414,1.03125 -1.03125,1.03125 -0.5671,0 -1,-0.46415 -1,-1.03125 0,-0.56712 0.4329,-1.03125 1,-1.03125 z m 5.125,0 c 0.5671,0 1.0625,0.46414 1.0625,1.03125 0,0.5671 -0.4954,1.03125 -1.0625,1.03125 -0.56711,0 -1,-0.46415 -1,-1.03125 0,-0.56712 0.43289,-1.03125 1,-1.03125 z m -83.25,6 c 0.69257,0 1.25,0.55744 1.25,1.25 0,0.69257 -0.55743,1.28125 -1.25,1.28125 -0.69256,0 -1.25,-0.58868 -1.25,-1.28125 0,-0.69256 0.55744,-1.25 1.25,-1.25 z m 0,6.28125 c 0.69257,0 1.25,0.55744 1.25,1.25 0,0.69257 -0.55743,1.25 -1.25,1.25 -0.69256,0 -1.25,-0.55743 -1.25,-1.25 0,-0.69256 0.55744,-1.25 1.25,-1.25 z m -0.25,6.28125 c 0.0819,-0.0163 0.16343,0 0.25,0 0.69257,0 1.25,0.52618 1.25,1.21875 0,0.69256 -0.55743,1.28125 -1.25,1.28125 -0.69256,0 -1.25,-0.58869 -1.25,-1.28125 0,-0.606 0.42691,-1.10432 1,-1.21875 z m -0.4375,37.78125 c 0.0819,-0.0163 0.16343,0 0.25,0 0.69257,0 1.25,0.52619 1.25,1.21875 0,0.69257 -0.55743,1.28125 -1.25,1.28125 -0.69256,0 -1.25,-0.58868 -1.25,-1.28125 0,-0.60599 0.42691,-1.10432 1,-1.21875 z m 0.25,6.25 c 0.69257,0 1.25,0.55744 1.25,1.25 0,0.69257 -0.55743,1.25 -1.25,1.25 -0.69256,0 -1.25,-0.55743 -1.25,-1.25 0,-0.69256 0.55744,-1.25 1.25,-1.25 z m 0,6.28125 c 0.69257,0 1.25,0.55743 1.25,1.25 0,0.69256 -0.55743,1.25 -1.25,1.25 -0.69256,0 -1.25,-0.55744 -1.25,-1.25 0,-0.69257 0.55744,-1.25 1.25,-1.25 z m 142.4375,26.71875 c 2.93361,-0.10081 5.39919,2.19139 5.5,5.125 0.10075,2.93197 -2.19311,5.39694 -5.125,5.5 -2.93361,0.10081 -5.39919,-2.19139 -5.5,-5.125 -0.10081,-2.93361 2.19139,-5.39919 5.125,-5.5 z"/>
    <circle cx="4.3200002" cy="11.52" style="fill:none;stroke:#ffbf00;stroke-width:1.15199995" r="1.584" id="connector1pad-4-5-9-4" d="m 5.9040002,11.52 c 0,0.874819 -0.709181,1.584 -1.584,1.584 -0.8748191,0 -1.584,-0.709181 -1.584,-1.584 0,-0.874819 0.7091809,-1.5839995 1.584,-1.5839995 0.874819,0 1.584,0.7091805 1.584,1.5839995 z" transform="matrix(0,1.25,1.25,0,367.2948,296.22947)"/>
    <circle cx="4.3200002" cy="11.52" style="fill:none;stroke:#ffbf00;stroke-width:1.15199995" r="1.584" id="connector1pad-47-4-0" d="m 5.9040002,11.52 c 0,0.874819 -0.709181,1.584 -1.584,1.584 -0.8748191,0 -1.584,-0.709181 -1.584,-1.584 0,-0.874819 0.7091809,-1.5839995 1.584,-1.5839995 0.874819,0 1.584,0.7091805 1.584,1.5839995 z" transform="matrix(0,1.25,1.25,0,358.29496,296.22947)"/>
    <circle cx="4.3200002" cy="11.52" style="fill:none;stroke:#ffbf00;stroke-width:1.15199995" r="1.584" id="connector1pad-4-2-34-9" d="m 5.9040002,11.52 c 0,0.874819 -0.709181,1.584 -1.584,1.584 -0.8748191,0 -1.584,-0.709181 -1.584,-1.584 0,-0.874819 0.7091809,-1.5839995 1.584,-1.5839995 0.874819,0 1.584,0.7091805 1.584,1.5839995 z" transform="matrix(0,1.25,1.25,0,349.29511,296.22947)"/>
    <circle cx="4.3200002" cy="11.52" style="fill:none;stroke:#ffbf00;stroke-width:1.15199995" r="1.584" id="connector1pad-0-1-1-48" d="m 5.9040002,11.52 c 0,0.874819 -0.709181,1.584 -1.584,1.584 -0.8748191,0 -1.584,-0.709181 -1.584,-1.584 0,-0.874819 0.7091809,-1.5839995 1.584,-1.5839995 0.874819,0 1.584,0.7091805 1.584,1.5839995 z" transform="matrix(0,1.25,1.25,0,340.29526,296.22947)"/>
    <circle cx="4.3200002" cy="11.52" style="fill:none;stroke:#ffbf00;stroke-width:1.15199995" r="1.584" id="connector1pad-4-5-0-39-8" d="m 5.9040002,11.52 c 0,0.874819 -0.709181,1.584 -1.584,1.584 -0.8748191,0 -1.584,-0.709181 -1.584,-1.584 0,-0.874819 0.7091809,-1.5839995 1.584,-1.5839995 0.874819,0 1.584,0.7091805 1.584,1.5839995 z" transform="matrix(0,1.25,1.25,0,331.29541,296.22947)"/>
    <circle cx="4.3200002" cy="11.52" style="fill:none;stroke:#ffbf00;stroke-width:1.15199995" r="1.584" id="connector1pad-4-2-3-6-2" d="m 5.9040002,11.52 c 0,0.874819 -0.709181,1.584 -1.584,1.584 -0.8748191,0 -1.584,-0.709181 -1.584,-1.584 0,-0.874819 0.7091809,-1.5839995 1.584,-1.5839995 0.874819,0 1.584,0.7091805 1.584,1.5839995 z" transform="matrix(0,1.25,1.25,0,322.29557,296.22947)"/>
    <circle cx="4.3200002" cy="11.52" style="fill:none;stroke:#ffbf00;stroke-width:1.15199995" r="1.584" id="connector1pad-0-1-9-9-4" d="m 5.9040002,11.52 c 0,0.874819 -0.709181,1.584 -1.584,1.584 -0.8748191,0 -1.584,-0.709181 -1.584,-1.584 0,-0.874819 0.7091809,-1.5839995 1.584,-1.5839995 0.874819,0 1.584,0.7091805 1.584,1.5839995 z" transform="matrix(0,1.25,1.25,0,313.29572,296.22947)"/>
    <circle cx="4.3200002" cy="11.52" style="fill:none;stroke:#ffbf00;stroke-width:1.15199995" r="1.584" id="connector1pad-4-5-0-3-1-5" d="m 5.9040002,11.52 c 0,0.874819 -0.709181,1.584 -1.584,1.584 -0.8748191,0 -1.584,-0.709181 -1.584,-1.584 0,-0.874819 0.7091809,-1.5839995 1.584,-1.5839995 0.874819,0 1.584,0.7091805 1.584,1.5839995 z" transform="matrix(0,1.25,1.25,0,304.29588,296.22947)"/>
    <circle cx="4.3200002" cy="11.52" style="fill:none;stroke:#ffbf00;stroke-width:1.15199995" r="1.584" id="connector1pad-4-5-9-4-3" d="m 5.9040002,11.52 c 0,0.874819 -0.709181,1.584 -1.584,1.584 -0.8748191,0 -1.584,-0.709181 -1.584,-1.584 0,-0.874819 0.7091809,-1.5839995 1.584,-1.5839995 0.874819,0 1.584,0.7091805 1.584,1.5839995 z" transform="matrix(0,1.25,1.25,0,289.30397,295.52273)"/>
    <circle cx="4.3200002" cy="11.52" style="fill:none;stroke:#ffbf00;stroke-width:1.15199995" r="1.584" id="connector1pad-47-4-0-0" d="m 5.9040002,11.52 c 0,0.874819 -0.709181,1.584 -1.584,1.584 -0.8748191,0 -1.584,-0.709181 -1.584,-1.584 0,-0.874819 0.7091809,-1.5839995 1.584,-1.5839995 0.874819,0 1.584,0.7091805 1.584,1.5839995 z" transform="matrix(0,1.25,1.25,0,280.30413,295.52273)"/>
    <circle cx="4.3200002" cy="11.52" style="fill:none;stroke:#ffbf00;stroke-width:1.15199995" r="1.584" id="connector1pad-4-2-34-9-7" d="m 5.9040002,11.52 c 0,0.874819 -0.709181,1.584 -1.584,1.584 -0.8748191,0 -1.584,-0.709181 -1.584,-1.584 0,-0.874819 0.7091809,-1.5839995 1.584,-1.5839995 0.874819,0 1.584,0.7091805 1.584,1.5839995 z" transform="matrix(0,1.25,1.25,0,271.30428,295.52273)"/>
    <circle cx="4.3200002" cy="11.52" style="fill:none;stroke:#ffbf00;stroke-width:1.15199995" r="1.584" id="connector1pad-0-1-1-48-6" d="m 5.9040002,11.52 c 0,0.874819 -0.709181,1.584 -1.584,1.584 -0.8748191,0 -1.584,-0.709181 -1.584,-1.584 0,-0.874819 0.7091809,-1.5839995 1.584,-1.5839995 0.874819,0 1.584,0.7091805 1.584,1.5839995 z" transform="matrix(0,1.25,1.25,0,262.30443,295.52273)"/>
    <circle cx="4.3200002" cy="11.52" style="fill:none;stroke:#ffbf00;stroke-width:1.15199995" r="1.584" id="connector1pad-4-5-0-39-8-1" d="m 5.9040002,11.52 c 0,0.874819 -0.709181,1.584 -1.584,1.584 -0.8748191,0 -1.584,-0.709181 -1.584,-1.584 0,-0.874819 0.7091809,-1.5839995 1.584,-1.5839995 0.874819,0 1.584,0.7091805 1.584,1.5839995 z" transform="matrix(0,1.25,1.25,0,253.30458,295.52273)"/>
    <circle cx="4.3200002" cy="11.52" style="fill:none;stroke:#ffbf00;stroke-width:1.15199995" r="1.584" id="connector1pad-4-2-3-6-2-1" d="m 5.9040002,11.52 c 0,0.874819 -0.709181,1.584 -1.584,1.584 -0.8748191,0 -1.584,-0.709181 -1.584,-1.584 0,-0.874819 0.7091809,-1.5839995 1.584,-1.5839995 0.874819,0 1.584,0.7091805 1.584,1.5839995 z" transform="matrix(0,1.25,1.25,0,244.30474,295.52273)"/>
    <circle cx="4.3200002" cy="11.52" style="fill:none;stroke:#ffbf00;stroke-width:1.15199995" r="1.584" id="connector1pad-0-1-9-9-4-9" d="m 5.9040002,11.52 c 0,0.874819 -0.709181,1.584 -1.584,1.584 -0.8748191,0 -1.584,-0.709181 -1.584,-1.584 0,-0.874819 0.7091809,-1.5839995 1.584,-1.5839995 0.874819,0 1.584,0.7091805 1.584,1.5839995 z" transform="matrix(0,1.25,1.25,0,235.30489,295.52273)"/>
    <circle cx="4.3200002" cy="11.52" style="fill:none;stroke:#ffbf00;stroke-width:1.15199995" r="1.584" id="connector1pad-4-5-0-3-1-5-6" d="m 5.9040002,11.52 c 0,0.874819 -0.709181,1.584 -1.584,1.584 -0.8748191,0 -1.584,-0.709181 -1.584,-1.584 0,-0.874819 0.7091809,-1.5839995 1.584,-1.5839995 0.874819,0 1.584,0.7091805 1.584,1.5839995 z" transform="matrix(0,1.25,1.25,0,226.30505,295.52273)"/>
    <circle cx="4.3200002" cy="11.52" style="fill:none;stroke:#ffbf00;stroke-width:1.15199995" r="1.584" id="connector1pad-4-2-34-9-8" d="m 5.9040002,11.52 c 0,0.874819 -0.709181,1.584 -1.584,1.584 -0.8748191,0 -1.584,-0.709181 -1.584,-1.584 0,-0.874819 0.7091809,-1.5839995 1.584,-1.5839995 0.874819,0 1.584,0.7091805 1.584,1.5839995 z" transform="matrix(0,1.25,1.25,0,302.76371,467.949)"/>
    <circle cx="4.3200002" cy="11.52" style="fill:none;stroke:#ffbf00;stroke-width:1.15199995" r="1.584" id="connector1pad-0-1-1-48-61" d="m 5.9040002,11.52 c 0,0.874819 -0.709181,1.584 -1.584,1.584 -0.8748191,0 -1.584,-0.709181 -1.584,-1.584 0,-0.874819 0.7091809,-1.5839995 1.584,-1.5839995 0.874819,0 1.584,0.7091805 1.584,1.5839995 z" transform="matrix(0,1.25,1.25,0,293.76386,467.949)"/>
    <circle cx="4.3200002" cy="11.52" style="fill:none;stroke:#ffbf00;stroke-width:1.15199995" r="1.584" id="connector1pad-4-5-0-39-8-14" d="m 5.9040002,11.52 c 0,0.874819 -0.709181,1.584 -1.584,1.584 -0.8748191,0 -1.584,-0.709181 -1.584,-1.584 0,-0.874819 0.7091809,-1.5839995 1.584,-1.5839995 0.874819,0 1.584,0.7091805 1.584,1.5839995 z" transform="matrix(0,1.25,1.25,0,284.76401,467.949)"/>
    <circle cx="4.3200002" cy="11.52" style="fill:none;stroke:#ffbf00;stroke-width:1.15199995" r="1.584" id="connector1pad-4-2-3-6-2-3" d="m 5.9040002,11.52 c 0,0.874819 -0.709181,1.584 -1.584,1.584 -0.8748191,0 -1.584,-0.709181 -1.584,-1.584 0,-0.874819 0.7091809,-1.5839995 1.584,-1.5839995 0.874819,0 1.584,0.7091805 1.584,1.5839995 z" transform="matrix(0,1.25,1.25,0,275.76417,467.949)"/>
    <circle cx="4.3200002" cy="11.52" style="fill:none;stroke:#ffbf00;stroke-width:1.15199995" r="1.584" id="connector1pad-0-1-9-9-4-6" d="m 5.9040002,11.52 c 0,0.874819 -0.709181,1.584 -1.584,1.584 -0.8748191,0 -1.584,-0.709181 -1.584,-1.584 0,-0.874819 0.7091809,-1.5839995 1.584,-1.5839995 0.874819,0 1.584,0.7091805 1.584,1.5839995 z" transform="matrix(0,1.25,1.25,0,266.76432,467.949)"/>
    <circle cx="4.3200002" cy="11.52" style="fill:none;stroke:#ffbf00;stroke-width:1.15199995" r="1.584" id="connector1pad-4-5-0-3-1-5-3" d="m 5.9040002,11.52 c 0,0.874819 -0.709181,1.584 -1.584,1.584 -0.8748191,0 -1.584,-0.709181 -1.584,-1.584 0,-0.874819 0.7091809,-1.5839995 1.584,-1.5839995 0.874819,0 1.584,0.7091805 1.584,1.5839995 z" transform="matrix(0,1.25,1.25,0,257.76448,467.949)"/>
    <circle cx="4.3200002" cy="11.52" style="fill:none;stroke:#ffbf00;stroke-width:1.15199995" r="1.584" id="connector1pad-4-2-34-9-8-1" d="m 5.9040002,11.52 c 0,0.874819 -0.709181,1.584 -1.584,1.584 -0.8748191,0 -1.584,-0.709181 -1.584,-1.584 0,-0.874819 0.7091809,-1.5839995 1.584,-1.5839995 0.874819,0 1.584,0.7091805 1.584,1.5839995 z" transform="matrix(0,1.25,1.25,0,366.2532,468.29397)"/>
    <circle cx="4.3200002" cy="11.52" style="fill:none;stroke:#ffbf00;stroke-width:1.15199995" r="1.584" id="connector1pad-0-1-1-48-61-0" d="m 5.9040002,11.52 c 0,0.874819 -0.709181,1.584 -1.584,1.584 -0.8748191,0 -1.584,-0.709181 -1.584,-1.584 0,-0.874819 0.7091809,-1.5839995 1.584,-1.5839995 0.874819,0 1.584,0.7091805 1.584,1.5839995 z" transform="matrix(0,1.25,1.25,0,357.25335,468.29397)"/>
    <circle cx="4.3200002" cy="11.52" style="fill:none;stroke:#ffbf00;stroke-width:1.15199995" r="1.584" id="connector1pad-4-5-0-39-8-14-4" d="m 5.9040002,11.52 c 0,0.874819 -0.709181,1.584 -1.584,1.584 -0.8748191,0 -1.584,-0.709181 -1.584,-1.584 0,-0.874819 0.7091809,-1.5839995 1.584,-1.5839995 0.874819,0 1.584,0.7091805 1.584,1.5839995 z" transform="matrix(0,1.25,1.25,0,348.2535,468.29397)"/>
    <circle cx="4.3200002" cy="11.52" style="fill:none;stroke:#ffbf00;stroke-width:1.15199995" r="1.584" id="connector1pad-4-2-3-6-2-3-6" d="m 5.9040002,11.52 c 0,0.874819 -0.709181,1.584 -1.584,1.584 -0.8748191,0 -1.584,-0.709181 -1.584,-1.584 0,-0.874819 0.7091809,-1.5839995 1.584,-1.5839995 0.874819,0 1.584,0.7091805 1.584,1.5839995 z" transform="matrix(0,1.25,1.25,0,339.25366,468.29397)"/>
    <circle cx="4.3200002" cy="11.52" style="fill:none;stroke:#ffbf00;stroke-width:1.15199995" r="1.584" id="connector1pad-0-1-9-9-4-6-9" d="m 5.9040002,11.52 c 0,0.874819 -0.709181,1.584 -1.584,1.584 -0.8748191,0 -1.584,-0.709181 -1.584,-1.584 0,-0.874819 0.7091809,-1.5839995 1.584,-1.5839995 0.874819,0 1.584,0.7091805 1.584,1.5839995 z" transform="matrix(0,1.25,1.25,0,330.25381,468.29397)"/>
    <circle cx="4.3200002" cy="11.52" style="fill:none;stroke:#ffbf00;stroke-width:1.15199995" r="1.584" id="connector1pad-4-5-0-3-1-5-3-7" d="m 5.9040002,11.52 c 0,0.874819 -0.709181,1.584 -1.584,1.584 -0.8748191,0 -1.584,-0.709181 -1.584,-1.584 0,-0.874819 0.7091809,-1.5839995 1.584,-1.5839995 0.874819,0 1.584,0.7091805 1.584,1.5839995 z" transform="matrix(0,1.25,1.25,0,321.25397,468.29397)"/>
    <circle cx="4.3200002" cy="11.52" style="fill:none;stroke:#ffbf00;stroke-width:1.15199995" r="1.584" id="connector1pad-4-5-0-3-1-5-6-1" d="m 5.9040002,11.52 c 0,0.874819 -0.709181,1.584 -1.584,1.584 -0.8748191,0 -1.584,-0.709181 -1.584,-1.584 0,-0.874819 0.7091809,-1.5839995 1.584,-1.5839995 0.874819,0 1.584,0.7091805 1.584,1.5839995 z" transform="matrix(0,1.25,1.25,0,188.091,361.80231)"/>
    <circle cx="4.3200002" cy="11.52" style="fill:none;stroke:#ffbf00;stroke-width:1.15199995" r="1.584" id="connector1pad-4-5-0-3-1-5-6-7" d="m 5.9040002,11.52 c 0,0.874819 -0.709181,1.584 -1.584,1.584 -0.8748191,0 -1.584,-0.709181 -1.584,-1.584 0,-0.874819 0.7091809,-1.5839995 1.584,-1.5839995 0.874819,0 1.584,0.7091805 1.584,1.5839995 z" transform="matrix(0,1.25,1.25,0,188.091,379.97062)"/>
    <circle cx="4.3200002" cy="11.52" style="fill:none;stroke:#ffbf00;stroke-width:1.15199995" r="1.584" id="connector1pad-4-5-0-3-1-5-6-4" d="m 5.9040002,11.52 c 0,0.874819 -0.709181,1.584 -1.584,1.584 -0.8748191,0 -1.584,-0.709181 -1.584,-1.584 0,-0.874819 0.7091809,-1.5839995 1.584,-1.5839995 0.874819,0 1.584,0.7091805 1.584,1.5839995 z" transform="matrix(0,1.25,1.25,0,188.091,398.13893)"/>
    <circle cx="4.3200002" cy="11.52" style="fill:none;stroke:#ffbf00;stroke-width:1.15199995" r="1.584" id="connector1pad-4-5-0-3-1-5-6-0" d="m 5.9040002,11.52 c 0,0.874819 -0.709181,1.584 -1.584,1.584 -0.8748191,0 -1.584,-0.709181 -1.584,-1.584 0,-0.874819 0.7091809,-1.5839995 1.584,-1.5839995 0.874819,0 1.584,0.7091805 1.584,1.5839995 z" transform="matrix(0,1.25,1.25,0,188.091,416.30724)"/>
    <circle cx="4.3200002" cy="11.52" style="fill:none;stroke:#ffbf00;stroke-width:1.15199995" r="1.584" id="connector1pad-4-5-0-3-1-5-6-4-9" d="m 5.9040002,11.52 c 0,0.874819 -0.709181,1.584 -1.584,1.584 -0.8748191,0 -1.584,-0.709181 -1.584,-1.584 0,-0.874819 0.7091809,-1.5839995 1.584,-1.5839995 0.874819,0 1.584,0.7091805 1.584,1.5839995 z" transform="matrix(0,1.25,1.25,0,198.091,460.45623)"/>
    <circle cx="4.3200002" cy="11.52" style="fill:none;stroke:#ffbf00;stroke-width:1.15199995" r="1.584" id="connector1pad-4-5-0-3-1-5-6-0-4" d="m 5.9040002,11.52 c 0,0.874819 -0.709181,1.584 -1.584,1.584 -0.8748191,0 -1.584,-0.709181 -1.584,-1.584 0,-0.874819 0.7091809,-1.5839995 1.584,-1.5839995 0.874819,0 1.584,0.7091805 1.584,1.5839995 z" transform="matrix(0,1.25,1.25,0,198.091,478.62454)"/>
   </g>
  </g>
  <rect width="5.783914961515137" x="4.919551128897382" y="108.228496370264" fill="none" height="5.812724788476714" id="connector3"/>
  <rect width="5.633846936977534" x="5.069619153434985" y="90.25280865544858" fill="none" height="5.606451933955668" id="connector4"/>
  <rect width="5.393280628699472" x="5.054101510032268" y="71.8995034184064" fill="none" height="5.649754625820947" id="connector5"/>
  <rect width="5.365120877472378" x="15.06953537681039" y="188.6926605249982" fill="none" height="5.502837509831579" id="connector0"/>
  <rect width="5.536595560324912" x="15.02610266979824" y="170.7299896207717" fill="none" height="5.411589820562028" id="connector1pad-4-5-9-4"/>
  <rect width="5.7708981509262" x="4.932567939486319" y="126.3322260609199" fill="none" height="5.634871715476578" id="connector2"/>
 </g>
</svg>
