<?xml version='1.0' encoding='UTF-8' standalone='no'?>
<!-- Generator: Adobe Illustrator 13.0.0, SVG Export Plug-In . SVG Version: 6.00 Build 14948)  -->
<svg width="32.421875" xmlns:rdf="http://www.w3.org/1999/02/22-rdf-syntax-ns#" x="0px" version="1.2" y="0px" xmlns="http://www.w3.org/2000/svg" height="5.4296875" viewBox="0 0 25.937501 4.3437501" xmlns:sodipodi="http://sodipodi.sourceforge.net/DTD/sodipodi-0.dtd" xmlns:cc="http://creativecommons.org/ns#" id="Layer_1" xmlns:dc="http://purl.org/dc/elements/1.1/" xml:space="preserve" xmlns:svg="http://www.w3.org/2000/svg" xmlns:inkscape="http://www.inkscape.org/namespaces/inkscape">
 <g id="copper0">
  <metadata id="metadata3893">
   <rdf:RDF>
    <cc:Work rdf:about="">
     <dc:format>image/svg+xml</dc:format>
     <dc:type rdf:resource="http://purl.org/dc/dcmitype/StillImage"/>
     <dc:title/>
    </cc:Work>
   </rdf:RDF>
  </metadata>
  <defs id="defs3891"/>
  <sodipodi:namedview fit-margin-top="0" fit-margin-left="0" showgrid="false" fit-margin-bottom="0" objecttolerance="10" pagecolor="#ffffff" bordercolor="#666666" id="namedview3889" borderopacity="1" guidetolerance="10" gridtolerance="10" fit-margin-right="0"/>
  <desc id="desc3862">Fritzing footprint SVG</desc>
  <g id="g3909" transform="matrix(0,1,-1,0,28.09375,-23.75)">
   <circle cx="25.92" cy="25.92" style="fill:none;stroke:#ffbf00;stroke-width:1.15199995" id="connector4pad" r="1.584" d="m 27.504,25.92 c 0,0.874819 -0.709181,1.584 -1.584,1.584 -0.874819,0 -1.584,-0.709181 -1.584,-1.584 0,-0.874819 0.709181,-1.584 1.584,-1.584 0.874819,0 1.584,0.709181 1.584,1.584 z"/>
   <circle cx="25.92" cy="18.719999" style="fill:none;stroke:#ffbf00;stroke-width:1.15199995" id="connector5pad" r="1.584" d="m 27.504,18.719999 c 0,0.874819 -0.709181,1.584 -1.584,1.584 -0.874819,0 -1.584,-0.709181 -1.584,-1.584 0,-0.874819 0.709181,-1.584 1.584,-1.584 0.874819,0 1.584,0.709181 1.584,1.584 z"/>
   <circle cx="25.92" cy="11.52" style="fill:none;stroke:#ffbf00;stroke-width:1.15199995" id="connector6pad" r="1.584" d="m 27.504,11.52 c 0,0.874819 -0.709181,1.584 -1.584,1.584 -0.874819,0 -1.584,-0.709181 -1.584,-1.584 0,-0.874819 0.709181,-1.5839995 1.584,-1.5839995 0.874819,0 1.584,0.7091805 1.584,1.5839995 z"/>
   <circle cx="25.92" cy="4.3200002" style="fill:none;stroke:#ffbf00;stroke-width:1.15199995" id="connector7pad" r="1.584" d="m 27.504,4.3200002 c 0,0.874819 -0.709181,1.584 -1.584,1.584 -0.874819,0 -1.584,-0.709181 -1.584,-1.584 0,-0.8748191 0.709181,-1.584 1.584,-1.584 0.874819,0 1.584,0.7091809 1.584,1.584 z"/>
  </g>
  <g id="keepout" transform="translate(-2.45058,-33.629588)"/>
  <g id="soldermask" transform="translate(-2.45058,-33.629588)"/>
  <g id="outline" transform="translate(-2.45058,-33.629588)"/>
  <rect width="4.000000154216868" x="7.350708785425091" y="0.1766826963752058" fill="none" height="4.000000092086331" id="connector8"/>
  <rect width="4.000000154216868" x="0.2625253137651818" y="0.1241776344377022" fill="none" height="4.000000092086331" id="connector9"/>
  <rect width="4.000000154216868" x="14.59640744534414" y="0.124177634437725" fill="none" height="4.000000092086331" id="connector10"/>
  <rect width="4.000000154216868" x="21.57958079149796" y="0.124177634437725" fill="none" height="4.000000092086331" id="connector11"/>
 </g>
</svg>
