<?xml version='1.0' encoding='UTF-8' standalone='no'?>
<!-- Created with Inkscape (http://www.inkscape.org/) -->
<svg width="127.5625" version="1.1" xmlns="http://www.w3.org/2000/svg" height="127.5625" id="svg2">
 <g id="copper0">
  <defs id="defs4"/>
  <sodipodi:namedview fit-margin-top="0" fit-margin-left="0" showgrid="false" fit-margin-bottom="0" xmlns:sodipodi="http://sodipodi.sourceforge.net/DTD/sodipodi-0.dtd" pagecolor="#ffffff" bordercolor="#666666" id="base" borderopacity="1.0" fit-margin-right="0"/>
  <metadata id="metadata7">
   <rdf:RDF xmlns:rdf="http://www.w3.org/1999/02/22-rdf-syntax-ns#">
    <cc:Work xmlns:rdf="http://www.w3.org/1999/02/22-rdf-syntax-ns#" xmlns:cc="http://creativecommons.org/ns#" rdf:about="">
     <dc:format xmlns:dc="http://purl.org/dc/elements/1.1/">image/svg+xml</dc:format>
     <dc:type xmlns:rdf="http://www.w3.org/1999/02/22-rdf-syntax-ns#" rdf:resource="http://purl.org/dc/dcmitype/StillImage" xmlns:dc="http://purl.org/dc/elements/1.1/"/>
     <dc:title xmlns:dc="http://purl.org/dc/elements/1.1/"/>
    </cc:Work>
   </rdf:RDF>
  </metadata>
  <g id="layer1" transform="translate(1212.4804,-513.65625)">
   <g style="font-size:44px;font-style:normal;font-variant:normal;font-weight:normal;font-stretch:normal;line-height:125%;letter-spacing:0px;word-spacing:0px;fill:#000000;fill-opacity:1;stroke:none;font-family:OCRA;-inkscape-font-specification:OCRA" id="text2995" xml:space="preserve"/>
   <g id="g3744">
    <path style="fill:none;fill-opacity:1;stroke:#ffffff;stroke-opacity:1" id="path3788" d="m -1148.6991,513.65625 c -35.2246,0 -63.7813,28.55679 -63.7813,63.78125 0,35.22446 28.5567,63.78125 63.7813,63.78125 35.2243,0 63.7812,-28.55679 63.7812,-63.78125 0,-35.22446 -28.5569,-63.78125 -63.7812,-63.78125 z m -33.0626,18.96875 c 2.9339,-0.10081 5.3994,2.19139 5.5,5.125 0.101,2.93197 -2.1929,5.39694 -5.125,5.5 -2.9334,0.10081 -5.3989,-2.19139 -5.5,-5.125 -0.1006,-2.93361 2.1916,-5.39919 5.125,-5.5 z m -23.0312,30.09375 c 0.9941,0 1.8125,0.81839 1.8125,1.8125 0,0.99411 -0.8184,1.78125 -1.8125,1.78125 -0.9941,0 -1.7812,-0.78714 -1.7812,-1.78125 0,-0.99411 0.7871,-1.8125 1.7812,-1.8125 z m 0,9 c 0.9941,0 1.8125,0.81839 1.8125,1.8125 0,0.99411 -0.8184,1.78125 -1.8125,1.78125 -0.9941,0 -1.7812,-0.78714 -1.7812,-1.78125 0,-0.99411 0.7871,-1.8125 1.7812,-1.8125 z m 0,9 c 0.9941,0 1.8125,0.81839 1.8125,1.8125 0,0.99411 -0.8184,1.78125 -1.8125,1.78125 -0.9941,0 -1.7812,-0.78714 -1.7812,-1.78125 0,-0.99411 0.7871,-1.8125 1.7812,-1.8125 z m 0,9 c 0.9941,0 1.8125,0.81839 1.8125,1.8125 0,0.99411 -0.8184,1.78125 -1.8125,1.78125 -0.9941,0 -1.7812,-0.78714 -1.7812,-1.78125 0,-0.99411 0.7871,-1.8125 1.7812,-1.8125 z m 89.75,22.5625 c 2.9336,-0.10081 5.3677,2.19139 5.4688,5.125 0.1005,2.93197 -2.1934,5.39694 -5.125,5.5 -2.9339,0.10081 -5.3994,-2.19139 -5.5,-5.125 -0.1011,-2.93361 2.2226,-5.39919 5.1562,-5.5 z"/>
    <circle cx="4.3200002" cy="11.52" style="fill:none;stroke:#ffbf00;stroke-width:1.15199995" r="1.584" id="connector1pad-4-5-0-39-4" d="m 5.9040002,11.52 c 0,0.874819 -0.709181,1.584 -1.584,1.584 -0.8748191,0 -1.584,-0.709181 -1.584,-1.584 0,-0.874819 0.7091809,-1.5839995 1.584,-1.5839995 0.874819,0 1.584,0.7091805 1.584,1.5839995 z" transform="matrix(-1.25,0,0,1.25,-1199.3864,577.19315)"/>
    <circle cx="4.3200002" cy="11.52" style="fill:none;stroke:#ffbf00;stroke-width:1.15199995" r="1.584" id="connector1pad-4-2-3-6-4" d="m 5.9040002,11.52 c 0,0.874819 -0.709181,1.584 -1.584,1.584 -0.8748191,0 -1.584,-0.709181 -1.584,-1.584 0,-0.874819 0.7091809,-1.5839995 1.584,-1.5839995 0.874819,0 1.584,0.7091805 1.584,1.5839995 z" transform="matrix(-1.25,0,0,1.25,-1199.3864,568.19331)"/>
    <circle cx="4.3200002" cy="11.52" style="fill:none;stroke:#ffbf00;stroke-width:1.15199995" r="1.584" id="connector1pad-0-1-9-9-0" d="m 5.9040002,11.52 c 0,0.874819 -0.709181,1.584 -1.584,1.584 -0.8748191,0 -1.584,-0.709181 -1.584,-1.584 0,-0.874819 0.7091809,-1.5839995 1.584,-1.5839995 0.874819,0 1.584,0.7091805 1.584,1.5839995 z" transform="matrix(-1.25,0,0,1.25,-1199.3864,559.19346)"/>
    <circle cx="4.3200002" cy="11.52" style="fill:none;stroke:#ffbf00;stroke-width:1.15199995" r="1.584" id="connector1pad-4-5-0-3-1-3" d="m 5.9040002,11.52 c 0,0.874819 -0.709181,1.584 -1.584,1.584 -0.8748191,0 -1.584,-0.709181 -1.584,-1.584 0,-0.874819 0.7091809,-1.5839995 1.584,-1.5839995 0.874819,0 1.584,0.7091805 1.584,1.5839995 z" transform="matrix(-1.25,0,0,1.25,-1199.3864,550.19362)"/>
   </g>
  </g>
 </g>
</svg>
