<?xml version='1.0' encoding='UTF-8' standalone='no'?>
<!-- Created with Inkscape (http://www.inkscape.org/) -->
<svg width="117.65625" xmlns:rdf="http://www.w3.org/1999/02/22-rdf-syntax-ns#" version="1.1" xmlns="http://www.w3.org/2000/svg" height="73.875" xmlns:sodipodi="http://sodipodi.sourceforge.net/DTD/sodipodi-0.dtd" xmlns:cc="http://creativecommons.org/ns#" id="svg10547" xmlns:dc="http://purl.org/dc/elements/1.1/" xmlns:svg="http://www.w3.org/2000/svg" xmlns:inkscape="http://www.inkscape.org/namespaces/inkscape">
 <g id="copper0">
  <defs id="defs10549"/>
  <sodipodi:namedview fit-margin-top="0" fit-margin-left="0" showgrid="false" fit-margin-bottom="0" pagecolor="#ffffff" bordercolor="#666666" id="base" borderopacity="1.0" fit-margin-right="0"/>
  <metadata id="metadata10552">
   <rdf:RDF>
    <cc:Work rdf:about="">
     <dc:format>image/svg+xml</dc:format>
     <dc:type rdf:resource="http://purl.org/dc/dcmitype/StillImage"/>
     <dc:title/>
    </cc:Work>
   </rdf:RDF>
  </metadata>
  <g id="layer1" transform="translate(-166,-357.875)">
   <g style="font-size:24px;font-style:normal;font-variant:normal;font-weight:normal;font-stretch:normal;line-height:125%;letter-spacing:0px;word-spacing:0px;fill:#ffffff;fill-opacity:1;stroke:none;font-family:OCRA;-inkscape-font-specification:OCRA" id="text9115-0" xml:space="preserve" transform="matrix(0.72841154,0,0,0.55083467,233.64389,409.77089)">
    <g id="tspan9117-2"/>
   </g>
   <g id="g3889">
    <path style="fill:none;stroke:#ffffff;stroke-width:0.48713401;stroke-miterlimit:4;stroke-opacity:1;stroke-dasharray:none" id="rect12925" d="m 166.24107,358.11607 0,73.375 117.15625,0 0,-73.375 -117.15625,0 z m 28.59375,4.53125 c 0.99411,0 1.78125,0.78714 1.78125,1.78125 0,0.99411 -0.78714,1.8125 -1.78125,1.8125 -0.99411,0 -1.8125,-0.81839 -1.8125,-1.8125 0,-0.99411 0.81839,-1.78125 1.8125,-1.78125 z m 9,0 c 0.99411,0 1.78125,0.78714 1.78125,1.78125 0,0.99411 -0.78714,1.8125 -1.78125,1.8125 -0.99411,0 -1.8125,-0.81839 -1.8125,-1.8125 0,-0.99411 0.81839,-1.78125 1.8125,-1.78125 z m 9,0 c 0.99411,0 1.78125,0.78714 1.78125,1.78125 0,0.99411 -0.78714,1.8125 -1.78125,1.8125 -0.99411,0 -1.8125,-0.81839 -1.8125,-1.8125 0,-0.99411 0.81839,-1.78125 1.8125,-1.78125 z m 9,0 c 0.99411,0 1.78125,0.78714 1.78125,1.78125 0,0.99411 -0.78714,1.8125 -1.78125,1.8125 -0.99411,0 -1.8125,-0.81839 -1.8125,-1.8125 0,-0.99411 0.81839,-1.78125 1.8125,-1.78125 z m 9,0 c 0.99411,0 1.78125,0.78714 1.78125,1.78125 0,0.99411 -0.78714,1.8125 -1.78125,1.8125 -0.99411,0 -1.8125,-0.81839 -1.8125,-1.8125 0,-0.99411 0.81839,-1.78125 1.8125,-1.78125 z m 8.96875,0 c 0.99411,0 1.8125,0.78714 1.8125,1.78125 0,0.99411 -0.81839,1.8125 -1.8125,1.8125 -0.99411,0 -1.8125,-0.81839 -1.8125,-1.8125 0,-0.99411 0.81839,-1.78125 1.8125,-1.78125 z m 9,0 c 0.99411,0 1.8125,0.78714 1.8125,1.78125 0,0.99411 -0.81839,1.8125 -1.8125,1.8125 -0.99411,0 -1.8125,-0.81839 -1.8125,-1.8125 0,-0.99411 0.81839,-1.78125 1.8125,-1.78125 z m 9,0 c 0.99411,0 1.8125,0.78714 1.8125,1.78125 0,0.99411 -0.81839,1.8125 -1.8125,1.8125 -0.99411,0 -1.8125,-0.81839 -1.8125,-1.8125 0,-0.99411 0.81839,-1.78125 1.8125,-1.78125 z m 9,0 c 0.99411,0 1.8125,0.81839 1.8125,1.8125 0,0.99411 -0.81839,1.78125 -1.8125,1.78125 -0.99411,0 -1.78125,-0.78714 -1.78125,-1.78125 0,-0.99411 0.78714,-1.8125 1.78125,-1.8125 z m -93.78125,7.875 c 0.99411,0 1.8125,0.78714 1.8125,1.78125 0,0.99411 -0.81839,1.8125 -1.8125,1.8125 -0.99411,0 -1.78125,-0.81839 -1.78125,-1.8125 0,-0.99411 0.78714,-1.78125 1.78125,-1.78125 z m 0,9 c 0.99411,0 1.8125,0.78714 1.8125,1.78125 0,0.99411 -0.81839,1.8125 -1.8125,1.8125 -0.99411,0 -1.78125,-0.81839 -1.78125,-1.8125 0,-0.99411 0.78714,-1.78125 1.78125,-1.78125 z m 0,9 c 0.99411,0 1.8125,0.78714 1.8125,1.78125 0,0.99411 -0.81839,1.8125 -1.8125,1.8125 -0.99411,0 -1.78125,-0.81839 -1.78125,-1.8125 0,-0.99411 0.78714,-1.78125 1.78125,-1.78125 z m 0,9 c 0.99411,0 1.8125,0.78714 1.8125,1.78125 0,0.99411 -0.81839,1.8125 -1.8125,1.8125 -0.99411,0 -1.78125,-0.81839 -1.78125,-1.8125 0,-0.99411 0.78714,-1.78125 1.78125,-1.78125 z m 0,9 c 0.99411,0 1.8125,0.78714 1.8125,1.78125 0,0.99411 -0.81839,1.8125 -1.8125,1.8125 -0.99411,0 -1.78125,-0.81839 -1.78125,-1.8125 0,-0.99411 0.78714,-1.78125 1.78125,-1.78125 z m 0,8.96875 c 0.99411,0 1.8125,0.78714 1.8125,1.78125 0,0.99411 -0.81839,1.8125 -1.8125,1.8125 -0.99411,0 -1.78125,-0.81839 -1.78125,-1.8125 0,-0.99411 0.78714,-1.78125 1.78125,-1.78125 z m 21.8125,7.5 c 0.99411,0 1.78125,0.81839 1.78125,1.8125 0,0.99411 -0.78714,1.78125 -1.78125,1.78125 -0.99411,0 -1.8125,-0.78714 -1.8125,-1.78125 0,-0.99411 0.81839,-1.8125 1.8125,-1.8125 z m 9,0 c 0.99411,0 1.78125,0.81839 1.78125,1.8125 0,0.99411 -0.78714,1.78125 -1.78125,1.78125 -0.99411,0 -1.8125,-0.78714 -1.8125,-1.78125 0,-0.99411 0.81839,-1.8125 1.8125,-1.8125 z m 9,0 c 0.99411,0 1.78125,0.81839 1.78125,1.8125 0,0.99411 -0.78714,1.78125 -1.78125,1.78125 -0.99411,0 -1.8125,-0.78714 -1.8125,-1.78125 0,-0.99411 0.81839,-1.8125 1.8125,-1.8125 z m 9,0 c 0.99411,0 1.78125,0.81839 1.78125,1.8125 0,0.99411 -0.78714,1.78125 -1.78125,1.78125 -0.99411,0 -1.8125,-0.78714 -1.8125,-1.78125 0,-0.99411 0.81839,-1.8125 1.8125,-1.8125 z m 9,0 c 0.99411,0 1.78125,0.81839 1.78125,1.8125 0,0.99411 -0.78714,1.78125 -1.78125,1.78125 -0.99411,0 -1.8125,-0.78714 -1.8125,-1.78125 0,-0.99411 0.81839,-1.8125 1.8125,-1.8125 z m 8.96875,0 c 0.99411,0 1.8125,0.81839 1.8125,1.8125 0,0.99411 -0.81839,1.78125 -1.8125,1.78125 -0.99411,0 -1.8125,-0.78714 -1.8125,-1.78125 0,-0.99411 0.81839,-1.8125 1.8125,-1.8125 z m 9,0 c 0.99411,0 1.8125,0.81839 1.8125,1.8125 0,0.99411 -0.81839,1.78125 -1.8125,1.78125 -0.99411,0 -1.8125,-0.78714 -1.8125,-1.78125 0,-0.99411 0.81839,-1.8125 1.8125,-1.8125 z m 9,0 c 0.99411,0 1.8125,0.81839 1.8125,1.8125 0,0.99411 -0.81839,1.78125 -1.8125,1.78125 -0.99411,0 -1.8125,-0.78714 -1.8125,-1.78125 0,-0.99411 0.81839,-1.8125 1.8125,-1.8125 z m 9,0 c 0.99411,0 1.8125,0.81839 1.8125,1.8125 0,0.99411 -0.81839,1.8125 -1.8125,1.8125 -0.99411,0 -1.78125,-0.81839 -1.78125,-1.8125 0,-0.99411 0.78714,-1.8125 1.78125,-1.8125 z"/>
    <circle cx="4.3200002" cy="11.52" style="fill:none;stroke:#ffbf00;stroke-width:1.15199995" r="1.584" id="connector1pad-0-12-6" d="m 5.9040002,11.52 c 0,0.874819 -0.709181,1.584 -1.584,1.584 -0.8748191,0 -1.584,-0.709181 -1.584,-1.584 0,-0.874819 0.7091809,-1.5839995 1.584,-1.5839995 0.874819,0 1.584,0.7091805 1.584,1.5839995 z" transform="matrix(0,1.25,1.25,0,252.40578,359.04091)"/>
    <circle cx="4.3200002" cy="11.52" style="fill:none;stroke:#ffbf00;stroke-width:1.15199995" r="1.584" id="connector1pad-4-5-9-3" d="m 5.9040002,11.52 c 0,0.874819 -0.709181,1.584 -1.584,1.584 -0.8748191,0 -1.584,-0.709181 -1.584,-1.584 0,-0.874819 0.7091809,-1.5839995 1.584,-1.5839995 0.874819,0 1.584,0.7091805 1.584,1.5839995 z" transform="matrix(0,1.25,1.25,0,243.40593,359.04091)"/>
    <circle cx="4.3200002" cy="11.52" style="fill:none;stroke:#ffbf00;stroke-width:1.15199995" r="1.584" id="connector1pad-47-4-6" d="m 5.9040002,11.52 c 0,0.874819 -0.709181,1.584 -1.584,1.584 -0.8748191,0 -1.584,-0.709181 -1.584,-1.584 0,-0.874819 0.7091809,-1.5839995 1.584,-1.5839995 0.874819,0 1.584,0.7091805 1.584,1.5839995 z" transform="matrix(0,1.25,1.25,0,234.40609,359.04091)"/>
    <circle cx="4.3200002" cy="11.52" style="fill:none;stroke:#ffbf00;stroke-width:1.15199995" r="1.584" id="connector1pad-4-2-34-5" d="m 5.9040002,11.52 c 0,0.874819 -0.709181,1.584 -1.584,1.584 -0.8748191,0 -1.584,-0.709181 -1.584,-1.584 0,-0.874819 0.7091809,-1.5839995 1.584,-1.5839995 0.874819,0 1.584,0.7091805 1.584,1.5839995 z" transform="matrix(0,1.25,1.25,0,225.40624,359.04091)"/>
    <circle cx="4.3200002" cy="11.52" style="fill:none;stroke:#ffbf00;stroke-width:1.15199995" r="1.584" id="connector1pad-0-1-1-2" d="m 5.9040002,11.52 c 0,0.874819 -0.709181,1.584 -1.584,1.584 -0.8748191,0 -1.584,-0.709181 -1.584,-1.584 0,-0.874819 0.7091809,-1.5839995 1.584,-1.5839995 0.874819,0 1.584,0.7091805 1.584,1.5839995 z" transform="matrix(0,1.25,1.25,0,216.40639,359.04091)"/>
    <circle cx="4.3200002" cy="11.52" style="fill:none;stroke:#ffbf00;stroke-width:1.15199995" r="1.584" id="connector1pad-4-5-0-39-81" d="m 5.9040002,11.52 c 0,0.874819 -0.709181,1.584 -1.584,1.584 -0.8748191,0 -1.584,-0.709181 -1.584,-1.584 0,-0.874819 0.7091809,-1.5839995 1.584,-1.5839995 0.874819,0 1.584,0.7091805 1.584,1.5839995 z" transform="matrix(0,1.25,1.25,0,207.40654,359.04091)"/>
    <circle cx="4.3200002" cy="11.52" style="fill:none;stroke:#ffbf00;stroke-width:1.15199995" r="1.584" id="connector1pad-4-2-3-6-0" d="m 5.9040002,11.52 c 0,0.874819 -0.709181,1.584 -1.584,1.584 -0.8748191,0 -1.584,-0.709181 -1.584,-1.584 0,-0.874819 0.7091809,-1.5839995 1.584,-1.5839995 0.874819,0 1.584,0.7091805 1.584,1.5839995 z" transform="matrix(0,1.25,1.25,0,198.4067,359.04091)"/>
    <circle cx="4.3200002" cy="11.52" style="fill:none;stroke:#ffbf00;stroke-width:1.15199995" r="1.584" id="connector1pad-0-1-9-9-3" d="m 5.9040002,11.52 c 0,0.874819 -0.709181,1.584 -1.584,1.584 -0.8748191,0 -1.584,-0.709181 -1.584,-1.584 0,-0.874819 0.7091809,-1.5839995 1.584,-1.5839995 0.874819,0 1.584,0.7091805 1.584,1.5839995 z" transform="matrix(0,1.25,1.25,0,189.40685,359.04091)"/>
    <circle cx="4.3200002" cy="11.52" style="fill:none;stroke:#ffbf00;stroke-width:1.15199995" r="1.584" id="connector1pad-4-5-0-3-1-1" d="m 5.9040002,11.52 c 0,0.874819 -0.709181,1.584 -1.584,1.584 -0.8748191,0 -1.584,-0.709181 -1.584,-1.584 0,-0.874819 0.7091809,-1.5839995 1.584,-1.5839995 0.874819,0 1.584,0.7091805 1.584,1.5839995 z" transform="matrix(0,1.25,1.25,0,180.40701,359.04091)"/>
    <circle cx="4.3200002" cy="11.52" style="fill:none;stroke:#ffbf00;stroke-width:1.15199995" r="1.584" id="connector1pad-0-12-6-4" d="m 5.9040002,11.52 c 0,0.874819 -0.709181,1.584 -1.584,1.584 -0.8748191,0 -1.584,-0.709181 -1.584,-1.584 0,-0.874819 0.7091809,-1.5839995 1.584,-1.5839995 0.874819,0 1.584,0.7091805 1.584,1.5839995 z" transform="matrix(0,1.25,1.25,0,252.40578,419.39805)"/>
    <circle cx="4.3200002" cy="11.52" style="fill:none;stroke:#ffbf00;stroke-width:1.15199995" r="1.584" id="connector1pad-4-5-9-3-8" d="m 5.9040002,11.52 c 0,0.874819 -0.709181,1.584 -1.584,1.584 -0.8748191,0 -1.584,-0.709181 -1.584,-1.584 0,-0.874819 0.7091809,-1.5839995 1.584,-1.5839995 0.874819,0 1.584,0.7091805 1.584,1.5839995 z" transform="matrix(0,1.25,1.25,0,243.40593,419.39805)"/>
    <circle cx="4.3200002" cy="11.52" style="fill:none;stroke:#ffbf00;stroke-width:1.15199995" r="1.584" id="connector1pad-47-4-6-8" d="m 5.9040002,11.52 c 0,0.874819 -0.709181,1.584 -1.584,1.584 -0.8748191,0 -1.584,-0.709181 -1.584,-1.584 0,-0.874819 0.7091809,-1.5839995 1.584,-1.5839995 0.874819,0 1.584,0.7091805 1.584,1.5839995 z" transform="matrix(0,1.25,1.25,0,234.40609,419.39805)"/>
    <circle cx="4.3200002" cy="11.52" style="fill:none;stroke:#ffbf00;stroke-width:1.15199995" r="1.584" id="connector1pad-4-2-34-5-2" d="m 5.9040002,11.52 c 0,0.874819 -0.709181,1.584 -1.584,1.584 -0.8748191,0 -1.584,-0.709181 -1.584,-1.584 0,-0.874819 0.7091809,-1.5839995 1.584,-1.5839995 0.874819,0 1.584,0.7091805 1.584,1.5839995 z" transform="matrix(0,1.25,1.25,0,225.40624,419.39805)"/>
    <circle cx="4.3200002" cy="11.52" style="fill:none;stroke:#ffbf00;stroke-width:1.15199995" r="1.584" id="connector1pad-0-1-1-2-4" d="m 5.9040002,11.52 c 0,0.874819 -0.709181,1.584 -1.584,1.584 -0.8748191,0 -1.584,-0.709181 -1.584,-1.584 0,-0.874819 0.7091809,-1.5839995 1.584,-1.5839995 0.874819,0 1.584,0.7091805 1.584,1.5839995 z" transform="matrix(0,1.25,1.25,0,216.40639,419.39805)"/>
    <circle cx="4.3200002" cy="11.52" style="fill:none;stroke:#ffbf00;stroke-width:1.15199995" r="1.584" id="connector1pad-4-5-0-39-81-5" d="m 5.9040002,11.52 c 0,0.874819 -0.709181,1.584 -1.584,1.584 -0.8748191,0 -1.584,-0.709181 -1.584,-1.584 0,-0.874819 0.7091809,-1.5839995 1.584,-1.5839995 0.874819,0 1.584,0.7091805 1.584,1.5839995 z" transform="matrix(0,1.25,1.25,0,207.40654,419.39805)"/>
    <circle cx="4.3200002" cy="11.52" style="fill:none;stroke:#ffbf00;stroke-width:1.15199995" r="1.584" id="connector1pad-4-2-3-6-0-5" d="m 5.9040002,11.52 c 0,0.874819 -0.709181,1.584 -1.584,1.584 -0.8748191,0 -1.584,-0.709181 -1.584,-1.584 0,-0.874819 0.7091809,-1.5839995 1.584,-1.5839995 0.874819,0 1.584,0.7091805 1.584,1.5839995 z" transform="matrix(0,1.25,1.25,0,198.4067,419.39805)"/>
    <circle cx="4.3200002" cy="11.52" style="fill:none;stroke:#ffbf00;stroke-width:1.15199995" r="1.584" id="connector1pad-0-1-9-9-3-1" d="m 5.9040002,11.52 c 0,0.874819 -0.709181,1.584 -1.584,1.584 -0.8748191,0 -1.584,-0.709181 -1.584,-1.584 0,-0.874819 0.7091809,-1.5839995 1.584,-1.5839995 0.874819,0 1.584,0.7091805 1.584,1.5839995 z" transform="matrix(0,1.25,1.25,0,189.40685,419.39805)"/>
    <circle cx="4.3200002" cy="11.52" style="fill:none;stroke:#ffbf00;stroke-width:1.15199995" r="1.584" id="connector1pad-4-5-0-3-1-1-7" d="m 5.9040002,11.52 c 0,0.874819 -0.709181,1.584 -1.584,1.584 -0.8748191,0 -1.584,-0.709181 -1.584,-1.584 0,-0.874819 0.7091809,-1.5839995 1.584,-1.5839995 0.874819,0 1.584,0.7091805 1.584,1.5839995 z" transform="matrix(0,1.25,1.25,0,180.40701,419.39805)"/>
    <circle cx="4.3200002" cy="11.52" style="fill:none;stroke:#ffbf00;stroke-width:1.15199995" r="1.584" id="connector1pad-4-2-34-5-0-7" d="m 5.9040002,11.52 c 0,0.874819 -0.709181,1.584 -1.584,1.584 -0.8748191,0 -1.584,-0.709181 -1.584,-1.584 0,-0.874819 0.7091809,-1.5839995 1.584,-1.5839995 0.874819,0 1.584,0.7091805 1.584,1.5839995 z" transform="matrix(-1.25,0,0,1.25,178.47794,402.87427)"/>
    <circle cx="4.3200002" cy="11.52" style="fill:none;stroke:#ffbf00;stroke-width:1.15199995" r="1.584" id="connector1pad-0-1-1-2-0-7" d="m 5.9040002,11.52 c 0,0.874819 -0.709181,1.584 -1.584,1.584 -0.8748191,0 -1.584,-0.709181 -1.584,-1.584 0,-0.874819 0.7091809,-1.5839995 1.584,-1.5839995 0.874819,0 1.584,0.7091805 1.584,1.5839995 z" transform="matrix(-1.25,0,0,1.25,178.47794,393.87442)"/>
    <circle cx="4.3200002" cy="11.52" style="fill:none;stroke:#ffbf00;stroke-width:1.15199995" r="1.584" id="connector1pad-4-5-0-39-81-6-3" d="m 5.9040002,11.52 c 0,0.874819 -0.709181,1.584 -1.584,1.584 -0.8748191,0 -1.584,-0.709181 -1.584,-1.584 0,-0.874819 0.7091809,-1.5839995 1.584,-1.5839995 0.874819,0 1.584,0.7091805 1.584,1.5839995 z" transform="matrix(-1.25,0,0,1.25,178.47794,384.87457)"/>
    <circle cx="4.3200002" cy="11.52" style="fill:none;stroke:#ffbf00;stroke-width:1.15199995" r="1.584" id="connector1pad-4-2-3-6-0-1-3" d="m 5.9040002,11.52 c 0,0.874819 -0.709181,1.584 -1.584,1.584 -0.8748191,0 -1.584,-0.709181 -1.584,-1.584 0,-0.874819 0.7091809,-1.5839995 1.584,-1.5839995 0.874819,0 1.584,0.7091805 1.584,1.5839995 z" transform="matrix(-1.25,0,0,1.25,178.47794,375.87473)"/>
    <circle cx="4.3200002" cy="11.52" style="fill:none;stroke:#ffbf00;stroke-width:1.15199995" r="1.584" id="connector1pad-0-1-9-9-3-3-5" d="m 5.9040002,11.52 c 0,0.874819 -0.709181,1.584 -1.584,1.584 -0.8748191,0 -1.584,-0.709181 -1.584,-1.584 0,-0.874819 0.7091809,-1.5839995 1.584,-1.5839995 0.874819,0 1.584,0.7091805 1.584,1.5839995 z" transform="matrix(-1.25,0,0,1.25,178.47794,366.87488)"/>
    <circle cx="4.3200002" cy="11.52" style="fill:none;stroke:#ffbf00;stroke-width:1.15199995" r="1.584" id="connector1pad-4-5-0-3-1-1-8-9" d="m 5.9040002,11.52 c 0,0.874819 -0.709181,1.584 -1.584,1.584 -0.8748191,0 -1.584,-0.709181 -1.584,-1.584 0,-0.874819 0.7091809,-1.5839995 1.584,-1.5839995 0.874819,0 1.584,0.7091805 1.584,1.5839995 z" transform="matrix(-1.25,0,0,1.25,178.47794,357.87504)"/>
   </g>
  </g>
 </g>
</svg>
