<?xml version='1.0' encoding='UTF-8' standalone='no'?>
<!-- Created with Inkscape (http://www.inkscape.org/) -->
<svg width="204.09375" xmlns:rdf="http://www.w3.org/1999/02/22-rdf-syntax-ns#" version="1.1" xmlns="http://www.w3.org/2000/svg" height="190.03125" xmlns:sodipodi="http://sodipodi.sourceforge.net/DTD/sodipodi-0.dtd" xmlns:cc="http://creativecommons.org/ns#" id="svg14351" xmlns:dc="http://purl.org/dc/elements/1.1/" xmlns:svg="http://www.w3.org/2000/svg" xmlns:inkscape="http://www.inkscape.org/namespaces/inkscape">
 <g id="copper0">
  <defs id="defs14353"/>
  <sodipodi:namedview fit-margin-top="0" fit-margin-left="0" showgrid="false" fit-margin-bottom="0" pagecolor="#ffffff" bordercolor="#666666" id="base" borderopacity="1.0" showguides="true" fit-margin-right="0"/>
  <metadata id="metadata14356">
   <rdf:RDF>
    <cc:Work rdf:about="">
     <dc:format>image/svg+xml</dc:format>
     <dc:type rdf:resource="http://purl.org/dc/dcmitype/StillImage"/>
     <dc:title/>
    </cc:Work>
   </rdf:RDF>
  </metadata>
  <g id="g3246" transform="translate(0.10115,0.5)">
   <path style="fill:none;stroke:#ffffff;stroke-opacity:1" id="rect16909" d="m 6.33635,0 -5.9375,5.90625 0,125.34375 9.28125,9.5625 0.65625,48.21875 184.34375,0 0,-3.5625 0.34375,-2.875 0.375,-1.40625 1.0625,-2.15625 7.03125,-7.03125 0,-119.625 L 195.02385,44.75 194.7426,5.21875 189.5551,0 6.33635,0 z m 7.78125,2.1875 c 3.00046,-0.10282 5.52189,2.22674 5.625,5.21875 0.10305,2.99035 -2.25129,5.51989 -5.25,5.625 -3.00046,0.10282 -5.52189,-2.25799 -5.625,-5.25 -0.10311,-2.99201 2.24954,-5.49093 5.25,-5.59375 z m 31.3125,3.875 c 0.99411,0 1.78125,0.81839 1.78125,1.8125 0,0.99411 -0.78714,1.8125 -1.78125,1.8125 -0.99411,0 -1.8125,-0.81839 -1.8125,-1.8125 0,-0.99411 0.81839,-1.8125 1.8125,-1.8125 z m 9,0 c 0.99411,0 1.78125,0.81839 1.78125,1.8125 0,0.99411 -0.78714,1.8125 -1.78125,1.8125 -0.99411,0 -1.8125,-0.81839 -1.8125,-1.8125 0,-0.99411 0.81839,-1.8125 1.8125,-1.8125 z m 9,0 c 0.99411,0 1.78125,0.81839 1.78125,1.8125 0,0.99411 -0.78714,1.8125 -1.78125,1.8125 -0.99411,0 -1.8125,-0.81839 -1.8125,-1.8125 0,-0.99411 0.81839,-1.8125 1.8125,-1.8125 z m 9,0 c 0.99411,0 1.78125,0.81839 1.78125,1.8125 0,0.99411 -0.78714,1.8125 -1.78125,1.8125 -0.99411,0 -1.8125,-0.81839 -1.8125,-1.8125 0,-0.99411 0.81839,-1.8125 1.8125,-1.8125 z m 9,0 c 0.99411,0 1.78125,0.81839 1.78125,1.8125 0,0.99411 -0.78714,1.8125 -1.78125,1.8125 -0.99411,0 -1.8125,-0.81839 -1.8125,-1.8125 0,-0.99411 0.81839,-1.8125 1.8125,-1.8125 z m 8.96875,0 c 0.99411,0 1.78125,0.81839 1.78125,1.8125 0,0.99411 -0.78714,1.8125 -1.78125,1.8125 -0.99411,0 -1.8125,-0.81839 -1.8125,-1.8125 0,-0.99411 0.81839,-1.8125 1.8125,-1.8125 z m 9,0 c 0.99411,0 1.78125,0.81839 1.78125,1.8125 0,0.99411 -0.78714,1.8125 -1.78125,1.8125 -0.99411,0 -1.8125,-0.81839 -1.8125,-1.8125 0,-0.99411 0.81839,-1.8125 1.8125,-1.8125 z m 9,0 c 0.99411,0 1.78125,0.81839 1.78125,1.8125 0,0.99411 -0.78714,1.8125 -1.78125,1.8125 -0.99411,0 -1.8125,-0.81839 -1.8125,-1.8125 0,-0.99411 0.81839,-1.8125 1.8125,-1.8125 z m 14.875,0.0937 c 0.99411,0 1.8125,0.81839 1.8125,1.8125 0,0.99411 -0.81839,1.78125 -1.8125,1.78125 -0.99411,0 -1.8125,-0.78714 -1.8125,-1.78125 0,-0.99411 0.81839,-1.8125 1.8125,-1.8125 z m 9,0 c 0.99411,0 1.8125,0.81839 1.8125,1.8125 0,0.99411 -0.81839,1.78125 -1.8125,1.78125 -0.99411,0 -1.8125,-0.78714 -1.8125,-1.78125 0,-0.99411 0.81839,-1.8125 1.8125,-1.8125 z m 9,0 c 0.99411,0 1.8125,0.81839 1.8125,1.8125 0,0.99411 -0.81839,1.78125 -1.8125,1.78125 -0.99411,0 -1.8125,-0.78714 -1.8125,-1.78125 0,-0.99411 0.81839,-1.8125 1.8125,-1.8125 z m 9,0 c 0.99411,0 1.8125,0.81839 1.8125,1.8125 0,0.99411 -0.81839,1.78125 -1.8125,1.78125 -0.99411,0 -1.8125,-0.78714 -1.8125,-1.78125 0,-0.99411 0.81839,-1.8125 1.8125,-1.8125 z m 9,0 c 0.99411,0 1.8125,0.81839 1.8125,1.8125 0,0.99411 -0.81839,1.78125 -1.8125,1.78125 -0.99411,0 -1.8125,-0.78714 -1.8125,-1.78125 0,-0.99411 0.81839,-1.8125 1.8125,-1.8125 z m 8.96875,0 c 0.99411,0 1.8125,0.81839 1.8125,1.8125 0,0.99411 -0.81839,1.78125 -1.8125,1.78125 -0.99411,0 -1.78125,-0.78714 -1.78125,-1.78125 0,-0.99411 0.78714,-1.8125 1.78125,-1.8125 z m 9,0 c 0.99411,0 1.8125,0.81839 1.8125,1.8125 0,0.99411 -0.81839,1.78125 -1.8125,1.78125 -0.99411,0 -1.78125,-0.78714 -1.78125,-1.78125 0,-0.99411 0.78714,-1.8125 1.78125,-1.8125 z m 9,0 c 0.99411,0 1.8125,0.81839 1.8125,1.8125 0,0.99411 -0.81839,1.78125 -1.8125,1.78125 -0.99411,0 -1.78125,-0.78714 -1.78125,-1.78125 0,-0.99411 0.78714,-1.8125 1.78125,-1.8125 z M 45.6801,16.93745 c 0.99411,0 1.8125,0.81839 1.8125,1.8125 0,0.99411 -0.81839,1.78125 -1.8125,1.78125 -0.99411,0 -1.78125,-0.78714 -1.78125,-1.78125 0,-0.99411 0.78714,-1.8125 1.78125,-1.8125 z m 9,0 c 0.99411,0 1.8125,0.81839 1.8125,1.8125 0,0.99411 -0.81839,1.78125 -1.8125,1.78125 -0.99411,0 -1.78125,-0.78714 -1.78125,-1.78125 0,-0.99411 0.78714,-1.8125 1.78125,-1.8125 z m 9,0 c 0.99411,0 1.8125,0.81839 1.8125,1.8125 0,0.99411 -0.81839,1.78125 -1.8125,1.78125 -0.99411,0 -1.78125,-0.78714 -1.78125,-1.78125 0,-0.99411 0.78714,-1.8125 1.78125,-1.8125 z m 9,0 c 0.99411,0 1.8125,0.81839 1.8125,1.8125 0,0.99411 -0.81839,1.78125 -1.8125,1.78125 -0.99411,0 -1.78125,-0.78714 -1.78125,-1.78125 0,-0.99411 0.78714,-1.8125 1.78125,-1.8125 z m 8.96875,0 c 0.99411,0 1.8125,0.81839 1.8125,1.8125 0,0.99411 -0.81839,1.78125 -1.8125,1.78125 -0.99411,0 -1.8125,-0.78714 -1.8125,-1.78125 0,-0.99411 0.81839,-1.8125 1.8125,-1.8125 z m 9,0 c 0.99411,0 1.8125,0.81839 1.8125,1.8125 0,0.99411 -0.81839,1.78125 -1.8125,1.78125 -0.99411,0 -1.8125,-0.78714 -1.8125,-1.78125 0,-0.99411 0.81839,-1.8125 1.8125,-1.8125 z m 9,0 c 0.99411,0 1.8125,0.81839 1.8125,1.8125 0,0.99411 -0.81839,1.78125 -1.8125,1.78125 -0.99411,0 -1.8125,-0.78714 -1.8125,-1.78125 0,-0.99411 0.81839,-1.8125 1.8125,-1.8125 z m 9,0 c 0.99411,0 1.8125,0.81839 1.8125,1.8125 0,0.99411 -0.81839,1.78125 -1.8125,1.78125 -0.99411,0 -1.8125,-0.78714 -1.8125,-1.78125 0,-0.99411 0.81839,-1.8125 1.8125,-1.8125 z m 14.5625,0 c 0.99411,0 1.78125,0.81839 1.78125,1.8125 0,0.99411 -0.78714,1.78125 -1.78125,1.78125 -0.99411,0 -1.8125,-0.78714 -1.8125,-1.78125 0,-0.99411 0.81839,-1.8125 1.8125,-1.8125 z m 9,0 c 0.99411,0 1.78125,0.81839 1.78125,1.8125 0,0.99411 -0.78714,1.78125 -1.78125,1.78125 -0.99411,0 -1.8125,-0.78714 -1.8125,-1.78125 0,-0.99411 0.81839,-1.8125 1.8125,-1.8125 z m 35.96875,0 c 0.99411,0 1.78125,0.81839 1.78125,1.8125 0,0.99411 -0.78714,1.78125 -1.78125,1.78125 -0.99411,0 -1.8125,-0.78714 -1.8125,-1.78125 0,-0.99411 0.81839,-1.8125 1.8125,-1.8125 z m 9,0 c 0.99411,0 1.78125,0.81839 1.78125,1.8125 0,0.99411 -0.78714,1.78125 -1.78125,1.78125 -0.99411,0 -1.8125,-0.78714 -1.8125,-1.78125 0,-0.99411 0.81839,-1.8125 1.8125,-1.8125 z m 9,0 c 0.99411,0 1.78125,0.81839 1.78125,1.8125 0,0.99411 -0.78714,1.78125 -1.78125,1.78125 -0.99411,0 -1.8125,-0.78714 -1.8125,-1.78125 0,-0.99411 0.81839,-1.8125 1.8125,-1.8125 z m 9.03125,40.25 c 3.00046,-0.10282 5.49064,2.22674 5.59375,5.21875 0.10305,2.99035 -2.22004,5.51989 -5.21875,5.625 -3.00046,0.10282 -5.52189,-2.25799 -5.625,-5.25 -0.10311,-2.99201 2.24954,-5.49093 5.25,-5.59375 z m 0,100.375 c 3.00046,-0.10282 5.49064,2.22674 5.59375,5.21875 0.10305,2.99035 -2.22004,5.48864 -5.21875,5.59375 -3.00046,0.10282 -5.52189,-2.22674 -5.625,-5.21875 -0.10311,-2.99201 2.24954,-5.49093 5.25,-5.59375 z m -117.8125,20.625 c 0.99411,0 1.78125,0.78714 1.78125,1.78125 0,0.99411 -0.78714,1.8125 -1.78125,1.8125 -0.99411,0 -1.8125,-0.81839 -1.8125,-1.8125 0,-0.99411 0.81839,-1.78125 1.8125,-1.78125 z m 9,0 c 0.99411,0 1.78125,0.78714 1.78125,1.78125 0,0.99411 -0.78714,1.8125 -1.78125,1.8125 -0.99411,0 -1.8125,-0.81839 -1.8125,-1.8125 0,-0.99411 0.81839,-1.78125 1.8125,-1.78125 z m 9,0 c 0.99411,0 1.78125,0.78714 1.78125,1.78125 0,0.99411 -0.78714,1.8125 -1.78125,1.8125 -0.99411,0 -1.8125,-0.81839 -1.8125,-1.8125 0,-0.99411 0.81839,-1.78125 1.8125,-1.78125 z m 9,0 c 0.99411,0 1.78125,0.78714 1.78125,1.78125 0,0.99411 -0.78714,1.8125 -1.78125,1.8125 -0.99411,0 -1.8125,-0.81839 -1.8125,-1.8125 0,-0.99411 0.81839,-1.78125 1.8125,-1.78125 z m 9,0 c 0.99411,0 1.78125,0.78714 1.78125,1.78125 0,0.99411 -0.78714,1.8125 -1.78125,1.8125 -0.99411,0 -1.8125,-0.81839 -1.8125,-1.8125 0,-0.99411 0.81839,-1.78125 1.8125,-1.78125 z m 9,0 c 0.99411,0 1.78125,0.78714 1.78125,1.78125 0,0.99411 -0.78714,1.8125 -1.78125,1.8125 -0.99411,0 -1.8125,-0.81839 -1.8125,-1.8125 0,-0.99411 0.81839,-1.78125 1.8125,-1.78125 z m 18.25,0 c 0.99411,0 1.8125,0.78714 1.8125,1.78125 0,0.99411 -0.81839,1.8125 -1.8125,1.8125 -0.99411,0 -1.78125,-0.81839 -1.78125,-1.8125 0,-0.99411 0.78714,-1.78125 1.78125,-1.78125 z m 9,0 c 0.99411,0 1.8125,0.78714 1.8125,1.78125 0,0.99411 -0.81839,1.8125 -1.8125,1.8125 -0.99411,0 -1.78125,-0.81839 -1.78125,-1.8125 0,-0.99411 0.78714,-1.78125 1.78125,-1.78125 z m 9,0 c 0.99411,0 1.8125,0.78714 1.8125,1.78125 0,0.99411 -0.81839,1.8125 -1.8125,1.8125 -0.99411,0 -1.78125,-0.81839 -1.78125,-1.8125 0,-0.99411 0.78714,-1.78125 1.78125,-1.78125 z m 9,0 c 0.99411,0 1.8125,0.78714 1.8125,1.78125 0,0.99411 -0.81839,1.8125 -1.8125,1.8125 -0.99411,0 -1.78125,-0.81839 -1.78125,-1.8125 0,-0.99411 0.78714,-1.78125 1.78125,-1.78125 z m 9,0 c 0.99411,0 1.8125,0.78714 1.8125,1.78125 0,0.99411 -0.81839,1.8125 -1.8125,1.8125 -0.99411,0 -1.78125,-0.81839 -1.78125,-1.8125 0,-0.99411 0.78714,-1.78125 1.78125,-1.78125 z m 9,0 c 0.99411,0 1.8125,0.78714 1.8125,1.78125 0,0.99411 -0.81839,1.8125 -1.8125,1.8125 -0.99411,0 -1.78125,-0.81839 -1.78125,-1.8125 0,-0.99411 0.78714,-1.78125 1.78125,-1.78125 z"/>
   <circle cx="4.3200002" cy="11.52" style="fill:none;stroke:#ffbf00;stroke-width:1.15199995" id="connector1pad-4-2-34-7-1" r="1.584" d="m 5.9040002,11.52 c 0,0.874819 -0.709181,1.584 -1.584,1.584 -0.8748191,0 -1.584,-0.709181 -1.584,-1.584 0,-0.874819 0.7091809,-1.5839995 1.584,-1.5839995 0.874819,0 1.584,0.7091805 1.584,1.5839995 z" transform="matrix(0,1.25,1.25,0,171.28756,174.53055)"/>
   <circle cx="4.3200002" cy="11.52" style="fill:none;stroke:#ffbf00;stroke-width:1.15199995" id="connector1pad-0-1-1-4-3" r="1.584" d="m 5.9040002,11.52 c 0,0.874819 -0.709181,1.584 -1.584,1.584 -0.8748191,0 -1.584,-0.709181 -1.584,-1.584 0,-0.874819 0.7091809,-1.5839995 1.584,-1.5839995 0.874819,0 1.584,0.7091805 1.584,1.5839995 z" transform="matrix(0,1.25,1.25,0,162.28771,174.53055)"/>
   <circle cx="4.3200002" cy="11.52" style="fill:none;stroke:#ffbf00;stroke-width:1.15199995" id="connector1pad-4-5-0-39-4-5" r="1.584" d="m 5.9040002,11.52 c 0,0.874819 -0.709181,1.584 -1.584,1.584 -0.8748191,0 -1.584,-0.709181 -1.584,-1.584 0,-0.874819 0.7091809,-1.5839995 1.584,-1.5839995 0.874819,0 1.584,0.7091805 1.584,1.5839995 z" transform="matrix(0,1.25,1.25,0,153.28786,174.53055)"/>
   <circle cx="4.3200002" cy="11.52" style="fill:none;stroke:#ffbf00;stroke-width:1.15199995" id="connector1pad-4-2-3-6-4-3" r="1.584" d="m 5.9040002,11.52 c 0,0.874819 -0.709181,1.584 -1.584,1.584 -0.8748191,0 -1.584,-0.709181 -1.584,-1.584 0,-0.874819 0.7091809,-1.5839995 1.584,-1.5839995 0.874819,0 1.584,0.7091805 1.584,1.5839995 z" transform="matrix(0,1.25,1.25,0,144.28802,174.53055)"/>
   <circle cx="4.3200002" cy="11.52" style="fill:none;stroke:#ffbf00;stroke-width:1.15199995" id="connector1pad-0-1-9-9-0-7" r="1.584" d="m 5.9040002,11.52 c 0,0.874819 -0.709181,1.584 -1.584,1.584 -0.8748191,0 -1.584,-0.709181 -1.584,-1.584 0,-0.874819 0.7091809,-1.5839995 1.584,-1.5839995 0.874819,0 1.584,0.7091805 1.584,1.5839995 z" transform="matrix(0,1.25,1.25,0,135.28817,174.53055)"/>
   <circle cx="4.3200002" cy="11.52" style="fill:none;stroke:#ffbf00;stroke-width:1.15199995" id="connector1pad-4-5-0-3-1-3-7" r="1.584" d="m 5.9040002,11.52 c 0,0.874819 -0.709181,1.584 -1.584,1.584 -0.8748191,0 -1.584,-0.709181 -1.584,-1.584 0,-0.874819 0.7091809,-1.5839995 1.584,-1.5839995 0.874819,0 1.584,0.7091805 1.584,1.5839995 z" transform="matrix(0,1.25,1.25,0,126.28833,174.53055)"/>
   <circle cx="4.3200002" cy="11.52" style="fill:none;stroke:#ffbf00;stroke-width:1.15199995" id="connector1pad-4-5-9-4" r="1.584" d="m 5.9040002,11.52 c 0,0.874819 -0.709181,1.584 -1.584,1.584 -0.8748191,0 -1.584,-0.709181 -1.584,-1.584 0,-0.874819 0.7091809,-1.5839995 1.584,-1.5839995 0.874819,0 1.584,0.7091805 1.584,1.5839995 z" transform="matrix(0,1.25,1.25,0,94.10865,2.43431)"/>
   <circle cx="4.3200002" cy="11.52" style="fill:none;stroke:#ffbf00;stroke-width:1.15199995" id="connector1pad-47-4-0" r="1.584" d="m 5.9040002,11.52 c 0,0.874819 -0.709181,1.584 -1.584,1.584 -0.8748191,0 -1.584,-0.709181 -1.584,-1.584 0,-0.874819 0.7091809,-1.5839995 1.584,-1.5839995 0.874819,0 1.584,0.7091805 1.584,1.5839995 z" transform="matrix(0,1.25,1.25,0,85.10881,2.43431)"/>
   <circle cx="4.3200002" cy="11.52" style="fill:none;stroke:#ffbf00;stroke-width:1.15199995" id="connector1pad-4-2-34-9" r="1.584" d="m 5.9040002,11.52 c 0,0.874819 -0.709181,1.584 -1.584,1.584 -0.8748191,0 -1.584,-0.709181 -1.584,-1.584 0,-0.874819 0.7091809,-1.5839995 1.584,-1.5839995 0.874819,0 1.584,0.7091805 1.584,1.5839995 z" transform="matrix(0,1.25,1.25,0,76.10896,2.43431)"/>
   <circle cx="4.3200002" cy="11.52" style="fill:none;stroke:#ffbf00;stroke-width:1.15199995" id="connector1pad-0-1-1-48" r="1.584" d="m 5.9040002,11.52 c 0,0.874819 -0.709181,1.584 -1.584,1.584 -0.8748191,0 -1.584,-0.709181 -1.584,-1.584 0,-0.874819 0.7091809,-1.5839995 1.584,-1.5839995 0.874819,0 1.584,0.7091805 1.584,1.5839995 z" transform="matrix(0,1.25,1.25,0,67.10911,2.43431)"/>
   <circle cx="4.3200002" cy="11.52" style="fill:none;stroke:#ffbf00;stroke-width:1.15199995" id="connector1pad-4-5-0-39-8" r="1.584" d="m 5.9040002,11.52 c 0,0.874819 -0.709181,1.584 -1.584,1.584 -0.8748191,0 -1.584,-0.709181 -1.584,-1.584 0,-0.874819 0.7091809,-1.5839995 1.584,-1.5839995 0.874819,0 1.584,0.7091805 1.584,1.5839995 z" transform="matrix(0,1.25,1.25,0,58.10926,2.43431)"/>
   <circle cx="4.3200002" cy="11.52" style="fill:none;stroke:#ffbf00;stroke-width:1.15199995" id="connector1pad-4-2-3-6-2" r="1.584" d="m 5.9040002,11.52 c 0,0.874819 -0.709181,1.584 -1.584,1.584 -0.8748191,0 -1.584,-0.709181 -1.584,-1.584 0,-0.874819 0.7091809,-1.5839995 1.584,-1.5839995 0.874819,0 1.584,0.7091805 1.584,1.5839995 z" transform="matrix(0,1.25,1.25,0,49.10942,2.43431)"/>
   <circle cx="4.3200002" cy="11.52" style="fill:none;stroke:#ffbf00;stroke-width:1.15199995" id="connector1pad-0-1-9-9-4" r="1.584" d="m 5.9040002,11.52 c 0,0.874819 -0.709181,1.584 -1.584,1.584 -0.8748191,0 -1.584,-0.709181 -1.584,-1.584 0,-0.874819 0.7091809,-1.5839995 1.584,-1.5839995 0.874819,0 1.584,0.7091805 1.584,1.5839995 z" transform="matrix(0,1.25,1.25,0,40.10957,2.43431)"/>
   <circle cx="4.3200002" cy="11.52" style="fill:none;stroke:#ffbf00;stroke-width:1.15199995" id="connector1pad-4-5-0-3-1-5" r="1.584" d="m 5.9040002,11.52 c 0,0.874819 -0.709181,1.584 -1.584,1.584 -0.8748191,0 -1.584,-0.709181 -1.584,-1.584 0,-0.874819 0.7091809,-1.5839995 1.584,-1.5839995 0.874819,0 1.584,0.7091805 1.584,1.5839995 z" transform="matrix(0,1.25,1.25,0,31.10973,2.43431)"/>
   <circle cx="4.3200002" cy="11.52" style="fill:none;stroke:#ffbf00;stroke-width:1.15199995" id="connector1pad-4-2-34-7" r="1.584" d="m 5.9040002,11.52 c 0,0.874819 -0.709181,1.584 -1.584,1.584 -0.8748191,0 -1.584,-0.709181 -1.584,-1.584 0,-0.874819 0.7091809,-1.5839995 1.584,-1.5839995 0.874819,0 1.584,0.7091805 1.584,1.5839995 z" transform="matrix(0,1.25,1.25,0,108.01764,174.53055)"/>
   <circle cx="4.3200002" cy="11.52" style="fill:none;stroke:#ffbf00;stroke-width:1.15199995" id="connector1pad-0-1-1-4" r="1.584" d="m 5.9040002,11.52 c 0,0.874819 -0.709181,1.584 -1.584,1.584 -0.8748191,0 -1.584,-0.709181 -1.584,-1.584 0,-0.874819 0.7091809,-1.5839995 1.584,-1.5839995 0.874819,0 1.584,0.7091805 1.584,1.5839995 z" transform="matrix(0,1.25,1.25,0,99.01779,174.53055)"/>
   <circle cx="4.3200002" cy="11.52" style="fill:none;stroke:#ffbf00;stroke-width:1.15199995" id="connector1pad-4-5-0-39-4" r="1.584" d="m 5.9040002,11.52 c 0,0.874819 -0.709181,1.584 -1.584,1.584 -0.8748191,0 -1.584,-0.709181 -1.584,-1.584 0,-0.874819 0.7091809,-1.5839995 1.584,-1.5839995 0.874819,0 1.584,0.7091805 1.584,1.5839995 z" transform="matrix(0,1.25,1.25,0,90.01794,174.53055)"/>
   <circle cx="4.3200002" cy="11.52" style="fill:none;stroke:#ffbf00;stroke-width:1.15199995" id="connector1pad-4-2-3-6-4" r="1.584" d="m 5.9040002,11.52 c 0,0.874819 -0.709181,1.584 -1.584,1.584 -0.8748191,0 -1.584,-0.709181 -1.584,-1.584 0,-0.874819 0.7091809,-1.5839995 1.584,-1.5839995 0.874819,0 1.584,0.7091805 1.584,1.5839995 z" transform="matrix(0,1.25,1.25,0,81.0181,174.53055)"/>
   <circle cx="4.3200002" cy="11.52" style="fill:none;stroke:#ffbf00;stroke-width:1.15199995" id="connector1pad-4-5-9-4-3" r="1.584" d="m 5.9040002,11.52 c 0,0.874819 -0.709181,1.584 -1.584,1.584 -0.8748191,0 -1.584,-0.709181 -1.584,-1.584 0,-0.874819 0.7091809,-1.5839995 1.584,-1.5839995 0.874819,0 1.584,0.7091805 1.584,1.5839995 z" transform="matrix(0,1.25,1.25,0,171.9658,2.43431)"/>
   <circle cx="4.3200002" cy="11.52" style="fill:none;stroke:#ffbf00;stroke-width:1.15199995" id="connector1pad-47-4-0-0" r="1.584" d="m 5.9040002,11.52 c 0,0.874819 -0.709181,1.584 -1.584,1.584 -0.8748191,0 -1.584,-0.709181 -1.584,-1.584 0,-0.874819 0.7091809,-1.5839995 1.584,-1.5839995 0.874819,0 1.584,0.7091805 1.584,1.5839995 z" transform="matrix(0,1.25,1.25,0,162.96596,2.43431)"/>
   <circle cx="4.3200002" cy="11.52" style="fill:none;stroke:#ffbf00;stroke-width:1.15199995" id="connector1pad-4-2-34-9-6" r="1.584" d="m 5.9040002,11.52 c 0,0.874819 -0.709181,1.584 -1.584,1.584 -0.8748191,0 -1.584,-0.709181 -1.584,-1.584 0,-0.874819 0.7091809,-1.5839995 1.584,-1.5839995 0.874819,0 1.584,0.7091805 1.584,1.5839995 z" transform="matrix(0,1.25,1.25,0,153.96611,2.43431)"/>
   <circle cx="4.3200002" cy="11.52" style="fill:none;stroke:#ffbf00;stroke-width:1.15199995" id="connector1pad-0-1-1-48-0" r="1.584" d="m 5.9040002,11.52 c 0,0.874819 -0.709181,1.584 -1.584,1.584 -0.8748191,0 -1.584,-0.709181 -1.584,-1.584 0,-0.874819 0.7091809,-1.5839995 1.584,-1.5839995 0.874819,0 1.584,0.7091805 1.584,1.5839995 z" transform="matrix(0,1.25,1.25,0,144.96626,2.43431)"/>
   <circle cx="4.3200002" cy="11.52" style="fill:none;stroke:#ffbf00;stroke-width:1.15199995" id="connector1pad-4-5-0-39-8-2" r="1.584" d="m 5.9040002,11.52 c 0,0.874819 -0.709181,1.584 -1.584,1.584 -0.8748191,0 -1.584,-0.709181 -1.584,-1.584 0,-0.874819 0.7091809,-1.5839995 1.584,-1.5839995 0.874819,0 1.584,0.7091805 1.584,1.5839995 z" transform="matrix(0,1.25,1.25,0,135.96641,2.43431)"/>
   <circle cx="4.3200002" cy="11.52" style="fill:none;stroke:#ffbf00;stroke-width:1.15199995" id="connector1pad-4-2-3-6-2-2" r="1.584" d="m 5.9040002,11.52 c 0,0.874819 -0.709181,1.584 -1.584,1.584 -0.8748191,0 -1.584,-0.709181 -1.584,-1.584 0,-0.874819 0.7091809,-1.5839995 1.584,-1.5839995 0.874819,0 1.584,0.7091805 1.584,1.5839995 z" transform="matrix(0,1.25,1.25,0,126.96657,2.43431)"/>
   <circle cx="4.3200002" cy="11.52" style="fill:none;stroke:#ffbf00;stroke-width:1.15199995" id="connector1pad-0-1-9-9-4-3" r="1.584" d="m 5.9040002,11.52 c 0,0.874819 -0.709181,1.584 -1.584,1.584 -0.8748191,0 -1.584,-0.709181 -1.584,-1.584 0,-0.874819 0.7091809,-1.5839995 1.584,-1.5839995 0.874819,0 1.584,0.7091805 1.584,1.5839995 z" transform="matrix(0,1.25,1.25,0,117.96672,2.43431)"/>
   <circle cx="4.3200002" cy="11.52" style="fill:none;stroke:#ffbf00;stroke-width:1.15199995" id="connector1pad-4-5-0-3-1-5-2" r="1.584" d="m 5.9040002,11.52 c 0,0.874819 -0.709181,1.584 -1.584,1.584 -0.8748191,0 -1.584,-0.709181 -1.584,-1.584 0,-0.874819 0.7091809,-1.5839995 1.584,-1.5839995 0.874819,0 1.584,0.7091805 1.584,1.5839995 z" transform="matrix(0,1.25,1.25,0,108.96688,2.43431)"/>
   <circle cx="4.3200002" cy="11.52" style="fill:none;stroke:#ffbf00;stroke-width:1.15199995" id="connector1pad-4-2-34-7-6" r="1.584" d="m 5.9040002,11.52 c 0,0.874819 -0.709181,1.584 -1.584,1.584 -0.8748191,0 -1.584,-0.709181 -1.584,-1.584 0,-0.874819 0.7091809,-1.5839995 1.584,-1.5839995 0.874819,0 1.584,0.7091805 1.584,1.5839995 z" transform="matrix(0,1.25,1.25,0,119.44521,77.65858)"/>
   <circle cx="4.3200002" cy="11.52" style="fill:none;stroke:#ffbf00;stroke-width:1.15199995" id="connector1pad-4-2-34-7-8" r="1.584" d="m 5.9040002,11.52 c 0,0.874819 -0.709181,1.584 -1.584,1.584 -0.8748191,0 -1.584,-0.709181 -1.584,-1.584 0,-0.874819 0.7091809,-1.5839995 1.584,-1.5839995 0.874819,0 1.584,0.7091805 1.584,1.5839995 z" transform="matrix(0,1.25,1.25,0,118.94014,67.93586)"/>
   <circle cx="4.3200002" cy="11.52" style="fill:none;stroke:#ffbf00;stroke-width:1.15199995" id="connector1pad-4-2-34-7-5" r="1.584" d="m 5.9040002,11.52 c 0,0.874819 -0.709181,1.584 -1.584,1.584 -0.8748191,0 -1.584,-0.709181 -1.584,-1.584 0,-0.874819 0.7091809,-1.5839995 1.584,-1.5839995 0.874819,0 1.584,0.7091805 1.584,1.5839995 z" transform="matrix(0,1.25,1.25,0,119.19267,49.87938)"/>
   <circle cx="4.3200002" cy="11.52" style="fill:none;stroke:#ffbf00;stroke-width:1.15199995" id="connector1pad-4-2-34-7-7" r="1.584" d="m 5.9040002,11.52 c 0,0.874819 -0.709181,1.584 -1.584,1.584 -0.8748191,0 -1.584,-0.709181 -1.584,-1.584 0,-0.874819 0.7091809,-1.5839995 1.584,-1.5839995 0.874819,0 1.584,0.7091805 1.584,1.5839995 z" transform="matrix(0,1.25,1.25,0,118.94014,41.41936)"/>
   <circle cx="4.3200002" cy="11.52" style="fill:none;stroke:#ffbf00;stroke-width:1.15199995" id="connector1pad-4-2-3-6-4-1" r="1.584" d="m 5.9040002,11.52 c 0,0.874819 -0.709181,1.584 -1.584,1.584 -0.8748191,0 -1.584,-0.709181 -1.584,-1.584 0,-0.874819 0.7091809,-1.5839995 1.584,-1.5839995 0.874819,0 1.584,0.7091805 1.584,1.5839995 z" transform="matrix(0,1.25,1.25,0,71.963183,174.58208)"/>
   <circle cx="4.3200002" cy="11.52" style="fill:none;stroke:#ffbf00;stroke-width:1.15199995" id="connector1pad-4-2-3-6-4-8" r="1.584" d="m 5.9040002,11.52 c 0,0.874819 -0.709181,1.584 -1.584,1.584 -0.8748191,0 -1.584,-0.709181 -1.584,-1.584 0,-0.874819 0.7091809,-1.5839995 1.584,-1.5839995 0.874819,0 1.584,0.7091805 1.584,1.5839995 z" transform="matrix(0,1.25,1.25,0,62.943924,174.58208)"/>
  </g>
  <rect width="5.624756147072304" x="155.9864074678549" y="177.7702675711332" fill="none" height="5.510970816038878" id="connector15"/>
  <rect width="5.487246272181722" x="110.742277199618" y="177.707004492116" fill="none" height="5.387861656275277" id="connector16"/>
  <rect width="5.567601686909825" x="69.86080955137669" y="5.557011211027913" fill="none" height="5.469433423051299" id="connector1pad-4-5-0-39-8-3"/>
  <rect width="5.418906306767923" x="92.91888224207392" y="177.6804984500135" fill="none" height="5.414367698377816" id="connector17"/>
  <rect width="5.171203664080224" x="165.8537964454343" y="5.629254165928955" fill="none" height="5.268634720526251" id="connector1pad-4-2-34-9-32"/>
  <rect width="5.370289118626261" x="87.9133827974417" y="5.575500820652422" fill="none" height="5.5781161190707" id="connector1pad-4-2-34-9-3"/>
  <rect width="5.388153322331704" x="83.81739552625038" y="177.6471584113696" fill="none" height="5.447707737021688" id="connector1pad-0-1-9-9-0-7"/>
  <rect width="5.406355312994549" x="78.92683473869633" y="5.557011211027941" fill="none" height="5.596605728695181" id="connector1pad-0-1-1-48-09"/>
  <rect width="5.603694564149606" x="105.8366691339404" y="5.660743505075061" fill="none" height="5.322388065802784" id="connector1pad-4-5-9-4-7"/>
  <rect width="5.494706354092557" x="183.7722282218667" y="5.59776482678285" fill="none" height="5.385366744094995" id="connector1pad-4-5-9-4-8"/>
  <rect width="5.582461433106005" x="51.84497048487398" y="5.44609882317593" fill="none" height="5.512694260926253" id="connector1pad-0-1-9-9-4-31"/>
  <rect width="5.471093145720147" x="129.7519795062862" y="5.683007511205489" fill="none" height="5.300124059672356" id="connector1pad-0-1-9-9-4-33"/>
  <rect width="5.447169459015242" x="74.81251192808793" y="177.707004492116" fill="none" height="5.574233895056068" id="connector1pad-4-5-0-3-1-3-7"/>
  <rect width="5.63456786883151" x="120.6380229187977" y="5.620028832913306" fill="none" height="5.363102737964539" id="connector1pad-4-5-0-3-1-5-1"/>
  <rect width="5.56739989851468" x="182.9745522202397" y="177.7668505728626" fill="none" height="5.421201694919148" id="connector12"/>
  <rect width="5.572938392781282" x="174.6582716343783" y="5.629254165928984" fill="none" height="5.609605458216777" id="connector1pad-47-4-0-06"/>
  <rect width="5.397494286040228" x="42.93592787800904" y="5.575500820652422" fill="none" height="5.383292263449761" id="connector1pad-4-5-0-3-1-5-3"/>
  <rect width="5.257088555907274" x="174.1526238625874" y="177.707004492116" fill="none" height="5.574233895056068" id="connector13"/>
  <rect width="5.455513277255335" x="60.88584899358745" y="5.586815927301302" fill="none" height="5.281937456266917" id="connector1pad-4-2-3-6-2-9"/>
  <rect width="5.685432171881729" x="164.8715989045244" y="177.7702675711332" fill="none" height="5.324598577258087" id="connector14"/>
  <rect width="5.309466526001586" x="97.09517262328873" y="5.629254165928955" fill="none" height="5.439120089371528" id="connector1pad-47-4-0-6"/>
 </g>
</svg>
