<?xml version='1.0' encoding='UTF-8' standalone='no'?>
<!-- Created with Inkscape (http://www.inkscape.org/) -->
<svg width="25.064381" xmlns:rdf="http://www.w3.org/1999/02/22-rdf-syntax-ns#" version="1.1" xmlns="http://www.w3.org/2000/svg" height="15.195378" xmlns:sodipodi="http://sodipodi.sourceforge.net/DTD/sodipodi-0.dtd" xmlns:cc="http://creativecommons.org/ns#" id="svg2" xmlns:dc="http://purl.org/dc/elements/1.1/" xmlns:svg="http://www.w3.org/2000/svg" xmlns:inkscape="http://www.inkscape.org/namespaces/inkscape">
 <g id="copper0">
  <defs id="defs4"/>
  <sodipodi:namedview fit-margin-top="0" fit-margin-left="0" showgrid="false" fit-margin-bottom="0" showborder="true" pagecolor="#ffffff" bordercolor="#666666" id="base" borderopacity="1.0" fit-margin-right="0"/>
  <metadata id="metadata7">
   <rdf:RDF>
    <cc:Work rdf:about="">
     <dc:format>image/svg+xml</dc:format>
     <dc:type rdf:resource="http://purl.org/dc/dcmitype/StillImage"/>
     <dc:title/>
    </cc:Work>
   </rdf:RDF>
  </metadata>
  <g id="layer1" transform="translate(-24.757288,-395.66242)">
   <g id="g3341" transform="translate(-186.07143,-38.214286)">
    <g id="g3331">
     <g id="g3322">
      <g id="g4176" transform="matrix(1.2499997,0,0,1.2499997,-517.30392,248.83769)">
       <g id="g4166">
        <circle cx="3.5999999" cy="8.2080002" style="fill:none;stroke:#ffbf00;stroke-width:1.44000006" r="1.98" id="circle80" d="m 5.5799999,8.2080002 c 0,1.0935238 -0.8864762,1.9799998 -1.98,1.9799998 -1.0935238,0 -1.98,-0.886476 -1.98,-1.9799998 0,-1.0935238 0.8864762,-1.98 1.98,-1.98 1.0935238,0 1.98,0.8864762 1.98,1.98 z" transform="translate(581.6,144.8)"/>
        <circle cx="10.8" cy="8.2080002" style="fill:none;stroke:#ffbf00;stroke-width:1.44000006" r="1.98" id="circle82" d="M 12.78,8.2080002 C 12.78,9.301524 11.893524,10.188 10.8,10.188 c -1.0935236,0 -1.9799998,-0.886476 -1.9799998,-1.9799998 0,-1.0935238 0.8864762,-1.98 1.9799998,-1.98 1.093524,0 1.98,0.8864762 1.98,1.98 z" transform="translate(581.6,144.8)"/>
        <line style="stroke:#ffffff;stroke-width:0.72000003" id="line7" y1="148.39999" y2="148.39999" x1="587.35999" x2="597.44"/>
        <path style="fill:none;stroke:#ffffff;stroke-width:0.72000003;stroke-linecap:round;stroke-linejoin:round;stroke-miterlimit:4;stroke-opacity:1;stroke-dasharray:none" id="path2413" d="m 598.3479,156.0431 a 6.11073,3.79092 0 0 1 -12.22103,0.0433"/>
        <circle cx="10.8" cy="8.2080002" style="fill:none;stroke:#ffbf00;stroke-width:1.44000006" r="1.98" id="circle82-1" d="M 12.78,8.2080002 C 12.78,9.301524 11.893524,10.188 10.8,10.188 c -1.0935236,0 -1.9799998,-0.886476 -1.9799998,-1.9799998 0,-1.0935238 0.8864762,-1.98 1.9799998,-1.98 1.093524,0 1.98,0.8864762 1.98,1.98 z" transform="translate(589.05776,144.70121)"/>
       </g>
      </g>
     </g>
    </g>
   </g>
  </g>
  <rect width="7.029511271255087" x="-0.0793580425101208" y="2.799148578947379" fill="none" height="6.844952024291502" id="connector1pad-4-5-0-3-1"/>
  <rect width="6.906471773279391" x="9.025564807692307" y="2.860668327935199" fill="none" height="6.721912526315834" id="connector1pad-0-1-9-9"/>
  <rect width="6.844952024291544" x="18.31504690485828" y="2.737628829959531" fill="none" height="6.783432275303654" id="connector1pad-4-2-3-6"/>
 </g>
</svg>
