<?xml version='1.0' encoding='UTF-8' standalone='no'?>
<!-- Created with Inkscape (http://www.inkscape.org/) -->
<svg width="210.3125" xmlns:rdf="http://www.w3.org/1999/02/22-rdf-syntax-ns#" version="1.1" xmlns="http://www.w3.org/2000/svg" height="190.1875" xmlns:sodipodi="http://sodipodi.sourceforge.net/DTD/sodipodi-0.dtd" xmlns:cc="http://creativecommons.org/ns#" id="svg2" xmlns:dc="http://purl.org/dc/elements/1.1/" xml:space="preserve" xmlns:svg="http://www.w3.org/2000/svg" xmlns:inkscape="http://www.inkscape.org/namespaces/inkscape">
 <g id="copper0">
  <metadata id="metadata8">
   <rdf:RDF>
    <cc:Work rdf:about="">
     <dc:format>image/svg+xml</dc:format>
     <dc:type rdf:resource="http://purl.org/dc/dcmitype/StillImage"/>
     <dc:title/>
    </cc:Work>
   </rdf:RDF>
  </metadata>
  <defs id="defs6"/>
  <sodipodi:namedview fit-margin-top="0" fit-margin-left="0" showgrid="false" fit-margin-bottom="0" objecttolerance="10" pagecolor="#ffffff" bordercolor="#666666" id="namedview4" borderopacity="1" guidetolerance="10" gridtolerance="10" fit-margin-right="0"/>
  <g id="g3083">
   <path style="opacity:0.98000004;fill:none;stroke:#ffffff;stroke-width:1.25;stroke-opacity:1" id="rect9235" d="m 0.625,0.625 0,188.9375 198.125,0 0.0625,-7.0625 10.875,-10.71875 0,-114.28125 L 199,46.75 199.15625,8.0625 191.71875,0.625 0.625,0.625 z"/>
   <circle cx="4.3200002" cy="11.52" style="fill:none;stroke:#ffbf00;stroke-width:1.15199995" id="connector1pad-4-2-34-7" r="1.584" d="m 5.9040002,11.52 c 0,0.874819 -0.709181,1.584 -1.584,1.584 -0.8748191,0 -1.584,-0.709181 -1.584,-1.584 0,-0.874819 0.7091809,-1.5839995 1.584,-1.5839995 0.874819,0 1.584,0.7091805 1.584,1.5839995 z" transform="matrix(0,1.25,1.25,0,111.58447,175.54186)"/>
   <circle cx="4.3200002" cy="11.52" style="fill:none;stroke:#ffbf00;stroke-width:1.15199995" id="connector1pad-0-1-1-4" r="1.584" d="m 5.9040002,11.52 c 0,0.874819 -0.709181,1.584 -1.584,1.584 -0.8748191,0 -1.584,-0.709181 -1.584,-1.584 0,-0.874819 0.7091809,-1.5839995 1.584,-1.5839995 0.874819,0 1.584,0.7091805 1.584,1.5839995 z" transform="matrix(0,1.25,1.25,0,102.58462,175.54186)"/>
   <circle cx="4.3200002" cy="11.52" style="fill:none;stroke:#ffbf00;stroke-width:1.15199995" id="connector1pad-4-5-0-39-4" r="1.584" d="m 5.9040002,11.52 c 0,0.874819 -0.709181,1.584 -1.584,1.584 -0.8748191,0 -1.584,-0.709181 -1.584,-1.584 0,-0.874819 0.7091809,-1.5839995 1.584,-1.5839995 0.874819,0 1.584,0.7091805 1.584,1.5839995 z" transform="matrix(0,1.25,1.25,0,93.584775,175.54186)"/>
   <circle cx="4.3200002" cy="11.52" style="fill:none;stroke:#ffbf00;stroke-width:1.15199995" id="connector1pad-4-2-3-6-4" r="1.584" d="m 5.9040002,11.52 c 0,0.874819 -0.709181,1.584 -1.584,1.584 -0.8748191,0 -1.584,-0.709181 -1.584,-1.584 0,-0.874819 0.7091809,-1.5839995 1.584,-1.5839995 0.874819,0 1.584,0.7091805 1.584,1.5839995 z" transform="matrix(0,1.25,1.25,0,84.584938,175.54186)"/>
   <circle cx="4.3200002" cy="11.52" style="fill:none;stroke:#ffbf00;stroke-width:1.15199995" id="connector1pad-0-1-9-9-0" r="1.584" d="m 5.9040002,11.52 c 0,0.874819 -0.709181,1.584 -1.584,1.584 -0.8748191,0 -1.584,-0.709181 -1.584,-1.584 0,-0.874819 0.7091809,-1.5839995 1.584,-1.5839995 0.874819,0 1.584,0.7091805 1.584,1.5839995 z" transform="matrix(0,1.25,1.25,0,75.585087,175.54186)"/>
   <circle cx="4.3200002" cy="11.52" style="fill:none;stroke:#ffbf00;stroke-width:1.15199995" id="connector1pad-4-5-0-3-1-3" r="1.584" d="m 5.9040002,11.52 c 0,0.874819 -0.709181,1.584 -1.584,1.584 -0.8748191,0 -1.584,-0.709181 -1.584,-1.584 0,-0.874819 0.7091809,-1.5839995 1.584,-1.5839995 0.874819,0 1.584,0.7091805 1.584,1.5839995 z" transform="matrix(0,1.25,1.25,0,66.585238,175.54186)"/>
   <circle cx="4.3200002" cy="11.52" style="fill:none;stroke:#ffbf00;stroke-width:1.15199995" id="connector1pad-4-2-34-7-9" r="1.584" d="m 5.9040002,11.52 c 0,0.874819 -0.709181,1.584 -1.584,1.584 -0.8748191,0 -1.584,-0.709181 -1.584,-1.584 0,-0.874819 0.7091809,-1.5839995 1.584,-1.5839995 0.874819,0 1.584,0.7091805 1.584,1.5839995 z" transform="matrix(0,1.25,1.25,0,174.51371,175.54186)"/>
   <circle cx="4.3200002" cy="11.52" style="fill:none;stroke:#ffbf00;stroke-width:1.15199995" id="connector1pad-0-1-1-4-3" r="1.584" d="m 5.9040002,11.52 c 0,0.874819 -0.709181,1.584 -1.584,1.584 -0.8748191,0 -1.584,-0.709181 -1.584,-1.584 0,-0.874819 0.7091809,-1.5839995 1.584,-1.5839995 0.874819,0 1.584,0.7091805 1.584,1.5839995 z" transform="matrix(0,1.25,1.25,0,165.51386,175.54186)"/>
   <circle cx="4.3200002" cy="11.52" style="fill:none;stroke:#ffbf00;stroke-width:1.15199995" id="connector1pad-4-5-0-39-4-8" r="1.584" d="m 5.9040002,11.52 c 0,0.874819 -0.709181,1.584 -1.584,1.584 -0.8748191,0 -1.584,-0.709181 -1.584,-1.584 0,-0.874819 0.7091809,-1.5839995 1.584,-1.5839995 0.874819,0 1.584,0.7091805 1.584,1.5839995 z" transform="matrix(0,1.25,1.25,0,156.51401,175.54186)"/>
   <circle cx="4.3200002" cy="11.52" style="fill:none;stroke:#ffbf00;stroke-width:1.15199995" id="connector1pad-4-2-3-6-4-6" r="1.584" d="m 5.9040002,11.52 c 0,0.874819 -0.709181,1.584 -1.584,1.584 -0.8748191,0 -1.584,-0.709181 -1.584,-1.584 0,-0.874819 0.7091809,-1.5839995 1.584,-1.5839995 0.874819,0 1.584,0.7091805 1.584,1.5839995 z" transform="matrix(0,1.25,1.25,0,147.51418,175.54186)"/>
   <circle cx="4.3200002" cy="11.52" style="fill:none;stroke:#ffbf00;stroke-width:1.15199995" id="connector1pad-0-1-9-9-0-0" r="1.584" d="m 5.9040002,11.52 c 0,0.874819 -0.709181,1.584 -1.584,1.584 -0.8748191,0 -1.584,-0.709181 -1.584,-1.584 0,-0.874819 0.7091809,-1.5839995 1.584,-1.5839995 0.874819,0 1.584,0.7091805 1.584,1.5839995 z" transform="matrix(0,1.25,1.25,0,138.51432,175.54186)"/>
   <circle cx="4.3200002" cy="11.52" style="fill:none;stroke:#ffbf00;stroke-width:1.15199995" id="connector1pad-4-5-0-3-1-3-7" r="1.584" d="m 5.9040002,11.52 c 0,0.874819 -0.709181,1.584 -1.584,1.584 -0.8748191,0 -1.584,-0.709181 -1.584,-1.584 0,-0.874819 0.7091809,-1.5839995 1.584,-1.5839995 0.874819,0 1.584,0.7091805 1.584,1.5839995 z" transform="matrix(0,1.25,1.25,0,129.51447,175.54186)"/>
   <circle cx="4.3200002" cy="11.52" style="fill:none;stroke:#ffbf00;stroke-width:1.15199995" id="connector1pad-4-5-9-4" r="1.584" d="m 5.9040002,11.52 c 0,0.874819 -0.709181,1.584 -1.584,1.584 -0.8748191,0 -1.584,-0.709181 -1.584,-1.584 0,-0.874819 0.7091809,-1.5839995 1.584,-1.5839995 0.874819,0 1.584,0.7091805 1.584,1.5839995 z" transform="matrix(0,1.25,1.25,0,174.55385,5.29612)"/>
   <circle cx="4.3200002" cy="11.52" style="fill:none;stroke:#ffbf00;stroke-width:1.15199995" id="connector1pad-47-4-0" r="1.584" d="m 5.9040002,11.52 c 0,0.874819 -0.709181,1.584 -1.584,1.584 -0.8748191,0 -1.584,-0.709181 -1.584,-1.584 0,-0.874819 0.7091809,-1.5839995 1.584,-1.5839995 0.874819,0 1.584,0.7091805 1.584,1.5839995 z" transform="matrix(0,1.25,1.25,0,165.55401,5.29612)"/>
   <circle cx="4.3200002" cy="11.52" style="fill:none;stroke:#ffbf00;stroke-width:1.15199995" id="connector1pad-4-2-34-9" r="1.584" d="m 5.9040002,11.52 c 0,0.874819 -0.709181,1.584 -1.584,1.584 -0.8748191,0 -1.584,-0.709181 -1.584,-1.584 0,-0.874819 0.7091809,-1.5839995 1.584,-1.5839995 0.874819,0 1.584,0.7091805 1.584,1.5839995 z" transform="matrix(0,1.25,1.25,0,156.55416,5.29612)"/>
   <circle cx="4.3200002" cy="11.52" style="fill:none;stroke:#ffbf00;stroke-width:1.15199995" id="connector1pad-0-1-1-48" r="1.584" d="m 5.9040002,11.52 c 0,0.874819 -0.709181,1.584 -1.584,1.584 -0.8748191,0 -1.584,-0.709181 -1.584,-1.584 0,-0.874819 0.7091809,-1.5839995 1.584,-1.5839995 0.874819,0 1.584,0.7091805 1.584,1.5839995 z" transform="matrix(0,1.25,1.25,0,147.55431,5.29612)"/>
   <circle cx="4.3200002" cy="11.52" style="fill:none;stroke:#ffbf00;stroke-width:1.15199995" id="connector1pad-4-5-0-39-8" r="1.584" d="m 5.9040002,11.52 c 0,0.874819 -0.709181,1.584 -1.584,1.584 -0.8748191,0 -1.584,-0.709181 -1.584,-1.584 0,-0.874819 0.7091809,-1.5839995 1.584,-1.5839995 0.874819,0 1.584,0.7091805 1.584,1.5839995 z" transform="matrix(0,1.25,1.25,0,138.55446,5.29612)"/>
   <circle cx="4.3200002" cy="11.52" style="fill:none;stroke:#ffbf00;stroke-width:1.15199995" id="connector1pad-4-2-3-6-2" r="1.584" d="m 5.9040002,11.52 c 0,0.874819 -0.709181,1.584 -1.584,1.584 -0.8748191,0 -1.584,-0.709181 -1.584,-1.584 0,-0.874819 0.7091809,-1.5839995 1.584,-1.5839995 0.874819,0 1.584,0.7091805 1.584,1.5839995 z" transform="matrix(0,1.25,1.25,0,129.55462,5.29612)"/>
   <circle cx="4.3200002" cy="11.52" style="fill:none;stroke:#ffbf00;stroke-width:1.15199995" id="connector1pad-0-1-9-9-4" r="1.584" d="m 5.9040002,11.52 c 0,0.874819 -0.709181,1.584 -1.584,1.584 -0.8748191,0 -1.584,-0.709181 -1.584,-1.584 0,-0.874819 0.7091809,-1.5839995 1.584,-1.5839995 0.874819,0 1.584,0.7091805 1.584,1.5839995 z" transform="matrix(0,1.25,1.25,0,120.55478,5.29612)"/>
   <circle cx="4.3200002" cy="11.52" style="fill:none;stroke:#ffbf00;stroke-width:1.15199995" id="connector1pad-4-5-0-3-1-5" r="1.584" d="m 5.9040002,11.52 c 0,0.874819 -0.709181,1.584 -1.584,1.584 -0.8748191,0 -1.584,-0.709181 -1.584,-1.584 0,-0.874819 0.7091809,-1.5839995 1.584,-1.5839995 0.874819,0 1.584,0.7091805 1.584,1.5839995 z" transform="matrix(0,1.25,1.25,0,111.55494,5.29612)"/>
   <circle cx="4.3200002" cy="11.52" style="fill:none;stroke:#ffbf00;stroke-width:1.15199995" id="connector1pad-4-5-9-4-2" r="1.584" d="m 5.9040002,11.52 c 0,0.874819 -0.709181,1.584 -1.584,1.584 -0.8748191,0 -1.584,-0.709181 -1.584,-1.584 0,-0.874819 0.7091809,-1.5839995 1.584,-1.5839995 0.874819,0 1.584,0.7091805 1.584,1.5839995 z" transform="matrix(0,1.25,1.25,0,97.331613,5.29612)"/>
   <circle cx="4.3200002" cy="11.52" style="fill:none;stroke:#ffbf00;stroke-width:1.15199995" id="connector1pad-47-4-0-5" r="1.584" d="m 5.9040002,11.52 c 0,0.874819 -0.709181,1.584 -1.584,1.584 -0.8748191,0 -1.584,-0.709181 -1.584,-1.584 0,-0.874819 0.7091809,-1.5839995 1.584,-1.5839995 0.874819,0 1.584,0.7091805 1.584,1.5839995 z" transform="matrix(0,1.25,1.25,0,88.331775,5.29612)"/>
   <circle cx="4.3200002" cy="11.52" style="fill:none;stroke:#ffbf00;stroke-width:1.15199995" id="connector1pad-4-2-34-9-1" r="1.584" d="m 5.9040002,11.52 c 0,0.874819 -0.709181,1.584 -1.584,1.584 -0.8748191,0 -1.584,-0.709181 -1.584,-1.584 0,-0.874819 0.7091809,-1.5839995 1.584,-1.5839995 0.874819,0 1.584,0.7091805 1.584,1.5839995 z" transform="matrix(0,1.25,1.25,0,79.331925,5.29612)"/>
   <circle cx="4.3200002" cy="11.52" style="fill:none;stroke:#ffbf00;stroke-width:1.15199995" id="connector1pad-0-1-1-48-5" r="1.584" d="m 5.9040002,11.52 c 0,0.874819 -0.709181,1.584 -1.584,1.584 -0.8748191,0 -1.584,-0.709181 -1.584,-1.584 0,-0.874819 0.7091809,-1.5839995 1.584,-1.5839995 0.874819,0 1.584,0.7091805 1.584,1.5839995 z" transform="matrix(0,1.25,1.25,0,70.332075,5.29612)"/>
   <circle cx="4.3200002" cy="11.52" style="fill:none;stroke:#ffbf00;stroke-width:1.15199995" id="connector1pad-4-5-0-39-8-1" r="1.584" d="m 5.9040002,11.52 c 0,0.874819 -0.709181,1.584 -1.584,1.584 -0.8748191,0 -1.584,-0.709181 -1.584,-1.584 0,-0.874819 0.7091809,-1.5839995 1.584,-1.5839995 0.874819,0 1.584,0.7091805 1.584,1.5839995 z" transform="matrix(0,1.25,1.25,0,61.332225,5.29612)"/>
   <circle cx="4.3200002" cy="11.52" style="fill:none;stroke:#ffbf00;stroke-width:1.15199995" id="connector1pad-4-2-3-6-2-5" r="1.584" d="m 5.9040002,11.52 c 0,0.874819 -0.709181,1.584 -1.584,1.584 -0.8748191,0 -1.584,-0.709181 -1.584,-1.584 0,-0.874819 0.7091809,-1.5839995 1.584,-1.5839995 0.874819,0 1.584,0.7091805 1.584,1.5839995 z" transform="matrix(0,1.25,1.25,0,52.332387,5.29612)"/>
   <circle cx="4.3200002" cy="11.52" style="fill:none;stroke:#ffbf00;stroke-width:1.15199995" id="connector1pad-0-1-9-9-4-4" r="1.584" d="m 5.9040002,11.52 c 0,0.874819 -0.709181,1.584 -1.584,1.584 -0.8748191,0 -1.584,-0.709181 -1.584,-1.584 0,-0.874819 0.7091809,-1.5839995 1.584,-1.5839995 0.874819,0 1.584,0.7091805 1.584,1.5839995 z" transform="matrix(0,1.25,1.25,0,43.332537,5.29612)"/>
   <circle cx="4.3200002" cy="11.52" style="fill:none;stroke:#ffbf00;stroke-width:1.15199995" id="connector1pad-4-5-0-3-1-5-8" r="1.584" d="m 5.9040002,11.52 c 0,0.874819 -0.709181,1.584 -1.584,1.584 -0.8748191,0 -1.584,-0.709181 -1.584,-1.584 0,-0.874819 0.7091809,-1.5839995 1.584,-1.5839995 0.874819,0 1.584,0.7091805 1.584,1.5839995 z" transform="matrix(0,1.25,1.25,0,34.3327,5.29612)"/>
  </g>
  <rect width="5.406751180710899" x="186.1457802013423" y="178.1783607066288" fill="none" height="5.399426081837532" id="connector81"/>
  <rect width="5.51069089294218" x="45.93576944203578" y="7.938084882096177" fill="none" height="5.414403108036282" id="connector82"/>
  <rect width="5.439352047744252" x="168.2690662202382" y="7.921077737809299" fill="none" height="5.50131417338261" id="connector83"/>
  <rect width="5.534592055750864" x="159.1562203955606" y="7.927880595524044" fill="none" height="5.564415236727342" id="connector84"/>
  <rect width="5.363822094949115" x="150.2394806186318" y="7.924479166666657" fill="none" height="5.428008823465802" id="connector85"/>
  <rect width="5.695985296993059" x="141.0994233630953" y="7.921077737809299" fill="none" height="5.571218094442088" id="connector86"/>
  <rect width="5.511609620761818" x="132.1962893015961" y="7.931282024381432" fill="none" height="5.421205965751028" id="connector87"/>
  <rect width="5.637462488484759" x="123.1227345382616" y="7.927880595524044" fill="none" height="5.564415236727342" id="connector88"/>
  <rect width="5.500706816256852" x="108.9291863932992" y="7.938084882096177" fill="none" height="5.484307029095731" id="connector89"/>
  <rect width="5.683427358462951" x="177.0425967261905" y="7.924479166666686" fill="none" height="5.428008823465774" id="connector100"/>
  <rect width="5.543748565423685" x="123.2164484613227" y="178.1439662635942" fill="none" height="5.494473427395235" id="connector101"/>
  <rect width="5.563458620635047" x="99.91873269330942" y="7.93128202438146" fill="none" height="5.561013807869927" id="connector90"/>
  <rect width="5.592196136439569" x="90.94229328189337" y="7.990981658868776" fill="none" height="5.431410252323133" id="connector91"/>
  <rect width="5.561234017756719" x="81.95564958390523" y="7.924479166666686" fill="none" height="5.428008823465774" id="connector92"/>
  <rect width="5.478527245766501" x="72.93340465047336" y="8.026742438273004" fill="none" height="5.464170162645615" id="connector93"/>
  <rect width="5.725224534984151" x="63.86729997481979" y="7.821698719420255" fill="none" height="5.888633312480692" id="connector94"/>
  <rect width="5.399775720122237" x="54.97070285236944" y="7.960771996279647" fill="none" height="5.536356545514906" id="connector95"/>
  <rect width="5.595787445969962" x="105.1326717086472" y="178.2119844753813" fill="none" height="5.426455215608144" id="connector96"/>
  <rect width="5.587319760969124" x="114.1552714491062" y="178.0483659035793" fill="none" height="5.729881629529018" id="connector97"/>
  <rect width="5.693993297896939" x="78.03740150940146" y="178.0874733326804" fill="none" height="5.696720297317938" id="connector98"/>
  <rect width="5.421178113750941" x="87.19869172525196" y="178.1559772166717" fill="none" height="5.552366395377135" id="connector74"/>
  <rect width="5.501430441118033" x="186.2421994602064" y="7.852761471857178" fill="none" height="5.499726518275281" id="connector99"/>
  <rect width="5.444059351660415" x="96.26332022507295" y="178.2376801866553" fill="none" height="5.470663425393525" id="connector75"/>
  <rect width="5.566381741446322" x="141.0892190765231" y="178.1575719790236" fill="none" height="5.410963790906294" id="connector76"/>
  <rect width="5.56312018712248" x="150.1416468751561" y="178.2358779636577" fill="none" height="5.366973536269541" id="connector77"/>
  <rect width="5.189935230657569" x="159.3056004836281" y="178.30078125" fill="none" height="5.431357847312654" id="connector78"/>
  <rect width="5.546533239277665" x="168.1817341049889" y="178.1842275249117" fill="none" height="5.417572103732141" id="connector79"/>
  <rect width="5.528570064421275" x="177.1376177928991" y="178.1852100483514" fill="none" height="5.499641119930971" id="connector80"/>
 </g>
</svg>
