<?xml version='1.0' encoding='UTF-8' standalone='no'?>
<!-- Created with Fritzing (http://www.fritzing.org/) -->
<svg width="117.73498" xmlns:rdf="http://www.w3.org/1999/02/22-rdf-syntax-ns#" x="0in" version="1.2" y="0in" xmlns="http://www.w3.org/2000/svg" height="64.764114" viewBox="0 0 94.188001 51.81127" xmlns:sodipodi="http://sodipodi.sourceforge.net/DTD/sodipodi-0.dtd" xmlns:cc="http://creativecommons.org/ns#" id="svg2" xmlns:dc="http://purl.org/dc/elements/1.1/" xmlns:svg="http://www.w3.org/2000/svg" xmlns:inkscape="http://www.inkscape.org/namespaces/inkscape">
 <g id="copper0">
  <metadata id="metadata273">
   <rdf:RDF>
    <cc:Work rdf:about="">
     <dc:format>image/svg+xml</dc:format>
     <dc:type rdf:resource="http://purl.org/dc/dcmitype/StillImage"/>
     <dc:title/>
    </cc:Work>
   </rdf:RDF>
  </metadata>
  <defs id="defs271"/>
  <sodipodi:namedview fit-margin-top="0" fit-margin-left="0" showgrid="false" fit-margin-bottom="0" objecttolerance="10" showborder="true" pagecolor="#ffffff" bordercolor="#666666" id="namedview269" borderopacity="1" guidetolerance="10" gridtolerance="10" fit-margin-right="0"/>
  <g id="g4701" transform="translate(0.32314968,0.46512888)">
   <g id="g4634">
    <circle cx="89.7967" cy="47.431" style="fill:none;stroke-width:0" r="1.80999" id="connector32pin" d="m 91.60669,47.431 c 0,0.99963 -0.810361,1.80999 -1.80999,1.80999 -0.99963,0 -1.809991,-0.81036 -1.809991,-1.80999 0,-0.99963 0.810361,-1.80999 1.809991,-1.80999 0.999629,0 1.80999,0.81036 1.80999,1.80999 z"/>
    <circle cx="82.620697" cy="47.431" style="fill:none;stroke-width:0" r="1.80999" id="connector31pin" d="m 84.430687,47.431 c 0,0.99963 -0.81036,1.80999 -1.80999,1.80999 -0.99963,0 -1.80999,-0.81036 -1.80999,-1.80999 0,-0.99963 0.81036,-1.80999 1.80999,-1.80999 0.99963,0 1.80999,0.81036 1.80999,1.80999 z"/>
    <circle cx="75.441704" cy="47.431" style="fill:none;stroke-width:0" r="1.80999" id="connector30pin" d="m 77.251694,47.431 c 0,0.99963 -0.81036,1.80999 -1.80999,1.80999 -0.99963,0 -1.80999,-0.81036 -1.80999,-1.80999 0,-0.99963 0.81036,-1.80999 1.80999,-1.80999 0.99963,0 1.80999,0.81036 1.80999,1.80999 z"/>
    <circle cx="68.268799" cy="47.431" style="fill:none;stroke-width:0" r="1.80999" id="connector29pin" d="m 70.078789,47.431 c 0,0.99963 -0.81036,1.80999 -1.80999,1.80999 -0.99963,0 -1.80999,-0.81036 -1.80999,-1.80999 0,-0.99963 0.81036,-1.80999 1.80999,-1.80999 0.99963,0 1.80999,0.81036 1.80999,1.80999 z"/>
    <circle cx="61.091801" cy="47.431" style="fill:none;stroke-width:0" r="1.80999" id="connector28pin" d="m 62.901791,47.431 c 0,0.99963 -0.81036,1.80999 -1.80999,1.80999 -0.99963,0 -1.80999,-0.81036 -1.80999,-1.80999 0,-0.99963 0.81036,-1.80999 1.80999,-1.80999 0.99963,0 1.80999,0.81036 1.80999,1.80999 z"/>
    <circle cx="53.915798" cy="47.431" style="fill:none;stroke-width:0" r="1.80999" id="connector27pin" d="m 55.725788,47.431 c 0,0.99963 -0.81036,1.80999 -1.80999,1.80999 -0.99963,0 -1.80999,-0.81036 -1.80999,-1.80999 0,-0.99963 0.81036,-1.80999 1.80999,-1.80999 0.99963,0 1.80999,0.81036 1.80999,1.80999 z"/>
    <circle cx="46.740799" cy="47.431" style="fill:none;stroke-width:0" r="1.80999" id="connector26pin" d="m 48.550789,47.431 c 0,0.99963 -0.81036,1.80999 -1.80999,1.80999 -0.99963,0 -1.80999,-0.81036 -1.80999,-1.80999 0,-0.99963 0.81036,-1.80999 1.80999,-1.80999 0.99963,0 1.80999,0.81036 1.80999,1.80999 z"/>
    <circle cx="39.5639" cy="47.431" style="fill:none;stroke-width:0" r="1.80999" id="connector25pin" d="m 41.37389,47.431 c 0,0.99963 -0.81036,1.80999 -1.80999,1.80999 -0.99963,0 -1.80999,-0.81036 -1.80999,-1.80999 0,-0.99963 0.81036,-1.80999 1.80999,-1.80999 0.99963,0 1.80999,0.81036 1.80999,1.80999 z"/>
    <circle cx="32.388901" cy="47.431" style="fill:none;stroke-width:0" r="1.80999" id="connector24pin" d="m 34.198891,47.431 c 0,0.99963 -0.81036,1.80999 -1.80999,1.80999 -0.99963,0 -1.80999,-0.81036 -1.80999,-1.80999 0,-0.99963 0.81036,-1.80999 1.80999,-1.80999 0.99963,0 1.80999,0.81036 1.80999,1.80999 z"/>
    <circle cx="25.211901" cy="47.431" style="fill:none;stroke-width:0" r="1.80999" id="connector23pin" d="m 27.021891,47.431 c 0,0.99963 -0.81036,1.80999 -1.80999,1.80999 -0.99963,0 -1.80999,-0.81036 -1.80999,-1.80999 0,-0.99963 0.81036,-1.80999 1.80999,-1.80999 0.99963,0 1.80999,0.81036 1.80999,1.80999 z"/>
    <circle cx="18.0369" cy="47.431" style="fill:none;stroke-width:0" r="1.80999" id="connector22pin" d="m 19.84689,47.431 c 0,0.99963 -0.810361,1.80999 -1.80999,1.80999 -0.99963,0 -1.80999,-0.81036 -1.80999,-1.80999 0,-0.99963 0.81036,-1.80999 1.80999,-1.80999 0.999629,0 1.80999,0.81036 1.80999,1.80999 z"/>
    <circle cx="10.862" cy="47.431" style="fill:none;stroke-width:0" r="1.80999" id="connector21pin" d="m 12.671991,47.431 c 0,0.99963 -0.810361,1.80999 -1.809991,1.80999 -0.9996294,0 -1.8099896,-0.81036 -1.8099896,-1.80999 0,-0.99963 0.8103602,-1.80999 1.8099896,-1.80999 0.99963,0 1.809991,0.81036 1.809991,1.80999 z"/>
    <circle cx="3.6519899" cy="43.451" style="fill:none;stroke-width:0" r="1.80999" id="connector20pin" d="m 5.46198,43.451 c 0,0.99963 -0.8103602,1.80999 -1.8099901,1.80999 -0.9996299,0 -1.80999,-0.81036 -1.80999,-1.80999 0,-0.99963 0.8103601,-1.80999 1.80999,-1.80999 0.9996299,0 1.8099901,0.81036 1.8099901,1.80999 z"/>
    <circle cx="3.6519899" cy="36.275002" style="fill:none;stroke-width:0" r="1.80999" id="connector19pin" d="m 5.46198,36.275002 c 0,0.999629 -0.8103602,1.80999 -1.8099901,1.80999 -0.9996299,0 -1.80999,-0.810361 -1.80999,-1.80999 0,-0.99963 0.8103601,-1.809991 1.80999,-1.809991 0.9996299,0 1.8099901,0.810361 1.8099901,1.809991 z"/>
    <circle cx="3.6529901" cy="29.101999" style="fill:none;stroke-width:0" r="1.80999" id="connector18pin" d="m 5.4629802,29.101999 c 0,0.99963 -0.8103602,1.80999 -1.8099901,1.80999 -0.9996299,0 -1.80999,-0.81036 -1.80999,-1.80999 0,-0.99963 0.8103601,-1.80999 1.80999,-1.80999 0.9996299,0 1.8099901,0.81036 1.8099901,1.80999 z"/>
    <circle cx="3.6529901" cy="21.927" style="fill:none;stroke-width:0" r="1.80999" id="connector17pin" d="m 5.4629802,21.927 c 0,0.99963 -0.8103602,1.80999 -1.8099901,1.80999 -0.9996299,0 -1.80999,-0.81036 -1.80999,-1.80999 0,-0.99963 0.8103601,-1.80999 1.80999,-1.80999 0.9996299,0 1.8099901,0.81036 1.8099901,1.80999 z"/>
    <circle cx="3.6529901" cy="14.75" style="fill:none;stroke-width:0" r="1.80999" id="connector16pin" d="m 5.4629802,14.75 c 0,0.99963 -0.8103602,1.80999 -1.8099901,1.80999 -0.9996299,0 -1.80999,-0.81036 -1.80999,-1.80999 0,-0.99963 0.8103601,-1.80999 1.80999,-1.80999 0.9996299,0 1.8099901,0.81036 1.8099901,1.80999 z"/>
    <circle cx="3.6529901" cy="7.5749998" style="fill:none;stroke-width:0" r="1.80999" id="connector15pin" d="m 5.4629802,7.5749998 c 0,0.9996299 -0.8103602,1.8099901 -1.8099901,1.8099901 -0.9996299,0 -1.80999,-0.8103602 -1.80999,-1.8099901 0,-0.9996299 0.8103601,-1.80999 1.80999,-1.80999 0.9996299,0 1.8099901,0.8103601 1.8099901,1.80999 z"/>
    <circle cx="10.864" cy="3.5940001" style="fill:none;stroke-width:0" r="1.80999" id="connector14pin" d="m 12.67399,3.5940001 c 0,0.9996299 -0.81036,1.80999 -1.80999,1.80999 -0.9996296,0 -1.8099897,-0.8103601 -1.8099897,-1.80999 0,-0.9996299 0.8103601,-1.80999 1.8099897,-1.80999 0.99963,0 1.80999,0.8103601 1.80999,1.80999 z"/>
    <circle cx="18.0399" cy="3.5940001" style="fill:none;stroke-width:0" r="1.80999" id="connector13pin" d="m 19.84989,3.5940001 c 0,0.9996299 -0.81036,1.80999 -1.80999,1.80999 -0.99963,0 -1.80999,-0.8103601 -1.80999,-1.80999 0,-0.9996299 0.81036,-1.80999 1.80999,-1.80999 0.99963,0 1.80999,0.8103601 1.80999,1.80999 z"/>
    <circle cx="25.214899" cy="3.5940001" style="fill:none;stroke-width:0" r="1.80999" id="connector12pin" d="m 27.024889,3.5940001 c 0,0.9996299 -0.81036,1.80999 -1.80999,1.80999 -0.99963,0 -1.80999,-0.8103601 -1.80999,-1.80999 0,-0.9996299 0.81036,-1.80999 1.80999,-1.80999 0.99963,0 1.80999,0.8103601 1.80999,1.80999 z"/>
    <circle cx="32.3909" cy="3.5940001" style="fill:none;stroke-width:0" r="1.80999" id="connector11pin" d="m 34.20089,3.5940001 c 0,0.9996299 -0.81036,1.80999 -1.80999,1.80999 -0.99963,0 -1.80999,-0.8103601 -1.80999,-1.80999 0,-0.9996299 0.81036,-1.80999 1.80999,-1.80999 0.99963,0 1.80999,0.8103601 1.80999,1.80999 z"/>
    <circle cx="35.9799" cy="11.669" style="fill:none;stroke-width:0" r="1.80999" id="connector10pin" d="m 37.78989,11.669 c 0,0.99963 -0.81036,1.80999 -1.80999,1.80999 -0.99963,0 -1.80999,-0.81036 -1.80999,-1.80999 0,-0.99963 0.81036,-1.8099904 1.80999,-1.8099904 0.99963,0 1.80999,0.8103604 1.80999,1.8099904 z"/>
    <circle cx="43.155899" cy="11.669" style="fill:none;stroke-width:0" r="1.80999" id="connector9pin" d="m 44.965889,11.669 c 0,0.99963 -0.81036,1.80999 -1.80999,1.80999 -0.99963,0 -1.80999,-0.81036 -1.80999,-1.80999 0,-0.99963 0.81036,-1.8099904 1.80999,-1.8099904 0.99963,0 1.80999,0.8103604 1.80999,1.8099904 z"/>
    <circle cx="39.566898" cy="3.5940001" style="fill:none;stroke-width:0" r="1.80999" id="connector8pin" d="m 41.376888,3.5940001 c 0,0.9996299 -0.81036,1.80999 -1.80999,1.80999 -0.99963,0 -1.80999,-0.8103601 -1.80999,-1.80999 0,-0.9996299 0.81036,-1.80999 1.80999,-1.80999 0.99963,0 1.80999,0.8103601 1.80999,1.80999 z"/>
    <circle cx="46.742802" cy="3.5940001" style="fill:none;stroke-width:0" r="1.80999" id="connector7pin" d="m 48.552792,3.5940001 c 0,0.9996299 -0.81036,1.80999 -1.80999,1.80999 -0.99963,0 -1.80999,-0.8103601 -1.80999,-1.80999 0,-0.9996299 0.81036,-1.80999 1.80999,-1.80999 0.99963,0 1.80999,0.8103601 1.80999,1.80999 z"/>
    <circle cx="53.9188" cy="3.5940001" style="fill:none;stroke-width:0" r="1.80999" id="connector6pin" d="m 55.72879,3.5940001 c 0,0.9996299 -0.81036,1.80999 -1.80999,1.80999 -0.99963,0 -1.80999,-0.8103601 -1.80999,-1.80999 0,-0.9996299 0.81036,-1.80999 1.80999,-1.80999 0.99963,0 1.80999,0.8103601 1.80999,1.80999 z"/>
    <circle cx="61.094799" cy="3.5940001" style="fill:none;stroke-width:0" r="1.80999" id="connector5pin" d="m 62.904789,3.5940001 c 0,0.9996299 -0.81036,1.80999 -1.80999,1.80999 -0.99963,0 -1.80999,-0.8103601 -1.80999,-1.80999 0,-0.9996299 0.81036,-1.80999 1.80999,-1.80999 0.99963,0 1.80999,0.8103601 1.80999,1.80999 z"/>
    <circle cx="68.270798" cy="3.5940001" style="fill:none;stroke-width:0" r="1.80999" id="connector4pin" d="m 70.080788,3.5940001 c 0,0.9996299 -0.81036,1.80999 -1.80999,1.80999 -0.99963,0 -1.80999,-0.8103601 -1.80999,-1.80999 0,-0.9996299 0.81036,-1.80999 1.80999,-1.80999 0.99963,0 1.80999,0.8103601 1.80999,1.80999 z"/>
    <circle cx="75.443703" cy="3.5940001" style="fill:none;stroke-width:0" r="1.80999" id="connector3pin" d="m 77.253693,3.5940001 c 0,0.9996299 -0.81036,1.80999 -1.80999,1.80999 -0.99963,0 -1.80999,-0.8103601 -1.80999,-1.80999 0,-0.9996299 0.81036,-1.80999 1.80999,-1.80999 0.99963,0 1.80999,0.8103601 1.80999,1.80999 z"/>
    <circle cx="82.620697" cy="3.5940001" style="fill:none;stroke-width:0" r="1.80999" id="connector2pin" d="m 84.430687,3.5940001 c 0,0.9996299 -0.81036,1.80999 -1.80999,1.80999 -0.99963,0 -1.80999,-0.8103601 -1.80999,-1.80999 0,-0.9996299 0.81036,-1.80999 1.80999,-1.80999 0.99963,0 1.80999,0.8103601 1.80999,1.80999 z"/>
    <path style="fill:none;stroke-width:0" id="connector1pin" d="m 89.7967,5.405 c -0.999997,0 -1.81199,-0.812 -1.81199,-1.812 0,-0.999 0.811997,-1.812 1.81199,-1.812 0.997997,0 1.80999,0.812 1.80999,1.812 -0.003,1.001 -0.81199,1.812 -1.80999,1.812 z"/>
    <path style="fill:none;stroke:#ffffff;stroke-width:0.64629936;stroke-miterlimit:4;stroke-opacity:1;stroke-dasharray:none" id="path89" d="m 0,0 0,51.023 93.5417,-0.142 0,-51.023 L 0,0 z M 3.65299,45.261 C 2.652993,45.261 1.842,44.449 1.842,43.45 c 0,-1 0.810997,-1.812 1.81099,-1.812 0.997997,0 1.80999,0.812 1.80999,1.812 -0.001,1 -0.812,1.811 -1.80999,1.811 z m 0,-7.176 c -0.999997,0 -1.81099,-0.812 -1.81099,-1.81 0,-1 0.810997,-1.812 1.81099,-1.812 0.997997,0 1.80999,0.812 1.80999,1.812 -0.001,0.999 -0.812,1.81 -1.80999,1.81 z m 0,-7.176 c -0.999997,0 -1.81099,-0.812 -1.81099,-1.81 0,-1 0.810997,-1.812 1.81099,-1.812 0.997997,0 1.80999,0.812 1.80999,1.812 0,1 -0.812,1.81 -1.80999,1.81 z m 0,-7.175 c -0.999997,0 -1.81099,-0.812 -1.81099,-1.81 0,-1 0.810997,-1.812 1.81099,-1.812 0.997997,0 1.80999,0.812 1.80999,1.812 -0.001,1.001 -0.812,1.81 -1.80999,1.81 z m 0,-7.175 c -0.999997,0 -1.81099,-0.812 -1.81099,-1.811 0,-1 0.810997,-1.812 1.81099,-1.812 0.997997,0 1.80999,0.812 1.80999,1.812 -0.001,1 -0.812,1.811 -1.80999,1.811 z m 0,-7.174 C 2.652993,9.385 1.842,8.573 1.842,7.573 c 0,-0.998 0.810997,-1.81 1.81099,-1.81 0.997997,0 1.80999,0.812 1.80999,1.81 -0.001,1.001 -0.812,1.812 -1.80999,1.812 z M 10.863,49.241 c -0.998997,0 -1.80999,-0.812 -1.80999,-1.812 0,-0.999 0.810997,-1.812 1.80999,-1.812 0.998993,0 1.81099,0.812 1.81099,1.812 -9.9e-4,1.002 -0.81199,1.812 -1.81099,1.812 z m 0,-43.836 c -0.998997,0 -1.80999,-0.812 -1.80999,-1.812 0,-0.999 0.810997,-1.812 1.80999,-1.812 0.998993,0 1.81099,0.812 1.81099,1.812 C 12.673,4.594 11.862,5.405 10.863,5.405 z m 7.1759,43.836 c -0.998997,0 -1.81099,-0.812 -1.81099,-1.812 0,-0.999 0.811997,-1.812 1.81099,-1.812 0.998993,0 1.80999,0.812 1.80999,1.812 10e-6,1.002 -0.81099,1.812 -1.80999,1.812 z m 0,-43.836 c -0.998997,0 -1.81099,-0.812 -1.81099,-1.812 0,-0.999 0.811997,-1.812 1.81099,-1.812 0.998993,0 1.80999,0.812 1.80999,1.812 10e-6,1.001 -0.81099,1.812 -1.80999,1.812 z m 7.176,43.836 c -0.998997,0 -1.81099,-0.812 -1.81099,-1.812 0,-0.999 0.811997,-1.812 1.81099,-1.812 0.998993,0 1.80999,0.812 1.80999,1.812 -9.9e-4,1.002 -0.81099,1.812 -1.80999,1.812 z m 0,-43.836 c -0.998997,0 -1.81099,-0.812 -1.81099,-1.812 0,-0.999 0.811997,-1.812 1.81099,-1.812 0.998993,0 1.80999,0.812 1.80999,1.812 -9.9e-4,1.001 -0.81099,1.812 -1.80999,1.812 z m 7.175,43.836 c -0.997997,0 -1.80899,-0.812 -1.80899,-1.812 0,-0.999 0.810997,-1.812 1.80899,-1.812 0.999997,0 1.81199,0.812 1.81199,1.812 -0.002,1.002 -0.81199,1.812 -1.81199,1.812 z m 0.002,-43.836 c -0.999997,0 -1.81099,-0.812 -1.81099,-1.812 0,-0.999 0.810997,-1.812 1.81099,-1.812 0.998997,0 1.80999,0.812 1.80999,1.812 -0.002,1.001 -0.81099,1.812 -1.80999,1.812 z m 7.173,43.836 c -0.997997,0 -1.80899,-0.812 -1.80899,-1.812 0,-0.999 0.810997,-1.812 1.80899,-1.812 0.999997,0 1.81199,0.812 1.81199,1.812 -9.9e-4,1.002 -0.81199,1.812 -1.81199,1.812 z m 0.002,-43.836 c -0.999997,0 -1.81099,-0.812 -1.81099,-1.812 0,-0.999 0.810997,-1.812 1.81099,-1.812 0.998997,0 1.80999,0.812 1.80999,1.812 -9.9e-4,1.001 -0.81099,1.812 -1.80999,1.812 z m 7.1749,43.836 c -0.998997,0 -1.80999,-0.812 -1.80999,-1.812 0,-0.999 0.811997,-1.812 1.80999,-1.812 0.999997,0 1.80999,0.812 1.80999,1.812 1e-5,1.002 -0.81099,1.812 -1.80999,1.812 z m 0.001,-43.836 c -0.999997,0 -1.81099,-0.812 -1.81099,-1.812 0,-0.999 0.811997,-1.812 1.81099,-1.812 0.998993,0 1.81099,0.812 1.81099,1.812 1e-5,1.001 -0.81199,1.812 -1.81099,1.812 z m -10.7639,8.07 c -0.999997,0 -1.81099,-0.812 -1.81099,-1.812 0,-0.999 0.810997,-1.811 1.81099,-1.811 0.998997,0 1.80999,0.812 1.80999,1.811 -9.9e-4,1.001 -0.81099,1.812 -1.80999,1.812 z m 7.175,0 c -0.999997,0 -1.80999,-0.812 -1.80999,-1.812 0,-0.999 0.810997,-1.811 1.80999,-1.811 0.998993,0 1.81099,0.812 1.81099,1.811 -0.0011,1.001 -0.81109,1.812 -1.81099,1.812 z m 10.7629,35.766 c -0.998997,0 -1.81199,-0.812 -1.81199,-1.812 0,-0.999 0.811997,-1.812 1.81199,-1.812 0.999993,0 1.81099,0.812 1.81099,1.812 1e-5,1.002 -0.81199,1.812 -1.81099,1.812 z m 0.002,-43.836 c -0.998997,0 -1.81199,-0.812 -1.81199,-1.812 0,-0.999 0.811997,-1.812 1.81199,-1.812 0.999993,0 1.81099,0.812 1.81099,1.812 -9.9e-4,1.001 -0.81199,1.812 -1.81099,1.812 z m 7.175,43.836 c -0.999997,0 -1.81099,-0.812 -1.81099,-1.812 0,-0.999 0.810997,-1.812 1.81099,-1.812 0.997997,0 1.80999,0.812 1.80999,1.812 -0.003,1.002 -0.81199,1.812 -1.80999,1.812 z m 10e-4,-43.836 c -0.999997,0 -1.81099,-0.812 -1.81099,-1.812 0,-0.999 0.810997,-1.812 1.81099,-1.812 0.997997,0 1.80899,0.812 1.80899,1.812 -9.9e-4,1.001 -0.81099,1.812 -1.80899,1.812 z m 7.176,43.836 c -0.999997,0 -1.81199,-0.812 -1.81199,-1.812 0,-0.999 0.811997,-1.812 1.81199,-1.812 0.997997,0 1.81099,0.812 1.81099,1.812 -0.004,1.002 -0.81299,1.812 -1.81099,1.812 z m 0,-43.836 c -0.999997,0 -1.81099,-0.812 -1.81099,-1.812 0,-0.999 0.810997,-1.812 1.81099,-1.812 0.997997,0 1.81199,0.812 1.81199,1.812 -0.004,1.001 -0.81399,1.812 -1.81199,1.812 z m 7.1729,43.836 c -0.999997,0 -1.81199,-0.812 -1.81199,-1.812 0,-0.999 0.811997,-1.812 1.81199,-1.812 0.997997,0 1.81099,0.812 1.81099,1.812 -9.9e-4,1.002 -0.81299,1.812 -1.81099,1.812 z m 0,-43.836 c -0.999997,0 -1.81199,-0.812 -1.81199,-1.812 0,-0.999 0.811997,-1.812 1.81199,-1.812 0.997997,0 1.81099,0.812 1.81099,1.812 -9.9e-4,1.001 -0.81299,1.812 -1.81099,1.812 z m 7.177,43.836 c -0.999997,0 -1.81199,-0.812 -1.81199,-1.812 0,-0.999 0.811997,-1.812 1.81199,-1.812 0.997997,0 1.80999,0.812 1.80999,1.812 1e-5,1.002 -0.81199,1.812 -1.80999,1.812 z m 0,-43.836 c -0.999997,0 -1.81199,-0.812 -1.81199,-1.812 0,-0.999 0.811997,-1.812 1.81199,-1.812 0.997997,0 1.80999,0.812 1.80999,1.812 1e-5,1.001 -0.81199,1.812 -1.80999,1.812 z m 7.176,43.836 c -0.999997,0 -1.81199,-0.812 -1.81199,-1.812 0,-0.999 0.811997,-1.812 1.81199,-1.812 0.997997,0 1.80999,0.812 1.80999,1.812 -0.003,1.002 -0.81199,1.812 -1.80999,1.812 z m 0,-43.836 c -0.999997,0 -1.81199,-0.812 -1.81199,-1.812 0,-0.999 0.811997,-1.812 1.81199,-1.812 0.997997,0 1.80999,0.812 1.80999,1.812 -0.003,1.001 -0.81199,1.812 -1.80999,1.812 z"/>
    <path style="fill:#9a916c;stroke-width:0" id="path97" d="m 10.863,1.042 c -1.407,0 -2.55199,1.146 -2.55199,2.554 0,1.407 1.145,2.552 2.55199,2.552 1.409,0 2.55299,-1.145 2.55299,-2.552 C 13.416,2.187 12.272,1.042 10.863,1.042 z m 0,4.362 c -0.998997,0 -1.80999,-0.812 -1.80999,-1.811 0,-0.999 0.810997,-1.812 1.80999,-1.812 0.998993,0 1.81099,0.812 1.81099,1.812 -9.9e-4,1 -0.81199,1.811 -1.81099,1.811 z"/>
    <path style="fill:#9a916c;stroke-width:0" id="path99" d="m 18.0389,1.042 c -1.408,0 -2.55299,1.146 -2.55299,2.554 0,1.407 1.145,2.552 2.55299,2.552 1.409,0 2.55199,-1.145 2.55199,-2.552 C 20.5909,2.187 19.4479,1.042 18.0389,1.042 z m 0,4.362 c -0.998997,0 -1.81099,-0.812 -1.81099,-1.811 0,-0.999 0.811997,-1.812 1.81099,-1.812 0.998993,0 1.80999,0.812 1.80999,1.812 0,1 -0.81099,1.811 -1.80999,1.811 z"/>
    <path style="fill:#9a916c;stroke-width:0" id="path101" d="m 25.2149,1.042 c -1.408,0 -2.55199,1.146 -2.55199,2.554 0,1.407 1.144,2.552 2.55199,2.552 1.409,0 2.55199,-1.145 2.55199,-2.552 C 27.7669,2.187 26.6239,1.042 25.2149,1.042 z m 0,4.362 c -0.998997,0 -1.81099,-0.812 -1.81099,-1.811 0,-0.999 0.811997,-1.812 1.81099,-1.812 0.998993,0 1.80999,0.812 1.80999,1.812 0,1 -0.81099,1.811 -1.80999,1.811 z"/>
    <path style="fill:#9a916c;stroke-width:0" id="path103" d="m 32.3919,1.042 c -1.408,0 -2.55199,1.146 -2.55199,2.554 0,1.407 1.144,2.552 2.55199,2.552 1.408,0 2.55099,-1.145 2.55099,-2.552 C 34.9419,2.186 33.7999,1.042 32.3919,1.042 z m 0,4.362 c -0.999997,0 -1.81099,-0.812 -1.81099,-1.811 0,-0.999 0.810997,-1.812 1.81099,-1.812 0.998997,0 1.80999,0.812 1.80999,1.812 -9.9e-4,1 -0.81099,1.811 -1.80999,1.811 z"/>
    <path style="fill:#9a916c;stroke-width:0" id="path105" d="m 39.5669,1.042 c -1.407,0 -2.55199,1.146 -2.55199,2.554 0,1.407 1.145,2.552 2.55199,2.552 1.408,0 2.55199,-1.145 2.55199,-2.552 C 42.1189,2.187 40.9759,1.042 39.5669,1.042 z m 0,4.362 c -0.999997,0 -1.81099,-0.812 -1.81099,-1.811 0,-0.999 0.810997,-1.812 1.81099,-1.812 0.998997,0 1.80999,0.812 1.80999,1.812 -9.9e-4,1 -0.81099,1.811 -1.80999,1.811 z"/>
    <path style="fill:#9a916c;stroke-width:0" id="path107" d="m 46.7428,1.042 c -1.408,0 -2.55199,1.146 -2.55199,2.554 0,1.407 1.145,2.552 2.55199,2.552 1.406,0 2.55099,-1.145 2.55099,-2.552 C 49.2938,2.187 48.1508,1.042 46.7428,1.042 z m 0,4.362 c -0.999997,0 -1.81099,-0.812 -1.81099,-1.811 0,-0.999 0.811997,-1.812 1.81099,-1.812 0.998993,0 1.81099,0.812 1.81099,1.812 0,1 -0.81199,1.811 -1.81099,1.811 z"/>
    <path style="fill:#9a916c;stroke-width:0" id="path109" d="m 35.9789,9.118 c -1.408,0 -2.55199,1.146 -2.55199,2.552 0,1.409 1.144,2.554 2.55199,2.554 1.40799,0 2.55099,-1.145 2.55099,-2.554 10e-6,-1.408 -1.14199,-2.552 -2.55099,-2.552 z m 0,4.361 c -0.999997,0 -1.81099,-0.812 -1.81099,-1.812 0,-1 0.810997,-1.811 1.81099,-1.811 0.998997,0 1.80999,0.812 1.80999,1.811 0,0.999 -0.80999,1.812 -1.80999,1.812 z"/>
    <path style="fill:#9a916c;stroke-width:0" id="path111" d="m 43.1549,9.118 c -1.407,0 -2.55099,1.146 -2.55099,2.552 0,1.409 1.145,2.554 2.55099,2.554 1.409,0 2.55199,-1.145 2.55199,-2.554 C 45.7058,10.262 44.5628,9.118 43.1549,9.118 z m 0,4.361 c -0.999997,0 -1.80999,-0.812 -1.80999,-1.812 0,-1 0.811997,-1.811 1.80999,-1.811 0.998997,0 1.81099,0.812 1.81099,1.811 0,0.999 -0.81209,1.812 -1.81099,1.812 z"/>
    <path style="fill:#9a916c;stroke-width:0" id="path113" d="m 53.9188,1.042 c -1.408,0 -2.55199,1.146 -2.55199,2.554 0,1.407 1.144,2.552 2.55199,2.552 1.409,0 2.55299,-1.145 2.55299,-2.552 1e-5,-1.409 -1.14399,-2.554 -2.55299,-2.554 z m 0,4.362 c -0.998997,0 -1.81199,-0.812 -1.81199,-1.811 0,-0.999 0.811997,-1.812 1.81199,-1.812 0.999993,0 1.81099,0.812 1.81099,1.812 0,1 -0.81199,1.811 -1.81099,1.811 z"/>
    <path style="fill:#9a916c;stroke-width:0" id="path115" d="m 61.0948,1.042 c -1.408,0 -2.55299,1.146 -2.55299,2.554 0,1.407 1.145,2.552 2.55299,2.552 1.40799,0 2.55099,-1.145 2.55099,-2.552 1e-5,-1.409 -1.14299,-2.554 -2.55099,-2.554 z m 0,4.362 c -0.999997,0 -1.81099,-0.812 -1.81099,-1.811 0,-0.999 0.810997,-1.812 1.81099,-1.812 0.997997,0 1.80899,0.812 1.80899,1.812 0,1 -0.81099,1.811 -1.80899,1.811 z"/>
    <path style="fill:#9a916c;stroke-width:0" id="path117" d="m 68.2708,1.042 c -1.408,0 -2.55299,1.146 -2.55299,2.554 0,1.407 1.145,2.552 2.55299,2.552 1.40799,0 2.55099,-1.145 2.55099,-2.552 C 70.8208,2.186 69.6788,1.042 68.2708,1.042 z m 0,4.362 c -0.999997,0 -1.81099,-0.812 -1.81099,-1.811 0,-0.999 0.810997,-1.812 1.81099,-1.812 0.997997,0 1.81199,0.812 1.81199,1.812 -0.002,1 -0.81399,1.811 -1.81199,1.811 z"/>
    <path style="fill:#9a916c;stroke-width:0" id="path119" d="m 75.4437,1.042 c -1.406,0 -2.55299,1.146 -2.55299,2.554 0,1.407 1.146,2.552 2.55299,2.552 1.408,0 2.55299,-1.145 2.55299,-2.552 1e-5,-1.409 -1.14299,-2.554 -2.55299,-2.554 z m 0,4.362 c -0.999997,0 -1.81199,-0.812 -1.81199,-1.811 0,-0.999 0.811997,-1.812 1.81199,-1.812 0.997997,0 1.81099,0.812 1.81099,1.812 -9.9e-4,1 -0.81299,1.811 -1.81099,1.811 z"/>
    <path style="fill:#9a916c;stroke-width:0" id="path121" d="m 82.6207,1.042 c -1.408,0 -2.55599,1.146 -2.55599,2.554 0,1.407 1.146,2.552 2.55599,2.552 1.405,0 2.55099,-1.145 2.55099,-2.552 1e-5,-1.409 -1.14399,-2.554 -2.55099,-2.554 z m 0,4.362 c -0.999997,0 -1.81199,-0.812 -1.81199,-1.811 0,-0.999 0.811997,-1.812 1.81199,-1.812 0.997997,0 1.80999,0.812 1.80999,1.812 0,1 -0.81199,1.811 -1.80999,1.811 z"/>
    <path style="fill:#9a916c;stroke-width:0" id="path123" d="m 89.7967,1.042 c -1.407,0 -2.55299,1.146 -2.55299,2.554 0,1.407 1.146,2.552 2.55299,2.552 1.408,0 2.55199,-1.145 2.55199,-2.552 C 92.3487,2.187 91.2047,1.042 89.7967,1.042 z m 0,4.362 c -0.999997,0 -1.81199,-0.812 -1.81199,-1.811 0,-0.999 0.811997,-1.812 1.81199,-1.812 0.997997,0 1.80999,0.812 1.80999,1.812 0,1 -0.81199,1.811 -1.80999,1.811 z"/>
    <path style="fill:#9a916c;stroke-width:0" id="path127" d="m 10.863,44.881 c -1.407,0 -2.55199,1.144 -2.55199,2.552 0,1.407 1.145,2.552 2.55199,2.552 1.409,0 2.55299,-1.145 2.55299,-2.552 C 13.415,46.023 12.272,44.881 10.863,44.881 z m 0,4.36 c -0.998997,0 -1.80999,-0.812 -1.80999,-1.812 0,-0.999 0.810997,-1.812 1.80999,-1.812 0.998993,0 1.81099,0.812 1.81099,1.812 -9.9e-4,1.002 -0.81199,1.812 -1.81099,1.812 z"/>
    <path style="fill:#9a916c;stroke-width:0" id="path129" d="m 18.0389,44.881 c -1.408,0 -2.55299,1.144 -2.55299,2.552 0,1.407 1.145,2.552 2.55299,2.552 1.409,0 2.55199,-1.145 2.55199,-2.552 10e-6,-1.41 -1.14299,-2.552 -2.55199,-2.552 z m 0,4.36 c -0.998997,0 -1.81099,-0.812 -1.81099,-1.812 0,-0.999 0.811997,-1.812 1.81099,-1.812 0.998993,0 1.80999,0.812 1.80999,1.812 10e-6,1.002 -0.81099,1.812 -1.80999,1.812 z"/>
    <path style="fill:#9a916c;stroke-width:0" id="path131" d="m 25.2149,44.881 c -1.408,0 -2.55199,1.144 -2.55199,2.552 0,1.407 1.144,2.552 2.55199,2.552 1.409,0 2.55199,-1.145 2.55199,-2.552 10e-6,-1.41 -1.14299,-2.552 -2.55199,-2.552 z m 0,4.36 c -0.998997,0 -1.81099,-0.812 -1.81099,-1.812 0,-0.999 0.811997,-1.812 1.81099,-1.812 0.998993,0 1.80999,0.812 1.80999,1.812 -9.9e-4,1.002 -0.81099,1.812 -1.80999,1.812 z"/>
    <path style="fill:#9a916c;stroke-width:0" id="path133" d="m 32.3899,44.881 c -1.408,0 -2.55099,1.144 -2.55099,2.552 0,1.407 1.143,2.552 2.55099,2.552 1.409,0 2.55199,-1.145 2.55199,-2.552 10e-6,-1.41 -1.14299,-2.552 -2.55199,-2.552 z m 0,4.36 c -0.997997,0 -1.80899,-0.812 -1.80899,-1.812 0,-0.999 0.810997,-1.812 1.80899,-1.812 0.999997,0 1.81199,0.812 1.81199,1.812 -0.002,1.002 -0.81199,1.812 -1.81199,1.812 z"/>
    <path style="fill:#9a916c;stroke-width:0" id="path135" d="m 39.5649,44.881 c -1.407,0 -2.55099,1.144 -2.55099,2.552 0,1.407 1.144,2.552 2.55099,2.552 1.409,0 2.55299,-1.145 2.55299,-2.552 -9.9e-4,-1.41 -1.14299,-2.552 -2.55299,-2.552 z m 0,4.36 c -0.997997,0 -1.80899,-0.812 -1.80899,-1.812 0,-0.999 0.810997,-1.812 1.80899,-1.812 0.999997,0 1.81199,0.812 1.81199,1.812 -9.9e-4,1.002 -0.81199,1.812 -1.81199,1.812 z"/>
    <path style="fill:#9a916c;stroke-width:0" id="path137" d="m 46.7418,44.881 c -1.409,0 -2.55199,1.144 -2.55199,2.552 0,1.407 1.144,2.552 2.55199,2.552 1.405,0 2.55099,-1.145 2.55099,-2.552 1e-5,-1.41 -1.14399,-2.552 -2.55099,-2.552 z m 0,4.36 c -0.998997,0 -1.80999,-0.812 -1.80999,-1.812 0,-0.999 0.811997,-1.812 1.80999,-1.812 0.999997,0 1.80999,0.812 1.80999,1.812 1e-5,1.002 -0.81099,1.812 -1.80999,1.812 z"/>
    <path style="fill:#9a916c;stroke-width:0" id="path139" d="m 53.9168,44.881 c -1.408,0 -2.55199,1.144 -2.55199,2.552 0,1.407 1.144,2.552 2.55199,2.552 1.409,0 2.55199,-1.145 2.55199,-2.552 1e-5,-1.41 -1.14299,-2.552 -2.55199,-2.552 z m 0,4.36 c -0.998997,0 -1.81199,-0.812 -1.81199,-1.812 0,-0.999 0.811997,-1.812 1.81199,-1.812 0.999993,0 1.81099,0.812 1.81099,1.812 1e-5,1.002 -0.81199,1.812 -1.81099,1.812 z"/>
    <path style="fill:#9a916c;stroke-width:0" id="path141" d="m 61.0938,44.881 c -1.407,0 -2.55299,1.144 -2.55299,2.552 0,1.407 1.146,2.552 2.55299,2.552 1.408,0 2.55199,-1.145 2.55199,-2.552 1e-5,-1.41 -1.14399,-2.552 -2.55199,-2.552 z m 0,4.36 c -0.999997,0 -1.81099,-0.812 -1.81099,-1.812 0,-0.999 0.810997,-1.812 1.81099,-1.812 0.997997,0 1.80999,0.812 1.80999,1.812 -0.003,1.002 -0.81199,1.812 -1.80999,1.812 z"/>
    <path style="fill:#9a916c;stroke-width:0" id="path143" d="m 68.2708,44.881 c -1.408,0 -2.55399,1.144 -2.55399,2.552 0,1.407 1.146,2.552 2.55399,2.552 1.40799,0 2.55099,-1.145 2.55099,-2.552 -9.9e-4,-1.41 -1.14299,-2.552 -2.55099,-2.552 z m 0,4.36 c -0.999997,0 -1.81199,-0.812 -1.81199,-1.812 0,-0.999 0.811997,-1.812 1.81199,-1.812 0.997997,0 1.81099,0.812 1.81099,1.812 -0.004,1.002 -0.81299,1.812 -1.81099,1.812 z"/>
    <path style="fill:#9a916c;stroke-width:0" id="path145" d="m 75.4437,44.881 c -1.406,0 -2.55299,1.144 -2.55299,2.552 0,1.407 1.146,2.552 2.55299,2.552 1.408,0 2.55299,-1.145 2.55299,-2.552 -9.9e-4,-1.41 -1.14299,-2.552 -2.55299,-2.552 z m 0,4.36 c -0.999997,0 -1.81199,-0.812 -1.81199,-1.812 0,-0.999 0.811997,-1.812 1.81199,-1.812 0.997997,0 1.81099,0.812 1.81099,1.812 -9.9e-4,1.002 -0.81299,1.812 -1.81099,1.812 z"/>
    <path style="fill:#9a916c;stroke-width:0" id="path147" d="m 82.6207,44.881 c -1.408,0 -2.55599,1.144 -2.55599,2.552 0,1.407 1.146,2.552 2.55599,2.552 1.405,0 2.55099,-1.145 2.55099,-2.552 1e-5,-1.41 -1.14399,-2.552 -2.55099,-2.552 z m 0,4.36 c -0.999997,0 -1.81199,-0.812 -1.81199,-1.812 0,-0.999 0.811997,-1.812 1.81199,-1.812 0.997997,0 1.80999,0.812 1.80999,1.812 1e-5,1.002 -0.81199,1.812 -1.80999,1.812 z"/>
    <path style="fill:#9a916c;stroke-width:0" id="path149" d="m 89.7967,44.881 c -1.407,0 -2.55299,1.144 -2.55299,2.552 0,1.407 1.146,2.552 2.55299,2.552 1.408,0 2.55199,-1.145 2.55199,-2.552 10e-6,-1.41 -1.14399,-2.552 -2.55199,-2.552 z m 0,4.36 c -0.999997,0 -1.81199,-0.812 -1.81199,-1.812 0,-0.999 0.811997,-1.812 1.81199,-1.812 0.997997,0 1.80999,0.812 1.80999,1.812 -0.003,1.002 -0.81199,1.812 -1.80999,1.812 z"/>
    <path style="fill:#9a916c;stroke-width:0" id="path153" d="m 6.20398,7.575 c 0,-1.408 -1.144,-2.554 -2.55199,-2.554 C 2.24399,5.022 1.1,6.167 1.1,7.575 c 0,1.407 1.145,2.551 2.55299,2.551 1.40899,0 2.55099,-1.143 2.55099,-2.551 z m -4.36099,0 c 0,-1 0.810997,-1.812 1.81099,-1.812 0.997997,0 1.80999,0.812 1.80999,1.812 0,0.998 -0.811997,1.81 -1.80999,1.81 -1.00099,0 -1.81099,-0.812 -1.81099,-1.81 z"/>
    <path style="fill:#9a916c;stroke-width:0" id="path155" d="m 6.20398,14.751 c 0,-1.406 -1.144,-2.553 -2.55199,-2.553 -1.408,0 -2.55199,1.146 -2.55199,2.553 0,1.408 1.145,2.553 2.55299,2.553 1.40899,-0.002 2.55099,-1.145 2.55099,-2.553 z m -4.36099,0 c 0,-1 0.810997,-1.812 1.81099,-1.812 0.997997,0 1.80999,0.812 1.80999,1.812 0,0.998 -0.811997,1.811 -1.80999,1.811 C 2.65299,16.56 1.84299,15.749 1.84299,14.751 z"/>
    <path style="fill:#9a916c;stroke-width:0" id="path157" d="m 6.20398,21.927 c 0,-1.408 -1.144,-2.555 -2.55199,-2.555 -1.408,0 -2.55199,1.146 -2.55199,2.555 0,1.406 1.145,2.551 2.55299,2.551 1.40899,0 2.55099,-1.143 2.55099,-2.551 z m -4.36099,0 c 0,-1 0.810997,-1.812 1.81099,-1.812 0.997997,0 1.80999,0.812 1.80999,1.812 0,0.997 -0.811997,1.81 -1.80999,1.81 -1.00099,-0.002 -1.81099,-0.811 -1.81099,-1.81 z"/>
    <path style="fill:#9a916c;stroke-width:0" id="path159" d="m 6.20398,29.101 c 0,-1.408 -1.144,-2.554 -2.55199,-2.554 -1.408,0 -2.55199,1.146 -2.55199,2.554 0,1.407 1.145,2.551 2.55299,2.551 1.40899,-0.001 2.55099,-1.142 2.55099,-2.551 z m -4.36099,0 c 0,-1 0.810997,-1.812 1.81099,-1.812 0.997997,0 1.80999,0.812 1.80999,1.812 0,0.998 -0.811997,1.81 -1.80999,1.81 -1.00099,-0.002 -1.81099,-0.812 -1.81099,-1.81 z"/>
    <path style="fill:#9a916c;stroke-width:0" id="path161" d="m 6.20398,36.276 c 0,-1.407 -1.144,-2.553 -2.55199,-2.553 -1.408,0 -2.55199,1.146 -2.55199,2.553 0,1.408 1.145,2.552 2.55299,2.552 1.40899,-0.001 2.55099,-1.143 2.55099,-2.552 z m -4.36099,0 c 0,-1 0.810997,-1.812 1.81099,-1.812 0.997997,0 1.80999,0.812 1.80999,1.812 0,0.998 -0.811997,1.81 -1.80999,1.81 -1.00099,-10e-4 -1.81099,-0.812 -1.81099,-1.81 z"/>
    <path style="fill:#9a916c;stroke-width:0" id="path163" d="m 6.20398,43.452 c 0,-1.408 -1.144,-2.554 -2.55199,-2.554 -1.408,0 -2.55199,1.146 -2.55199,2.554 0,1.407 1.145,2.551 2.55299,2.551 1.40899,0 2.55099,-1.143 2.55099,-2.551 z m -4.36099,0 c 0,-1 0.810997,-1.812 1.81099,-1.812 0.997997,0 1.80999,0.812 1.80999,1.812 0,0.998 -0.811997,1.811 -1.80999,1.811 C 2.65299,45.261 1.84299,44.45 1.84299,43.452 z"/>
   </g>
  </g>
 </g>
</svg>
