<?xml version='1.0' encoding='UTF-8' standalone='no'?>
<!-- Created with Inkscape (http://www.inkscape.org/) -->
<svg width="189.4375" version="1.1" xmlns="http://www.w3.org/2000/svg" height="168.46875" id="svg29632">
 <g id="copper0">
  <defs id="defs29634"/>
  <sodipodi:namedview fit-margin-top="0" fit-margin-left="0" showgrid="false" fit-margin-bottom="0" xmlns:sodipodi="http://sodipodi.sourceforge.net/DTD/sodipodi-0.dtd" pagecolor="#ffffff" bordercolor="#666666" id="base" borderopacity="1.0" fit-margin-right="0"/>
  <metadata id="metadata29637">
   <rdf:RDF xmlns:rdf="http://www.w3.org/1999/02/22-rdf-syntax-ns#">
    <cc:Work xmlns:rdf="http://www.w3.org/1999/02/22-rdf-syntax-ns#" xmlns:cc="http://creativecommons.org/ns#" rdf:about="">
     <dc:format xmlns:dc="http://purl.org/dc/elements/1.1/">image/svg+xml</dc:format>
     <dc:type xmlns:rdf="http://www.w3.org/1999/02/22-rdf-syntax-ns#" rdf:resource="http://purl.org/dc/dcmitype/StillImage" xmlns:dc="http://purl.org/dc/elements/1.1/"/>
     <dc:title xmlns:dc="http://purl.org/dc/elements/1.1/"/>
    </cc:Work>
   </rdf:RDF>
  </metadata>
  <g id="layer1" transform="translate(-93.5,-759.625)">
   <g style="font-size:4px;font-style:normal;font-variant:normal;font-weight:normal;font-stretch:normal;line-height:125%;letter-spacing:0px;word-spacing:0px;fill:#000000;fill-opacity:1;stroke:none;font-family:OCRA;-inkscape-font-specification:OCRA" id="text46299" xml:space="preserve"/>
   <g id="g3055">
    <path style="fill:none;stroke:#ffffff;stroke-opacity:1" id="rect29640" d="m 113.98808,760.11099 c -11.08,0 -20,8.92 -20,20 l 0,127.46875 c 0,11.08 8.92,20 20,20 l 148.4375,0 c 11.08,0 20,-8.92 20,-20 l 0,-127.46875 c 0,-11.08 -8.92,-20 -20,-20 l -148.4375,0 z m -2.28125,8.3125 c 3.00046,-0.10282 5.52189,2.22674 5.625,5.21875 0.10305,2.99035 -2.25129,5.51989 -5.25,5.625 -3.00046,0.10282 -5.52189,-2.25799 -5.625,-5.25 -0.10311,-2.99201 2.24954,-5.49093 5.25,-5.59375 z m 155.75,0 c 3.00046,-0.10282 5.52189,2.22674 5.625,5.21875 0.10305,2.99035 -2.22004,5.51989 -5.21875,5.625 l -0.0312,0 c -3.00046,0.10282 -5.49064,-2.25799 -5.59375,-5.25 -0.10311,-2.99201 2.21829,-5.49093 5.21875,-5.59375 z m -155.75,140.9375 c 3.00046,-0.10282 5.52189,2.22674 5.625,5.21875 0.10305,2.99035 -2.25129,5.48864 -5.25,5.59375 -3.00046,0.10282 -5.52189,-2.22674 -5.625,-5.21875 -0.10311,-2.99201 2.24954,-5.49093 5.25,-5.59375 z m 155.75,0 c 3.00046,-0.10282 5.52189,2.22674 5.625,5.21875 0.10305,2.99035 -2.22004,5.48864 -5.21875,5.59375 l -0.0312,0 c -3.00046,0.10282 -5.49064,-2.22674 -5.59375,-5.21875 -0.10311,-2.99201 2.21829,-5.49093 5.21875,-5.59375 z"/>
    <circle cx="8.6456699" cy="7.0866098" style="fill:none;stroke:#f7bd13;stroke-width:1.41732001" id="circle404-5" r="1.84252" d="m 10.48819,7.0866098 c 0,1.0175957 -0.8249244,1.84252 -1.8425201,1.84252 -1.0175957,0 -1.84252,-0.8249243 -1.84252,-1.84252 0,-1.0175957 0.8249243,-1.84252 1.84252,-1.84252 1.0175957,0 1.8425201,0.8249243 1.8425201,1.84252 z" transform="matrix(1.2499997,0,0,1.2499997,184.48851,766.92739)"/>
    <rect width="5.7030263" x="823.83655" y="-110.36936" height="12.19275" style="fill:none;stroke-width:0" id="rect3811-7-1-4" transform="matrix(0,1,-1,0,0,0)"/>
    <rect width="5.7030263" x="841.92792" y="-110.36936" height="12.19275" style="fill:none;stroke-width:0" id="rect3867-6-1-2" transform="matrix(0,1,-1,0,0,0)"/>
    <rect width="5.7030263" x="843.55487" y="-110.36936" height="12.19275" style="fill:none;stroke-width:0" id="rect3811-7-1-3" transform="matrix(0,1,-1,0,0,0)"/>
    <rect width="5.7030263" x="861.64624" y="-110.36936" height="12.19275" style="fill:none;stroke-width:0" id="rect3867-6-1-9" transform="matrix(0,1,-1,0,0,0)"/>
    <circle cx="8.6456699" cy="7.0866098" style="fill:none;stroke:#f7bd13;stroke-width:1.41732001" id="circle404" r="1.84252" d="m 10.48819,7.0866098 c 0,1.0175957 -0.8249244,1.84252 -1.8425201,1.84252 -1.0175957,0 -1.84252,-0.8249243 -1.84252,-1.84252 0,-1.0175957 0.8249243,-1.84252 1.84252,-1.84252 1.0175957,0 1.8425201,0.8249243 1.8425201,1.84252 z" transform="matrix(1.2499997,0,0,1.2499997,107.10957,875.14167)"/>
    <circle cx="8.6456699" cy="7.0866098" style="fill:none;stroke:#f7bd13;stroke-width:1.41732001" id="circle404-1" r="1.84252" d="m 10.48819,7.0866098 c 0,1.0175957 -0.8249244,1.84252 -1.8425201,1.84252 -1.0175957,0 -1.84252,-0.8249243 -1.84252,-1.84252 0,-1.0175957 0.8249243,-1.84252 1.84252,-1.84252 1.0175957,0 1.8425201,0.8249243 1.8425201,1.84252 z" transform="matrix(1.2499997,0,0,1.2499997,97.001506,854.42738)"/>
    <circle cx="8.6456699" cy="7.0866098" style="fill:none;stroke:#f7bd13;stroke-width:1.41732001" id="circle404-7" r="1.84252" d="m 10.48819,7.0866098 c 0,1.0175957 -0.8249244,1.84252 -1.8425201,1.84252 -1.0175957,0 -1.84252,-0.8249243 -1.84252,-1.84252 0,-1.0175957 0.8249243,-1.84252 1.84252,-1.84252 1.0175957,0 1.8425201,0.8249243 1.8425201,1.84252 z" transform="matrix(1.2499997,0,0,1.2499997,104.60956,796.57024)"/>
    <circle cx="8.6456699" cy="7.0866098" style="fill:none;stroke:#f7bd13;stroke-width:1.41732001" id="circle404-0" r="1.84252" d="m 10.48819,7.0866098 c 0,1.0175957 -0.8249244,1.84252 -1.8425201,1.84252 -1.0175957,0 -1.84252,-0.8249243 -1.84252,-1.84252 0,-1.0175957 0.8249243,-1.84252 1.84252,-1.84252 1.0175957,0 1.8425201,0.8249243 1.8425201,1.84252 z" transform="matrix(1.2499997,0,0,1.2499997,97.001506,817.28452)"/>
    <circle cx="8.6456699" cy="7.0866098" style="fill:none;stroke:#f7bd13;stroke-width:1.41732001" id="circle404-9" r="1.84252" d="m 10.48819,7.0866098 c 0,1.0175957 -0.8249244,1.84252 -1.8425201,1.84252 -1.0175957,0 -1.84252,-0.8249243 -1.84252,-1.84252 0,-1.0175957 0.8249243,-1.84252 1.84252,-1.84252 1.0175957,0 1.8425201,0.8249243 1.8425201,1.84252 z" transform="matrix(1.2499997,0,0,1.2499997,104.60957,786.57024)"/>
    <circle cx="8.6456699" cy="7.0866098" style="fill:none;stroke:#f7bd13;stroke-width:1.41732001" id="circle404-48" r="1.84252" d="m 10.48819,7.0866098 c 0,1.0175957 -0.8249244,1.84252 -1.8425201,1.84252 -1.0175957,0 -1.84252,-0.8249243 -1.84252,-1.84252 0,-1.0175957 0.8249243,-1.84252 1.84252,-1.84252 1.0175957,0 1.8425201,0.8249243 1.8425201,1.84252 z" transform="matrix(1.2499997,0,0,1.2499997,165.38266,766.92737)"/>
    <circle cx="8.6456699" cy="7.0866098" style="fill:none;stroke:#f7bd13;stroke-width:1.41732001" id="circle404-8" r="1.84252" d="m 10.48819,7.0866098 c 0,1.0175957 -0.8249244,1.84252 -1.8425201,1.84252 -1.0175957,0 -1.84252,-0.8249243 -1.84252,-1.84252 0,-1.0175957 0.8249243,-1.84252 1.84252,-1.84252 1.0175957,0 1.8425201,0.8249243 1.8425201,1.84252 z" transform="matrix(1.2499997,0,0,1.2499997,106.75242,886.21309)"/>
    <circle cx="8.6456699" cy="7.0866098" style="fill:none;stroke:#f7bd13;stroke-width:1.41732001" id="circle404-2" r="1.84252" d="m 10.48819,7.0866098 c 0,1.0175957 -0.8249244,1.84252 -1.8425201,1.84252 -1.0175957,0 -1.84252,-0.8249243 -1.84252,-1.84252 0,-1.0175957 0.8249243,-1.84252 1.84252,-1.84252 1.0175957,0 1.8425201,0.8249243 1.8425201,1.84252 z" transform="matrix(1.2499997,0,0,1.2499997,165.45779,907.1247)"/>
    <circle cx="8.6456699" cy="7.0866098" style="fill:none;stroke:#f7bd13;stroke-width:1.41732001" id="circle404-45" r="1.84252" d="m 10.48819,7.0866098 c 0,1.0175957 -0.8249244,1.84252 -1.8425201,1.84252 -1.0175957,0 -1.84252,-0.8249243 -1.84252,-1.84252 0,-1.0175957 0.8249243,-1.84252 1.84252,-1.84252 1.0175957,0 1.8425201,0.8249243 1.8425201,1.84252 z" transform="matrix(1.2499997,0,0,1.2499997,184.48851,906.92738)"/>
    <rect width="5.1300035" x="173.66888" y="773.35083" height="5.1300035" style="fill:none;stroke:#f7bd13;stroke-width:1.53000093" id="rect533"/>
    <rect width="5.1300035" x="173.69987" y="913.41797" height="5.1300035" style="fill:none;stroke:#f7bd13;stroke-width:1.53000093" id="rect533-1"/>
    <circle cx="8.6456699" cy="7.0866098" style="fill:none;stroke:#f7bd13;stroke-width:1.41732001" id="circle404-48-7" r="1.84252" d="m 10.48819,7.0866098 c 0,1.0175957 -0.8249244,1.84252 -1.8425201,1.84252 -1.0175957,0 -1.84252,-0.8249243 -1.84252,-1.84252 0,-1.0175957 0.8249243,-1.84252 1.84252,-1.84252 1.0175957,0 1.8425201,0.8249243 1.8425201,1.84252 z" transform="matrix(1.2499997,0,0,1.2499997,97.001506,837.86862)"/>
    <rect width="5.1300035" x="105.24359" y="844.29205" height="5.1300035" style="fill:none;stroke:#f7bd13;stroke-width:1.53000093" id="rect533-4"/>
   </g>
  </g>
  <rect width="7.904761904761898" x="20.2044642857143" y="120.8058035714286" fill="none" height="7.142857142857139" id="connector3"/>
  <rect width="7.599999999999994" x="20.2044642857143" y="131.8534226190477" fill="none" height="7.066666666666606" id="connector4"/>
  <rect width="7.090909090909065" x="18.35511363636365" y="42.41619318181816" fill="none" height="6.727272727272748" id="connector5"/>
  <rect width="7.090909090909094" x="17.99147727272728" y="32.59801136363635" fill="none" height="6.363636363636374" id="connector6"/>
  <rect width="7.200000000000017" x="79.11875000000001" y="12.83437499999999" fill="none" height="6.800000000000011" id="connector7"/>
  <rect width="6.763636363636408" x="98.35511363636363" y="12.96164772727272" fill="none" height="6.272727272727281" id="connector8"/>
  <rect width="6.615384615384642" x="79.64182692307691" y="152.8497596153846" fill="none" height="7.230769230769283" id="connector9"/>
  <rect width="6.755793226381428" x="98.66883912655973" y="152.9117368538325" fill="none" height="6.499108734402853" id="connector10"/>
  <rect width="6.466973886328731" x="11.15500192012289" y="63.14681739631337" fill="none" height="6.700460829493068" id="connector0"/>
  <rect width="7.08924485125857" x="11.10318935926773" y="83.67602259725402" fill="none" height="6.979405034324913" id="connector1"/>
  <rect width="6.631578947368411" x="10.92927631578948" y="100.0238486842105" fill="none" height="6.631578947368382" id="connector2"/>
 </g>
</svg>
