<?xml version='1.0' encoding='UTF-8' standalone='no'?>
<!-- Created with Inkscape (http://www.inkscape.org/) -->
<svg width="189.23814" xmlns:rdf="http://www.w3.org/1999/02/22-rdf-syntax-ns#" version="1.1" xmlns="http://www.w3.org/2000/svg" height="190.77977" xmlns:sodipodi="http://sodipodi.sourceforge.net/DTD/sodipodi-0.dtd" xmlns:cc="http://creativecommons.org/ns#" id="svg4711" xmlns:dc="http://purl.org/dc/elements/1.1/" xmlns:svg="http://www.w3.org/2000/svg" xmlns:inkscape="http://www.inkscape.org/namespaces/inkscape">
 <g id="copper0">
  <defs id="defs3"/>
  <sodipodi:namedview fit-margin-top="0" fit-margin-left="0" showgrid="false" fit-margin-bottom="0" showborder="true" pagecolor="#ffffff" units="mm" bordercolor="#666666" id="base" borderopacity="1.0" fit-margin-right="0"/>
  <metadata id="metadata4">
   <rdf:RDF>
    <cc:Work rdf:about="">
     <dc:format>image/svg+xml</dc:format>
     <dc:type rdf:resource="http://purl.org/dc/dcmitype/StillImage"/>
     <dc:title/>
    </cc:Work>
   </rdf:RDF>
  </metadata>
  <g id="g4629" transform="translate(15.087825,33.753932)">
   <path style="fill:none;stroke:#ffffff;stroke-opacity:1" id="path9160" d="m 78.71875,-33.25 c -0.807024,0.0073 -1.59501,0.03439 -2.40625,0.0625 -51.948281,1.799902 -92.62889,45.715956 -90.84375,98.09375 1.78514,52.37778 45.332979,93.3624 97.28125,91.5625 51.94827,-1.79989 92.6289,-45.71597 90.84375,-98.09375 l 0,-0.0625 C 171.79728,6.783203 129.56128,-33.713096 78.71875,-33.25 z m -36.0625,51.96875 c 3.00046,-0.102817 5.52189,2.226735 5.625,5.21875 0.10305,2.99035 -2.25129,5.519888 -5.25,5.625 -3.00046,0.102817 -5.52189,-2.257985 -5.625,-5.25 -0.10311,-2.992015 2.24954,-5.490933 5.25,-5.59375 z m 73.15625,0.59375 c 3.00047,-0.102817 5.52189,2.226735 5.625,5.21875 0.10305,2.99035 -2.25129,5.519888 -5.25,5.625 -3.00046,0.102817 -5.52189,-2.257985 -5.625,-5.25 -0.10311,-2.992015 2.24954,-5.490933 5.25,-5.59375 z M 91.375,21.84375 c 0.994113,0 1.78125,0.787137 1.78125,1.78125 0,0.994113 -0.787137,1.8125 -1.78125,1.8125 -0.994113,0 -1.8125,-0.818387 -1.8125,-1.8125 0,-0.994113 0.818387,-1.78125 1.8125,-1.78125 z M 61.9375,21.9375 c 0.994113,0 1.8125,0.787137 1.8125,1.78125 0,0.994113 -0.818387,1.8125 -1.8125,1.8125 -0.994113,0 -1.78125,-0.818387 -1.78125,-1.8125 0,-0.994113 0.787137,-1.78125 1.78125,-1.78125 z m 7.40625,0 c 0.994113,0 1.8125,0.787137 1.8125,1.78125 0,0.994113 -0.818387,1.8125 -1.8125,1.8125 -0.994113,0 -1.8125,-0.818387 -1.8125,-1.8125 0,-0.994113 0.818387,-1.78125 1.8125,-1.78125 z m 7.3125,0.09375 c 0.994113,0 1.8125,0.818387 1.8125,1.8125 0,0.994113 -0.818387,1.78125 -1.8125,1.78125 -0.994113,0 -1.8125,-0.787137 -1.8125,-1.78125 0,-0.994113 0.818387,-1.8125 1.8125,-1.8125 z m 7.40625,0 c 0.994113,0 1.8125,0.818387 1.8125,1.8125 0,0.994113 -0.818387,1.78125 -1.8125,1.78125 -0.994113,0 -1.8125,-0.787137 -1.8125,-1.78125 0,-0.994113 0.818387,-1.8125 1.8125,-1.8125 z m 13.5,0 c 0.994113,0 1.8125,0.818387 1.8125,1.8125 0,0.994113 -0.818387,1.78125 -1.8125,1.78125 -0.994113,0 -1.78125,-0.787137 -1.78125,-1.78125 0,-0.994113 0.787137,-1.8125 1.78125,-1.8125 z M 38.71875,44.9375 c 0.994113,0 1.8125,0.787137 1.8125,1.78125 0,0.994113 -0.818387,1.8125 -1.8125,1.8125 -0.994113,0 -1.8125,-0.818387 -1.8125,-1.8125 0,-0.994113 0.818387,-1.78125 1.8125,-1.78125 z m 78.84375,1.375 c 0.99411,0 1.8125,0.818387 1.8125,1.8125 0,0.994113 -0.81839,1.78125 -1.8125,1.78125 -0.99411,0 -1.78125,-0.787137 -1.78125,-1.78125 0,-0.994113 0.78714,-1.8125 1.78125,-1.8125 z m -7.1875,0.125 c 0.99411,0 1.8125,0.818387 1.8125,1.8125 0,0.994113 -0.81839,1.78125 -1.8125,1.78125 -0.99411,0 -1.8125,-0.787137 -1.8125,-1.78125 0,-0.994113 0.81839,-1.8125 1.8125,-1.8125 z m -71.53125,5.84375 c 0.994113,0 1.8125,0.818387 1.8125,1.8125 0,0.994113 -0.818387,1.78125 -1.8125,1.78125 -0.994113,0 -1.8125,-0.787137 -1.8125,-1.78125 0,-0.994113 0.818387,-1.8125 1.8125,-1.8125 z m 7.4375,0.0625 c 0.994113,0 1.8125,0.818387 1.8125,1.8125 0,0.994113 -0.818387,1.78125 -1.8125,1.78125 -0.994113,0 -1.78125,-0.787137 -1.78125,-1.78125 0,-0.994113 0.787137,-1.8125 1.78125,-1.8125 z m 71.28125,1.34375 c 0.99411,0 1.8125,0.818387 1.8125,1.8125 0,0.994113 -0.81839,1.8125 -1.8125,1.8125 -0.99411,0 -1.78125,-0.818387 -1.78125,-1.8125 0,-0.994113 0.78714,-1.8125 1.78125,-1.8125 z m -7.1875,0.125 c 0.99411,0 1.8125,0.818387 1.8125,1.8125 0,0.994113 -0.81839,1.8125 -1.8125,1.8125 -0.99411,0 -1.8125,-0.818387 -1.8125,-1.8125 0,-0.994113 0.81839,-1.8125 1.8125,-1.8125 z M 38.84375,59.625 c 0.994113,0 1.8125,0.818387 1.8125,1.8125 0,0.994113 -0.818387,1.8125 -1.8125,1.8125 -0.994113,0 -1.8125,-0.818387 -1.8125,-1.8125 0,-0.994113 0.818387,-1.8125 1.8125,-1.8125 z m 7.1875,0 c 0.994113,0 1.8125,0.818387 1.8125,1.8125 0,0.994113 -0.818387,1.8125 -1.8125,1.8125 -0.994113,0 -1.78125,-0.818387 -1.78125,-1.8125 0,-0.994113 0.787137,-1.8125 1.78125,-1.8125 z m 71.53125,1.46875 c 0.99411,0 1.8125,0.787137 1.8125,1.78125 0,0.994113 -0.81839,1.8125 -1.8125,1.8125 -0.99411,0 -1.78125,-0.818387 -1.78125,-1.8125 0,-0.994113 0.78714,-1.78125 1.78125,-1.78125 z m -7.1875,0.125 c 0.99411,0 1.8125,0.787137 1.8125,1.78125 0,0.994113 -0.81839,1.8125 -1.8125,1.8125 -0.99411,0 -1.8125,-0.818387 -1.8125,-1.8125 0,-0.994113 0.81839,-1.78125 1.8125,-1.78125 z M 46.03125,66.9375 c 0.994113,0 1.8125,0.78714 1.8125,1.78125 0,0.99411 -0.818387,1.8125 -1.8125,1.8125 -0.994113,0 -1.78125,-0.81839 -1.78125,-1.8125 0,-0.99411 0.787137,-1.78125 1.78125,-1.78125 z M 38.71875,67 c 0.994113,0 1.8125,0.78714 1.8125,1.78125 0,0.99411 -0.818387,1.8125 -1.8125,1.8125 -0.994113,0 -1.8125,-0.81839 -1.8125,-1.8125 0,-0.99411 0.818387,-1.78125 1.8125,-1.78125 z m 63.375,5.21875 c 0.99411,0 1.8125,0.78714 1.8125,1.78125 0,0.99411 -0.81839,1.8125 -1.8125,1.8125 -0.99411,0 -1.8125,-0.81839 -1.8125,-1.8125 0,-0.99411 0.81839,-1.78125 1.8125,-1.78125 z m 7.4375,0 c 0.99411,0 1.8125,0.78714 1.8125,1.78125 0,0.99411 -0.81839,1.8125 -1.8125,1.8125 -0.99411,0 -1.78125,-0.81839 -1.78125,-1.8125 0,-0.99411 0.78714,-1.78125 1.78125,-1.78125 z m 7.46875,0 c 0.99411,0 1.78125,0.78714 1.78125,1.78125 0,0.99411 -0.78714,1.8125 -1.78125,1.8125 -0.99411,0 -1.8125,-0.81839 -1.8125,-1.8125 0,-0.99411 0.81839,-1.78125 1.8125,-1.78125 z m -70.96875,2 c 0.994113,0 1.8125,0.81839 1.8125,1.8125 0,0.99411 -0.818387,1.78125 -1.8125,1.78125 -0.994113,0 -1.78125,-0.78714 -1.78125,-1.78125 0,-0.99411 0.787137,-1.8125 1.78125,-1.8125 z m -7.3125,0.125 c 0.994113,0 1.8125,0.81839 1.8125,1.8125 0,0.99411 -0.818387,1.78125 -1.8125,1.78125 -0.994113,0 -1.8125,-0.78714 -1.8125,-1.78125 0,-0.99411 0.818387,-1.8125 1.8125,-1.8125 z M 62.25,90.375 c 0.994113,0 1.78125,0.81839 1.78125,1.8125 0,0.99411 -0.787137,1.8125 -1.78125,1.8125 -0.994113,0 -1.8125,-0.81839 -1.8125,-1.8125 0,-0.99411 0.818387,-1.8125 1.8125,-1.8125 z m 7.375,0 c 0.994113,0 1.78125,0.81839 1.78125,1.8125 0,0.99411 -0.787137,1.8125 -1.78125,1.8125 -0.994113,0 -1.8125,-0.81839 -1.8125,-1.8125 0,-0.99411 0.818387,-1.8125 1.8125,-1.8125 z m 7.34375,0 c 0.994113,0 1.8125,0.81839 1.8125,1.8125 0,0.99411 -0.818387,1.8125 -1.8125,1.8125 -0.994113,0 -1.78125,-0.81839 -1.78125,-1.8125 0,-0.99411 0.787137,-1.8125 1.78125,-1.8125 z m 38.71875,1.8125 c 3.00047,-0.10282 5.49064,2.25799 5.59375,5.25 0.10305,2.99035 -2.22004,5.48864 -5.21875,5.59375 -3.00046,0.10282 -5.52189,-2.22674 -5.625,-5.21875 -0.10311,-2.99201 2.24954,-5.52218 5.25,-5.625 z m -72.90625,0.28125 c 3.00046,-0.10282 5.52189,2.25799 5.625,5.25 0.10305,2.99035 -2.25129,5.48864 -5.25,5.59375 -3.00046,0.10282 -5.52189,-2.22674 -5.625,-5.21875 -0.10311,-2.99201 2.24954,-5.52218 5.25,-5.625 z m 32.6875,31.40625 c 0.994113,0 1.8125,0.81839 1.8125,1.8125 0,0.99411 -0.818387,1.8125 -1.8125,1.8125 -0.994113,0 -1.78125,-0.81839 -1.78125,-1.8125 0,-0.99411 0.787137,-1.8125 1.78125,-1.8125 z m 7.46875,0 c 0.994113,0 1.78125,0.81839 1.78125,1.8125 0,0.99411 -0.787137,1.8125 -1.78125,1.8125 -0.994113,0 -1.8125,-0.81839 -1.8125,-1.8125 0,-0.99411 0.818387,-1.8125 1.8125,-1.8125 z"/>
   <circle cx="4.3200002" cy="11.52" style="fill:none;stroke:#ffbf00;stroke-width:1.15199995" id="connector1pad-7" r="1.584" d="m 5.9040002,11.52 c 0,0.874819 -0.709181,1.584 -1.584,1.584 -0.8748191,0 -1.584,-0.709181 -1.584,-1.584 0,-0.874819 0.7091809,-1.5839995 1.584,-1.5839995 0.874819,0 1.584,0.7091805 1.584,1.5839995 z" transform="matrix(-1.25,0,0,-1.25,114.93537,88.412984)"/>
   <circle cx="4.3200002" cy="11.52" style="fill:none;stroke:#ffbf00;stroke-width:1.15199995" id="connector1pad-7-4" r="1.584" d="m 5.9040002,11.52 c 0,0.874819 -0.709181,1.584 -1.584,1.584 -0.8748191,0 -1.584,-0.709181 -1.584,-1.584 0,-0.874819 0.7091809,-1.5839995 1.584,-1.5839995 0.874819,0 1.584,0.7091805 1.584,1.5839995 z" transform="matrix(-1.25,0,0,-1.25,107.48548,88.412984)"/>
   <rect width="3.96" x="-118.96524" y="-75.99295" height="3.96" style="fill:none;stroke:#ffbf00;stroke-width:1.43999994" id="rect17-9" transform="scale(-1,-1)"/>
   <circle cx="4.3200002" cy="4.3200002" style="fill:none;stroke:#ffbf00;stroke-width:1.15199995" id="connector0pad-4" r="1.584" d="m 5.9040002,4.3200002 c 0,0.874819 -0.709181,1.584 -1.584,1.584 -0.8748191,0 -1.584,-0.709181 -1.584,-1.584 0,-0.8748191 0.7091809,-1.584 1.584,-1.584 0.874819,0 1.584,0.7091809 1.584,1.584 z" transform="matrix(-1.25,0,0,-1.25,122.38524,79.412954)"/>
   <circle cx="4.3200002" cy="11.52" style="fill:none;stroke:#ffbf00;stroke-width:1.15199995" id="connector1pad-7-4-3" r="1.584" d="m 5.9040002,11.52 c 0,0.874819 -0.709181,1.584 -1.584,1.584 -0.8748191,0 -1.584,-0.709181 -1.584,-1.584 0,-0.874819 0.7091809,-1.5839995 1.584,-1.5839995 0.874819,0 1.584,0.7091805 1.584,1.5839995 z" transform="matrix(0,-1.25,1.25,0,95.967214,68.420134)"/>
   <circle cx="4.3200002" cy="11.52" style="fill:none;stroke:#ffbf00;stroke-width:1.15199995" id="connector1pad-7-4-3-6" r="1.584" d="m 5.9040002,11.52 c 0,0.874819 -0.709181,1.584 -1.584,1.584 -0.8748191,0 -1.584,-0.709181 -1.584,-1.584 0,-0.874819 0.7091809,-1.5839995 1.584,-1.5839995 0.874819,0 1.584,0.7091805 1.584,1.5839995 z" transform="matrix(0,-1.25,1.25,0,95.967214,61.033404)"/>
   <circle cx="4.3200002" cy="11.52" style="fill:none;stroke:#ffbf00;stroke-width:1.15199995" id="connector1pad-7-4-3-9" r="1.584" d="m 5.9040002,11.52 c 0,0.874819 -0.709181,1.584 -1.584,1.584 -0.8748191,0 -1.584,-0.709181 -1.584,-1.584 0,-0.874819 0.7091809,-1.5839995 1.584,-1.5839995 0.874819,0 1.584,0.7091805 1.584,1.5839995 z" transform="matrix(0,-1.25,1.25,0,95.967234,53.646654)"/>
   <rect width="3.96" x="-50.100365" y="115.58456" height="3.96" style="fill:none;stroke:#ffbf00;stroke-width:1.43999994" id="rect17-2" transform="matrix(0,-1,1,0,0,0)"/>
   <circle cx="4.3200002" cy="4.3200002" style="fill:none;stroke:#ffbf00;stroke-width:1.15199995" id="connector0pad-5" r="1.584" d="m 5.9040002,4.3200002 c 0,0.874819 -0.709181,1.584 -1.584,1.584 -0.8748191,0 -1.584,-0.709181 -1.584,-1.584 0,-0.8748191 0.7091809,-1.584 1.584,-1.584 0.874819,0 1.584,0.7091809 1.584,1.584 z" transform="matrix(0,-1.25,1.25,0,112.16456,53.520364)"/>
   <circle cx="4.3200002" cy="11.52" style="fill:none;stroke:#ffbf00;stroke-width:1.15199995" id="connector1pad-7-4-3-4" r="1.584" d="m 5.9040002,11.52 c 0,0.874819 -0.709181,1.584 -1.584,1.584 -0.8748191,0 -1.584,-0.709181 -1.584,-1.584 0,-0.874819 0.7091809,-1.5839995 1.584,-1.5839995 0.874819,0 1.584,0.7091805 1.584,1.5839995 z" transform="matrix(0,-1.25,1.25,0,103.16453,68.293854)"/>
   <circle cx="4.3200002" cy="11.52" style="fill:none;stroke:#ffbf00;stroke-width:1.15199995" id="connector1pad-7-4-3-3" r="1.584" d="m 5.9040002,11.52 c 0,0.874819 -0.709181,1.584 -1.584,1.584 -0.8748191,0 -1.584,-0.709181 -1.584,-1.584 0,-0.874819 0.7091809,-1.5839995 1.584,-1.5839995 0.874819,0 1.584,0.7091805 1.584,1.5839995 z" transform="matrix(0,-1.25,1.25,0,103.16453,60.907114)"/>
   <circle cx="4.3200002" cy="11.52" style="fill:none;stroke:#ffbf00;stroke-width:1.15199995" id="connector1pad-7-4-3-60" r="1.584" d="m 5.9040002,11.52 c 0,0.874819 -0.709181,1.584 -1.584,1.584 -0.8748191,0 -1.584,-0.709181 -1.584,-1.584 0,-0.874819 0.7091809,-1.5839995 1.584,-1.5839995 0.874819,0 1.584,0.7091805 1.584,1.5839995 z" transform="matrix(0,-1.25,1.25,0,24.435829,59.486604)"/>
   <circle cx="4.3200002" cy="11.52" style="fill:none;stroke:#ffbf00;stroke-width:1.15199995" id="connector1pad-7-4-3-55" r="1.584" d="m 5.9040002,11.52 c 0,0.874819 -0.709181,1.584 -1.584,1.584 -0.8748191,0 -1.584,-0.709181 -1.584,-1.584 0,-0.874819 0.7091809,-1.5839995 1.584,-1.5839995 0.874819,0 1.584,0.7091805 1.584,1.5839995 z" transform="matrix(0,-1.25,1.25,0,24.30956,52.131444)"/>
   <circle cx="4.3200002" cy="11.52" style="fill:none;stroke:#ffbf00;stroke-width:1.15199995" id="connector1pad-7-4-3-14" r="1.584" d="m 5.9040002,11.52 c 0,0.874819 -0.709181,1.584 -1.584,1.584 -0.8748191,0 -1.584,-0.709181 -1.584,-1.584 0,-0.874819 0.7091809,-1.5839995 1.584,-1.5839995 0.874819,0 1.584,0.7091805 1.584,1.5839995 z" transform="matrix(0,-1.25,1.25,0,31.885694,59.549704)"/>
   <circle cx="4.3200002" cy="11.52" style="fill:none;stroke:#ffbf00;stroke-width:1.15199995" id="connector1pad-7-4-3-92" r="1.584" d="m 5.9040002,11.52 c 0,0.874819 -0.709181,1.584 -1.584,1.584 -0.8748191,0 -1.584,-0.709181 -1.584,-1.584 0,-0.874819 0.7091809,-1.5839995 1.584,-1.5839995 0.874819,0 1.584,0.7091805 1.584,1.5839995 z" transform="matrix(0,-1.25,1.25,0,24.435839,66.841754)"/>
   <circle cx="4.3200002" cy="11.52" style="fill:none;stroke:#ffbf00;stroke-width:1.15199995" id="connector1pad-7-4-3-64" r="1.584" d="m 5.9040002,11.52 c 0,0.874819 -0.709181,1.584 -1.584,1.584 -0.8748191,0 -1.584,-0.709181 -1.584,-1.584 0,-0.874819 0.7091809,-1.5839995 1.584,-1.5839995 0.874819,0 1.584,0.7091805 1.584,1.5839995 z" transform="matrix(0,-1.25,1.25,0,31.633166,66.841734)"/>
   <circle cx="4.3200002" cy="4.3200002" style="fill:none;stroke:#ffbf00;stroke-width:1.15199995" id="connector0pad" r="1.584" d="m 5.9040002,4.3200002 c 0,0.874819 -0.709181,1.584 -1.584,1.584 -0.8748191,0 -1.584,-0.709181 -1.584,-1.584 0,-0.8748191 0.7091809,-1.584 1.584,-1.584 0.874819,0 1.584,0.7091809 1.584,1.584 z" transform="matrix(0,-1.25,1.25,0,33.309547,81.552124)"/>
   <rect width="3.96" x="-78.132126" y="36.729546" height="3.96" style="fill:none;stroke:#ffbf00;stroke-width:1.43999994" id="rect17" transform="matrix(0,-1,1,0,0,0)"/>
   <circle cx="4.3200002" cy="11.52" style="fill:none;stroke:#ffbf00;stroke-width:1.15199995" id="connector1pad-7-4-3-5" r="1.584" d="m 5.9040002,11.52 c 0,0.874819 -0.709181,1.584 -1.584,1.584 -0.8748191,0 -1.584,-0.709181 -1.584,-1.584 0,-0.874819 0.7091809,-1.5839995 1.584,-1.5839995 0.874819,0 1.584,0.7091805 1.584,1.5839995 z" transform="matrix(0,-1.25,1.25,0,24.309546,74.196954)"/>
   <circle cx="4.3200002" cy="11.52" style="fill:none;stroke:#ffbf00;stroke-width:1.15199995" id="connector1pad-7-4-3-8" r="1.584" d="m 5.9040002,11.52 c 0,0.874819 -0.709181,1.584 -1.584,1.584 -0.8748191,0 -1.584,-0.709181 -1.584,-1.584 0,-0.874819 0.7091809,-1.5839995 1.584,-1.5839995 0.874819,0 1.584,0.7091805 1.584,1.5839995 z" transform="matrix(0,-1.25,1.25,0,31.633166,74.133804)"/>
   <circle cx="4.3200002" cy="11.52" style="fill:none;stroke:#ffbf00;stroke-width:1.15199995" id="connector1pad-7-4-3-49" r="1.584" d="m 5.9040002,11.52 c 0,0.874819 -0.709181,1.584 -1.584,1.584 -0.8748191,0 -1.584,-0.709181 -1.584,-1.584 0,-0.874819 0.7091809,-1.5839995 1.584,-1.5839995 0.874819,0 1.584,0.7091805 1.584,1.5839995 z" transform="matrix(0,-1.25,1.25,0,31.633166,81.425844)"/>
   <circle cx="4.3200002" cy="11.52" style="fill:none;stroke:#ffbf00;stroke-width:1.15199995" id="connector1pad" r="1.584" d="m 5.9040002,11.52 c 0,0.874819 -0.709181,1.584 -1.584,1.584 -0.8748191,0 -1.584,-0.709181 -1.584,-1.584 0,-0.874819 0.7091809,-1.5839995 1.584,-1.5839995 0.874819,0 1.584,0.7091805 1.584,1.5839995 z" transform="matrix(0,-1.25,1.25,0,55.200771,97.595954)"/>
   <circle cx="4.3200002" cy="11.52" style="fill:none;stroke:#ffbf00;stroke-width:1.15199995" id="connector1pad-1" r="1.584" d="m 5.9040002,11.52 c 0,0.874819 -0.709181,1.584 -1.584,1.584 -0.8748191,0 -1.584,-0.709181 -1.584,-1.584 0,-0.874819 0.7091809,-1.5839995 1.584,-1.5839995 0.874819,0 1.584,0.7091805 1.584,1.5839995 z" transform="matrix(0,-1.25,1.25,0,62.569043,97.595944)"/>
   <rect width="3.96" x="-94.175957" y="60.252548" height="3.96" style="fill:none;stroke:#ffbf00;stroke-width:1.43999994" id="rect17-9-0" transform="matrix(0,-1,1,0,0,0)"/>
   <circle cx="4.3200002" cy="4.3200002" style="fill:none;stroke:#ffbf00;stroke-width:1.15199995" id="connector0pad-4-7" r="1.584" d="m 5.9040002,4.3200002 c 0,0.874819 -0.709181,1.584 -1.584,1.584 -0.8748191,0 -1.584,-0.709181 -1.584,-1.584 0,-0.8748191 0.7091809,-1.584 1.584,-1.584 0.874819,0 1.584,0.7091809 1.584,1.584 z" transform="matrix(0,-1.25,1.25,0,56.832547,97.595954)"/>
   <circle cx="4.3200002" cy="11.52" style="fill:none;stroke:#ffbf00;stroke-width:1.15199995" id="connector1pad-7-41" r="1.584" d="m 5.9040002,11.52 c 0,0.874819 -0.709181,1.584 -1.584,1.584 -0.8748191,0 -1.584,-0.709181 -1.584,-1.584 0,-0.874819 0.7091809,-1.5839995 1.584,-1.5839995 0.874819,0 1.584,0.7091805 1.584,1.5839995 z" transform="matrix(1.25,0,0,-1.25,77.525583,140.08848)"/>
   <circle cx="4.3200002" cy="4.3200002" style="fill:none;stroke:#ffbf00;stroke-width:1.15199995" id="connector0pad-4-3" r="1.584" d="m 5.9040002,4.3200002 c 0,0.874819 -0.709181,1.584 -1.584,1.584 -0.8748191,0 -1.584,-0.709181 -1.584,-1.584 0,-0.8748191 0.7091809,-1.584 1.584,-1.584 0.874819,0 1.584,0.7091809 1.584,1.584 z" transform="matrix(1.25,0,0,-1.25,70.075713,131.08845)"/>
   <path style="fill:none;stroke:#ffffff;stroke-width:0.74999994;stroke-opacity:1" id="path9158" d="m 167.17855,58.60764 c 1.66361,48.56992 -36.23312,89.29661 -84.644767,90.96571 -48.411547,1.669 -89.0054759,-36.35169 -90.6690843,-84.921501 -1.663638,-48.569918 36.2331213,-89.296614 84.6446693,-90.965715 48.384652,-1.66806 88.965982,36.310814 90.666802,84.852337"/>
   <rect width="3.96" x="73.495712" y="-127.66846" height="3.96" style="fill:none;stroke:#ffbf00;stroke-width:1.43999994" id="rect17-9-2" transform="scale(1,-1)"/>
   <rect width="3.96" x="-78.005844" y="44.053165" height="3.96" style="fill:none;stroke:#ffbf00;stroke-width:1.43999994" id="rect17-7" transform="matrix(0,-1,1,0,0,0)"/>
   <path style="fill:none;stroke:#ffbf00;stroke-width:1.43999994" id="connector1pad-7-4-3-60-0" d="m 93.360436,23.678966 c 0,-1.093524 -0.906476,-2 -2,-2 -1.093524,0 -1.96875,0.906476 -1.96875,2 0,1.093524 0.875226,1.96875 1.96875,1.96875 1.093524,0 2,-0.875226 2,-1.96875 z m -7.375,0.125 c 0,-1.093524 -0.875226,-2 -1.96875,-2 -1.093524,0 -1.96875,0.906476 -1.96875,2 0,1.093524 0.875226,1.96875 1.96875,1.96875 1.093524,0 1.96875,-0.875226 1.96875,-1.96875 z m -7.34375,0 c 0,-1.093524 -0.875226,-2 -1.96875,-2 -1.093524,0 -2,0.906476 -2,2 0,1.093524 0.906476,1.96875 2,1.96875 1.093524,0 1.96875,-0.875226 1.96875,-1.96875 z m -7.34375,-0.125 c 0,-1.093524 -0.906476,-2 -2,-2 -1.093524,0 -1.96875,0.906476 -1.96875,2 0,1.093524 0.875226,1.96875 1.96875,1.96875 1.093524,0 2,-0.875226 2,-1.96875 z m -7.375,0 c 0,-1.093524 -0.875226,-2 -1.96875,-2 -1.093524,0 -1.96875,0.906476 -1.96875,2 0,1.093524 0.875226,1.96875 1.96875,1.96875 1.093524,0 1.96875,-0.875226 1.96875,-1.96875 z"/>
   <rect width="3.96" x="59.97401" y="21.685146" height="3.96" style="fill:none;stroke:#ffbf00;stroke-width:1.43999994" id="rect17-4"/>
   <circle cx="4.3200002" cy="11.52" style="fill:none;stroke:#ffbf00;stroke-width:1.15199995" r="1.584" id="connector1pad-7-4-3-55-4" d="m 5.9040002,11.52 c 0,0.874819 -0.709181,1.584 -1.584,1.584 -0.8748191,0 -1.584,-0.709181 -1.584,-1.584 0,-0.874819 0.7091809,-1.5839995 1.584,-1.5839995 0.874819,0 1.584,0.7091805 1.584,1.5839995 z" transform="matrix(0,-1.25,1.25,0,83.206774,29.125841)"/>
  </g>
  <rect width="5.416639788161319" x="96.37024994932708" y="54.64576484565702" fill="none" height="5.577423570054918" id="connector3"/>
  <rect width="5.408629373455369" x="89.03886804050819" y="54.77809978155192" fill="none" height="5.390293817646692" id="connector4"/>
  <rect width="5.383876970239072" x="103.7801107081025" y="54.74826662140966" fill="none" height="5.219534836133049" id="connector2"/>
 </g>
</svg>
