<?xml version='1.0' encoding='UTF-8' standalone='no'?>
<!-- Generator: Adobe Illustrator 13.0.0, SVG Export Plug-In . SVG Version: 6.00 Build 14948)  -->
<svg width="146.52344" xmlns:rdf="http://www.w3.org/1999/02/22-rdf-syntax-ns#" x="0px" version="1.2" y="0px" xmlns="http://www.w3.org/2000/svg" height="73.828125" viewBox="0 0 117.21875 59.062501" xmlns:sodipodi="http://sodipodi.sourceforge.net/DTD/sodipodi-0.dtd" xmlns:cc="http://creativecommons.org/ns#" id="Layer_1" xmlns:dc="http://purl.org/dc/elements/1.1/" xml:space="preserve" xmlns:svg="http://www.w3.org/2000/svg" xmlns:inkscape="http://www.inkscape.org/namespaces/inkscape">
 <g id="copper0">
  <metadata id="metadata34">
   <rdf:RDF>
    <cc:Work rdf:about="">
     <dc:format>image/svg+xml</dc:format>
     <dc:type rdf:resource="http://purl.org/dc/dcmitype/StillImage"/>
     <dc:title/>
    </cc:Work>
   </rdf:RDF>
  </metadata>
  <defs id="defs32"/>
  <sodipodi:namedview fit-margin-top="0" fit-margin-left="0" showgrid="false" fit-margin-bottom="0" objecttolerance="10" pagecolor="#ffffff" bordercolor="#666666" id="namedview30" borderopacity="1" guidetolerance="10" gridtolerance="10" fit-margin-right="0"/>
  <desc id="desc3">Fritzing footprint SVG</desc>
  <g id="keepout" transform="translate(35.5,-34.03125)"/>
  <g id="soldermask" transform="translate(35.5,-34.03125)"/>
  <g id="outline" transform="translate(35.5,-34.03125)"/>
  <g id="g3771" transform="translate(35.5,-34.03125)">
   <path style="fill:none;stroke:#ffffff;stroke-opacity:1" id="rect29642-7" d="m -33.069344,34.525946 -1.925,1.75 0,50.200001 1,1.05 74.575002,0 5.025,4.650001 17.975,0.4 4.375,-5.050001 13.275001,0 0,-44.775001 -8.300001,-8.225 -106.000002,0 z m 2.85,3.6 c 0.795288,0 1.45,0.654712 1.45,1.45 0,0.795288 -0.654712,1.425 -1.45,1.425 -0.795288,0 -1.425,-0.629712 -1.425,-1.425 0,-0.795288 0.629712,-1.45 1.425,-1.45 z m 0,7.2 c 0.795288,0 1.45,0.654712 1.45,1.45 0,0.795288 -0.654712,1.425 -1.45,1.425 -0.795288,0 -1.425,-0.629712 -1.425,-1.425 0,-0.795288 0.629712,-1.45 1.425,-1.45 z m 0,7.200001 c 0.795288,0 1.45,0.654712 1.45,1.45 0,0.795288 -0.654712,1.425 -1.45,1.425 -0.795288,0 -1.425,-0.629712 -1.425,-1.425 0,-0.795288 0.629712,-1.45 1.425,-1.45 z m 0,7.2 c 0.795288,0 1.45,0.654712 1.45,1.45 0,0.795288 -0.654712,1.425 -1.45,1.425 -0.795288,0 -1.425,-0.629712 -1.425,-1.425 0,-0.795288 0.629712,-1.45 1.425,-1.45 z m 0,7.2 c 0.795288,0 1.45,0.654712 1.45,1.45 0,0.795288 -0.654712,1.425 -1.45,1.425 -0.795288,0 -1.425,-0.629712 -1.425,-1.425 0,-0.795288 0.629712,-1.45 1.425,-1.45 z m 0,7.2 c 0.795288,0 1.45,0.654712 1.45,1.45 0,0.795288 -0.654712,1.425 -1.45,1.425 -0.795288,0 -1.425,-0.629712 -1.425,-1.425 0,-0.795288 0.629712,-1.45 1.425,-1.45 z m 0,7.2 c 0.795288,0 1.45,0.629712 1.45,1.425 0,0.795288 -0.654712,1.45 -1.45,1.45 -0.795288,0 -1.425,-0.654712 -1.425,-1.45 0,-0.795288 0.629712,-1.425 1.425,-1.425 z"/>
   <circle cx="4.3200002" cy="11.52" style="fill:none;stroke:#ffbf00;stroke-width:1.15199995" id="connector1pad-47-4-3" r="1.584" d="m 5.9040002,11.52 c 0,0.874819 -0.709181,1.584 -1.584,1.584 -0.8748191,0 -1.584,-0.709181 -1.584,-1.584 0,-0.874819 0.7091809,-1.5839995 1.584,-1.5839995 0.874819,0 1.584,0.7091805 1.584,1.5839995 z" transform="matrix(-1,0,0,1,-25.854843,71.226528)"/>
   <circle cx="4.3200002" cy="11.52" style="fill:none;stroke:#ffbf00;stroke-width:1.15199995" id="connector1pad-4-2-34-77" r="1.584" d="m 5.9040002,11.52 c 0,0.874819 -0.709181,1.584 -1.584,1.584 -0.8748191,0 -1.584,-0.709181 -1.584,-1.584 0,-0.874819 0.7091809,-1.5839995 1.584,-1.5839995 0.874819,0 1.584,0.7091805 1.584,1.5839995 z" transform="matrix(-1,0,0,1,-25.854843,64.026648)"/>
   <circle cx="4.3200002" cy="11.52" style="fill:none;stroke:#ffbf00;stroke-width:1.15199995" id="connector1pad-0-1-1-7" r="1.584" d="m 5.9040002,11.52 c 0,0.874819 -0.709181,1.584 -1.584,1.584 -0.8748191,0 -1.584,-0.709181 -1.584,-1.584 0,-0.874819 0.7091809,-1.5839995 1.584,-1.5839995 0.874819,0 1.584,0.7091805 1.584,1.5839995 z" transform="matrix(-1,0,0,1,-25.854843,56.826768)"/>
   <circle cx="4.3200002" cy="11.52" style="fill:none;stroke:#ffbf00;stroke-width:1.15199995" id="connector1pad-4-5-0-39-3" r="1.584" d="m 5.9040002,11.52 c 0,0.874819 -0.709181,1.584 -1.584,1.584 -0.8748191,0 -1.584,-0.709181 -1.584,-1.584 0,-0.874819 0.7091809,-1.5839995 1.584,-1.5839995 0.874819,0 1.584,0.7091805 1.584,1.5839995 z" transform="matrix(-1,0,0,1,-25.854843,49.626888)"/>
   <circle cx="4.3200002" cy="11.52" style="fill:none;stroke:#ffbf00;stroke-width:1.15199995" id="connector1pad-4-2-3-6-48" r="1.584" d="m 5.9040002,11.52 c 0,0.874819 -0.709181,1.584 -1.584,1.584 -0.8748191,0 -1.584,-0.709181 -1.584,-1.584 0,-0.874819 0.7091809,-1.5839995 1.584,-1.5839995 0.874819,0 1.584,0.7091805 1.584,1.5839995 z" transform="matrix(-1,0,0,1,-25.854843,42.427016)"/>
   <circle cx="4.3200002" cy="11.52" style="fill:none;stroke:#ffbf00;stroke-width:1.15199995" id="connector1pad-0-1-9-9-40" r="1.584" d="m 5.9040002,11.52 c 0,0.874819 -0.709181,1.584 -1.584,1.584 -0.8748191,0 -1.584,-0.709181 -1.584,-1.584 0,-0.874819 0.7091809,-1.5839995 1.584,-1.5839995 0.874819,0 1.584,0.7091805 1.584,1.5839995 z" transform="matrix(-1,0,0,1,-25.854843,35.227136)"/>
   <circle cx="4.3200002" cy="11.52" style="fill:none;stroke:#ffbf00;stroke-width:1.15199995" id="connector1pad-4-5-0-3-1-0" r="1.584" d="m 5.9040002,11.52 c 0,0.874819 -0.709181,1.584 -1.584,1.584 -0.8748191,0 -1.584,-0.709181 -1.584,-1.584 0,-0.874819 0.7091809,-1.5839995 1.584,-1.5839995 0.874819,0 1.584,0.7091805 1.584,1.5839995 z" transform="matrix(-1,0,0,1,-25.854843,28.027263)"/>
  </g>
 </g>
</svg>
