<?xml version='1.0' encoding='UTF-8' standalone='no'?>
<!-- Created with Inkscape (http://www.inkscape.org/) -->
<svg width="77.96875" xmlns:rdf="http://www.w3.org/1999/02/22-rdf-syntax-ns#" version="1.1" xmlns="http://www.w3.org/2000/svg" height="65.53125" xmlns:sodipodi="http://sodipodi.sourceforge.net/DTD/sodipodi-0.dtd" xmlns:cc="http://creativecommons.org/ns#" id="svg7593" xmlns:dc="http://purl.org/dc/elements/1.1/" xmlns:svg="http://www.w3.org/2000/svg" xmlns:inkscape="http://www.inkscape.org/namespaces/inkscape">
 <g id="copper0">
  <defs id="defs7595"/>
  <sodipodi:namedview fit-margin-top="0" fit-margin-left="0" showgrid="false" fit-margin-bottom="0" showborder="true" pagecolor="#ffffff" bordercolor="#666666" id="base" borderopacity="1.0" fit-margin-right="0"/>
  <metadata id="metadata7598">
   <rdf:RDF>
    <cc:Work rdf:about="">
     <dc:format>image/svg+xml</dc:format>
     <dc:type rdf:resource="http://purl.org/dc/dcmitype/StillImage"/>
     <dc:title/>
    </cc:Work>
   </rdf:RDF>
  </metadata>
  <g id="layer1" transform="translate(-361.59224,-499.59656)">
   <g id="g4828">
    <path style="fill:none;stroke:#ffffff;stroke-opacity:1" id="rect5427" d="m 372.37349,500.09656 -10.28125,10.71875 0,43 10.40625,10.8125 65.53125,0 c 0.57745,0 1.03125,-0.64415 1.03125,-1.4375 l 0,-61.65625 c 0,-0.79335 -0.4538,-1.4375 -1.03125,-1.4375 l -65.65625,0 z"/>
    <g id="g3949" transform="translate(32,0)">
     <circle cx="5.04" cy="12.24" style="fill:none;stroke:#ffbf00;stroke-width:1.44000006" id="circle110" r="1.98" d="m 7.02,12.24 c 0,1.093524 -0.8864762,1.98 -1.98,1.98 -1.0935239,0 -1.9800001,-0.886476 -1.9800001,-1.98 0,-1.093524 0.8864762,-1.98 1.9800001,-1.98 1.0935238,0 1.98,0.886476 1.98,1.98 z" transform="matrix(1.2500006,0,0,1.2500006,394.27661,490.04209)"/>
     <circle cx="5.04" cy="12.24" style="fill:none;stroke:#ffbf00;stroke-width:1.44000006" id="circle110-1" r="1.98" d="m 7.02,12.24 c 0,1.093524 -0.8864762,1.98 -1.98,1.98 -1.0935239,0 -1.9800001,-0.886476 -1.9800001,-1.98 0,-1.093524 0.8864762,-1.98 1.9800001,-1.98 1.0935238,0 1.98,0.886476 1.98,1.98 z" transform="matrix(1.2500006,0,0,1.2500006,394.27661,499.11203)"/>
     <circle cx="5.04" cy="12.24" style="fill:none;stroke:#ffbf00;stroke-width:1.44000006" id="circle110-7" r="1.98" d="m 7.02,12.24 c 0,1.093524 -0.8864762,1.98 -1.98,1.98 -1.0935239,0 -1.9800001,-0.886476 -1.9800001,-1.98 0,-1.093524 0.8864762,-1.98 1.9800001,-1.98 1.0935238,0 1.98,0.886476 1.98,1.98 z" transform="matrix(1.2500006,0,0,1.2500006,394.27661,508.18197)"/>
     <circle cx="5.04" cy="12.24" style="fill:none;stroke:#ffbf00;stroke-width:1.44000006" id="circle110-4" r="1.98" d="m 7.02,12.24 c 0,1.093524 -0.8864762,1.98 -1.98,1.98 -1.0935239,0 -1.9800001,-0.886476 -1.9800001,-1.98 0,-1.093524 0.8864762,-1.98 1.9800001,-1.98 1.0935238,0 1.98,0.886476 1.98,1.98 z" transform="matrix(1.2500006,0,0,1.2500006,394.27661,517.25191)"/>
     <circle cx="5.04" cy="12.24" style="fill:none;stroke:#ffbf00;stroke-width:1.44000006" id="circle110-0" r="1.98" d="m 7.02,12.24 c 0,1.093524 -0.8864762,1.98 -1.98,1.98 -1.0935239,0 -1.9800001,-0.886476 -1.9800001,-1.98 0,-1.093524 0.8864762,-1.98 1.9800001,-1.98 1.0935238,0 1.98,0.886476 1.98,1.98 z" transform="matrix(1.2500006,0,0,1.2500006,394.27661,526.32185)"/>
     <circle cx="5.04" cy="12.24" style="fill:none;stroke:#ffbf00;stroke-width:1.44000006" id="circle110-9" r="1.98" d="m 7.02,12.24 c 0,1.093524 -0.8864762,1.98 -1.98,1.98 -1.0935239,0 -1.9800001,-0.886476 -1.9800001,-1.98 0,-1.093524 0.8864762,-1.98 1.9800001,-1.98 1.0935238,0 1.98,0.886476 1.98,1.98 z" transform="matrix(1.2500006,0,0,1.2500006,394.27661,535.39179)"/>
     <circle cx="5.04" cy="12.24" style="fill:none;stroke:#ffbf00;stroke-width:1.44000006" id="circle110-48" r="1.98" d="m 7.02,12.24 c 0,1.093524 -0.8864762,1.98 -1.98,1.98 -1.0935239,0 -1.9800001,-0.886476 -1.9800001,-1.98 0,-1.093524 0.8864762,-1.98 1.9800001,-1.98 1.0935238,0 1.98,0.886476 1.98,1.98 z" transform="matrix(1.2500006,0,0,1.2500006,394.27661,544.46173)"/>
    </g>
   </g>
  </g>
  <rect width="7.078651685393226" x="67.47875702247191" y="29.52966994382021" fill="none" height="6.719101123595522" id="connector3"/>
  <rect width="6.898876404494388" x="67.47875702247188" y="38.60832162921349" fill="none" height="6.719101123595465" id="connector4"/>
  <rect width="6.948616600790587" x="67.48503376152829" y="2.20963027009222" fill="none" height="6.758893280632435" id="connector0"/>
  <rect width="6.927536231884119" x="67.50611413043475" y="11.31634963768119" fill="none" height="6.811594202898533" id="connector1"/>
  <rect width="6.755577267545988" x="67.62205615942028" y="20.47576992753625" fill="none" height="6.784237094935662" id="connector2"/>
 </g>
</svg>
