<?xml version='1.0' encoding='UTF-8' standalone='no'?>
<!-- Created with Inkscape (http://www.inkscape.org/) -->
<svg xmlns:osb="http://www.openswatchbook.org/uri/2009/osb" width="224.25" xmlns:rdf="http://www.w3.org/1999/02/22-rdf-syntax-ns#" version="1.1" xmlns="http://www.w3.org/2000/svg" height="150.5" xmlns:sodipodi="http://sodipodi.sourceforge.net/DTD/sodipodi-0.dtd" xmlns:cc="http://creativecommons.org/ns#" id="svg4185" xmlns:dc="http://purl.org/dc/elements/1.1/" xmlns:svg="http://www.w3.org/2000/svg" xmlns:inkscape="http://www.inkscape.org/namespaces/inkscape">
 <g id="copper0">
  <defs id="defs4187">
   <linearGradient osb:paint="solid" id="linearGradient14882">
    <stop offset="0" style="stop-color:#000000;stop-opacity:1;" id="stop14884"/>
   </linearGradient>
  </defs>
  <sodipodi:namedview fit-margin-top="0" fit-margin-left="0" showgrid="false" fit-margin-bottom="0" showborder="true" pagecolor="#ffffff" bordercolor="#666666" id="base" borderopacity="1.0" fit-margin-right="0"/>
  <metadata id="metadata4190">
   <rdf:RDF>
    <cc:Work rdf:about="">
     <dc:format>image/svg+xml</dc:format>
     <dc:type rdf:resource="http://purl.org/dc/dcmitype/StillImage"/>
     <dc:title/>
    </cc:Work>
   </rdf:RDF>
  </metadata>
  <g id="g8952" transform="translate(-24.25,0.5)">
   <path style="fill:none;stroke:#ffffff;stroke-opacity:1" id="rect6376" d="m 24.75,0 0,149.5 223.25,0 L 248,0 24.75,0 z m 6.625,1 c 3.00046,-0.10282 5.52189,2.22674 5.625,5.21875 0.10305,2.99035 -2.25129,5.51989 -5.25,5.625 -3.00046,0.10282 -5.52189,-2.25799 -5.625,-5.25 C 26.02189,3.60174 28.37454,1.10282 31.375,1 z m 209.71875,0 c 3.00046,-0.10282 5.52189,2.22674 5.625,5.21875 0.10305,2.99035 -2.25129,5.51989 -5.25,5.625 -3.00046,0.10282 -5.52189,-2.25799 -5.625,-5.25 -0.10311,-2.99201 2.24954,-5.49093 5.25,-5.59375 z M 197.0625,77.6875 c 0.99411,0 1.78125,0.78714 1.78125,1.78125 0,0.99411 -0.78714,1.8125 -1.78125,1.8125 -0.99411,0 -1.8125,-0.81839 -1.8125,-1.8125 0,-0.99411 0.81839,-1.78125 1.8125,-1.78125 z m 8.96875,0 c 0.99411,0 1.8125,0.78714 1.8125,1.78125 0,0.99411 -0.81839,1.8125 -1.8125,1.8125 -0.99411,0 -1.8125,-0.81839 -1.8125,-1.8125 0,-0.99411 0.81839,-1.78125 1.8125,-1.78125 z m -8.96875,9 c 0.99411,0 1.78125,0.78714 1.78125,1.78125 0,0.99411 -0.78714,1.8125 -1.78125,1.8125 -0.99411,0 -1.8125,-0.81839 -1.8125,-1.8125 0,-0.99411 0.81839,-1.78125 1.8125,-1.78125 z m 8.96875,0 c 0.99411,0 1.8125,0.78714 1.8125,1.78125 0,0.99411 -0.81839,1.8125 -1.8125,1.8125 -0.99411,0 -1.8125,-0.81839 -1.8125,-1.8125 0,-0.99411 0.81839,-1.78125 1.8125,-1.78125 z m -8.96875,9 c 0.99411,0 1.78125,0.78714 1.78125,1.78125 0,0.99411 -0.78714,1.8125 -1.78125,1.8125 -0.99411,0 -1.8125,-0.81839 -1.8125,-1.8125 0,-0.99411 0.81839,-1.78125 1.8125,-1.78125 z m 8.96875,0 c 0.99411,0 1.8125,0.78714 1.8125,1.78125 0,0.99411 -0.81839,1.8125 -1.8125,1.8125 -0.99411,0 -1.8125,-0.81839 -1.8125,-1.8125 0,-0.99411 0.81839,-1.78125 1.8125,-1.78125 z M 31.375,137.5 c 3.00046,-0.10282 5.52189,2.25799 5.625,5.25 0.10305,2.99035 -2.25129,5.48864 -5.25,5.59375 -3.00046,0.10282 -5.52189,-2.22674 -5.625,-5.21875 -0.10311,-2.99201 2.24954,-5.52218 5.25,-5.625 z m 209.71875,0 c 3.00046,-0.10282 5.52189,2.25799 5.625,5.25 0.10305,2.99035 -2.25129,5.48864 -5.25,5.59375 -3.00046,0.10282 -5.52189,-2.22674 -5.625,-5.21875 -0.10311,-2.99201 2.24954,-5.52218 5.25,-5.625 z"/>
   <circle cx="4.3200002" cy="4.3200002" style="fill:#ffffff;stroke:#ffbf00;stroke-width:1.15199995" r="1.584" id="connector0pad-10" d="m 5.9040002,4.3200002 c 0,0.874819 -0.709181,1.584 -1.584,1.584 -0.8748191,0 -1.584,-0.709181 -1.584,-1.584 0,-0.8748191 0.7091809,-1.584 1.584,-1.584 0.874819,0 1.584,0.7091809 1.584,1.584 z" transform="matrix(0,1.25,1.25,0,203.29713,138.60912)"/>
   <circle cx="4.3200002" cy="11.52" style="fill:#ffffff;stroke:#ffbf00;stroke-width:1.15199995" r="1.584" id="connector1pad-5" d="m 5.9040002,11.52 c 0,0.874819 -0.709181,1.584 -1.584,1.584 -0.8748191,0 -1.584,-0.709181 -1.584,-1.584 0,-0.874819 0.7091809,-1.5839995 1.584,-1.5839995 0.874819,0 1.584,0.7091805 1.584,1.5839995 z" transform="matrix(0,1.25,1.25,0,185.29729,138.60912)"/>
   <circle cx="4.3200002" cy="11.52" style="fill:#ffffff;stroke:#ffbf00;stroke-width:1.15199995" r="1.584" id="connector1pad-4-8" d="m 5.9040002,11.52 c 0,0.874819 -0.709181,1.584 -1.584,1.584 -0.8748191,0 -1.584,-0.709181 -1.584,-1.584 0,-0.874819 0.7091809,-1.5839995 1.584,-1.5839995 0.874819,0 1.584,0.7091805 1.584,1.5839995 z" transform="matrix(0,1.25,1.25,0,176.29744,138.60912)"/>
   <circle cx="4.3200002" cy="11.52" style="fill:#ffffff;stroke:#ffbf00;stroke-width:1.15199995" r="1.584" id="connector1pad-0-12" d="m 5.9040002,11.52 c 0,0.874819 -0.709181,1.584 -1.584,1.584 -0.8748191,0 -1.584,-0.709181 -1.584,-1.584 0,-0.874819 0.7091809,-1.5839995 1.584,-1.5839995 0.874819,0 1.584,0.7091805 1.584,1.5839995 z" transform="matrix(0,1.25,1.25,0,167.29759,138.60912)"/>
   <circle cx="4.3200002" cy="11.52" style="fill:#ffffff;stroke:#ffbf00;stroke-width:1.15199995" r="1.584" id="connector1pad-4-5-9" d="m 5.9040002,11.52 c 0,0.874819 -0.709181,1.584 -1.584,1.584 -0.8748191,0 -1.584,-0.709181 -1.584,-1.584 0,-0.874819 0.7091809,-1.5839995 1.584,-1.5839995 0.874819,0 1.584,0.7091805 1.584,1.5839995 z" transform="matrix(0,1.25,1.25,0,158.29774,138.60912)"/>
   <circle cx="4.3200002" cy="11.52" style="fill:#ffffff;stroke:#ffbf00;stroke-width:1.15199995" r="1.584" id="connector1pad-47-4" d="m 5.9040002,11.52 c 0,0.874819 -0.709181,1.584 -1.584,1.584 -0.8748191,0 -1.584,-0.709181 -1.584,-1.584 0,-0.874819 0.7091809,-1.5839995 1.584,-1.5839995 0.874819,0 1.584,0.7091805 1.584,1.5839995 z" transform="matrix(0,1.25,1.25,0,149.2979,138.60912)"/>
   <circle cx="4.3200002" cy="11.52" style="fill:#ffffff;stroke:#ffbf00;stroke-width:1.15199995" r="1.584" id="connector1pad-4-2-34" d="m 5.9040002,11.52 c 0,0.874819 -0.709181,1.584 -1.584,1.584 -0.8748191,0 -1.584,-0.709181 -1.584,-1.584 0,-0.874819 0.7091809,-1.5839995 1.584,-1.5839995 0.874819,0 1.584,0.7091805 1.584,1.5839995 z" transform="matrix(0,1.25,1.25,0,140.29805,138.60912)"/>
   <circle cx="4.3200002" cy="11.52" style="fill:#ffffff;stroke:#ffbf00;stroke-width:1.15199995" r="1.584" id="connector1pad-0-1-1" d="m 5.9040002,11.52 c 0,0.874819 -0.709181,1.584 -1.584,1.584 -0.8748191,0 -1.584,-0.709181 -1.584,-1.584 0,-0.874819 0.7091809,-1.5839995 1.584,-1.5839995 0.874819,0 1.584,0.7091805 1.584,1.5839995 z" transform="matrix(0,1.25,1.25,0,131.2982,138.60912)"/>
   <circle cx="4.3200002" cy="11.52" style="fill:#ffffff;stroke:#ffbf00;stroke-width:1.15199995" r="1.584" id="connector1pad-4-5-0-39" d="m 5.9040002,11.52 c 0,0.874819 -0.709181,1.584 -1.584,1.584 -0.8748191,0 -1.584,-0.709181 -1.584,-1.584 0,-0.874819 0.7091809,-1.5839995 1.584,-1.5839995 0.874819,0 1.584,0.7091805 1.584,1.5839995 z" transform="matrix(0,1.25,1.25,0,122.29835,138.60912)"/>
   <circle cx="4.3200002" cy="11.52" style="fill:#ffffff;stroke:#ffbf00;stroke-width:1.15199995" r="1.584" id="connector1pad-4-2-3-6" d="m 5.9040002,11.52 c 0,0.874819 -0.709181,1.584 -1.584,1.584 -0.8748191,0 -1.584,-0.709181 -1.584,-1.584 0,-0.874819 0.7091809,-1.5839995 1.584,-1.5839995 0.874819,0 1.584,0.7091805 1.584,1.5839995 z" transform="matrix(0,1.25,1.25,0,113.29851,138.60912)"/>
   <circle cx="4.3200002" cy="11.52" style="fill:#ffffff;stroke:#ffbf00;stroke-width:1.15199995" r="1.584" id="connector1pad-0-1-9-9" d="m 5.9040002,11.52 c 0,0.874819 -0.709181,1.584 -1.584,1.584 -0.8748191,0 -1.584,-0.709181 -1.584,-1.584 0,-0.874819 0.7091809,-1.5839995 1.584,-1.5839995 0.874819,0 1.584,0.7091805 1.584,1.5839995 z" transform="matrix(0,1.25,1.25,0,104.29866,138.60912)"/>
   <circle cx="4.3200002" cy="11.52" style="fill:#ffffff;stroke:#ffbf00;stroke-width:1.15199995" r="1.584" id="connector1pad-4-5-0-3-1" d="m 5.9040002,11.52 c 0,0.874819 -0.709181,1.584 -1.584,1.584 -0.8748191,0 -1.584,-0.709181 -1.584,-1.584 0,-0.874819 0.7091809,-1.5839995 1.584,-1.5839995 0.874819,0 1.584,0.7091805 1.584,1.5839995 z" transform="matrix(0,1.25,1.25,0,95.29882,138.60912)"/>
   <circle cx="4.3200002" cy="4.3200002" style="fill:#ffffff;stroke:#ffbf00;stroke-width:1.15199995" r="1.584" id="connector0pad" d="m 5.9040002,4.3200002 c 0,0.874819 -0.709181,1.584 -1.584,1.584 -0.8748191,0 -1.584,-0.709181 -1.584,-1.584 0,-0.8748191 0.7091809,-1.584 1.584,-1.584 0.874819,0 1.584,0.7091809 1.584,1.584 z" transform="matrix(0,1.25,1.25,0,203.742,-0.18313)"/>
   <circle cx="4.3200002" cy="11.52" style="fill:#ffffff;stroke:#ffbf00;stroke-width:1.15199995" r="1.584" id="connector1pad" d="m 5.9040002,11.52 c 0,0.874819 -0.709181,1.584 -1.584,1.584 -0.8748191,0 -1.584,-0.709181 -1.584,-1.584 0,-0.874819 0.7091809,-1.5839995 1.584,-1.5839995 0.874819,0 1.584,0.7091805 1.584,1.5839995 z" transform="matrix(0,1.25,1.25,0,185.74216,-0.18313)"/>
   <circle cx="4.3200002" cy="11.52" style="fill:#ffffff;stroke:#ffbf00;stroke-width:1.15199995" r="1.584" id="connector1pad-4" d="m 5.9040002,11.52 c 0,0.874819 -0.709181,1.584 -1.584,1.584 -0.8748191,0 -1.584,-0.709181 -1.584,-1.584 0,-0.874819 0.7091809,-1.5839995 1.584,-1.5839995 0.874819,0 1.584,0.7091805 1.584,1.5839995 z" transform="matrix(0,1.25,1.25,0,176.74231,-0.18313)"/>
   <circle cx="4.3200002" cy="11.52" style="fill:#ffffff;stroke:#ffbf00;stroke-width:1.15199995" r="1.584" id="connector1pad-0" d="m 5.9040002,11.52 c 0,0.874819 -0.709181,1.584 -1.584,1.584 -0.8748191,0 -1.584,-0.709181 -1.584,-1.584 0,-0.874819 0.7091809,-1.5839995 1.584,-1.5839995 0.874819,0 1.584,0.7091805 1.584,1.5839995 z" transform="matrix(0,1.25,1.25,0,167.74246,-0.18313)"/>
   <circle cx="4.3200002" cy="11.52" style="fill:#ffffff;stroke:#ffbf00;stroke-width:1.15199995" r="1.584" id="connector1pad-4-5" d="m 5.9040002,11.52 c 0,0.874819 -0.709181,1.584 -1.584,1.584 -0.8748191,0 -1.584,-0.709181 -1.584,-1.584 0,-0.874819 0.7091809,-1.5839995 1.584,-1.5839995 0.874819,0 1.584,0.7091805 1.584,1.5839995 z" transform="matrix(0,1.25,1.25,0,158.74261,-0.18313)"/>
   <circle cx="4.3200002" cy="11.52" style="fill:#ffffff;stroke:#ffbf00;stroke-width:1.15199995" r="1.584" id="connector1pad-47" d="m 5.9040002,11.52 c 0,0.874819 -0.709181,1.584 -1.584,1.584 -0.8748191,0 -1.584,-0.709181 -1.584,-1.584 0,-0.874819 0.7091809,-1.5839995 1.584,-1.5839995 0.874819,0 1.584,0.7091805 1.584,1.5839995 z" transform="matrix(0,1.25,1.25,0,149.74277,-0.18313)"/>
   <circle cx="4.3200002" cy="11.52" style="fill:#ffffff;stroke:#ffbf00;stroke-width:1.15199995" r="1.584" id="connector1pad-4-2" d="m 5.9040002,11.52 c 0,0.874819 -0.709181,1.584 -1.584,1.584 -0.8748191,0 -1.584,-0.709181 -1.584,-1.584 0,-0.874819 0.7091809,-1.5839995 1.584,-1.5839995 0.874819,0 1.584,0.7091805 1.584,1.5839995 z" transform="matrix(0,1.25,1.25,0,140.74292,-0.18313)"/>
   <circle cx="4.3200002" cy="11.52" style="fill:#ffffff;stroke:#ffbf00;stroke-width:1.15199995" r="1.584" id="connector1pad-0-1" d="m 5.9040002,11.52 c 0,0.874819 -0.709181,1.584 -1.584,1.584 -0.8748191,0 -1.584,-0.709181 -1.584,-1.584 0,-0.874819 0.7091809,-1.5839995 1.584,-1.5839995 0.874819,0 1.584,0.7091805 1.584,1.5839995 z" transform="matrix(0,1.25,1.25,0,131.74307,-0.18313)"/>
   <circle cx="4.3200002" cy="11.52" style="fill:#ffffff;stroke:#ffbf00;stroke-width:1.15199995" r="1.584" id="connector1pad-4-5-0" d="m 5.9040002,11.52 c 0,0.874819 -0.709181,1.584 -1.584,1.584 -0.8748191,0 -1.584,-0.709181 -1.584,-1.584 0,-0.874819 0.7091809,-1.5839995 1.584,-1.5839995 0.874819,0 1.584,0.7091805 1.584,1.5839995 z" transform="matrix(0,1.25,1.25,0,122.74322,-0.18313)"/>
   <circle cx="4.3200002" cy="11.52" style="fill:#ffffff;stroke:#ffbf00;stroke-width:1.15199995" r="1.584" id="connector1pad-4-2-3" d="m 5.9040002,11.52 c 0,0.874819 -0.709181,1.584 -1.584,1.584 -0.8748191,0 -1.584,-0.709181 -1.584,-1.584 0,-0.874819 0.7091809,-1.5839995 1.584,-1.5839995 0.874819,0 1.584,0.7091805 1.584,1.5839995 z" transform="matrix(0,1.25,1.25,0,113.74338,-0.18313)"/>
   <circle cx="4.3200002" cy="11.52" style="fill:#ffffff;stroke:#ffbf00;stroke-width:1.15199995" r="1.584" id="connector1pad-0-1-9" d="m 5.9040002,11.52 c 0,0.874819 -0.709181,1.584 -1.584,1.584 -0.8748191,0 -1.584,-0.709181 -1.584,-1.584 0,-0.874819 0.7091809,-1.5839995 1.584,-1.5839995 0.874819,0 1.584,0.7091805 1.584,1.5839995 z" transform="matrix(0,-1.25,1.25,0,104.74353,10.61687)"/>
   <circle cx="4.3200002" cy="11.52" style="fill:#ffffff;stroke:#ffbf00;stroke-width:1.15199995" r="1.584" id="connector1pad-4-5-0-3" d="m 5.9040002,11.52 c 0,0.874819 -0.709181,1.584 -1.584,1.584 -0.8748191,0 -1.584,-0.709181 -1.584,-1.584 0,-0.874819 0.7091809,-1.5839995 1.584,-1.5839995 0.874819,0 1.584,0.7091805 1.584,1.5839995 z" transform="matrix(0,-1.25,1.25,0,95.74369,10.61687)"/>
   <circle cx="4.3200002" cy="11.52" style="fill:none;stroke:#ffbf00;stroke-width:1.15199995" id="connector1pad-4-2-3-6-1-4" r="1.584" d="m 5.9040002,11.52 c 0,0.874819 -0.709181,1.584 -1.584,1.584 -0.8748191,0 -1.584,-0.709181 -1.584,-1.584 0,-0.874819 0.7091809,-1.5839995 1.584,-1.5839995 0.874819,0 1.584,0.7091805 1.584,1.5839995 z" transform="matrix(-1.25,0,0,1.25,211.44885,83.086504)"/>
   <circle cx="4.3200002" cy="11.52" style="fill:none;stroke:#ffbf00;stroke-width:1.15199995" id="connector1pad-0-1-9-9-3-1-8" r="1.584" d="m 5.9040002,11.52 c 0,0.874819 -0.709181,1.584 -1.584,1.584 -0.8748191,0 -1.584,-0.709181 -1.584,-1.584 0,-0.874819 0.7091809,-1.5839995 1.584,-1.5839995 0.874819,0 1.584,0.7091805 1.584,1.5839995 z" transform="matrix(-1.25,0,0,1.25,211.44885,74.086654)"/>
   <circle cx="4.3200002" cy="11.52" style="fill:none;stroke:#ffbf00;stroke-width:1.15199995" id="connector1pad-4-5-0-3-1-8-8" r="1.584" d="m 5.9040002,11.52 c 0,0.874819 -0.709181,1.584 -1.584,1.584 -0.8748191,0 -1.584,-0.709181 -1.584,-1.584 0,-0.874819 0.7091809,-1.5839995 1.584,-1.5839995 0.874819,0 1.584,0.7091805 1.584,1.5839995 z" transform="matrix(-1.25,0,0,1.25,211.44885,65.086814)"/>
   <circle cx="4.3200002" cy="11.52" style="fill:none;stroke:#ffbf00;stroke-width:1.15199995" id="connector1pad-4-2-3-6-2-9-2" r="1.584" d="m 5.9040002,11.52 c 0,0.874819 -0.709181,1.584 -1.584,1.584 -0.8748191,0 -1.584,-0.709181 -1.584,-1.584 0,-0.874819 0.7091809,-1.5839995 1.584,-1.5839995 0.874819,0 1.584,0.7091805 1.584,1.5839995 z" transform="matrix(-1.25,0,0,1.25,202.48647,83.086504)"/>
   <circle cx="4.3200002" cy="11.52" style="fill:none;stroke:#ffbf00;stroke-width:1.15199995" id="connector1pad-0-1-9-9-6-3-7" r="1.584" d="m 5.9040002,11.52 c 0,0.874819 -0.709181,1.584 -1.584,1.584 -0.8748191,0 -1.584,-0.709181 -1.584,-1.584 0,-0.874819 0.7091809,-1.5839995 1.584,-1.5839995 0.874819,0 1.584,0.7091805 1.584,1.5839995 z" transform="matrix(-1.25,0,0,1.25,202.48647,74.086654)"/>
   <circle cx="4.3200002" cy="11.52" style="fill:none;stroke:#ffbf00;stroke-width:1.15199995" id="connector1pad-4-5-0-3-1-1-6-6" r="1.584" d="m 5.9040002,11.52 c 0,0.874819 -0.709181,1.584 -1.584,1.584 -0.8748191,0 -1.584,-0.709181 -1.584,-1.584 0,-0.874819 0.7091809,-1.5839995 1.584,-1.5839995 0.874819,0 1.584,0.7091805 1.584,1.5839995 z" transform="matrix(-1.25,0,0,1.25,202.48647,65.086814)"/>
   <circle cx="17.007799" cy="28.034599" connectorname="GND" style="fill:none;stroke:#ffbf00;stroke-width:1.05988002;stroke-opacity:1" id="circle18149-3" r="1.5220701" d="m 18.529869,28.034599 c 0,0.840616 -0.681454,1.52207 -1.52207,1.52207 -0.840616,0 -1.52207,-0.681454 -1.52207,-1.52207 0,-0.840616 0.681454,-1.52207 1.52207,-1.52207 0.840616,0 1.52207,0.681454 1.52207,1.52207 z" transform="matrix(1.2499988,0,0,1.2499988,205.01064,17.4793)"/>
   <circle cx="17.007799" cy="22.3654" connectorname="VBAT" style="fill:none;stroke:#ffbf00;stroke-width:1.05988002;stroke-opacity:1" id="circle18151-3" r="1.5220701" d="m 18.529869,22.3654 c 0,0.840616 -0.681454,1.52207 -1.52207,1.52207 -0.840616,0 -1.52207,-0.681454 -1.52207,-1.52207 0,-0.840616 0.681454,-1.52207 1.52207,-1.52207 0.840616,0 1.52207,0.681454 1.52207,1.52207 z" transform="matrix(1.2499988,0,0,1.2499988,205.01064,17.4793)"/>
  </g>
  <rect width="5" x="199.6541791490345" y="43.38204460966543" fill="none" height="5" id="connector3"/>
  <rect width="5" x="199.5037165351242" y="50.36175209298472" fill="none" height="5" id="connector2"/>
 </g>
</svg>
