<?xml version='1.0' encoding='UTF-8' standalone='no'?>
<!-- Created with Inkscape (http://www.inkscape.org/) -->
<svg width="240.00514" version="1.1" xmlns="http://www.w3.org/2000/svg" height="104.8967" id="svg8586">
 <g id="breadboard">
  <defs id="defs8588">
   <inkscape:path-effect effect="spiro" is_visible="true" id="path-effect10134" xmlns:inkscape="http://www.inkscape.org/namespaces/inkscape"/>
   <inkscape:path-effect effect="spiro" is_visible="true" id="path-effect10130" xmlns:inkscape="http://www.inkscape.org/namespaces/inkscape"/>
   <inkscape:path-effect effect="spiro" is_visible="true" id="path-effect10134-0" xmlns:inkscape="http://www.inkscape.org/namespaces/inkscape"/>
   <inkscape:path-effect effect="spiro" is_visible="true" id="path-effect10134-5" xmlns:inkscape="http://www.inkscape.org/namespaces/inkscape"/>
   <inkscape:path-effect effect="spiro" is_visible="true" id="path-effect10134-5-1" xmlns:inkscape="http://www.inkscape.org/namespaces/inkscape"/>
   <inkscape:path-effect effect="spiro" is_visible="true" id="path-effect10134-5-3" xmlns:inkscape="http://www.inkscape.org/namespaces/inkscape"/>
  </defs>
  <sodipodi:namedview fit-margin-top="0" fit-margin-left="0" showgrid="false" fit-margin-bottom="0" xmlns:sodipodi="http://sodipodi.sourceforge.net/DTD/sodipodi-0.dtd" pagecolor="#ffffff" bordercolor="#666666" id="base" borderopacity="1.0" fit-margin-right="0"/>
  <metadata id="metadata8591">
   <rdf:RDF xmlns:rdf="http://www.w3.org/1999/02/22-rdf-syntax-ns#">
    <cc:Work xmlns:rdf="http://www.w3.org/1999/02/22-rdf-syntax-ns#" xmlns:cc="http://creativecommons.org/ns#" rdf:about="">
     <dc:format xmlns:dc="http://purl.org/dc/elements/1.1/">image/svg+xml</dc:format>
     <dc:type xmlns:rdf="http://www.w3.org/1999/02/22-rdf-syntax-ns#" rdf:resource="http://purl.org/dc/dcmitype/StillImage" xmlns:dc="http://purl.org/dc/elements/1.1/"/>
     <dc:title xmlns:dc="http://purl.org/dc/elements/1.1/"/>
    </cc:Work>
   </rdf:RDF>
  </metadata>
  <g id="g4226" transform="translate(3.4808091,22.217451)">
   <path style="fill:#333333;fill-opacity:1;stroke:none" id="path9513-0" d="m 165.0904,1.67744 c 0.0254,0 0.0438,0.0312 0.0688,0.0328 4.28082,0.37275 7.70618,12.30996 7.70618,27.0117 0,14.70173 -3.42536,26.63893 -7.70618,27.01169 -0.0249,0.002 -0.0434,0.0328 -0.0688,0.0328 -0.045,0.002 -0.0923,0 -0.13761,0 l -17.78613,0 c -0.1825,0 -0.3295,-0.0584 -0.48164,-0.13144 4.07679,-1.1119 7.29335,-12.74441 7.29335,-26.94597 0,-14.03979 -3.14527,-25.57767 -7.15574,-26.91311 0.11709,-0.0392 0.21258,-0.0985 0.34403,-0.0985 l 17.78613,0 0.13761,0 z"/>
   <path style="fill:#333333;fill-opacity:1;stroke:none" id="path9513-0-3" d="m 187.91786,1.65524 c 0.0254,0 0.0438,0.0312 0.0688,0.0328 4.28082,0.37275 7.70618,12.30996 7.70618,27.0117 0,14.70173 -3.42536,26.63893 -7.70618,27.01169 -0.0249,0.002 -0.0434,0.0328 -0.0688,0.0328 -0.045,0.002 -0.0923,0 -0.13761,0 l -17.78613,0 c -0.1825,0 -0.3295,-0.0584 -0.48164,-0.13144 4.07679,-1.1119 7.29335,-12.74441 7.29335,-26.94597 0,-14.03979 -3.14527,-25.57767 -7.15574,-26.91311 0.11709,-0.0392 0.21258,-0.0985 0.34403,-0.0985 l 17.78613,0 0.13761,0 z"/>
   <path style="fill:none;stroke:#008000;stroke-width:1;stroke-linecap:butt;stroke-linejoin:miter;stroke-miterlimit:4;stroke-opacity:1;stroke-dasharray:none" id="path10132-99" d="m 13.917729,53.906969 c -1.493782,1.275147 -2.339968,3.198041 -2.242793,5.096574 0.08038,1.57052 0.763311,3.056377 1.544554,4.445205 0.781244,1.388817 1.676012,2.731729 2.239787,4.211342 1.2018,3.154111 0.741709,6.830265 -1.205681,9.633442 -1.947391,2.803164 -5.3363819,4.667571 -8.8809267,4.885717"/>
   <path style="fill:none;stroke:#d40000;stroke-width:1;stroke-linecap:butt;stroke-linejoin:miter;stroke-miterlimit:4;stroke-opacity:1;stroke-dasharray:none" id="path10132-99-8" d="m 12.548638,52.50608 c -1.645123,0.806107 -2.9336184,2.258634 -3.5004497,3.946102 -0.5668313,1.687457 -0.404965,3.588898 0.4397412,5.165632 0.8783535,1.639543 2.4167365,2.871945 3.3832895,4.465113 0.847347,1.396679 1.223242,3.05223 1.058222,4.660706 -0.165021,1.608488 -0.870132,3.161839 -1.985031,4.373021 -1.114901,1.211192 -2.634007,2.074142 -4.2766011,2.429379 -1.642594,0.355248 -3.4004485,0.201013 -4.948726,-0.434207"/>
   <path style="fill:none;stroke:#ffcc00;stroke-width:1;stroke-linecap:butt;stroke-linejoin:miter;stroke-miterlimit:4;stroke-opacity:1;stroke-dasharray:none" id="path10132-99-3" d="m 11.041881,51.26914 c -2.4245696,0.7059 -4.4204005,2.20274 -5.3651508,4.02378 -0.9447505,1.82104 -0.8239971,3.93847 0.3246067,5.69204 0.6750837,1.03065 1.6705421,1.91917 2.6163363,2.82152 0.9457941,0.90236 1.8652188,1.84925 2.3484588,2.93912 0.60822,1.37175 0.462472,2.92308 -0.396179,4.21694 C 9.7113026,72.2564 8.1502752,73.27692 6.3266703,73.73658 4.5030654,74.19624 2.4392422,74.0894 0.716655,73.44617 -1.0059322,72.80294 -2.3661623,71.6312 -2.9808091,70.26108"/>
   <path style="fill:none;stroke:#000000;stroke-width:6;stroke-linecap:butt;stroke-linejoin:miter;stroke-opacity:1" id="path9655" d="m 119.52044,16.68011 c -9.64286,4.64286 -8.6299,6.69042 -13.21429,9.64286 -7.125904,4.58923 -13.984353,10.20252 -22.142856,12.5 -6.535689,1.84048 -13.596518,1.344 -20.357143,0.71428 -5.952746,-0.55447 -11.533292,-4.3041 -17.5,-3.92857 -9.095176,0.57243 -17.856639,4.66974 -25.714286,9.28572 -3.128609,1.8379 -5.427957,4.81853 -8.214286,7.14285 -0.585351,0.48829 -1.785714,1.42857 -1.785714,1.42857"/>
   <path style="fill:#ffd42a;fill-opacity:1;stroke:none" id="rect8594" d="m 114.73026,2.73757 c -0.0801,0 -0.17087,0.0403 -0.25,0.0625 -0.0206,0.007 -0.0426,0.0228 -0.0625,0.0312 -2.42041,0.87902 -4.3125,11.99727 -4.3125,25.625 0,13.62773 1.89209,24.77723 4.3125,25.65625 0.10193,0.037 0.20888,0.0625 0.3125,0.0625 0.0312,0.003 0.0618,0 0.0937,0 l 109.375,0 c 0.13098,0 0.2601,-0.018 0.375,-0.0625 0.01,0.003 0.0217,-0.003 0.0312,0 0.0926,0.0305 0.1873,0.0625 0.28125,0.0625 2.56418,0 4.625,-11.51714 4.625,-25.71875 0,-14.20161 -2.06082,-25.71875 -4.625,-25.71875 -0.094,0 -0.18869,0.0633 -0.28125,0.0937 -0.009,-0.004 -0.0222,0.004 -0.0312,0 -0.11511,-0.0447 -0.24373,-0.0937 -0.375,-0.0937 l -109.375,0 c -0.0207,0 -0.0421,-10e-4 -0.0625,0 -0.009,-3.1e-4 -0.0218,0 -0.0312,0 z"/>
   <path style="fill:#cccccc;fill-opacity:1;stroke:none" id="rect9187" d="m 132.69745,2.79039 c -1.41538,0.68871 -2.54225,11.92969 -2.54225,25.6875 0,13.98312 1.16639,25.37202 2.61437,25.71875 l 0,0.0312 -13.19808,0 0,-51.4375 13.12596,0 z"/>
   <path style="fill:#cccccc;fill-opacity:1;stroke:none" id="path8596-0-2-5" d="m 116.7536,28.59609 c 0,14.20161 1.19932,25.71429 2.67876,25.71429 1.47945,0 2.67877,-11.51268 2.67877,-25.71429 0,-14.2016 -1.19932,-25.71428 -2.67877,-25.71428 -1.47944,0 -2.67876,11.51268 -2.67876,25.71428 z"/>
   <text x="98.761322" y="-4.196034" xmlns:xml="http://www.w3.org/XML/1998/namespace" style="font-size:12px;font-style:normal;font-variant:normal;font-weight:normal;font-stretch:normal;line-height:125%;letter-spacing:0px;word-spacing:0px;fill:#000000;fill-opacity:1;stroke:none;font-family:OCRA;-inkscape-font-specification:OCRA" id="text8626" xml:space="preserve" transform="matrix(0.9987977,-0.04902196,0.04902196,0.9987977,0,0)">
    <textPath href="#path8621" id="textPath8640">
     <tspan id="tspan8628">DFRobot</tspan>
    </textPath>
   </text>
   <path style="opacity:0;fill:#ffffff;stroke:#000000;stroke-width:1px;stroke-linecap:butt;stroke-linejoin:miter;stroke-opacity:1" id="path8621" d="m 134.47488,0.49999158 c 0,0 -2.22462,8.18240272 -3.11473,15.95080742 -0.44668,3.898445 -0.3193,9.303719 -0.24134,10.822413 0.0775,1.518714 0.87276,7.865182 2.29471,14.014268 1.29314,5.592081 3.58249,10.579258 3.58249,10.579258"/>
   <path style="fill:#d4aa00;fill-opacity:1;stroke:none" id="path9245" d="m 135.18579,2.52617 c -2.02042,-0.0888 -4.16302,11.45308 -4.79268,25.78321 -0.62967,14.33014 0.49235,26.01544 2.51277,26.10422 0.17185,0.008 0.33916,-0.10367 0.51186,-0.25903 -1.76859,-1.49103 -2.7062,-12.4475 -2.12474,-25.68052 0.60014,-13.65865 2.60913,-24.74629 4.56042,-25.48063 -0.20676,-0.3013 -0.43613,-0.45709 -0.66763,-0.46725 z"/>
   <path style="fill:#d4aa00;fill-opacity:1;stroke:none" id="path9245-6" d="m 137.76421,2.52617 c -2.02042,-0.0888 -4.16302,11.45308 -4.79268,25.78321 -0.62967,14.33014 0.49235,26.01544 2.51277,26.10422 0.17185,0.008 0.33916,-0.10367 0.51186,-0.25903 -1.76859,-1.49103 -2.7062,-12.4475 -2.12474,-25.68052 0.60014,-13.65865 2.60913,-24.74629 4.56042,-25.48063 -0.20676,-0.3013 -0.43613,-0.45709 -0.66763,-0.46725 z"/>
   <path style="fill:#d4aa00;fill-opacity:1;stroke:none" id="path9245-2" d="m 140.34263,2.52617 c -2.02042,-0.0888 -4.16302,11.45308 -4.79268,25.78321 -0.62967,14.33014 0.49235,26.01544 2.51277,26.10422 0.17185,0.008 0.33916,-0.10367 0.51186,-0.25903 -1.76859,-1.49103 -2.7062,-12.4475 -2.12474,-25.68052 0.60014,-13.65865 2.60913,-24.74629 4.56042,-25.48063 -0.20676,-0.3013 -0.43613,-0.45709 -0.66763,-0.46725 z"/>
   <path style="fill:#d4aa00;fill-opacity:1;stroke:none" id="path9245-25" d="m 142.92106,2.52617 c -2.02042,-0.0888 -4.16302,11.45308 -4.79268,25.78321 -0.62967,14.33014 0.49235,26.01544 2.51277,26.10422 0.17185,0.008 0.33916,-0.10367 0.51186,-0.25903 -1.76859,-1.49103 -2.7062,-12.4475 -2.12474,-25.68052 0.60014,-13.65865 2.60913,-24.74629 4.56042,-25.48063 -0.20676,-0.3013 -0.43613,-0.45709 -0.66763,-0.46725 z"/>
   <path style="fill:#d4aa00;fill-opacity:1;stroke:none" id="path9245-65" d="m 145.49948,2.52617 c -2.02042,-0.0888 -4.16302,11.45308 -4.79268,25.78321 -0.62967,14.33014 0.49235,26.01544 2.51277,26.10422 0.17185,0.008 0.33916,-0.10367 0.51186,-0.25903 -1.76859,-1.49103 -2.7062,-12.4475 -2.12474,-25.68052 0.60014,-13.65865 2.60913,-24.74629 4.56042,-25.48063 -0.20676,-0.3013 -0.43613,-0.45709 -0.66763,-0.46725 z"/>
   <path style="fill:#d4aa00;fill-opacity:1;stroke:none" id="path9245-29" d="m 148.07791,2.52617 c -2.02042,-0.0888 -4.16302,11.45308 -4.79268,25.78321 -0.62967,14.33014 0.49235,26.01544 2.51277,26.10422 0.17185,0.008 0.33916,-0.10367 0.51186,-0.25903 -1.76859,-1.49103 -2.7062,-12.4475 -2.12474,-25.68052 0.60014,-13.65865 2.60913,-24.74629 4.56042,-25.48063 -0.20676,-0.3013 -0.43613,-0.45709 -0.66763,-0.46725 z"/>
   <path style="fill:#d4aa00;fill-opacity:1;stroke:none" id="path9245-5" d="m 150.65633,2.52617 c -2.02042,-0.0888 -4.16302,11.45308 -4.79268,25.78321 -0.62967,14.33014 0.49235,26.01544 2.51277,26.10422 0.17185,0.008 0.33916,-0.10367 0.51186,-0.25903 -1.76859,-1.49103 -2.7062,-12.4475 -2.12474,-25.68052 0.60014,-13.65865 2.60913,-24.74629 4.56042,-25.48063 -0.20676,-0.3013 -0.43613,-0.45709 -0.66763,-0.46725 z"/>
   <path style="fill:#d4aa00;fill-opacity:1;stroke:none" id="path9245-7" d="m 155.81318,2.52617 c -2.02042,-0.0888 -4.16302,11.45308 -4.79268,25.78321 -0.62967,14.33014 0.49235,26.01544 2.51277,26.10422 0.17185,0.008 0.33916,-0.10367 0.51186,-0.25903 -1.76859,-1.49103 -2.7062,-12.4475 -2.12474,-25.68052 0.60014,-13.65865 2.60913,-24.74629 4.56042,-25.48063 -0.20676,-0.3013 -0.43613,-0.45709 -0.66763,-0.46725 z"/>
   <path style="fill:#d4aa00;fill-opacity:1;stroke:none" id="path9245-4" d="m 158.3916,2.52617 c -2.02042,-0.0888 -4.16302,11.45308 -4.79268,25.78321 -0.62967,14.33014 0.49235,26.01544 2.51277,26.10422 0.17185,0.008 0.33916,-0.10367 0.51186,-0.25903 -1.76859,-1.49103 -2.7062,-12.4475 -2.12474,-25.68052 0.60014,-13.65865 2.60913,-24.74629 4.56042,-25.48063 -0.20676,-0.3013 -0.43613,-0.45709 -0.66763,-0.46725 z"/>
   <path style="fill:#d4aa00;fill-opacity:1;stroke:none" id="path9245-43" d="m 163.54844,2.52617 c -2.02042,-0.0888 -4.16302,11.45308 -4.79268,25.78321 -0.62967,14.33014 0.49235,26.01544 2.51277,26.10422 0.17185,0.008 0.33916,-0.10367 0.51186,-0.25903 -1.76859,-1.49103 -2.7062,-12.4475 -2.12474,-25.68052 0.60014,-13.65865 2.60913,-24.74629 4.56042,-25.48063 -0.20676,-0.3013 -0.43613,-0.45709 -0.66763,-0.46725 z"/>
   <path style="fill:#d4aa00;fill-opacity:1;stroke:none" id="path9245-49" d="m 166.12687,2.52617 c -2.02042,-0.0888 -4.16302,11.45308 -4.79268,25.78321 -0.62967,14.33014 0.49235,26.01544 2.51277,26.10422 0.17185,0.008 0.33916,-0.10367 0.51186,-0.25903 -1.76859,-1.49103 -2.7062,-12.4475 -2.12474,-25.68052 0.60014,-13.65865 2.60913,-24.74629 4.56042,-25.48063 -0.20676,-0.3013 -0.43613,-0.45709 -0.66763,-0.46725 z"/>
   <path style="fill:#d4aa00;fill-opacity:1;stroke:none" id="path9245-21" d="m 168.70529,2.52617 c -2.02042,-0.0888 -4.16302,11.45308 -4.79268,25.78321 -0.62967,14.33014 0.49235,26.01544 2.51277,26.10422 0.17185,0.008 0.33916,-0.10367 0.51186,-0.25903 -1.76859,-1.49103 -2.7062,-12.4475 -2.12474,-25.68052 0.60014,-13.65865 2.60913,-24.74629 4.56042,-25.48063 -0.20676,-0.3013 -0.43613,-0.45709 -0.66763,-0.46725 z"/>
   <path style="fill:#d4aa00;fill-opacity:1;stroke:none" id="path9245-3" d="m 173.86213,2.52617 c -2.02042,-0.0888 -4.16302,11.45308 -4.79268,25.78321 -0.62967,14.33014 0.49235,26.01544 2.51277,26.10422 0.17185,0.008 0.33916,-0.10367 0.51186,-0.25903 -1.76859,-1.49103 -2.7062,-12.4475 -2.12474,-25.68052 0.60014,-13.65865 2.60913,-24.74629 4.56042,-25.48063 -0.20676,-0.3013 -0.43613,-0.45709 -0.66763,-0.46725 z"/>
   <path style="fill:#d4aa00;fill-opacity:1;stroke:none" id="path9245-37" d="m 176.44055,2.52617 c -2.02042,-0.0888 -4.16302,11.45308 -4.79268,25.78321 -0.62967,14.33014 0.49235,26.01544 2.51277,26.10422 0.17185,0.008 0.33916,-0.10367 0.51186,-0.25903 -1.76859,-1.49103 -2.7062,-12.4475 -2.12474,-25.68052 0.60014,-13.65865 2.60913,-24.74629 4.56042,-25.48063 -0.20676,-0.3013 -0.43613,-0.45709 -0.66763,-0.46725 z"/>
   <path style="fill:#d4aa00;fill-opacity:1;stroke:none" id="path9245-33" d="m 181.5974,2.52617 c -2.02042,-0.0888 -4.16302,11.45308 -4.79268,25.78321 -0.62967,14.33014 0.49235,26.01544 2.51277,26.10422 0.17185,0.008 0.33916,-0.10367 0.51186,-0.25903 -1.76859,-1.49103 -2.7062,-12.4475 -2.12474,-25.68052 0.60014,-13.65865 2.60913,-24.74629 4.56042,-25.48063 -0.20676,-0.3013 -0.43613,-0.45709 -0.66763,-0.46725 z"/>
   <path style="fill:#d4aa00;fill-opacity:1;stroke:none" id="path9245-0" d="m 189.33268,2.52617 c -2.02042,-0.0888 -4.16302,11.45308 -4.79268,25.78321 -0.62967,14.33014 0.49235,26.01544 2.51277,26.10422 0.17185,0.008 0.33916,-0.10367 0.51186,-0.25903 -1.76859,-1.49103 -2.7062,-12.4475 -2.12474,-25.68052 0.60014,-13.65865 2.60913,-24.74629 4.56042,-25.48063 -0.20676,-0.3013 -0.43613,-0.45709 -0.66763,-0.46725 z"/>
   <path style="fill:#d4aa00;fill-opacity:1;stroke:none" id="path9245-54" d="m 194.48952,2.52617 c -2.02042,-0.0888 -4.16302,11.45308 -4.79268,25.78321 -0.62967,14.33014 0.49235,26.01544 2.51277,26.10422 0.17185,0.008 0.33916,-0.10367 0.51186,-0.25903 -1.76859,-1.49103 -2.7062,-12.4475 -2.12474,-25.68052 0.60014,-13.65865 2.60913,-24.74629 4.56042,-25.48063 -0.20676,-0.3013 -0.43613,-0.45709 -0.66763,-0.46725 z"/>
   <path style="fill:#d4aa00;fill-opacity:1;stroke:none" id="path9245-51" d="m 199.64637,2.52617 c -2.02042,-0.0888 -4.16302,11.45308 -4.79268,25.78321 -0.62967,14.33014 0.49235,26.01544 2.51277,26.10422 0.17185,0.008 0.33916,-0.10367 0.51186,-0.25903 -1.76859,-1.49103 -2.7062,-12.4475 -2.12474,-25.68052 0.60014,-13.65865 2.60913,-24.74629 4.56042,-25.48063 -0.20676,-0.3013 -0.43613,-0.45709 -0.66763,-0.46725 z"/>
   <path style="fill:#d4aa00;fill-opacity:1;stroke:none" id="path9245-28" d="m 207.38164,2.52617 c -2.02042,-0.0888 -4.16302,11.45308 -4.79268,25.78321 -0.62967,14.33014 0.49235,26.01544 2.51277,26.10422 0.17185,0.008 0.33916,-0.10367 0.51186,-0.25903 -1.76859,-1.49103 -2.7062,-12.4475 -2.12474,-25.68052 0.60014,-13.65865 2.60913,-24.74629 4.56042,-25.48063 -0.20676,-0.3013 -0.43613,-0.45709 -0.66763,-0.46725 z"/>
   <path style="fill:#d4aa00;fill-opacity:1;stroke:none" id="path9245-56" d="m 212.53849,2.52617 c -2.02042,-0.0888 -4.16302,11.45308 -4.79268,25.78321 -0.62967,14.33014 0.49235,26.01544 2.51277,26.10422 0.17185,0.008 0.33916,-0.10367 0.51186,-0.25903 -1.76859,-1.49103 -2.7062,-12.4475 -2.12474,-25.68052 0.60014,-13.65865 2.60913,-24.74629 4.56042,-25.48063 -0.20676,-0.3013 -0.43613,-0.45709 -0.66763,-0.46725 z"/>
   <path style="fill:#d4aa00;fill-opacity:1;stroke:none" id="path9245-01" d="m 215.11691,2.52617 c -2.02042,-0.0888 -4.16302,11.45308 -4.79268,25.78321 -0.62967,14.33014 0.49235,26.01544 2.51277,26.10422 0.17185,0.008 0.33916,-0.10367 0.51186,-0.25903 -1.76859,-1.49103 -2.7062,-12.4475 -2.12474,-25.68052 0.60014,-13.65865 2.60913,-24.74629 4.56042,-25.48063 -0.20676,-0.3013 -0.43613,-0.45709 -0.66763,-0.46725 z"/>
   <path style="fill:#d4aa00;fill-opacity:1;stroke:none" id="path9245-8" d="m 220.27376,2.52617 c -2.02042,-0.0888 -4.16302,11.45308 -4.79268,25.78321 -0.62967,14.33014 0.49235,26.01544 2.51277,26.10422 0.17185,0.008 0.33916,-0.10367 0.51186,-0.25903 -1.76859,-1.49103 -2.7062,-12.4475 -2.12474,-25.68052 0.60014,-13.65865 2.60913,-24.74629 4.56042,-25.48063 -0.20676,-0.3013 -0.43613,-0.45709 -0.66763,-0.46725 z"/>
   <path style="fill:#d4aa00;fill-opacity:1;stroke:none" id="path9245-38" d="m 222.85218,2.52617 c -2.02042,-0.0888 -4.16302,11.45308 -4.79268,25.78321 -0.62967,14.33014 0.49235,26.01544 2.51277,26.10422 0.17185,0.008 0.33916,-0.10367 0.51186,-0.25903 -1.76859,-1.49103 -2.7062,-12.4475 -2.12474,-25.68052 0.60014,-13.65865 2.60913,-24.74629 4.56042,-25.48063 -0.20676,-0.3013 -0.43613,-0.45709 -0.66763,-0.46725 z"/>
   <path style="fill:#d4aa00;fill-opacity:1;stroke:none" id="path9245-42" d="m 217.69533,2.52617 c -2.02042,-0.0888 -4.16302,11.45308 -4.79268,25.78321 -0.62967,14.33014 0.49235,26.01544 2.51277,26.10422 0.17185,0.008 0.33916,-0.10367 0.51186,-0.25903 -1.76859,-1.49103 -2.7062,-12.4475 -2.12474,-25.68052 0.60014,-13.65865 2.60913,-24.74629 4.56042,-25.48063 -0.20676,-0.3013 -0.43613,-0.45709 -0.66763,-0.46725 z"/>
   <path style="fill:#d4aa00;fill-opacity:1;stroke:none" id="path9245-67" d="m 209.96006,2.52617 c -2.02042,-0.0888 -4.16302,11.45308 -4.79268,25.78321 -0.62967,14.33014 0.49235,26.01544 2.51277,26.10422 0.17185,0.008 0.33916,-0.10367 0.51186,-0.25903 -1.76859,-1.49103 -2.7062,-12.4475 -2.12474,-25.68052 0.60014,-13.65865 2.60913,-24.74629 4.56042,-25.48063 -0.20676,-0.3013 -0.43613,-0.45709 -0.66763,-0.46725 z"/>
   <path style="fill:#d4aa00;fill-opacity:1;stroke:none" id="path9245-63" d="m 204.80322,2.52617 c -2.02042,-0.0888 -4.16302,11.45308 -4.79268,25.78321 -0.62967,14.33014 0.49235,26.01544 2.51277,26.10422 0.17185,0.008 0.33916,-0.10367 0.51186,-0.25903 -1.76859,-1.49103 -2.7062,-12.4475 -2.12474,-25.68052 0.60014,-13.65865 2.60913,-24.74629 4.56042,-25.48063 -0.20676,-0.3013 -0.43613,-0.45709 -0.66763,-0.46725 z"/>
   <path style="fill:#d4aa00;fill-opacity:1;stroke:none" id="path9245-02" d="m 202.22479,2.52617 c -2.02042,-0.0888 -4.16302,11.45308 -4.79268,25.78321 -0.62967,14.33014 0.49235,26.01544 2.51277,26.10422 0.17185,0.008 0.33916,-0.10367 0.51186,-0.25903 -1.76859,-1.49103 -2.7062,-12.4475 -2.12474,-25.68052 0.60014,-13.65865 2.60913,-24.74629 4.56042,-25.48063 -0.20676,-0.3013 -0.43613,-0.45709 -0.66763,-0.46725 z"/>
   <path style="fill:#d4aa00;fill-opacity:1;stroke:none" id="path9245-93" d="m 197.06795,2.52617 c -2.02042,-0.0888 -4.16302,11.45308 -4.79268,25.78321 -0.62967,14.33014 0.49235,26.01544 2.51277,26.10422 0.17185,0.008 0.33916,-0.10367 0.51186,-0.25903 -1.76859,-1.49103 -2.7062,-12.4475 -2.12474,-25.68052 0.60014,-13.65865 2.60913,-24.74629 4.56042,-25.48063 -0.20676,-0.3013 -0.43613,-0.45709 -0.66763,-0.46725 z"/>
   <path style="fill:#d4aa00;fill-opacity:1;stroke:none" id="path9245-99" d="m 191.9111,2.52617 c -2.02042,-0.0888 -4.16302,11.45308 -4.79268,25.78321 -0.62967,14.33014 0.49235,26.01544 2.51277,26.10422 0.17185,0.008 0.33916,-0.10367 0.51186,-0.25903 -1.76859,-1.49103 -2.7062,-12.4475 -2.12474,-25.68052 0.60014,-13.65865 2.60913,-24.74629 4.56042,-25.48063 -0.20676,-0.3013 -0.43613,-0.45709 -0.66763,-0.46725 z"/>
   <path style="fill:#d4aa00;fill-opacity:1;stroke:none" id="path9245-22" d="m 186.75426,2.52617 c -2.02042,-0.0888 -4.16302,11.45308 -4.79268,25.78321 -0.62967,14.33014 0.49235,26.01544 2.51277,26.10422 0.17185,0.008 0.33916,-0.10367 0.51186,-0.25903 -1.76859,-1.49103 -2.7062,-12.4475 -2.12474,-25.68052 0.60014,-13.65865 2.60913,-24.74629 4.56042,-25.48063 -0.20676,-0.3013 -0.43613,-0.45709 -0.66763,-0.46725 z"/>
   <path style="fill:#d4aa00;fill-opacity:1;stroke:none" id="path9245-294" d="m 184.17583,2.52617 c -2.02042,-0.0888 -4.16302,11.45308 -4.79268,25.78321 -0.62967,14.33014 0.49235,26.01544 2.51277,26.10422 0.17185,0.008 0.33916,-0.10367 0.51186,-0.25903 -1.76859,-1.49103 -2.7062,-12.4475 -2.12474,-25.68052 0.60014,-13.65865 2.60913,-24.74629 4.56042,-25.48063 -0.20676,-0.3013 -0.43613,-0.45709 -0.66763,-0.46725 z"/>
   <path style="fill:#d4aa00;fill-opacity:1;stroke:none" id="path9245-94" d="m 179.01898,2.52617 c -2.02042,-0.0888 -4.16302,11.45308 -4.79268,25.78321 -0.62967,14.33014 0.49235,26.01544 2.51277,26.10422 0.17185,0.008 0.33916,-0.10367 0.51186,-0.25903 -1.76859,-1.49103 -2.7062,-12.4475 -2.12474,-25.68052 0.60014,-13.65865 2.60913,-24.74629 4.56042,-25.48063 -0.20676,-0.3013 -0.43613,-0.45709 -0.66763,-0.46725 z"/>
   <path style="fill:#d4aa00;fill-opacity:1;stroke:none" id="path9245-84" d="m 171.28372,2.52617 c -2.02042,-0.0888 -4.16302,11.45308 -4.79268,25.78321 -0.62967,14.33014 0.49235,26.01544 2.51277,26.10422 0.17185,0.008 0.33916,-0.10367 0.51186,-0.25903 -1.76859,-1.49103 -2.7062,-12.4475 -2.12474,-25.68052 0.60014,-13.65865 2.60913,-24.74629 4.56042,-25.48063 -0.20676,-0.3013 -0.43613,-0.45709 -0.66763,-0.46725 z"/>
   <path style="fill:#d4aa00;fill-opacity:1;stroke:none" id="path9245-634" d="m 160.97003,2.52617 c -2.02042,-0.0888 -4.16302,11.45308 -4.79268,25.78321 -0.62967,14.33014 0.49235,26.01544 2.51277,26.10422 0.17185,0.008 0.33916,-0.10367 0.51186,-0.25903 -1.76859,-1.49103 -2.7062,-12.4475 -2.12474,-25.68052 0.60014,-13.65865 2.60913,-24.74629 4.56042,-25.48063 -0.20676,-0.3013 -0.43613,-0.45709 -0.66763,-0.46725 z"/>
   <path style="fill:#d4aa00;fill-opacity:1;stroke:none" id="path9245-283" d="m 153.23474,2.52617 c -2.02042,-0.0888 -4.16302,11.45308 -4.79268,25.78321 -0.62967,14.33014 0.49235,26.01544 2.51277,26.10422 0.17185,0.008 0.33916,-0.10367 0.51186,-0.25903 -1.76859,-1.49103 -2.7062,-12.4475 -2.12474,-25.68052 0.60014,-13.65865 2.60913,-24.74629 4.56042,-25.48063 -0.20676,-0.3013 -0.43613,-0.45709 -0.66763,-0.46725 z"/>
   <path style="fill:#550000;fill-opacity:1;stroke:none" id="path9513-4-6" d="m 232.3539,1.42491 c 0.0136,0 0.0235,0.0312 0.0369,0.0328 2.2962,0.37275 4.13354,12.30996 4.13354,27.0117 0,14.70173 -1.83734,26.63893 -4.13354,27.01169 -0.0134,0.002 -0.0233,0.0328 -0.0369,0.0328 -0.0241,0.002 -0.0495,0 -0.0738,0 l -9.54035,0 c -0.0979,0 -0.17674,-0.0584 -0.25835,-0.13144 2.18676,-1.1119 3.9121,-12.74441 3.9121,-26.94597 0,-14.03979 -1.6871,-25.57767 -3.83828,-26.91311 0.0628,-0.0392 0.11402,-0.0985 0.18453,-0.0985 l 9.54035,0 0.0738,0 z"/>
   <path style="opacity:0.39910314;fill:#333333;fill-opacity:1;stroke:none" id="path9513-5" d="m 232.31633,1.42491 c 0.007,0 0.0113,0.031 0.018,0.0326 1.12188,0.37101 2.01959,12.2525 2.01959,26.8856 0,14.63311 -0.89771,26.51459 -2.01959,26.8856 -0.007,0.002 -0.0113,0.0326 -0.018,0.0326 -0.0113,0.002 -0.0242,0 -0.036,0 l -4.66129,0 c -0.0478,0 -0.0863,-0.0581 -0.12629,-0.13083 1.06842,-1.10671 1.9114,-12.68492 1.9114,-26.82018 0,-13.97425 -0.8243,-25.45827 -1.87533,-26.78748 0.0308,-0.0391 0.0557,-0.098 0.0901,-0.098 l 4.6613,0 0.036,0 z"/>
   <path style="fill:#800000;fill-opacity:1;stroke:none" id="path9748" d="m 233.13011,36.984952 c 0,4.043511 -1.51903,7.321426 -3.39286,7.321426 -1.87382,0 -3.39285,-3.277915 -3.39285,-7.321426 0,-4.043512 1.51903,-7.32143 3.39285,-7.32143 1.87383,0 3.39286,3.277918 3.39286,7.32143 z"/>
   <path style="fill:#800000;fill-opacity:1;stroke:none" id="path9750" d="m 233.13011,21.270662 c 0,4.043511 -1.51903,7.321426 -3.39286,7.321426 -1.87382,0 -3.39285,-3.277915 -3.39285,-7.321426 0,-4.043512 1.51903,-7.32143 3.39285,-7.32143 1.87383,0 3.39286,3.277918 3.39286,7.32143 z"/>
   <path style="fill:#2b0000;fill-opacity:1;stroke:none" id="path9513-2" d="m 221.68697,1.42491 c -0.0136,0 -0.0235,0.0312 -0.0369,0.0328 -2.29621,0.37275 -4.13354,12.30996 -4.13354,27.0117 0,14.70173 1.83733,26.63893 4.13354,27.01169 0.0133,0.002 0.0233,0.0328 0.0369,0.0328 0.0241,0.002 0.0495,0 0.0738,0 l 9.54035,0 c 0.0979,0 0.17674,-0.0584 0.25835,-0.13144 -2.18676,-1.1119 -3.9121,-12.74441 -3.9121,-26.94597 0,-14.03979 1.6871,-25.57767 3.83829,-26.91311 -0.0628,-0.0392 -0.11403,-0.0985 -0.18454,-0.0985 l -9.54035,0 -0.0738,0 z"/>
   <path style="opacity:0.52466371;fill:#2b0000;fill-opacity:1;stroke:none" id="path9752" d="m 234.26655,36.921813 c 0,4.07838 -1.8865,7.384561 -4.21361,7.384561 -2.32711,0 -4.2136,-3.306181 -4.2136,-7.384561 0,-4.078379 1.88649,-7.384564 4.2136,-7.384564 2.32711,0 4.21361,3.306185 4.21361,7.384564 z"/>
   <path style="opacity:0.52466371;fill:#2b0000;fill-opacity:1;stroke:none" id="path9754" d="m 233.88774,21.270662 c 0,4.043511 -1.88649,7.321426 -4.21361,7.321426 -2.32711,0 -4.2136,-3.277915 -4.2136,-7.321426 0,-4.043512 1.88649,-7.32143 4.2136,-7.32143 2.32712,0 4.21361,3.277918 4.21361,7.32143 z"/>
   <path style="fill:#333333;fill-opacity:1;stroke:none" id="path9513" d="m 147.02842,1.65524 c -0.0254,0 -0.0438,0.0312 -0.0688,0.0328 -4.28082,0.37275 -7.70618,12.30996 -7.70618,27.0117 0,14.70173 3.42536,26.63893 7.70618,27.01169 0.0249,0.002 0.0434,0.0328 0.0688,0.0328 0.045,0.002 0.0923,0 0.13761,0 l 17.78613,0 c 0.1825,0 0.3295,-0.0584 0.48164,-0.13144 -4.07679,-1.1119 -7.29335,-12.74441 -7.29335,-26.94597 0,-14.03979 3.14527,-25.57767 7.15574,-26.91311 -0.11709,-0.0392 -0.21258,-0.0985 -0.34403,-0.0985 l -17.78613,0 -0.13761,0 z"/>
   <path style="fill:#333333;fill-opacity:1;stroke:none" id="path9513-4" d="m 169.85588,1.65524 c -0.0254,0 -0.0438,0.0312 -0.0688,0.0328 -4.28082,0.37275 -7.70618,12.30996 -7.70618,27.0117 0,14.70173 3.42536,26.63893 7.70618,27.01169 0.0249,0.002 0.0434,0.0328 0.0688,0.0328 0.045,0.002 0.0923,0 0.13761,0 l 17.78613,0 c 0.1825,0 0.3295,-0.0584 0.48164,-0.13144 -4.07679,-1.1119 -7.29335,-12.74441 -7.29335,-26.94597 0,-14.03979 3.14527,-25.57767 7.15574,-26.91311 -0.11709,-0.0392 -0.21258,-0.0985 -0.34403,-0.0985 l -17.78613,0 -0.13761,0 z"/>
   <path style="fill:none;stroke:#000000;stroke-width:1px;stroke-linecap:butt;stroke-linejoin:miter;stroke-opacity:1" id="path9846" d="m 168.65908,2.45841 c 17.67767,0 17.67767,0 17.67767,0"/>
   <path style="fill:none;stroke:#000000;stroke-width:1px;stroke-linecap:butt;stroke-linejoin:miter;stroke-opacity:1" id="path9846-7" d="m 167.01758,5.38365 c 17.67767,0 17.67767,0 17.67767,0"/>
   <path style="fill:none;stroke:#000000;stroke-width:1px;stroke-linecap:butt;stroke-linejoin:miter;stroke-opacity:1" id="path9846-3" d="m 165.75489,8.30887 c 17.67767,0 17.67767,0 17.67767,0"/>
   <path style="fill:none;stroke:#000000;stroke-width:1px;stroke-linecap:butt;stroke-linejoin:miter;stroke-opacity:1" id="path9846-2" d="m 164.99728,11.23407 c 17.67767,0 17.67767,0 17.67767,0"/>
   <path style="fill:none;stroke:#000000;stroke-width:1px;stroke-linecap:butt;stroke-linejoin:miter;stroke-opacity:1" id="path9846-8" d="m 164.4922,14.15931 c 17.67767,0 17.67767,0 17.67767,0"/>
   <path style="fill:none;stroke:#000000;stroke-width:1px;stroke-linecap:butt;stroke-linejoin:miter;stroke-opacity:1" id="path9846-23" d="m 163.86086,17.08458 c 17.67767,0 17.67767,0 17.67767,0"/>
   <path style="fill:none;stroke:#000000;stroke-width:1px;stroke-linecap:butt;stroke-linejoin:miter;stroke-opacity:1" id="path9846-9" d="m 163.60832,20.0098 c 17.67767,0 17.67767,0 17.67767,0"/>
   <path style="fill:none;stroke:#000000;stroke-width:1px;stroke-linecap:butt;stroke-linejoin:miter;stroke-opacity:1" id="path9846-85" d="m 163.22951,22.93503 c 17.67767,0 17.67767,0 17.67767,0"/>
   <path style="fill:none;stroke:#000000;stroke-width:1px;stroke-linecap:butt;stroke-linejoin:miter;stroke-opacity:1" id="path9846-0" d="m 162.97698,25.86024 c 17.67767,0 17.67767,0 17.67767,0"/>
   <path style="fill:none;stroke:#000000;stroke-width:1px;stroke-linecap:butt;stroke-linejoin:miter;stroke-opacity:1" id="path9846-83" d="m 162.97697,29.03801 c 17.67767,0 17.67767,0 17.67767,0"/>
   <path style="fill:none;stroke:#000000;stroke-width:1px;stroke-linecap:butt;stroke-linejoin:miter;stroke-opacity:1" id="path9846-5" d="m 162.97697,31.71072 c 17.67767,0 17.67767,0 17.67767,0"/>
   <path style="fill:none;stroke:#000000;stroke-width:1px;stroke-linecap:butt;stroke-linejoin:miter;stroke-opacity:1" id="path9846-1" d="m 163.22951,34.63596 c 17.67767,0 17.67767,0 17.67767,0"/>
   <path style="fill:none;stroke:#000000;stroke-width:1px;stroke-linecap:butt;stroke-linejoin:miter;stroke-opacity:1" id="path9846-58" d="m 163.48205,37.5612 c 17.67767,0 17.67767,0 17.67767,0"/>
   <path style="fill:none;stroke:#000000;stroke-width:1px;stroke-linecap:butt;stroke-linejoin:miter;stroke-opacity:1" id="path9846-37" d="m 163.73459,40.48643 c 17.67767,0 17.67767,0 17.67767,0"/>
   <path style="fill:none;stroke:#000000;stroke-width:1px;stroke-linecap:butt;stroke-linejoin:miter;stroke-opacity:1" id="path9846-16" d="m 164.23967,43.41167 c 17.67767,0 17.67767,0 17.67767,0"/>
   <path style="fill:none;stroke:#000000;stroke-width:1px;stroke-linecap:butt;stroke-linejoin:miter;stroke-opacity:1" id="path9846-09" d="m 164.99727,46.33686 c 17.67767,0 17.67767,0 17.67767,0"/>
   <path style="fill:none;stroke:#000000;stroke-width:1px;stroke-linecap:butt;stroke-linejoin:miter;stroke-opacity:1" id="path9846-05" d="m 166.00743,49.26213 c 17.67767,0 17.67767,0 17.67767,0"/>
   <path style="fill:none;stroke:#000000;stroke-width:1px;stroke-linecap:butt;stroke-linejoin:miter;stroke-opacity:1" id="path9846-31" d="m 166.89132,52.18735 c 17.67767,0 17.67767,0 17.67767,0"/>
   <path style="fill:none;stroke:#000000;stroke-width:1px;stroke-linecap:butt;stroke-linejoin:miter;stroke-opacity:1" id="path9846-4" d="m 168.91161,55.23887 c 17.67767,0 17.67767,0 17.67767,0"/>
   <path style="fill:none;stroke:#000000;stroke-width:1px;stroke-linecap:butt;stroke-linejoin:miter;stroke-opacity:1" id="path9846-97" d="m 145.74124,2.33214 c 17.67767,0 17.67767,0 17.67767,0"/>
   <path style="fill:none;stroke:#000000;stroke-width:1px;stroke-linecap:butt;stroke-linejoin:miter;stroke-opacity:1" id="path9846-7-3" d="m 144.09974,5.25738 c 17.67767,0 17.67767,0 17.67767,0"/>
   <path style="fill:none;stroke:#000000;stroke-width:1px;stroke-linecap:butt;stroke-linejoin:miter;stroke-opacity:1" id="path9846-3-7" d="m 142.83705,8.1826 c 17.67767,0 17.67767,0 17.67767,0"/>
   <path style="fill:none;stroke:#000000;stroke-width:1px;stroke-linecap:butt;stroke-linejoin:miter;stroke-opacity:1" id="path9846-2-4" d="m 142.07944,11.1078 c 17.67767,0 17.67767,0 17.67767,0"/>
   <path style="fill:none;stroke:#000000;stroke-width:1px;stroke-linecap:butt;stroke-linejoin:miter;stroke-opacity:1" id="path9846-8-9" d="m 141.57436,14.03304 c 17.67767,0 17.67767,0 17.67767,0"/>
   <path style="fill:none;stroke:#000000;stroke-width:1px;stroke-linecap:butt;stroke-linejoin:miter;stroke-opacity:1" id="path9846-23-8" d="m 140.94302,16.95831 c 17.67767,0 17.67767,0 17.67767,0"/>
   <path style="fill:none;stroke:#000000;stroke-width:1px;stroke-linecap:butt;stroke-linejoin:miter;stroke-opacity:1" id="path9846-9-8" d="m 140.69048,19.88353 c 17.67767,0 17.67767,0 17.67767,0"/>
   <path style="fill:none;stroke:#000000;stroke-width:1px;stroke-linecap:butt;stroke-linejoin:miter;stroke-opacity:1" id="path9846-85-8" d="m 140.31167,22.80876 c 17.67767,0 17.67767,0 17.67767,0"/>
   <path style="fill:none;stroke:#000000;stroke-width:1px;stroke-linecap:butt;stroke-linejoin:miter;stroke-opacity:1" id="path9846-0-0" d="m 140.05914,25.73397 c 17.67767,0 17.67767,0 17.67767,0"/>
   <path style="fill:none;stroke:#000000;stroke-width:1px;stroke-linecap:butt;stroke-linejoin:miter;stroke-opacity:1" id="path9846-83-9" d="m 140.05913,28.91174 c 17.67767,0 17.67767,0 17.67767,0"/>
   <path style="fill:none;stroke:#000000;stroke-width:1px;stroke-linecap:butt;stroke-linejoin:miter;stroke-opacity:1" id="path9846-5-7" d="m 140.05913,31.58445 c 17.67767,0 17.67767,0 17.67767,0"/>
   <path style="fill:none;stroke:#000000;stroke-width:1px;stroke-linecap:butt;stroke-linejoin:miter;stroke-opacity:1" id="path9846-1-3" d="m 140.31167,34.50969 c 17.67767,0 17.67767,0 17.67767,0"/>
   <path style="fill:none;stroke:#000000;stroke-width:1px;stroke-linecap:butt;stroke-linejoin:miter;stroke-opacity:1" id="path9846-58-0" d="m 140.56421,37.43493 c 17.67767,0 17.67767,0 17.67767,0"/>
   <path style="fill:none;stroke:#000000;stroke-width:1px;stroke-linecap:butt;stroke-linejoin:miter;stroke-opacity:1" id="path9846-37-7" d="m 140.81675,40.36016 c 17.67767,0 17.67767,0 17.67767,0"/>
   <path style="fill:none;stroke:#000000;stroke-width:1px;stroke-linecap:butt;stroke-linejoin:miter;stroke-opacity:1" id="path9846-16-6" d="m 141.32183,43.2854 c 17.67767,0 17.67767,0 17.67767,0"/>
   <path style="fill:none;stroke:#000000;stroke-width:1px;stroke-linecap:butt;stroke-linejoin:miter;stroke-opacity:1" id="path9846-09-1" d="m 142.07943,46.21059 c 17.67767,0 17.67767,0 17.67767,0"/>
   <path style="fill:none;stroke:#000000;stroke-width:1px;stroke-linecap:butt;stroke-linejoin:miter;stroke-opacity:1" id="path9846-05-2" d="m 143.08959,49.13586 c 17.67767,0 17.67767,0 17.67767,0"/>
   <path style="fill:none;stroke:#000000;stroke-width:1px;stroke-linecap:butt;stroke-linejoin:miter;stroke-opacity:1" id="path9846-31-4" d="m 143.97348,52.06108 c 17.67767,0 17.67767,0 17.67767,0"/>
   <path style="fill:none;stroke:#000000;stroke-width:1px;stroke-linecap:butt;stroke-linejoin:miter;stroke-opacity:1" id="path9846-4-2" d="m 145.99377,55.1126 c 17.67767,0 17.67767,0 17.67767,0"/>
  </g>
  <rect width="2.895408683749665" x="-0.5305139830692554" y="91.65159234605102" fill="none" height="2.834214448706916" id="connector0"/>
  <rect width="2.708682516519119" x="7.97212936305138" y="103.1018187188269" fill="none" height="3.246021250936337" id="connector1"/>
  <rect width="3.098346543195163" x="4.899811803728142" y="97.90648895504381" fill="none" height="3.413135288551814" id="connector2"/>
 </g>
</svg>
