<?xml version='1.0' encoding='UTF-8' standalone='no'?>
<!-- Created with Fritzing (http://www.fritzing.org/) -->
<svg width="116.9271" xmlns:rdf="http://www.w3.org/1999/02/22-rdf-syntax-ns#" x="0in" version="1.2" y="0in" xmlns="http://www.w3.org/2000/svg" height="63.956238" viewBox="0 0 93.5417 51.164969" xmlns:sodipodi="http://sodipodi.sourceforge.net/DTD/sodipodi-0.dtd" xmlns:cc="http://creativecommons.org/ns#" id="svg2" xmlns:dc="http://purl.org/dc/elements/1.1/" xmlns:svg="http://www.w3.org/2000/svg" xmlns:inkscape="http://www.inkscape.org/namespaces/inkscape">
 <g id="breadboard">
  <metadata id="metadata273">
   <rdf:RDF>
    <cc:Work rdf:about="">
     <dc:format>image/svg+xml</dc:format>
     <dc:type rdf:resource="http://purl.org/dc/dcmitype/StillImage"/>
    </cc:Work>
   </rdf:RDF>
  </metadata>
  <defs id="defs271"/>
  <sodipodi:namedview fit-margin-top="0" fit-margin-left="0" showgrid="false" fit-margin-bottom="0" objecttolerance="10" pagecolor="#ffffff" bordercolor="#666666" id="namedview269" borderopacity="1" guidetolerance="10" gridtolerance="10" fit-margin-right="0"/>
  <g id="g5934" transform="translate(0,0.1419792)">
   <circle cx="89.7967" cy="47.431" style="fill:none;stroke-width:0" id="connector32pin" r="1.80999" d="m 91.60669,47.431 c 0,0.99963 -0.810361,1.80999 -1.80999,1.80999 -0.99963,0 -1.809991,-0.81036 -1.809991,-1.80999 0,-0.99963 0.810361,-1.80999 1.809991,-1.80999 0.999629,0 1.80999,0.81036 1.80999,1.80999 z"/>
   <circle cx="82.620697" cy="47.431" style="fill:none;stroke-width:0" id="connector31pin" r="1.80999" d="m 84.430687,47.431 c 0,0.99963 -0.81036,1.80999 -1.80999,1.80999 -0.99963,0 -1.80999,-0.81036 -1.80999,-1.80999 0,-0.99963 0.81036,-1.80999 1.80999,-1.80999 0.99963,0 1.80999,0.81036 1.80999,1.80999 z"/>
   <circle cx="75.441704" cy="47.431" style="fill:none;stroke-width:0" id="connector30pin" r="1.80999" d="m 77.251694,47.431 c 0,0.99963 -0.81036,1.80999 -1.80999,1.80999 -0.99963,0 -1.80999,-0.81036 -1.80999,-1.80999 0,-0.99963 0.81036,-1.80999 1.80999,-1.80999 0.99963,0 1.80999,0.81036 1.80999,1.80999 z"/>
   <circle cx="68.268799" cy="47.431" style="fill:none;stroke-width:0" id="connector29pin" r="1.80999" d="m 70.078789,47.431 c 0,0.99963 -0.81036,1.80999 -1.80999,1.80999 -0.99963,0 -1.80999,-0.81036 -1.80999,-1.80999 0,-0.99963 0.81036,-1.80999 1.80999,-1.80999 0.99963,0 1.80999,0.81036 1.80999,1.80999 z"/>
   <circle cx="61.091801" cy="47.431" style="fill:none;stroke-width:0" id="connector28pin" r="1.80999" d="m 62.901791,47.431 c 0,0.99963 -0.81036,1.80999 -1.80999,1.80999 -0.99963,0 -1.80999,-0.81036 -1.80999,-1.80999 0,-0.99963 0.81036,-1.80999 1.80999,-1.80999 0.99963,0 1.80999,0.81036 1.80999,1.80999 z"/>
   <circle cx="53.915798" cy="47.431" style="fill:none;stroke-width:0" id="connector27pin" r="1.80999" d="m 55.725788,47.431 c 0,0.99963 -0.81036,1.80999 -1.80999,1.80999 -0.99963,0 -1.80999,-0.81036 -1.80999,-1.80999 0,-0.99963 0.81036,-1.80999 1.80999,-1.80999 0.99963,0 1.80999,0.81036 1.80999,1.80999 z"/>
   <circle cx="46.740799" cy="47.431" style="fill:none;stroke-width:0" id="connector26pin" r="1.80999" d="m 48.550789,47.431 c 0,0.99963 -0.81036,1.80999 -1.80999,1.80999 -0.99963,0 -1.80999,-0.81036 -1.80999,-1.80999 0,-0.99963 0.81036,-1.80999 1.80999,-1.80999 0.99963,0 1.80999,0.81036 1.80999,1.80999 z"/>
   <circle cx="39.5639" cy="47.431" style="fill:none;stroke-width:0" id="connector25pin" r="1.80999" d="m 41.37389,47.431 c 0,0.99963 -0.81036,1.80999 -1.80999,1.80999 -0.99963,0 -1.80999,-0.81036 -1.80999,-1.80999 0,-0.99963 0.81036,-1.80999 1.80999,-1.80999 0.99963,0 1.80999,0.81036 1.80999,1.80999 z"/>
   <circle cx="32.388901" cy="47.431" style="fill:none;stroke-width:0" id="connector24pin" r="1.80999" d="m 34.198891,47.431 c 0,0.99963 -0.81036,1.80999 -1.80999,1.80999 -0.99963,0 -1.80999,-0.81036 -1.80999,-1.80999 0,-0.99963 0.81036,-1.80999 1.80999,-1.80999 0.99963,0 1.80999,0.81036 1.80999,1.80999 z"/>
   <circle cx="25.211901" cy="47.431" style="fill:none;stroke-width:0" id="connector23pin" r="1.80999" d="m 27.021891,47.431 c 0,0.99963 -0.81036,1.80999 -1.80999,1.80999 -0.99963,0 -1.80999,-0.81036 -1.80999,-1.80999 0,-0.99963 0.81036,-1.80999 1.80999,-1.80999 0.99963,0 1.80999,0.81036 1.80999,1.80999 z"/>
   <circle cx="18.0369" cy="47.431" style="fill:none;stroke-width:0" id="connector22pin" r="1.80999" d="m 19.84689,47.431 c 0,0.99963 -0.810361,1.80999 -1.80999,1.80999 -0.99963,0 -1.80999,-0.81036 -1.80999,-1.80999 0,-0.99963 0.81036,-1.80999 1.80999,-1.80999 0.999629,0 1.80999,0.81036 1.80999,1.80999 z"/>
   <circle cx="10.862" cy="47.431" style="fill:none;stroke-width:0" id="connector21pin" r="1.80999" d="m 12.671991,47.431 c 0,0.99963 -0.810361,1.80999 -1.809991,1.80999 -0.9996294,0 -1.8099896,-0.81036 -1.8099896,-1.80999 0,-0.99963 0.8103602,-1.80999 1.8099896,-1.80999 0.99963,0 1.809991,0.81036 1.809991,1.80999 z"/>
   <circle cx="3.6519899" cy="43.451" style="fill:none;stroke-width:0" id="connector20pin" r="1.80999" d="m 5.46198,43.451 c 0,0.99963 -0.8103602,1.80999 -1.8099901,1.80999 -0.9996299,0 -1.80999,-0.81036 -1.80999,-1.80999 0,-0.99963 0.8103601,-1.80999 1.80999,-1.80999 0.9996299,0 1.8099901,0.81036 1.8099901,1.80999 z"/>
   <circle cx="3.6519899" cy="36.275002" style="fill:none;stroke-width:0" id="connector19pin" r="1.80999" d="m 5.46198,36.275002 c 0,0.999629 -0.8103602,1.80999 -1.8099901,1.80999 -0.9996299,0 -1.80999,-0.810361 -1.80999,-1.80999 0,-0.99963 0.8103601,-1.809991 1.80999,-1.809991 0.9996299,0 1.8099901,0.810361 1.8099901,1.809991 z"/>
   <circle cx="3.6529901" cy="29.101999" style="fill:none;stroke-width:0" id="connector18pin" r="1.80999" d="m 5.4629802,29.101999 c 0,0.99963 -0.8103602,1.80999 -1.8099901,1.80999 -0.9996299,0 -1.80999,-0.81036 -1.80999,-1.80999 0,-0.99963 0.8103601,-1.80999 1.80999,-1.80999 0.9996299,0 1.8099901,0.81036 1.8099901,1.80999 z"/>
   <circle cx="3.6529901" cy="21.927" style="fill:none;stroke-width:0" id="connector17pin" r="1.80999" d="m 5.4629802,21.927 c 0,0.99963 -0.8103602,1.80999 -1.8099901,1.80999 -0.9996299,0 -1.80999,-0.81036 -1.80999,-1.80999 0,-0.99963 0.8103601,-1.80999 1.80999,-1.80999 0.9996299,0 1.8099901,0.81036 1.8099901,1.80999 z"/>
   <circle cx="3.6529901" cy="14.75" style="fill:none;stroke-width:0" id="connector16pin" r="1.80999" d="m 5.4629802,14.75 c 0,0.99963 -0.8103602,1.80999 -1.8099901,1.80999 -0.9996299,0 -1.80999,-0.81036 -1.80999,-1.80999 0,-0.99963 0.8103601,-1.80999 1.80999,-1.80999 0.9996299,0 1.8099901,0.81036 1.8099901,1.80999 z"/>
   <circle cx="3.6529901" cy="7.5749998" style="fill:none;stroke-width:0" id="connector15pin" r="1.80999" d="m 5.4629802,7.5749998 c 0,0.9996299 -0.8103602,1.8099901 -1.8099901,1.8099901 -0.9996299,0 -1.80999,-0.8103602 -1.80999,-1.8099901 0,-0.9996299 0.8103601,-1.80999 1.80999,-1.80999 0.9996299,0 1.8099901,0.8103601 1.8099901,1.80999 z"/>
   <circle cx="10.864" cy="3.5940001" style="fill:none;stroke-width:0" id="connector14pin" r="1.80999" d="m 12.67399,3.5940001 c 0,0.9996299 -0.81036,1.80999 -1.80999,1.80999 -0.9996296,0 -1.8099897,-0.8103601 -1.8099897,-1.80999 0,-0.9996299 0.8103601,-1.80999 1.8099897,-1.80999 0.99963,0 1.80999,0.8103601 1.80999,1.80999 z"/>
   <circle cx="18.0399" cy="3.5940001" style="fill:none;stroke-width:0" id="connector13pin" r="1.80999" d="m 19.84989,3.5940001 c 0,0.9996299 -0.81036,1.80999 -1.80999,1.80999 -0.99963,0 -1.80999,-0.8103601 -1.80999,-1.80999 0,-0.9996299 0.81036,-1.80999 1.80999,-1.80999 0.99963,0 1.80999,0.8103601 1.80999,1.80999 z"/>
   <circle cx="25.214899" cy="3.5940001" style="fill:none;stroke-width:0" id="connector12pin" r="1.80999" d="m 27.024889,3.5940001 c 0,0.9996299 -0.81036,1.80999 -1.80999,1.80999 -0.99963,0 -1.80999,-0.8103601 -1.80999,-1.80999 0,-0.9996299 0.81036,-1.80999 1.80999,-1.80999 0.99963,0 1.80999,0.8103601 1.80999,1.80999 z"/>
   <circle cx="32.3909" cy="3.5940001" style="fill:none;stroke-width:0" id="connector11pin" r="1.80999" d="m 34.20089,3.5940001 c 0,0.9996299 -0.81036,1.80999 -1.80999,1.80999 -0.99963,0 -1.80999,-0.8103601 -1.80999,-1.80999 0,-0.9996299 0.81036,-1.80999 1.80999,-1.80999 0.99963,0 1.80999,0.8103601 1.80999,1.80999 z"/>
   <circle cx="35.9799" cy="11.669" style="fill:none;stroke-width:0" id="connector10pin" r="1.80999" d="m 37.78989,11.669 c 0,0.99963 -0.81036,1.80999 -1.80999,1.80999 -0.99963,0 -1.80999,-0.81036 -1.80999,-1.80999 0,-0.99963 0.81036,-1.8099904 1.80999,-1.8099904 0.99963,0 1.80999,0.8103604 1.80999,1.8099904 z"/>
   <circle cx="43.155899" cy="11.669" style="fill:none;stroke-width:0" id="connector9pin" r="1.80999" d="m 44.965889,11.669 c 0,0.99963 -0.81036,1.80999 -1.80999,1.80999 -0.99963,0 -1.80999,-0.81036 -1.80999,-1.80999 0,-0.99963 0.81036,-1.8099904 1.80999,-1.8099904 0.99963,0 1.80999,0.8103604 1.80999,1.8099904 z"/>
   <circle cx="39.566898" cy="3.5940001" style="fill:none;stroke-width:0" id="connector8pin" r="1.80999" d="m 41.376888,3.5940001 c 0,0.9996299 -0.81036,1.80999 -1.80999,1.80999 -0.99963,0 -1.80999,-0.8103601 -1.80999,-1.80999 0,-0.9996299 0.81036,-1.80999 1.80999,-1.80999 0.99963,0 1.80999,0.8103601 1.80999,1.80999 z"/>
   <circle cx="46.742802" cy="3.5940001" style="fill:none;stroke-width:0" id="connector7pin" r="1.80999" d="m 48.552792,3.5940001 c 0,0.9996299 -0.81036,1.80999 -1.80999,1.80999 -0.99963,0 -1.80999,-0.8103601 -1.80999,-1.80999 0,-0.9996299 0.81036,-1.80999 1.80999,-1.80999 0.99963,0 1.80999,0.8103601 1.80999,1.80999 z"/>
   <circle cx="53.9188" cy="3.5940001" style="fill:none;stroke-width:0" id="connector6pin" r="1.80999" d="m 55.72879,3.5940001 c 0,0.9996299 -0.81036,1.80999 -1.80999,1.80999 -0.99963,0 -1.80999,-0.8103601 -1.80999,-1.80999 0,-0.9996299 0.81036,-1.80999 1.80999,-1.80999 0.99963,0 1.80999,0.8103601 1.80999,1.80999 z"/>
   <circle cx="61.094799" cy="3.5940001" style="fill:none;stroke-width:0" id="connector5pin" r="1.80999" d="m 62.904789,3.5940001 c 0,0.9996299 -0.81036,1.80999 -1.80999,1.80999 -0.99963,0 -1.80999,-0.8103601 -1.80999,-1.80999 0,-0.9996299 0.81036,-1.80999 1.80999,-1.80999 0.99963,0 1.80999,0.8103601 1.80999,1.80999 z"/>
   <circle cx="68.270798" cy="3.5940001" style="fill:none;stroke-width:0" id="connector4pin" r="1.80999" d="m 70.080788,3.5940001 c 0,0.9996299 -0.81036,1.80999 -1.80999,1.80999 -0.99963,0 -1.80999,-0.8103601 -1.80999,-1.80999 0,-0.9996299 0.81036,-1.80999 1.80999,-1.80999 0.99963,0 1.80999,0.8103601 1.80999,1.80999 z"/>
   <circle cx="75.443703" cy="3.5940001" style="fill:none;stroke-width:0" id="connector3pin" r="1.80999" d="m 77.253693,3.5940001 c 0,0.9996299 -0.81036,1.80999 -1.80999,1.80999 -0.99963,0 -1.80999,-0.8103601 -1.80999,-1.80999 0,-0.9996299 0.81036,-1.80999 1.80999,-1.80999 0.99963,0 1.80999,0.8103601 1.80999,1.80999 z"/>
   <circle cx="82.620697" cy="3.5940001" style="fill:none;stroke-width:0" id="connector2pin" r="1.80999" d="m 84.430687,3.5940001 c 0,0.9996299 -0.81036,1.80999 -1.80999,1.80999 -0.99963,0 -1.80999,-0.8103601 -1.80999,-1.80999 0,-0.9996299 0.81036,-1.80999 1.80999,-1.80999 0.99963,0 1.80999,0.8103601 1.80999,1.80999 z"/>
   <path style="fill:none;stroke-width:0" id="connector1pin" d="m 89.7967,5.405 c -0.999997,0 -1.81199,-0.812 -1.81199,-1.812 0,-0.999 0.811997,-1.812 1.81199,-1.812 0.997997,0 1.80999,0.812 1.80999,1.812 -0.003,1.001 -0.81199,1.812 -1.80999,1.812 z"/>
   <path style="fill:#1a1a1a;stroke-width:0" id="path89" d="m 0,0 0,51.023 93.5417,-0.142 0,-51.023 L 0,0 z M 3.65299,45.261 C 2.652993,45.261 1.842,44.449 1.842,43.45 c 0,-1 0.810997,-1.812 1.81099,-1.812 0.997997,0 1.80999,0.812 1.80999,1.812 -0.001,1 -0.812,1.811 -1.80999,1.811 z m 0,-7.176 c -0.999997,0 -1.81099,-0.812 -1.81099,-1.81 0,-1 0.810997,-1.812 1.81099,-1.812 0.997997,0 1.80999,0.812 1.80999,1.812 -0.001,0.999 -0.812,1.81 -1.80999,1.81 z m 0,-7.176 c -0.999997,0 -1.81099,-0.812 -1.81099,-1.81 0,-1 0.810997,-1.812 1.81099,-1.812 0.997997,0 1.80999,0.812 1.80999,1.812 0,1 -0.812,1.81 -1.80999,1.81 z m 0,-7.175 c -0.999997,0 -1.81099,-0.812 -1.81099,-1.81 0,-1 0.810997,-1.812 1.81099,-1.812 0.997997,0 1.80999,0.812 1.80999,1.812 -0.001,1.001 -0.812,1.81 -1.80999,1.81 z m 0,-7.175 c -0.999997,0 -1.81099,-0.812 -1.81099,-1.811 0,-1 0.810997,-1.812 1.81099,-1.812 0.997997,0 1.80999,0.812 1.80999,1.812 -0.001,1 -0.812,1.811 -1.80999,1.811 z m 0,-7.174 C 2.652993,9.385 1.842,8.573 1.842,7.573 c 0,-0.998 0.810997,-1.81 1.81099,-1.81 0.997997,0 1.80999,0.812 1.80999,1.81 -0.001,1.001 -0.812,1.812 -1.80999,1.812 z M 10.863,49.241 c -0.998997,0 -1.80999,-0.812 -1.80999,-1.812 0,-0.999 0.810997,-1.812 1.80999,-1.812 0.998993,0 1.81099,0.812 1.81099,1.812 -9.9e-4,1.002 -0.81199,1.812 -1.81099,1.812 z m 0,-43.836 c -0.998997,0 -1.80999,-0.812 -1.80999,-1.812 0,-0.999 0.810997,-1.812 1.80999,-1.812 0.998993,0 1.81099,0.812 1.81099,1.812 C 12.673,4.594 11.862,5.405 10.863,5.405 z m 7.1759,43.836 c -0.998997,0 -1.81099,-0.812 -1.81099,-1.812 0,-0.999 0.811997,-1.812 1.81099,-1.812 0.998993,0 1.80999,0.812 1.80999,1.812 10e-6,1.002 -0.81099,1.812 -1.80999,1.812 z m 0,-43.836 c -0.998997,0 -1.81099,-0.812 -1.81099,-1.812 0,-0.999 0.811997,-1.812 1.81099,-1.812 0.998993,0 1.80999,0.812 1.80999,1.812 10e-6,1.001 -0.81099,1.812 -1.80999,1.812 z m 7.176,43.836 c -0.998997,0 -1.81099,-0.812 -1.81099,-1.812 0,-0.999 0.811997,-1.812 1.81099,-1.812 0.998993,0 1.80999,0.812 1.80999,1.812 -9.9e-4,1.002 -0.81099,1.812 -1.80999,1.812 z m 0,-43.836 c -0.998997,0 -1.81099,-0.812 -1.81099,-1.812 0,-0.999 0.811997,-1.812 1.81099,-1.812 0.998993,0 1.80999,0.812 1.80999,1.812 -9.9e-4,1.001 -0.81099,1.812 -1.80999,1.812 z m 7.175,43.836 c -0.997997,0 -1.80899,-0.812 -1.80899,-1.812 0,-0.999 0.810997,-1.812 1.80899,-1.812 0.999997,0 1.81199,0.812 1.81199,1.812 -0.002,1.002 -0.81199,1.812 -1.81199,1.812 z m 0.002,-43.836 c -0.999997,0 -1.81099,-0.812 -1.81099,-1.812 0,-0.999 0.810997,-1.812 1.81099,-1.812 0.998997,0 1.80999,0.812 1.80999,1.812 -0.002,1.001 -0.81099,1.812 -1.80999,1.812 z m 7.173,43.836 c -0.997997,0 -1.80899,-0.812 -1.80899,-1.812 0,-0.999 0.810997,-1.812 1.80899,-1.812 0.999997,0 1.81199,0.812 1.81199,1.812 -9.9e-4,1.002 -0.81199,1.812 -1.81199,1.812 z m 0.002,-43.836 c -0.999997,0 -1.81099,-0.812 -1.81099,-1.812 0,-0.999 0.810997,-1.812 1.81099,-1.812 0.998997,0 1.80999,0.812 1.80999,1.812 -9.9e-4,1.001 -0.81099,1.812 -1.80999,1.812 z m 7.1749,43.836 c -0.998997,0 -1.80999,-0.812 -1.80999,-1.812 0,-0.999 0.811997,-1.812 1.80999,-1.812 0.999997,0 1.80999,0.812 1.80999,1.812 1e-5,1.002 -0.81099,1.812 -1.80999,1.812 z m 0.001,-43.836 c -0.999997,0 -1.81099,-0.812 -1.81099,-1.812 0,-0.999 0.811997,-1.812 1.81099,-1.812 0.998993,0 1.81099,0.812 1.81099,1.812 1e-5,1.001 -0.81199,1.812 -1.81099,1.812 z m -10.7639,8.07 c -0.999997,0 -1.81099,-0.812 -1.81099,-1.812 0,-0.999 0.810997,-1.811 1.81099,-1.811 0.998997,0 1.80999,0.812 1.80999,1.811 -9.9e-4,1.001 -0.81099,1.812 -1.80999,1.812 z m 7.175,0 c -0.999997,0 -1.80999,-0.812 -1.80999,-1.812 0,-0.999 0.810997,-1.811 1.80999,-1.811 0.998993,0 1.81099,0.812 1.81099,1.811 -0.0011,1.001 -0.81109,1.812 -1.81099,1.812 z m 10.7629,35.766 c -0.998997,0 -1.81199,-0.812 -1.81199,-1.812 0,-0.999 0.811997,-1.812 1.81199,-1.812 0.999993,0 1.81099,0.812 1.81099,1.812 1e-5,1.002 -0.81199,1.812 -1.81099,1.812 z m 0.002,-43.836 c -0.998997,0 -1.81199,-0.812 -1.81199,-1.812 0,-0.999 0.811997,-1.812 1.81199,-1.812 0.999993,0 1.81099,0.812 1.81099,1.812 -9.9e-4,1.001 -0.81199,1.812 -1.81099,1.812 z m 7.175,43.836 c -0.999997,0 -1.81099,-0.812 -1.81099,-1.812 0,-0.999 0.810997,-1.812 1.81099,-1.812 0.997997,0 1.80999,0.812 1.80999,1.812 -0.003,1.002 -0.81199,1.812 -1.80999,1.812 z m 10e-4,-43.836 c -0.999997,0 -1.81099,-0.812 -1.81099,-1.812 0,-0.999 0.810997,-1.812 1.81099,-1.812 0.997997,0 1.80899,0.812 1.80899,1.812 -9.9e-4,1.001 -0.81099,1.812 -1.80899,1.812 z m 7.176,43.836 c -0.999997,0 -1.81199,-0.812 -1.81199,-1.812 0,-0.999 0.811997,-1.812 1.81199,-1.812 0.997997,0 1.81099,0.812 1.81099,1.812 -0.004,1.002 -0.81299,1.812 -1.81099,1.812 z m 0,-43.836 c -0.999997,0 -1.81099,-0.812 -1.81099,-1.812 0,-0.999 0.810997,-1.812 1.81099,-1.812 0.997997,0 1.81199,0.812 1.81199,1.812 -0.004,1.001 -0.81399,1.812 -1.81199,1.812 z m 7.1729,43.836 c -0.999997,0 -1.81199,-0.812 -1.81199,-1.812 0,-0.999 0.811997,-1.812 1.81199,-1.812 0.997997,0 1.81099,0.812 1.81099,1.812 -9.9e-4,1.002 -0.81299,1.812 -1.81099,1.812 z m 0,-43.836 c -0.999997,0 -1.81199,-0.812 -1.81199,-1.812 0,-0.999 0.811997,-1.812 1.81199,-1.812 0.997997,0 1.81099,0.812 1.81099,1.812 -9.9e-4,1.001 -0.81299,1.812 -1.81099,1.812 z m 7.177,43.836 c -0.999997,0 -1.81199,-0.812 -1.81199,-1.812 0,-0.999 0.811997,-1.812 1.81199,-1.812 0.997997,0 1.80999,0.812 1.80999,1.812 1e-5,1.002 -0.81199,1.812 -1.80999,1.812 z m 0,-43.836 c -0.999997,0 -1.81199,-0.812 -1.81199,-1.812 0,-0.999 0.811997,-1.812 1.81199,-1.812 0.997997,0 1.80999,0.812 1.80999,1.812 1e-5,1.001 -0.81199,1.812 -1.80999,1.812 z m 7.176,43.836 c -0.999997,0 -1.81199,-0.812 -1.81199,-1.812 0,-0.999 0.811997,-1.812 1.81199,-1.812 0.997997,0 1.80999,0.812 1.80999,1.812 -0.003,1.002 -0.81199,1.812 -1.80999,1.812 z m 0,-43.836 c -0.999997,0 -1.81199,-0.812 -1.81199,-1.812 0,-0.999 0.811997,-1.812 1.81199,-1.812 0.997997,0 1.80999,0.812 1.80999,1.812 -0.003,1.001 -0.81199,1.812 -1.80999,1.812 z"/>
   <g style="stroke-width:0" id="g91">
    <g style="stroke-width:0" id="g93">
     <g style="stroke-width:0" id="g95">
      <path style="fill:#9a916c;stroke-width:0" id="path97" d="m 10.863,1.042 c -1.407,0 -2.55199,1.146 -2.55199,2.554 0,1.407 1.145,2.552 2.55199,2.552 1.409,0 2.55299,-1.145 2.55299,-2.552 C 13.416,2.187 12.272,1.042 10.863,1.042 z m 0,4.362 c -0.998997,0 -1.80999,-0.812 -1.80999,-1.811 0,-0.999 0.810997,-1.812 1.80999,-1.812 0.998993,0 1.81099,0.812 1.81099,1.812 -9.9e-4,1 -0.81199,1.811 -1.81099,1.811 z"/>
      <path style="fill:#9a916c;stroke-width:0" id="path99" d="m 18.0389,1.042 c -1.408,0 -2.55299,1.146 -2.55299,2.554 0,1.407 1.145,2.552 2.55299,2.552 1.409,0 2.55199,-1.145 2.55199,-2.552 C 20.5909,2.187 19.4479,1.042 18.0389,1.042 z m 0,4.362 c -0.998997,0 -1.81099,-0.812 -1.81099,-1.811 0,-0.999 0.811997,-1.812 1.81099,-1.812 0.998993,0 1.80999,0.812 1.80999,1.812 0,1 -0.81099,1.811 -1.80999,1.811 z"/>
      <path style="fill:#9a916c;stroke-width:0" id="path101" d="m 25.2149,1.042 c -1.408,0 -2.55199,1.146 -2.55199,2.554 0,1.407 1.144,2.552 2.55199,2.552 1.409,0 2.55199,-1.145 2.55199,-2.552 C 27.7669,2.187 26.6239,1.042 25.2149,1.042 z m 0,4.362 c -0.998997,0 -1.81099,-0.812 -1.81099,-1.811 0,-0.999 0.811997,-1.812 1.81099,-1.812 0.998993,0 1.80999,0.812 1.80999,1.812 0,1 -0.81099,1.811 -1.80999,1.811 z"/>
      <path style="fill:#9a916c;stroke-width:0" id="path103" d="m 32.3919,1.042 c -1.408,0 -2.55199,1.146 -2.55199,2.554 0,1.407 1.144,2.552 2.55199,2.552 1.408,0 2.55099,-1.145 2.55099,-2.552 C 34.9419,2.186 33.7999,1.042 32.3919,1.042 z m 0,4.362 c -0.999997,0 -1.81099,-0.812 -1.81099,-1.811 0,-0.999 0.810997,-1.812 1.81099,-1.812 0.998997,0 1.80999,0.812 1.80999,1.812 -9.9e-4,1 -0.81099,1.811 -1.80999,1.811 z"/>
      <path style="fill:#9a916c;stroke-width:0" id="path105" d="m 39.5669,1.042 c -1.407,0 -2.55199,1.146 -2.55199,2.554 0,1.407 1.145,2.552 2.55199,2.552 1.408,0 2.55199,-1.145 2.55199,-2.552 C 42.1189,2.187 40.9759,1.042 39.5669,1.042 z m 0,4.362 c -0.999997,0 -1.81099,-0.812 -1.81099,-1.811 0,-0.999 0.810997,-1.812 1.81099,-1.812 0.998997,0 1.80999,0.812 1.80999,1.812 -9.9e-4,1 -0.81099,1.811 -1.80999,1.811 z"/>
      <path style="fill:#9a916c;stroke-width:0" id="path107" d="m 46.7428,1.042 c -1.408,0 -2.55199,1.146 -2.55199,2.554 0,1.407 1.145,2.552 2.55199,2.552 1.406,0 2.55099,-1.145 2.55099,-2.552 C 49.2938,2.187 48.1508,1.042 46.7428,1.042 z m 0,4.362 c -0.999997,0 -1.81099,-0.812 -1.81099,-1.811 0,-0.999 0.811997,-1.812 1.81099,-1.812 0.998993,0 1.81099,0.812 1.81099,1.812 0,1 -0.81199,1.811 -1.81099,1.811 z"/>
      <path style="fill:#9a916c;stroke-width:0" id="path109" d="m 35.9789,9.118 c -1.408,0 -2.55199,1.146 -2.55199,2.552 0,1.409 1.144,2.554 2.55199,2.554 1.40799,0 2.55099,-1.145 2.55099,-2.554 10e-6,-1.408 -1.14199,-2.552 -2.55099,-2.552 z m 0,4.361 c -0.999997,0 -1.81099,-0.812 -1.81099,-1.812 0,-1 0.810997,-1.811 1.81099,-1.811 0.998997,0 1.80999,0.812 1.80999,1.811 0,0.999 -0.80999,1.812 -1.80999,1.812 z"/>
      <path style="fill:#9a916c;stroke-width:0" id="path111" d="m 43.1549,9.118 c -1.407,0 -2.55099,1.146 -2.55099,2.552 0,1.409 1.145,2.554 2.55099,2.554 1.409,0 2.55199,-1.145 2.55199,-2.554 C 45.7058,10.262 44.5628,9.118 43.1549,9.118 z m 0,4.361 c -0.999997,0 -1.80999,-0.812 -1.80999,-1.812 0,-1 0.811997,-1.811 1.80999,-1.811 0.998997,0 1.81099,0.812 1.81099,1.811 0,0.999 -0.81209,1.812 -1.81099,1.812 z"/>
      <path style="fill:#9a916c;stroke-width:0" id="path113" d="m 53.9188,1.042 c -1.408,0 -2.55199,1.146 -2.55199,2.554 0,1.407 1.144,2.552 2.55199,2.552 1.409,0 2.55299,-1.145 2.55299,-2.552 1e-5,-1.409 -1.14399,-2.554 -2.55299,-2.554 z m 0,4.362 c -0.998997,0 -1.81199,-0.812 -1.81199,-1.811 0,-0.999 0.811997,-1.812 1.81199,-1.812 0.999993,0 1.81099,0.812 1.81099,1.812 0,1 -0.81199,1.811 -1.81099,1.811 z"/>
      <path style="fill:#9a916c;stroke-width:0" id="path115" d="m 61.0948,1.042 c -1.408,0 -2.55299,1.146 -2.55299,2.554 0,1.407 1.145,2.552 2.55299,2.552 1.40799,0 2.55099,-1.145 2.55099,-2.552 1e-5,-1.409 -1.14299,-2.554 -2.55099,-2.554 z m 0,4.362 c -0.999997,0 -1.81099,-0.812 -1.81099,-1.811 0,-0.999 0.810997,-1.812 1.81099,-1.812 0.997997,0 1.80899,0.812 1.80899,1.812 0,1 -0.81099,1.811 -1.80899,1.811 z"/>
      <path style="fill:#9a916c;stroke-width:0" id="path117" d="m 68.2708,1.042 c -1.408,0 -2.55299,1.146 -2.55299,2.554 0,1.407 1.145,2.552 2.55299,2.552 1.40799,0 2.55099,-1.145 2.55099,-2.552 C 70.8208,2.186 69.6788,1.042 68.2708,1.042 z m 0,4.362 c -0.999997,0 -1.81099,-0.812 -1.81099,-1.811 0,-0.999 0.810997,-1.812 1.81099,-1.812 0.997997,0 1.81199,0.812 1.81199,1.812 -0.002,1 -0.81399,1.811 -1.81199,1.811 z"/>
      <path style="fill:#9a916c;stroke-width:0" id="path119" d="m 75.4437,1.042 c -1.406,0 -2.55299,1.146 -2.55299,2.554 0,1.407 1.146,2.552 2.55299,2.552 1.408,0 2.55299,-1.145 2.55299,-2.552 1e-5,-1.409 -1.14299,-2.554 -2.55299,-2.554 z m 0,4.362 c -0.999997,0 -1.81199,-0.812 -1.81199,-1.811 0,-0.999 0.811997,-1.812 1.81199,-1.812 0.997997,0 1.81099,0.812 1.81099,1.812 -9.9e-4,1 -0.81299,1.811 -1.81099,1.811 z"/>
      <path style="fill:#9a916c;stroke-width:0" id="path121" d="m 82.6207,1.042 c -1.408,0 -2.55599,1.146 -2.55599,2.554 0,1.407 1.146,2.552 2.55599,2.552 1.405,0 2.55099,-1.145 2.55099,-2.552 1e-5,-1.409 -1.14399,-2.554 -2.55099,-2.554 z m 0,4.362 c -0.999997,0 -1.81199,-0.812 -1.81199,-1.811 0,-0.999 0.811997,-1.812 1.81199,-1.812 0.997997,0 1.80999,0.812 1.80999,1.812 0,1 -0.81199,1.811 -1.80999,1.811 z"/>
      <path style="fill:#9a916c;stroke-width:0" id="path123" d="m 89.7967,1.042 c -1.407,0 -2.55299,1.146 -2.55299,2.554 0,1.407 1.146,2.552 2.55299,2.552 1.408,0 2.55199,-1.145 2.55199,-2.552 C 92.3487,2.187 91.2047,1.042 89.7967,1.042 z m 0,4.362 c -0.999997,0 -1.81199,-0.812 -1.81199,-1.811 0,-0.999 0.811997,-1.812 1.81199,-1.812 0.997997,0 1.80999,0.812 1.80999,1.812 0,1 -0.81199,1.811 -1.80999,1.811 z"/>
     </g>
     <g style="stroke-width:0" id="g125">
      <path style="fill:#9a916c;stroke-width:0" id="path127" d="m 10.863,44.881 c -1.407,0 -2.55199,1.144 -2.55199,2.552 0,1.407 1.145,2.552 2.55199,2.552 1.409,0 2.55299,-1.145 2.55299,-2.552 C 13.415,46.023 12.272,44.881 10.863,44.881 z m 0,4.36 c -0.998997,0 -1.80999,-0.812 -1.80999,-1.812 0,-0.999 0.810997,-1.812 1.80999,-1.812 0.998993,0 1.81099,0.812 1.81099,1.812 -9.9e-4,1.002 -0.81199,1.812 -1.81099,1.812 z"/>
      <path style="fill:#9a916c;stroke-width:0" id="path129" d="m 18.0389,44.881 c -1.408,0 -2.55299,1.144 -2.55299,2.552 0,1.407 1.145,2.552 2.55299,2.552 1.409,0 2.55199,-1.145 2.55199,-2.552 10e-6,-1.41 -1.14299,-2.552 -2.55199,-2.552 z m 0,4.36 c -0.998997,0 -1.81099,-0.812 -1.81099,-1.812 0,-0.999 0.811997,-1.812 1.81099,-1.812 0.998993,0 1.80999,0.812 1.80999,1.812 10e-6,1.002 -0.81099,1.812 -1.80999,1.812 z"/>
      <path style="fill:#9a916c;stroke-width:0" id="path131" d="m 25.2149,44.881 c -1.408,0 -2.55199,1.144 -2.55199,2.552 0,1.407 1.144,2.552 2.55199,2.552 1.409,0 2.55199,-1.145 2.55199,-2.552 10e-6,-1.41 -1.14299,-2.552 -2.55199,-2.552 z m 0,4.36 c -0.998997,0 -1.81099,-0.812 -1.81099,-1.812 0,-0.999 0.811997,-1.812 1.81099,-1.812 0.998993,0 1.80999,0.812 1.80999,1.812 -9.9e-4,1.002 -0.81099,1.812 -1.80999,1.812 z"/>
      <path style="fill:#9a916c;stroke-width:0" id="path133" d="m 32.3899,44.881 c -1.408,0 -2.55099,1.144 -2.55099,2.552 0,1.407 1.143,2.552 2.55099,2.552 1.409,0 2.55199,-1.145 2.55199,-2.552 10e-6,-1.41 -1.14299,-2.552 -2.55199,-2.552 z m 0,4.36 c -0.997997,0 -1.80899,-0.812 -1.80899,-1.812 0,-0.999 0.810997,-1.812 1.80899,-1.812 0.999997,0 1.81199,0.812 1.81199,1.812 -0.002,1.002 -0.81199,1.812 -1.81199,1.812 z"/>
      <path style="fill:#9a916c;stroke-width:0" id="path135" d="m 39.5649,44.881 c -1.407,0 -2.55099,1.144 -2.55099,2.552 0,1.407 1.144,2.552 2.55099,2.552 1.409,0 2.55299,-1.145 2.55299,-2.552 -9.9e-4,-1.41 -1.14299,-2.552 -2.55299,-2.552 z m 0,4.36 c -0.997997,0 -1.80899,-0.812 -1.80899,-1.812 0,-0.999 0.810997,-1.812 1.80899,-1.812 0.999997,0 1.81199,0.812 1.81199,1.812 -9.9e-4,1.002 -0.81199,1.812 -1.81199,1.812 z"/>
      <path style="fill:#9a916c;stroke-width:0" id="path137" d="m 46.7418,44.881 c -1.409,0 -2.55199,1.144 -2.55199,2.552 0,1.407 1.144,2.552 2.55199,2.552 1.405,0 2.55099,-1.145 2.55099,-2.552 1e-5,-1.41 -1.14399,-2.552 -2.55099,-2.552 z m 0,4.36 c -0.998997,0 -1.80999,-0.812 -1.80999,-1.812 0,-0.999 0.811997,-1.812 1.80999,-1.812 0.999997,0 1.80999,0.812 1.80999,1.812 1e-5,1.002 -0.81099,1.812 -1.80999,1.812 z"/>
      <path style="fill:#9a916c;stroke-width:0" id="path139" d="m 53.9168,44.881 c -1.408,0 -2.55199,1.144 -2.55199,2.552 0,1.407 1.144,2.552 2.55199,2.552 1.409,0 2.55199,-1.145 2.55199,-2.552 1e-5,-1.41 -1.14299,-2.552 -2.55199,-2.552 z m 0,4.36 c -0.998997,0 -1.81199,-0.812 -1.81199,-1.812 0,-0.999 0.811997,-1.812 1.81199,-1.812 0.999993,0 1.81099,0.812 1.81099,1.812 1e-5,1.002 -0.81199,1.812 -1.81099,1.812 z"/>
      <path style="fill:#9a916c;stroke-width:0" id="path141" d="m 61.0938,44.881 c -1.407,0 -2.55299,1.144 -2.55299,2.552 0,1.407 1.146,2.552 2.55299,2.552 1.408,0 2.55199,-1.145 2.55199,-2.552 1e-5,-1.41 -1.14399,-2.552 -2.55199,-2.552 z m 0,4.36 c -0.999997,0 -1.81099,-0.812 -1.81099,-1.812 0,-0.999 0.810997,-1.812 1.81099,-1.812 0.997997,0 1.80999,0.812 1.80999,1.812 -0.003,1.002 -0.81199,1.812 -1.80999,1.812 z"/>
      <path style="fill:#9a916c;stroke-width:0" id="path143" d="m 68.2708,44.881 c -1.408,0 -2.55399,1.144 -2.55399,2.552 0,1.407 1.146,2.552 2.55399,2.552 1.40799,0 2.55099,-1.145 2.55099,-2.552 -9.9e-4,-1.41 -1.14299,-2.552 -2.55099,-2.552 z m 0,4.36 c -0.999997,0 -1.81199,-0.812 -1.81199,-1.812 0,-0.999 0.811997,-1.812 1.81199,-1.812 0.997997,0 1.81099,0.812 1.81099,1.812 -0.004,1.002 -0.81299,1.812 -1.81099,1.812 z"/>
      <path style="fill:#9a916c;stroke-width:0" id="path145" d="m 75.4437,44.881 c -1.406,0 -2.55299,1.144 -2.55299,2.552 0,1.407 1.146,2.552 2.55299,2.552 1.408,0 2.55299,-1.145 2.55299,-2.552 -9.9e-4,-1.41 -1.14299,-2.552 -2.55299,-2.552 z m 0,4.36 c -0.999997,0 -1.81199,-0.812 -1.81199,-1.812 0,-0.999 0.811997,-1.812 1.81199,-1.812 0.997997,0 1.81099,0.812 1.81099,1.812 -9.9e-4,1.002 -0.81299,1.812 -1.81099,1.812 z"/>
      <path style="fill:#9a916c;stroke-width:0" id="path147" d="m 82.6207,44.881 c -1.408,0 -2.55599,1.144 -2.55599,2.552 0,1.407 1.146,2.552 2.55599,2.552 1.405,0 2.55099,-1.145 2.55099,-2.552 1e-5,-1.41 -1.14399,-2.552 -2.55099,-2.552 z m 0,4.36 c -0.999997,0 -1.81199,-0.812 -1.81199,-1.812 0,-0.999 0.811997,-1.812 1.81199,-1.812 0.997997,0 1.80999,0.812 1.80999,1.812 1e-5,1.002 -0.81199,1.812 -1.80999,1.812 z"/>
      <path style="fill:#9a916c;stroke-width:0" id="path149" d="m 89.7967,44.881 c -1.407,0 -2.55299,1.144 -2.55299,2.552 0,1.407 1.146,2.552 2.55299,2.552 1.408,0 2.55199,-1.145 2.55199,-2.552 10e-6,-1.41 -1.14399,-2.552 -2.55199,-2.552 z m 0,4.36 c -0.999997,0 -1.81199,-0.812 -1.81199,-1.812 0,-0.999 0.811997,-1.812 1.81199,-1.812 0.997997,0 1.80999,0.812 1.80999,1.812 -0.003,1.002 -0.81199,1.812 -1.80999,1.812 z"/>
     </g>
    </g>
    <g style="stroke-width:0" id="g151">
     <path style="fill:#9a916c;stroke-width:0" id="path153" d="m 6.20398,7.575 c 0,-1.408 -1.144,-2.554 -2.55199,-2.554 C 2.24399,5.022 1.1,6.167 1.1,7.575 c 0,1.407 1.145,2.551 2.55299,2.551 1.40899,0 2.55099,-1.143 2.55099,-2.551 z m -4.36099,0 c 0,-1 0.810997,-1.812 1.81099,-1.812 0.997997,0 1.80999,0.812 1.80999,1.812 0,0.998 -0.811997,1.81 -1.80999,1.81 -1.00099,0 -1.81099,-0.812 -1.81099,-1.81 z"/>
     <path style="fill:#9a916c;stroke-width:0" id="path155" d="m 6.20398,14.751 c 0,-1.406 -1.144,-2.553 -2.55199,-2.553 -1.408,0 -2.55199,1.146 -2.55199,2.553 0,1.408 1.145,2.553 2.55299,2.553 1.40899,-0.002 2.55099,-1.145 2.55099,-2.553 z m -4.36099,0 c 0,-1 0.810997,-1.812 1.81099,-1.812 0.997997,0 1.80999,0.812 1.80999,1.812 0,0.998 -0.811997,1.811 -1.80999,1.811 C 2.65299,16.56 1.84299,15.749 1.84299,14.751 z"/>
     <path style="fill:#9a916c;stroke-width:0" id="path157" d="m 6.20398,21.927 c 0,-1.408 -1.144,-2.555 -2.55199,-2.555 -1.408,0 -2.55199,1.146 -2.55199,2.555 0,1.406 1.145,2.551 2.55299,2.551 1.40899,0 2.55099,-1.143 2.55099,-2.551 z m -4.36099,0 c 0,-1 0.810997,-1.812 1.81099,-1.812 0.997997,0 1.80999,0.812 1.80999,1.812 0,0.997 -0.811997,1.81 -1.80999,1.81 -1.00099,-0.002 -1.81099,-0.811 -1.81099,-1.81 z"/>
     <path style="fill:#9a916c;stroke-width:0" id="path159" d="m 6.20398,29.101 c 0,-1.408 -1.144,-2.554 -2.55199,-2.554 -1.408,0 -2.55199,1.146 -2.55199,2.554 0,1.407 1.145,2.551 2.55299,2.551 1.40899,-0.001 2.55099,-1.142 2.55099,-2.551 z m -4.36099,0 c 0,-1 0.810997,-1.812 1.81099,-1.812 0.997997,0 1.80999,0.812 1.80999,1.812 0,0.998 -0.811997,1.81 -1.80999,1.81 -1.00099,-0.002 -1.81099,-0.812 -1.81099,-1.81 z"/>
     <path style="fill:#9a916c;stroke-width:0" id="path161" d="m 6.20398,36.276 c 0,-1.407 -1.144,-2.553 -2.55199,-2.553 -1.408,0 -2.55199,1.146 -2.55199,2.553 0,1.408 1.145,2.552 2.55299,2.552 1.40899,-0.001 2.55099,-1.143 2.55099,-2.552 z m -4.36099,0 c 0,-1 0.810997,-1.812 1.81099,-1.812 0.997997,0 1.80999,0.812 1.80999,1.812 0,0.998 -0.811997,1.81 -1.80999,1.81 -1.00099,-10e-4 -1.81099,-0.812 -1.81099,-1.81 z"/>
     <path style="fill:#9a916c;stroke-width:0" id="path163" d="m 6.20398,43.452 c 0,-1.408 -1.144,-2.554 -2.55199,-2.554 -1.408,0 -2.55199,1.146 -2.55199,2.554 0,1.407 1.145,2.551 2.55299,2.551 1.40899,0 2.55099,-1.143 2.55099,-2.551 z m -4.36099,0 c 0,-1 0.810997,-1.812 1.81099,-1.812 0.997997,0 1.80999,0.812 1.80999,1.812 0,0.998 -0.811997,1.811 -1.80999,1.811 C 2.65299,45.261 1.84299,44.45 1.84299,43.452 z"/>
    </g>
   </g>
   <g style="fill:#333333;stroke-width:0" id="g165">
    <g style="fill:#333333;stroke-width:0" id="g167">
     <rect width="9.1759701" x="21.5149" y="11.243" height="4.4380002" style="fill:#333333;stroke-width:0" id="rect169"/>
     <rect width="9.1759701" x="21.5149" y="35.345001" height="4.4380002" style="fill:#333333;stroke-width:0" id="rect171"/>
    </g>
    <g style="fill:#333333;stroke-width:0" id="g173">
     <rect width="7.4709702" x="22.0159" y="23.926001" height="4.4380002" style="fill:#333333;stroke-width:0" id="rect175"/>
    </g>
   </g>
   <rect width="18.503723" x="-29.338093" y="-65.419563" height="18.505823" style="fill:#333333;stroke-width:0" id="rect177" transform="matrix(-0.70710678,0.70710678,-0.70710678,-0.70710678,0,0)"/>
   <text x="-30.3064" y="15.2992" style="font-size:2.99998999px;fill:#ffffff;stroke-width:0;font-family:OCRA" id="text179" transform="matrix(0,-1,1,0,0,0)" font-size="2.99999">Mini</text>
   <text x="-38.696999" y="19.499399" style="font-size:2.99998999px;fill:#ffffff;stroke-width:0;font-family:OCRA" id="text181" transform="matrix(0,-1,1,0,0,0)" font-size="2.99999">Arduino Pro</text>
   <text x="-31.5056" y="73.317101" style="font-size:2.99998999px;fill:#ffffff;stroke-width:0;font-family:OCRA" id="text183" transform="matrix(0,-1,1,0,0,0)" font-size="2.99999">Reset</text>
   <text x="-91.879601" y="-6.5700998" style="font-size:2.99998999px;fill:#ffffff;stroke-width:0;font-family:OCRA" id="text201" transform="scale(-1,-1)" font-size="2.99999">10</text>
   <text x="-84.703796" y="-6.5700998" style="font-size:2.99998999px;fill:#ffffff;stroke-width:0;font-family:OCRA" id="text203" transform="scale(-1,-1)" font-size="2.99999">11</text>
   <text x="-77.528" y="-6.5700998" style="font-size:2.99998999px;fill:#ffffff;stroke-width:0;font-family:OCRA" id="text205" transform="scale(-1,-1)" font-size="2.99999">12</text>
   <text x="-70.352303" y="-6.5700998" style="font-size:2.99998999px;fill:#ffffff;stroke-width:0;font-family:OCRA" id="text207" transform="scale(-1,-1)" font-size="2.99999">13</text>
   <text x="-63.176601" y="-6.5700998" style="font-size:2.99998999px;fill:#ffffff;stroke-width:0;font-family:OCRA" id="text209" transform="scale(-1,-1)" font-size="2.99999">A0</text>
   <text x="-56.000801" y="-6.5700998" style="font-size:2.99998999px;fill:#ffffff;stroke-width:0;font-family:OCRA" id="text211" transform="scale(-1,-1)" font-size="2.99999">A1</text>
   <text x="-48.825001" y="-6.5700998" style="font-size:2.99998999px;fill:#ffffff;stroke-width:0;font-family:OCRA" id="text213" transform="scale(-1,-1)" font-size="2.99999">A2</text>
   <text x="-41.649799" y="-6.5700998" style="font-size:2.99998999px;fill:#ffffff;stroke-width:0;font-family:OCRA" id="text215" transform="scale(-1,-1)" font-size="2.99999">A3</text>
   <text x="-45.238602" y="-14.7634" style="font-size:2.99998999px;fill:#ffffff;stroke-width:0;font-family:OCRA" id="text217" transform="scale(-1,-1)" font-size="2.99999">A4</text>
   <text x="-38.062901" y="-14.7634" style="font-size:2.99998999px;fill:#ffffff;stroke-width:0;font-family:OCRA" id="text219" transform="scale(-1,-1)" font-size="2.99999">A5</text>
   <text x="-35.478901" y="-6.5700998" style="font-size:2.99998999px;fill:#ffffff;stroke-width:0;font-family:OCRA" id="text221" transform="scale(-1,-1)" font-size="2.99999">VCC</text>
   <text x="-28.3041" y="-6.5700998" style="font-size:2.99998999px;fill:#ffffff;stroke-width:0;font-family:OCRA" id="text223" transform="scale(-1,-1)" font-size="2.99999">RST</text>
   <text x="-21.1283" y="-6.5700998" style="font-size:2.99998999px;fill:#ffffff;stroke-width:0;font-family:OCRA" id="text225" transform="scale(-1,-1)" font-size="2.99999">GND</text>
   <text x="-13.9526" y="-6.5700998" style="font-size:2.99998999px;fill:#ffffff;stroke-width:0;font-family:OCRA" id="text227" transform="scale(-1,-1)" font-size="2.99999">RAW</text>
   <text x="-90.875702" y="-41.759499" style="font-size:2.99998999px;fill:#ffffff;stroke-width:0;font-family:OCRA" id="text231" transform="scale(-1,-1)" font-size="2.99999">9</text>
   <text x="-83.699898" y="-41.759499" style="font-size:2.99998999px;fill:#ffffff;stroke-width:0;font-family:OCRA" id="text233" transform="scale(-1,-1)" font-size="2.99999">8</text>
   <text x="-76.524101" y="-41.759499" style="font-size:2.99998999px;fill:#ffffff;stroke-width:0;font-family:OCRA" id="text235" transform="scale(-1,-1)" font-size="2.99999">7</text>
   <text x="-69.348396" y="-41.759499" style="font-size:2.99998999px;fill:#ffffff;stroke-width:0;font-family:OCRA" id="text237" transform="scale(-1,-1)" font-size="2.99999">6</text>
   <text x="-62.172699" y="-41.759499" style="font-size:2.99998999px;fill:#ffffff;stroke-width:0;font-family:OCRA" id="text239" transform="scale(-1,-1)" font-size="2.99999">5</text>
   <text x="-54.996899" y="-41.759499" style="font-size:2.99998999px;fill:#ffffff;stroke-width:0;font-family:OCRA" id="text241" transform="scale(-1,-1)" font-size="2.99999">4</text>
   <text x="-47.821098" y="-41.759499" style="font-size:2.99998999px;fill:#ffffff;stroke-width:0;font-family:OCRA" id="text243" transform="scale(-1,-1)" font-size="2.99999">3</text>
   <text x="-40.645901" y="-41.759499" style="font-size:2.99998999px;fill:#ffffff;stroke-width:0;font-family:OCRA" id="text245" transform="scale(-1,-1)" font-size="2.99999">2</text>
   <text x="-35.478901" y="-41.759499" style="font-size:2.99998999px;fill:#ffffff;stroke-width:0;font-family:OCRA" id="text247" transform="scale(-1,-1)" font-size="2.99999">GND</text>
   <text x="-28.3041" y="-41.759499" style="font-size:2.99998999px;fill:#ffffff;stroke-width:0;font-family:OCRA" id="text249" transform="scale(-1,-1)" font-size="2.99999">RST</text>
   <text x="-20.561899" y="-41.759499" style="font-size:2.99998999px;fill:#ffffff;stroke-width:0;font-family:OCRA" id="text251" transform="scale(-1,-1)" font-size="2.99999">RXI</text>
   <text x="-13.9526" y="-41.759499" style="font-size:2.99998999px;fill:#ffffff;stroke-width:0;font-family:OCRA" id="text253" transform="scale(-1,-1)" font-size="2.99999">TX0</text>
   <text x="-39.3064" y="9.4428701" style="font-size:2.99998999px;fill:#ffffff;stroke-width:0;font-family:OCRA" id="text257" transform="matrix(0,-1,1,0,0,0)" font-size="2.99999">TX0</text>
   <text x="-32.1306" y="9.4428701" style="font-size:2.99998999px;fill:#ffffff;stroke-width:0;font-family:OCRA" id="text259" transform="matrix(0,-1,1,0,0,0)" font-size="2.99999">RXI</text>
   <text x="-24.956301" y="9.4428701" style="font-size:2.99998999px;fill:#ffffff;stroke-width:0;font-family:OCRA" id="text261" transform="matrix(0,-1,1,0,0,0)" font-size="2.99999">VCC</text>
   <text x="-17.7805" y="9.4428701" style="font-size:2.99998999px;fill:#ffffff;stroke-width:0;font-family:OCRA" id="text263" transform="matrix(0,-1,1,0,0,0)" font-size="2.99999">GND</text>
   <text x="-6.7416801" y="-46.853298" style="font-size:2.99998999px;fill:#ffffff;stroke-width:0;font-family:OCRA" id="text265" font-size="2.99999" transform="scale(-1,-1)">GRN</text>
   <text x="-6.7416801" y="-1.9586999" style="font-size:2.99998999px;fill:#ffffff;stroke-width:0;font-family:OCRA" id="text267" font-size="2.99999" transform="scale(-1,-1)">BLK</text>
   <g style="stroke-width:0" id="g73108" transform="matrix(0,1.0000001,-1.0000001,0,91.279259,17.959819)">
    <polygon points="1.142,12.976 3.41499,15.25 12.9779,15.25 15.25,12.976 15.25,3.41299 12.9779,1.141 3.41499,1.141 1.142,3.41299 " style="fill:#6d6d6d;stroke-width:0" id="polygon73110"/>
    <rect width="9.5629702" x="3.4149899" y="0" height="16.392" style="fill:#6d6d6d;stroke-width:0" id="rect73112"/>
    <rect width="16.392" x="0" y="3.4129901" height="9.5619602" style="fill:#6d6d6d;stroke-width:0" id="rect73114"/>
    <polygon points="1.82699,12.513 3.87899,14.565 12.513,14.565 14.566,12.513 14.566,3.87699 12.513,1.82599 3.87899,1.82599 1.82699,3.87699 " style="fill:#7f7f7f;stroke-width:0" id="polygon73116"/>
    <polyline points="4.10499,2.15999,2.16099,4.10298,2.16099,12.2869,4.10499,14.232,12.288,14.232" style="opacity:0.2;fill:none;stroke:#ffffff;stroke-width:0.236899;stroke-miterlimit:10" id="polyline73118" stroke-miterlimit="10"/>
    <polyline points="12.289,14.232,14.233,12.289,14.233,4.10499,12.289,2.15999,4.10599,2.15999" style="opacity:0.2;fill:none;stroke:#606060;stroke-width:0.236899;stroke-miterlimit:10" id="polyline73120" stroke-miterlimit="10"/>
    <g style="stroke-width:0" id="g73122">
     <path style="fill:#bca16a;stroke-width:0" id="path73124" d="m 8.19598,11.923 c -2.055,0 -3.72699,-1.672 -3.72699,-3.72699 0,-2.055 1.672,-3.72799 3.72699,-3.72799 2.05499,0 3.72699,1.672 3.72699,3.72799 C 11.922,10.251 10.25,11.923 8.19598,11.923 z"/>
     <path style="fill:#606060;stroke-width:0" id="path73126" d="m 8.19598,4.71899 c 1.92,0 3.47699,1.55699 3.47699,3.47799 0,1.92 -1.55699,3.47699 -3.47699,3.47699 -1.92,0 -3.47699,-1.55699 -3.47699,-3.47699 0,-1.922 1.55699,-3.47799 3.47699,-3.47799 m 0,-0.5 c -2.19299,0 -3.97698,1.78399 -3.97698,3.97799 0,2.192 1.78399,3.97698 3.97698,3.97698 2.192,0 3.97698,-1.78399 3.97698,-3.97698 C 12.172,6.00299 10.3879,4.21899 8.19598,4.21899 l 0,0 z"/>
    </g>
    <path style="opacity:0.2;fill:#bca16a;stroke:#ffffff;stroke-width:0.53039902;stroke-miterlimit:10" id="path73128" d="m 10.39,10.389 c -1.212,1.212 -3.17699,1.212 -4.38899,0 -1.212,-1.213 -1.212,-3.17799 0,-4.38998" stroke-miterlimit="10"/>
    <path style="opacity:0.2;fill:#bca16a;stroke:#606060;stroke-width:0.53039902;stroke-miterlimit:10" id="path73130" d="m 6.00098,5.99898 c 1.212,-1.212 3.17699,-1.212 4.38899,0 1.212,1.213 1.212,3.17699 0,4.38998" stroke-miterlimit="10"/>
   </g>
  </g>
 </g>
</svg>
