<?xml version='1.0' encoding='UTF-8' standalone='no'?>
<!-- Created with Inkscape (http://www.inkscape.org/) -->
<svg width="116.69231" xmlns:rdf="http://www.w3.org/1999/02/22-rdf-syntax-ns#" version="1.1" xmlns="http://www.w3.org/2000/svg" height="47.09375" xmlns:sodipodi="http://sodipodi.sourceforge.net/DTD/sodipodi-0.dtd" xmlns:cc="http://creativecommons.org/ns#" id="svg7347" xmlns:dc="http://purl.org/dc/elements/1.1/" xmlns:svg="http://www.w3.org/2000/svg" xmlns:inkscape="http://www.inkscape.org/namespaces/inkscape">
 <g id="breadboard">
  <defs id="defs7349">
   <inkscape:path-effect effect="spiro" is_visible="true" id="path-effect6984"/>
   <inkscape:path-effect effect="spiro" is_visible="true" id="path-effect6980"/>
  </defs>
  <sodipodi:namedview fit-margin-top="0" fit-margin-left="0" showgrid="false" fit-margin-bottom="0" pagecolor="#ffffff" bordercolor="#666666" id="base" borderopacity="1.0" fit-margin-right="0"/>
  <metadata id="metadata7352">
   <rdf:RDF>
    <cc:Work rdf:about="">
     <dc:format>image/svg+xml</dc:format>
     <dc:type rdf:resource="http://purl.org/dc/dcmitype/StillImage"/>
     <dc:title/>
    </cc:Work>
   </rdf:RDF>
  </metadata>
  <path style="fill:#008000;fill-opacity:1;stroke:none" id="rect3459" d="m 37.536,0 0,47.09375 79.1563,0 L 116.6923,0 37.536,0 z m 72.8125,3.65625 c 0.9942,0 1.7812,0.78715 1.7812,1.78125 0,0.9942 -0.787,1.8125 -1.7812,1.8125 -0.9941,0 -1.8125,-0.8183 -1.8125,-1.8125 0,-0.9941 0.8184,-1.78125 1.8125,-1.78125 z m 0,9 c 0.9942,0 1.7812,0.78715 1.7812,1.78125 0,0.9942 -0.787,1.8125 -1.7812,1.8125 -0.9941,0 -1.8125,-0.8183 -1.8125,-1.8125 0,-0.9941 0.8184,-1.78125 1.8125,-1.78125 z m 0,9 c 0.9942,0 1.7812,0.78715 1.7812,1.78125 0,0.9942 -0.787,1.8125 -1.7812,1.8125 -0.9941,0 -1.8125,-0.8183 -1.8125,-1.8125 0,-0.9941 0.8184,-1.78125 1.8125,-1.78125 z m 0,9 c 0.9942,0 1.7812,0.78715 1.7812,1.78125 0,0.9942 -0.787,1.8125 -1.7812,1.8125 -0.9941,0 -1.8125,-0.8183 -1.8125,-1.8125 0,-0.9941 0.8184,-1.78125 1.8125,-1.78125 z m 0,9 c 0.9942,0 1.7812,0.78715 1.7812,1.78125 0,0.9942 -0.787,1.8125 -1.7812,1.8125 -0.9941,0 -1.8125,-0.8183 -1.8125,-1.8125 0,-0.9941 0.8184,-1.78125 1.8125,-1.78125 z"/>
  <circle cx="4.3200002" cy="11.52" style="fill:none;stroke:#ffbf00;stroke-width:1.15199995" r="1.584" id="connector1pad-0-1-1" d="m 5.9040002,11.52 c 0,0.874819 -0.709181,1.584 -1.584,1.584 -0.8748191,0 -1.584,-0.709181 -1.584,-1.584 0,-0.874819 0.7091809,-1.5839995 1.584,-1.5839995 0.874819,0 1.584,0.7091805 1.584,1.5839995 z" transform="matrix(-1.25,0,0,1.25,116.16182,27.1261)"/>
  <circle cx="4.3200002" cy="11.52" style="fill:none;stroke:#ffbf00;stroke-width:1.15199995" r="1.584" id="connector1pad-4-5-0-39" d="m 5.9040002,11.52 c 0,0.874819 -0.709181,1.584 -1.584,1.584 -0.8748191,0 -1.584,-0.709181 -1.584,-1.584 0,-0.874819 0.7091809,-1.5839995 1.584,-1.5839995 0.874819,0 1.584,0.7091805 1.584,1.5839995 z" transform="matrix(-1.25,0,0,1.25,116.16182,18.1262)"/>
  <circle cx="4.3200002" cy="11.52" style="fill:none;stroke:#ffbf00;stroke-width:1.15199995" r="1.584" id="connector1pad-4-2-3-6" d="m 5.9040002,11.52 c 0,0.874819 -0.709181,1.584 -1.584,1.584 -0.8748191,0 -1.584,-0.709181 -1.584,-1.584 0,-0.874819 0.7091809,-1.5839995 1.584,-1.5839995 0.874819,0 1.584,0.7091805 1.584,1.5839995 z" transform="matrix(-1.25,0,0,1.25,116.16182,9.1264)"/>
  <circle cx="4.3200002" cy="11.52" style="fill:none;stroke:#ffbf00;stroke-width:1.15199995" r="1.584" id="connector1pad-0-1-9-9" d="m 5.9040002,11.52 c 0,0.874819 -0.709181,1.584 -1.584,1.584 -0.8748191,0 -1.584,-0.709181 -1.584,-1.584 0,-0.874819 0.7091809,-1.5839995 1.584,-1.5839995 0.874819,0 1.584,0.7091805 1.584,1.5839995 z" transform="matrix(-1.25,0,0,1.25,116.16182,0.1265)"/>
  <circle cx="4.3200002" cy="11.52" style="fill:none;stroke:#ffbf00;stroke-width:1.15199995" r="1.584" id="connector1pad-4-5-0-3-1" d="m 5.9040002,11.52 c 0,0.874819 -0.709181,1.584 -1.584,1.584 -0.8748191,0 -1.584,-0.709181 -1.584,-1.584 0,-0.874819 0.7091809,-1.5839995 1.584,-1.5839995 0.874819,0 1.584,0.7091805 1.584,1.5839995 z" transform="matrix(-1.25,0,0,1.25,116.16182,-8.8733)"/>
  <line style="fill:none;stroke:#ffffff;stroke-width:0.71999991;stroke-linecap:round" id="line72134" y1="30.295252" y2="34.795254" x1="115.21959" x2="115.21959"/>
  <line style="fill:none;stroke:#ffffff;stroke-width:0.71999991;stroke-linecap:round" id="line72136" y1="34.795254" y2="37.045254" x1="115.21959" x2="112.96959"/>
  <line style="fill:none;stroke:#ffffff;stroke-width:0.71999991;stroke-linecap:round" id="line72138" y1="37.045254" y2="34.795254" x1="108.46959" x2="106.21959"/>
  <line style="fill:none;stroke:#ffffff;stroke-width:0.71999991;stroke-linecap:round" id="line72140" y1="37.045254" y2="39.295254" x1="112.96959" x2="115.21959"/>
  <line style="fill:none;stroke:#ffffff;stroke-width:0.71999991;stroke-linecap:round" id="line72142" y1="39.295254" y2="43.795254" x1="115.21959" x2="115.21959"/>
  <line style="fill:none;stroke:#ffffff;stroke-width:0.71999991;stroke-linecap:round" id="line72144" y1="43.795254" y2="46.045254" x1="115.21959" x2="112.96959"/>
  <line style="fill:none;stroke:#ffffff;stroke-width:0.71999991;stroke-linecap:round" id="line72146" y1="46.045254" y2="43.795254" x1="108.46959" x2="106.21959"/>
  <line style="fill:none;stroke:#ffffff;stroke-width:0.71999991;stroke-linecap:round" id="line72148" y1="43.795254" y2="39.295254" x1="106.21959" x2="106.21959"/>
  <line style="fill:none;stroke:#ffffff;stroke-width:0.71999991;stroke-linecap:round" id="line72150" y1="39.295254" y2="37.045254" x1="106.21959" x2="108.46959"/>
  <line style="fill:none;stroke:#ffffff;stroke-width:0.71999991;stroke-linecap:round" id="line72152" y1="19.045252" y2="21.295252" x1="112.96959" x2="115.21959"/>
  <line style="fill:none;stroke:#ffffff;stroke-width:0.71999991;stroke-linecap:round" id="line72154" y1="21.295252" y2="25.795252" x1="115.21959" x2="115.21959"/>
  <line style="fill:none;stroke:#ffffff;stroke-width:0.71999991;stroke-linecap:round" id="line72156" y1="25.795252" y2="28.045252" x1="115.21959" x2="112.96959"/>
  <line style="fill:none;stroke:#ffffff;stroke-width:0.71999991;stroke-linecap:round" id="line72158" y1="28.045252" y2="25.795252" x1="108.46959" x2="106.21959"/>
  <line style="fill:none;stroke:#ffffff;stroke-width:0.71999991;stroke-linecap:round" id="line72160" y1="25.795252" y2="21.295252" x1="106.21959" x2="106.21959"/>
  <line style="fill:none;stroke:#ffffff;stroke-width:0.71999991;stroke-linecap:round" id="line72162" y1="21.295252" y2="19.045252" x1="106.21959" x2="108.46959"/>
  <line style="fill:none;stroke:#ffffff;stroke-width:0.71999991;stroke-linecap:round" id="line72164" y1="30.295252" y2="28.045252" x1="115.21959" x2="112.96959"/>
  <line style="fill:none;stroke:#ffffff;stroke-width:0.71999991;stroke-linecap:round" id="line72166" y1="28.045252" y2="30.295252" x1="108.46959" x2="106.21959"/>
  <line style="fill:none;stroke:#ffffff;stroke-width:0.71999991;stroke-linecap:round" id="line72168" y1="34.795254" y2="30.295252" x1="106.21959" x2="106.21959"/>
  <line style="fill:none;stroke:#ffffff;stroke-width:0.71999991;stroke-linecap:round" id="line72170" y1="3.2952528" y2="7.7952528" x1="115.21959" x2="115.21959"/>
  <line style="fill:none;stroke:#ffffff;stroke-width:0.71999991;stroke-linecap:round" id="line72172" y1="7.7952528" y2="10.045253" x1="115.21959" x2="112.96959"/>
  <line style="fill:none;stroke:#ffffff;stroke-width:0.71999991;stroke-linecap:round" id="line72174" y1="10.045253" y2="7.7952528" x1="108.46959" x2="106.21959"/>
  <line style="fill:none;stroke:#ffffff;stroke-width:0.71999991;stroke-linecap:round" id="line72176" y1="10.045253" y2="12.295253" x1="112.96959" x2="115.21959"/>
  <line style="fill:none;stroke:#ffffff;stroke-width:0.71999991;stroke-linecap:round" id="line72178" y1="12.295253" y2="16.795252" x1="115.21959" x2="115.21959"/>
  <line style="fill:none;stroke:#ffffff;stroke-width:0.71999991;stroke-linecap:round" id="line72180" y1="16.795252" y2="19.045252" x1="115.21959" x2="112.96959"/>
  <line style="fill:none;stroke:#ffffff;stroke-width:0.71999991;stroke-linecap:round" id="line72182" y1="19.045252" y2="16.795252" x1="108.46959" x2="106.21959"/>
  <line style="fill:none;stroke:#ffffff;stroke-width:0.71999991;stroke-linecap:round" id="line72184" y1="16.795252" y2="12.295253" x1="106.21959" x2="106.21959"/>
  <line style="fill:none;stroke:#ffffff;stroke-width:0.71999991;stroke-linecap:round" id="line72186" y1="12.295253" y2="10.045253" x1="106.21959" x2="108.46959"/>
  <line style="fill:none;stroke:#ffffff;stroke-width:0.71999991;stroke-linecap:round" id="line72188" y1="1.0452527" y2="1.0452527" x1="112.96959" x2="108.46959"/>
  <line style="fill:none;stroke:#ffffff;stroke-width:0.71999991;stroke-linecap:round" id="line72190" y1="3.2952528" y2="1.0452527" x1="115.21959" x2="112.96959"/>
  <line style="fill:none;stroke:#ffffff;stroke-width:0.71999991;stroke-linecap:round" id="line72192" y1="1.0452527" y2="3.2952528" x1="108.46959" x2="106.21959"/>
  <line style="fill:none;stroke:#ffffff;stroke-width:0.71999991;stroke-linecap:round" id="line72194" y1="7.7952528" y2="3.2952528" x1="106.21959" x2="106.21959"/>
  <line style="fill:none;stroke:#ffffff;stroke-width:0.71999991;stroke-linecap:round" id="line72188-9" y1="46.032436" y2="46.032436" x1="112.95189" x2="108.45189"/>
  <rect width="17.67767" x="73.23671" y="14.869583" height="14.394673" style="fill:#000000;fill-opacity:1;stroke:none" id="rect6946"/>
  <rect width="6.5659914" x="94.38147" y="4.7252359" ry="3.8520265" height="21.970818" style="fill:#cccccc;fill-opacity:1;stroke:none" id="rect6948" transform="matrix(0.99550649,0.09469337,-0.09469337,0.99550649,0,0)"/>
  <rect width="2.8518858" x="94.917358" y="5.1716471" height="21.167246" ry="3.7111406" style="fill:#ffffff;fill-opacity:1;stroke:none" id="rect6950" transform="matrix(0.99550649,0.09469337,-0.09469337,0.99550649,0,0)"/>
  <path style="fill:none;stroke:#d4aa00;stroke-width:1px;stroke-linecap:butt;stroke-linejoin:miter;stroke-opacity:1" id="path6982" d="m 33.6342,25.32948 7.7679,1.25"/>
  <path style="fill:#999999;fill-opacity:1;stroke:none" id="rect6958" d="M 7.6297,3.71875 C 3.2683,4.08624 -0.1451,13.0558 0.0047,23.75 c 0.1499,10.6942 3.8261,19.08624 8.1876,18.71875 0.032,-0.003 0.062,-0.0276 0.094,-0.0312 0.095,0.007 0.185,0.0312 0.2813,0.0312 l 22.1874,0 c 2.1341,0 3.875,-1.66278 3.875,-3.71875 l 0,-31.3125 c 0,-2.05597 -1.7409,-3.71875 -3.875,-3.71875 l -22.1874,0 c -0.1065,0 -0.2083,0.0232 -0.3126,0.0312 C 8.049,3.72795 7.8396,3.70105 7.63,3.71875 z"/>
  <path style="fill:#f2f2f2;fill-opacity:1;stroke:none" id="path6963" d="M 9.1915,5.59362 C 5.1112,5.697 1.9178,8.2203 2.0579,11.22876 c 0.1403,3.00846 3.5795,5.36929 7.6599,5.26591 0.03,-8.4e-4 0.058,-0.007 0.088,-0.009 0.089,0.002 0.1731,0.009 0.2632,0.009 l 20.7573,0 c 1.9965,0 3.6252,-0.46777 3.6252,-1.04615 l 0,-8.80875 c 0,-0.57838 -1.6287,-1.04615 -3.6252,-1.04615 l -20.7573,0 c -0.099,0 -0.1949,0.006 -0.2924,0.009 -0.1928,-0.006 -0.3887,-0.0138 -0.5847,-0.009 z"/>
  <path style="fill:#ffffff;fill-opacity:1;stroke:none" id="path6965" d="m 9.868,6.48648 c -3.9566,0.0458 -7.0532,1.16417 -6.9174,2.49754 0.136,1.33338 3.471,2.37972 7.4277,2.3339 0.029,-3.7e-4 0.057,-0.003 0.085,-0.004 0.086,8.9e-4 0.1679,0.004 0.2552,0.004 l 20.1281,0 c 1.936,0 3.5153,-0.20732 3.5153,-0.46366 l 0,-3.90412 c 0,-0.25634 -1.5793,-0.46366 -3.5153,-0.46366 l -20.1281,0 c -0.095,0 -0.1889,0.003 -0.2835,0.004 -0.1869,-0.003 -0.3769,-0.006 -0.5669,-0.004 z"/>
  <path style="fill:none;stroke:#d4aa00;stroke-width:1px;stroke-linecap:butt;stroke-linejoin:miter;stroke-opacity:1" id="path6978" d="m 34.6164,18.9902 7.1428,-1.07143"/>
  <rect width="8.9285707" x="38.009415" y="15.954483" rx="0.94367015" ry="4.9107141" height="4.9107141" style="fill:#f2f2f2;fill-opacity:1;stroke:none" id="rect6986"/>
  <rect width="8.9285707" x="38.277237" y="23.633072" rx="0.94367015" height="4.9107141" ry="4.9107141" style="fill:#f2f2f2;fill-opacity:1;stroke:none" id="rect6988"/>
  <text x="-35.287857" y="52.585709" style="font-size:4.5px;font-style:normal;font-variant:normal;font-weight:normal;font-stretch:normal;line-height:125%;letter-spacing:0px;word-spacing:0px;fill:#ffffff;fill-opacity:1;stroke:none;font-family:OCRA;-inkscape-font-specification:OCRA" id="tspan6996" transform="matrix(0,-1,1,0,0,0)">ZyTemp</text>
  <text x="40.310818" y="-101.74253" style="font-size:4px;font-style:normal;font-variant:normal;font-weight:normal;font-stretch:normal;line-height:125%;letter-spacing:0px;word-spacing:0px;fill:#ffffff;fill-opacity:1;stroke:none;font-family:Droid Sans;-inkscape-font-specification:Droid Sans" id="tspan3381" transform="matrix(0,1,-1,0,0,0)">V</text>
  <text x="31.448299" y="-101.74253" style="font-size:4px;font-style:normal;font-variant:normal;font-weight:normal;font-stretch:normal;line-height:125%;letter-spacing:0px;word-spacing:0px;fill:#ffffff;fill-opacity:1;stroke:none;font-family:Droid Sans;-inkscape-font-specification:Droid Sans" id="tspan3381-7" transform="matrix(0,1,-1,0,0,0)">D</text>
  <text x="22.585781" y="-101.74253" style="font-size:4px;font-style:normal;font-variant:normal;font-weight:normal;font-stretch:normal;line-height:125%;letter-spacing:0px;word-spacing:0px;fill:#ffffff;fill-opacity:1;stroke:none;font-family:Droid Sans;-inkscape-font-specification:Droid Sans" id="tspan3381-0" transform="matrix(0,1,-1,0,0,0)">C</text>
  <text x="13.723264" y="-101.74253" style="font-size:4px;font-style:normal;font-variant:normal;font-weight:normal;font-stretch:normal;line-height:125%;letter-spacing:0px;word-spacing:0px;fill:#ffffff;fill-opacity:1;stroke:none;font-family:Droid Sans;-inkscape-font-specification:Droid Sans" id="tspan3381-4" transform="matrix(0,1,-1,0,0,0)">G</text>
  <text x="4.8607435" y="-101.74253" style="font-size:4px;font-style:normal;font-variant:normal;font-weight:normal;font-stretch:normal;line-height:125%;letter-spacing:0px;word-spacing:0px;fill:#ffffff;fill-opacity:1;stroke:none;font-family:Droid Sans;-inkscape-font-specification:Droid Sans" id="tspan3381-8" transform="matrix(0,1,-1,0,0,0)">A</text>
 </g>
</svg>
