<?xml version='1.0' encoding='UTF-8' standalone='no'?>
<!-- Created with Fritzing (http://www.fritzing.org/) -->
<svg width="81.021973" x="0in" version="1.2" y="0in" xmlns="http://www.w3.org/2000/svg" height="179.18977" viewBox="0 0 64.817549 143.35136" id="svg2">
 <g id="schematic">
  <metadata id="metadata123">
   <rdf:RDF xmlns:rdf="http://www.w3.org/1999/02/22-rdf-syntax-ns#">
    <cc:Work xmlns:rdf="http://www.w3.org/1999/02/22-rdf-syntax-ns#" xmlns:cc="http://creativecommons.org/ns#" rdf:about="">
     <dc:format xmlns:dc="http://purl.org/dc/elements/1.1/">image/svg+xml</dc:format>
     <dc:type xmlns:rdf="http://www.w3.org/1999/02/22-rdf-syntax-ns#" rdf:resource="http://purl.org/dc/dcmitype/StillImage" xmlns:dc="http://purl.org/dc/elements/1.1/"/>
     <dc:title xmlns:dc="http://purl.org/dc/elements/1.1/"/>
    </cc:Work>
   </rdf:RDF>
  </metadata>
  <defs id="defs121"/>
  <sodipodi:namedview fit-margin-top="0" fit-margin-left="0" showgrid="false" fit-margin-bottom="0" objecttolerance="10" xmlns:sodipodi="http://sodipodi.sourceforge.net/DTD/sodipodi-0.dtd" pagecolor="#ffffff" bordercolor="#666666" id="namedview119" borderopacity="1" guidetolerance="10" gridtolerance="10" fit-margin-right="0"/>
  <g style="font-size:31.99998474px;font-style:normal;font-weight:normal;line-height:125%;letter-spacing:0px;word-spacing:0px;fill:#000000;fill-opacity:1;stroke:none;font-family:OCRA" id="text3900" xml:space="preserve"/>
  <path style="stroke-width:0" id="path32" d=""/>
  <g id="g3154">
   <polygon points="24.9528,18.7424 30.1328,12.3856 32.8032,16.3736 " style="stroke-width:0" id="polygon69" transform="matrix(-1.3848998,0,0,1.3261311,49.70462,24.968528)"/>
   <path style="fill:none;stroke:#000000;stroke-width:0.79999965px;stroke-linecap:butt;stroke-linejoin:miter;stroke-opacity:1" id="path3898" d="M 6.264603,43.838245 1.917205,41.299831 5.3892882,41.533246 0.39999207,38.265408"/>
   <path style="fill:none;stroke:#000000;stroke-width:1.86553848;stroke-linecap:round;stroke-linejoin:round;stroke-miterlimit:4;stroke-opacity:1;stroke-dasharray:none" id="path3910" d="m 30.21595,70.166332 31.39801,-0.02396"/>
   <path style="fill:#800000;fill-opacity:1;stroke:#000000;stroke-width:2;stroke-linecap:round;stroke-linejoin:round;stroke-miterlimit:4;stroke-opacity:1;stroke-dasharray:none" id="path3912" d="m -52.990873,208.37598 a 1.6762999,1.6762999 0 1 1 0.0013,-5e-5" transform="matrix(0.79999964,0,0,0.79999964,72.55513,-95.159788)"/>
   <path style="stroke-width:0" id="path12" d="m 29.155283,75.099826 0,-14.324 c 0,-0.492 0.3984,-0.8896 0.8904,-0.8896 l 0,0 c 0.492,0 0.8904,0.3976 0.8904,0.8896 l 0,0 0,14.324 c 0,0.492 -0.3984,0.8896 -0.8904,0.8896 l 0,0 c -0.492,0 -0.8904,-0.3976 -0.8904,-0.8896 l 0,0 z"/>
   <path style="stroke-width:0" id="path16" d="m 29.525683,41.411826 0,-14.4456 c 0,-0.4928 0.3984,-0.8912 0.892,-0.8912 l 0,0 c 0.492,0 0.8904,0.3984 0.8904,0.8912 l 0,0 0,14.4456 c 0,0.492 -0.3984,0.8904 -0.8904,0.8904 l 0,0 c -0.4936,0 -0.892,-0.3984 -0.892,-0.8904 l 0,0 z"/>
   <polygon points="7.7752,36.5264 7.7752,36.5264 7.7752,14.3632 9.5576,14.3632 9.5576,36.5264 " style="stroke-width:0" id="polygon20" transform="matrix(1,0,0,0.758523,11.529373,31.769426)"/>
   <polygon points="9.3256,24.9376 15.564,30.3984 14.5112,31.6016 8.2712,26.1424 8.2712,26.1424 " style="stroke-width:0" id="polygon36" transform="matrix(0.971221,0,0,0.905517,11.242707,29.083142)"/>
   <polygon points="12.7536,32.2968 16.0192,28.5648 16.0192,28.5648 20.212,35.528 " style="stroke-width:0" id="polygon40" transform="translate(10.479979,25.887444)"/>
   <polygon points="8.1344,24.7368 8.1344,24.7368 19.9432,15.2672 20.944,16.5152 9.1352,25.984 " style="stroke-width:0" id="polygon44" transform="matrix(0.885309,0,0,0.90208,12.357373,27.067596)"/>
   <path style="fill:#00ff00;stroke:#000000;stroke-width:1.59999931;stroke-linecap:round;stroke-linejoin:miter;stroke-miterlimit:4;stroke-opacity:1;stroke-dasharray:none" id="path3112" d="M 30.423304,26.477823 30.306595,9.204943"/>
   <g id="g111" transform="matrix(1,0,0,0.98060468,24.947982,71.549577)">
    <g style="stroke-width:0" id="g113">
     <g style="stroke-width:0" id="g115">
      <polyline points="5.124,0.9056,5.124,16.3136,7.924,17.804,2.124,21.0328,7.924,24.2592,2.124,27.4872,7.924,30.7136,2.124,33.9416,5.124,35.6792,5.124,51.0888" style="fill:#ffffff;stroke:#000000;stroke-width:1.78271997;stroke-linecap:round" id="polyline117"/>
     </g>
    </g>
   </g>
   <path style="fill:none;stroke:#000000;stroke-width:1.77938831;stroke-linecap:butt;stroke-linejoin:miter;stroke-miterlimit:4;stroke-opacity:1;stroke-dasharray:none" id="path3884" d="m 30.071404,121.159 0.01261,13.97067"/>
   <g style="font-size:7.99999619px;font-style:normal;font-variant:normal;font-weight:normal;font-stretch:normal;line-height:125%;letter-spacing:0px;word-spacing:0px;fill:#000000;fill-opacity:1;stroke:none;font-family:OCR A Extended;-inkscape-font-specification:OCR A Extended" id="text3918" xml:space="preserve" transform="matrix(0,-0.95528475,1.0468083,0,0,0)">
    <text x="-105.05694" y="19.469284" id="tspan3920">R1</text>
   </g>
   <g style="font-size:7.99999619px;font-style:normal;font-variant:normal;font-weight:normal;font-stretch:normal;line-height:125%;letter-spacing:0px;word-spacing:0px;fill:#000000;fill-opacity:1;stroke:none;font-family:OCR A Extended;-inkscape-font-specification:OCR A Extended" id="text3922" xml:space="preserve" transform="matrix(0,-1,1,0,0,0)">
    <text x="-104.73622" y="46.676746" id="tspan3924">10k</text>
   </g>
  </g>
  <rect width="7.182218964505133" x="26.73512627980746" y="4.613036183096527" fill="none" height="7.255849935048579" id="connector1pad-4-5-0-3-1"/>
  <rect width="6.245158457638159" x="59.24747200389971" y="66.92730800777471" fill="none" height="6.451592380740872" id="connector1pad-0-1-9-9"/>
  <rect width="6.214190729749071" x="27.07200272710919" y="131.7012955104131" fill="none" height="6.057271054429985" id="connector1pad-4-2-3-6"/>
 </g>
</svg>
