<?xml version='1.0' encoding='UTF-8' standalone='no'?>
<!-- Created with Fritzing (http://www.fritzing.org/) -->
<svg width="268.51895" xmlns:rdf="http://www.w3.org/1999/02/22-rdf-syntax-ns#" x="0in" version="1.2" y="0in" xmlns="http://www.w3.org/2000/svg" height="506.70251" viewBox="0 0 214.81499 405.36169" xmlns:sodipodi="http://sodipodi.sourceforge.net/DTD/sodipodi-0.dtd" xmlns:cc="http://creativecommons.org/ns#" id="svg3372" xmlns:dc="http://purl.org/dc/elements/1.1/" xmlns:svg="http://www.w3.org/2000/svg" xmlns:inkscape="http://www.inkscape.org/namespaces/inkscape">
 <metadata id="metadata3636">
  <rdf:RDF>
   <cc:Work rdf:about="">
    <dc:format>image/svg+xml</dc:format>
    <dc:type rdf:resource="http://purl.org/dc/dcmitype/StillImage"/>
    <dc:title/>
   </cc:Work>
  </rdf:RDF>
 </metadata>
 <defs id="defs3634"/>
 <sodipodi:namedview fit-margin-top="0" fit-margin-left="0" showgrid="false" fit-margin-bottom="0" objecttolerance="10" pagecolor="#ffffff" bordercolor="#666666" id="namedview3632" borderopacity="1" guidetolerance="10" gridtolerance="10" fit-margin-right="0"/>
 <g id="g3428" transform="translate(-4.9996376e-4,-1.54316e-4)">
  <g style="stroke-width:0" id="schematic">
   <rect width="10.487" x="203.12" y="148.50301" height="2.0999999" style="fill:none;stroke-width:0" id="connector32pin"/>
   <rect width="1.992" x="211.616" y="148.50301" height="2.0999999" style="fill:none;stroke-width:0" id="connector32terminal"/>
   <rect width="10.487" x="203.12" y="169.739" height="2.099" style="fill:none;stroke-width:0" id="connector31pin"/>
   <rect width="1.992" x="211.616" y="169.739" height="2.099" style="fill:none;stroke-width:0" id="connector31terminal"/>
   <rect width="10.487" x="203.12" y="190.976" height="2.099" style="fill:none;stroke-width:0" id="connector30pin"/>
   <rect width="1.992" x="211.616" y="190.976" height="2.099" style="fill:none;stroke-width:0" id="connector30terminal"/>
   <rect width="10.487" x="203.12" y="212.21201" height="2.1010001" style="fill:none;stroke-width:0" id="connector29pin"/>
   <rect width="1.992" x="211.616" y="212.21201" height="2.1010001" style="fill:none;stroke-width:0" id="connector29terminal"/>
   <rect width="10.487" x="203.12" y="233.44901" height="2.1029999" style="fill:none;stroke-width:0" id="connector28pin"/>
   <rect width="1.992" x="211.616" y="233.44901" height="2.1029999" style="fill:none;stroke-width:0" id="connector28terminal"/>
   <rect width="10.487" x="203.12" y="254.685" height="2.098" style="fill:none;stroke-width:0" id="connector27pin"/>
   <rect width="1.992" x="211.616" y="254.685" height="2.098" style="fill:none;stroke-width:0" id="connector27terminal"/>
   <rect width="10.487" x="203.12" y="275.92099" height="2.1010001" style="fill:none;stroke-width:0" id="connector26pin"/>
   <rect width="1.992" x="211.616" y="275.92099" height="2.1010001" style="fill:none;stroke-width:0" id="connector26terminal"/>
   <rect width="10.487" x="203.12" y="297.15799" height="2.0999999" style="fill:none;stroke-width:0" id="connector25pin"/>
   <rect width="1.992" x="211.616" y="297.15799" height="2.0999999" style="fill:none;stroke-width:0" id="connector25terminal"/>
   <rect width="2.0999999" x="106.358" y="393.89801" height="10.488" style="fill:none;stroke-width:0" id="connector24pin"/>
   <rect width="2.0999999" x="106.358" y="402.39401" height="1.992" style="fill:none;stroke-width:0" id="connector24terminal"/>
   <rect width="10.488" x="1.237" y="63.77" height="2.099" style="fill:none;stroke-width:0" id="connector23pin"/>
   <rect width="1.995" x="1.237" y="63.77" height="2.099" style="fill:none;stroke-width:0" id="connector23terminal"/>
   <rect width="10.487" x="203.12" y="339.62799" height="2.1010001" style="fill:none;stroke-width:0" id="connector22pin"/>
   <rect width="1.992" x="211.616" y="339.62799" height="2.1010001" style="fill:none;stroke-width:0" id="connector22terminal"/>
   <rect width="10.487" x="203.12" y="318.392" height="2.0999999" style="fill:none;stroke-width:0" id="connector21pin"/>
   <rect width="1.992" x="211.616" y="318.392" height="2.0999999" style="fill:none;stroke-width:0" id="connector21terminal"/>
   <rect width="10.487" x="1.131" y="84.627998" height="2.099" style="fill:none;stroke-width:0" id="connector20pin"/>
   <rect width="1.995" x="1.131" y="84.627998" height="2.099" style="fill:none;stroke-width:0" id="connector20terminal"/>
   <rect width="10.487" x="203.12" y="318.392" height="2.0999999" style="fill:none;stroke-width:0" id="connector19pin"/>
   <rect width="1.992" x="211.616" y="318.392" height="2.0999999" style="fill:none;stroke-width:0" id="connector19terminal"/>
   <rect width="10.487" x="203.12" y="339.62799" height="2.1010001" style="fill:none;stroke-width:0" id="connector18pin"/>
   <rect width="1.992" x="211.616" y="339.62799" height="2.1010001" style="fill:none;stroke-width:0" id="connector18terminal"/>
   <rect width="2.098" x="96.136101" y="0.97600001" height="10.487" style="fill:none;stroke-width:0" id="connector17pin"/>
   <rect width="2.098" x="96.136101" y="0.97600001" height="1.995" style="fill:none;stroke-width:0" id="connector17terminal"/>
   <rect width="2.0999999" x="106.358" y="393.89801" height="10.488" style="fill:none;stroke-width:0" id="connector16pin"/>
   <rect width="2.0999999" x="106.358" y="402.39401" height="1.992" style="fill:none;stroke-width:0" id="connector16terminal"/>
   <rect width="10.487" x="1.131" y="105.888" height="2.098" style="fill:none;stroke-width:0" id="connector15pin"/>
   <rect width="1.995" x="1.131" y="105.888" height="2.098" style="fill:none;stroke-width:0" id="connector15terminal"/>
   <rect width="2.102" x="117.372" y="0.97600001" height="10.487" style="fill:none;stroke-width:0" id="connector14pin"/>
   <rect width="2.102" x="117.372" y="0.97600001" height="1.995" style="fill:none;stroke-width:0" id="connector14terminal"/>
   <rect width="2.0999999" x="106.358" y="393.89801" height="10.488" style="fill:none;stroke-width:0" id="connector13pin"/>
   <rect width="2.0999999" x="106.358" y="402.39401" height="1.992" style="fill:none;stroke-width:0" id="connector13terminal"/>
   <rect width="10.488" x="1.237" y="63.77" height="2.099" style="fill:none;stroke-width:0" id="connector12pin"/>
   <rect width="1.995" x="1.237" y="63.77" height="2.099" style="fill:none;stroke-width:0" id="connector12terminal"/>
   <rect width="2.098" x="96.136101" y="0.97600001" height="10.487" style="fill:none;stroke-width:0" id="connector11pin"/>
   <rect width="2.098" x="96.136101" y="0.97600001" height="1.995" style="fill:none;stroke-width:0" id="connector11terminal"/>
   <rect width="10.487" x="1.2079999" y="297.14999" height="2.098" style="fill:none;stroke-width:0" id="connector10pin"/>
   <rect width="1.995" x="1.2079999" y="297.14999" height="2.098" style="fill:none;stroke-width:0" id="connector10terminal"/>
   <rect width="10.487" x="1.2079999" y="275.88901" height="2.099" style="fill:none;stroke-width:0" id="connector9pin"/>
   <rect width="1.995" x="1.2079999" y="275.88901" height="2.099" style="fill:none;stroke-width:0" id="connector9terminal"/>
   <rect width="10.487" x="1.2079999" y="254.62801" height="2.1010001" style="fill:none;stroke-width:0" id="connector8pin"/>
   <rect width="1.995" x="1.2079999" y="254.62801" height="2.1010001" style="fill:none;stroke-width:0" id="connector8terminal"/>
   <rect width="10.487" x="1.2079999" y="233.39301" height="2.1010001" style="fill:none;stroke-width:0" id="connector7pin"/>
   <rect width="1.995" x="1.2079999" y="233.39301" height="2.1010001" style="fill:none;stroke-width:0" id="connector7terminal"/>
   <rect width="10.487" x="1.2079999" y="212.16" height="2.1010001" style="fill:none;stroke-width:0" id="connector6pin"/>
   <rect width="1.995" x="1.2079999" y="212.16" height="2.1010001" style="fill:none;stroke-width:0" id="connector6terminal"/>
   <rect width="10.487" x="1.2079999" y="190.922" height="2.0999999" style="fill:none;stroke-width:0" id="connector5pin"/>
   <rect width="1.995" x="1.2079999" y="190.922" height="2.0999999" style="fill:none;stroke-width:0" id="connector5terminal"/>
   <rect width="10.488" x="203.11301" y="63.556999" height="2.099" style="fill:none;stroke-width:0" id="connector4pin"/>
   <rect width="1.994" x="211.60699" y="63.556999" height="2.099" style="fill:none;stroke-width:0" id="connector4terminal"/>
   <rect width="10.487" x="203.12" y="84.792999" height="2.0999999" style="fill:none;stroke-width:0" id="connector3pin"/>
   <rect width="1.992" x="211.616" y="84.792999" height="2.0999999" style="fill:none;stroke-width:0" id="connector3terminal"/>
   <rect width="10.487" x="203.12" y="106.03" height="2.099" style="fill:none;stroke-width:0" id="connector2pin"/>
   <rect width="1.992" x="211.616" y="106.03" height="2.099" style="fill:none;stroke-width:0" id="connector2terminal"/>
   <rect width="10.487" x="203.12" y="127.268" height="2.098" style="fill:none;stroke-width:0" id="connector1pin"/>
   <rect width="1.992" x="211.616" y="127.268" height="2.098" style="fill:none;stroke-width:0" id="connector1terminal"/>
   <g style="stroke-width:0" id="graphic">
    <rect width="169.972" x="22.393999" y="22.212" height="360.93701" style="fill:none;stroke:#000000;stroke-width:2.41499996;stroke-linecap:round;stroke-linejoin:round" id="rect3496"/>
    <line style="fill:none;stroke:#000000;stroke-width:2.24950004;stroke-linecap:round;stroke-linejoin:round" id="line3498" y1="64.651001" x1="1.239" y2="64.651001" x2="22.475"/>
    <line style="fill:none;stroke:#000000;stroke-width:2.41499996;stroke-linecap:round;stroke-linejoin:round" id="line3500" y1="192" x1="1.2079999" y2="192" x2="22.393999"/>
    <line style="fill:none;stroke:#000000;stroke-width:2.41499996;stroke-linecap:round;stroke-linejoin:round" id="line3502" y1="213.23599" x1="1.2079999" y2="213.23599" x2="22.393999"/>
    <line style="fill:none;stroke:#000000;stroke-width:2.41499996;stroke-linecap:round;stroke-linejoin:round" id="line3504" y1="234.47" x1="1.2079999" y2="234.47" x2="22.393999"/>
    <line style="fill:none;stroke:#000000;stroke-width:2.41499996;stroke-linecap:round;stroke-linejoin:round" id="line3506" y1="255.707" x1="1.2079999" y2="255.707" x2="22.393999"/>
    <line style="fill:none;stroke:#000000;stroke-width:2.41499996;stroke-linecap:round;stroke-linejoin:round" id="line3508" y1="276.94501" x1="1.2079999" y2="276.94501" x2="22.393999"/>
    <line style="fill:none;stroke:#000000;stroke-width:2.41499996;stroke-linecap:round;stroke-linejoin:round" id="line3510" y1="298.181" x1="1.2079999" y2="298.181" x2="22.393999"/>
    <line style="fill:none;stroke:#000000;stroke-width:1.95169997;stroke-linecap:round;stroke-linejoin:round" id="line3512" y1="64.775002" x1="213.601" y2="64.775002" x2="192.366"/>
    <line style="fill:none;stroke:#000000;stroke-width:2.41499996;stroke-linecap:round;stroke-linejoin:round" id="line3514" y1="86.011002" x1="213.608" y2="86.011002" x2="192.366"/>
    <line style="fill:none;stroke:#000000;stroke-width:2.41499996;stroke-linecap:round;stroke-linejoin:round" id="line3516" y1="107.248" x1="213.608" y2="107.248" x2="192.366"/>
    <line style="fill:none;stroke:#000000;stroke-width:2.41499996;stroke-linecap:round;stroke-linejoin:round" id="line3518" y1="128.48399" x1="213.608" y2="128.48399" x2="192.366"/>
    <line style="fill:none;stroke:#000000;stroke-width:2.41499996;stroke-linecap:round;stroke-linejoin:round" id="line3520" y1="149.72" x1="213.608" y2="149.72" x2="192.366"/>
    <line style="fill:none;stroke:#000000;stroke-width:2.41499996;stroke-linecap:round;stroke-linejoin:round" id="line3522" y1="170.957" x1="213.608" y2="170.957" x2="192.366"/>
    <line style="fill:none;stroke:#000000;stroke-width:2.41499996;stroke-linecap:round;stroke-linejoin:round" id="line3524" y1="192.19299" x1="213.608" y2="192.19299" x2="192.366"/>
    <line style="fill:none;stroke:#000000;stroke-width:2.41499996;stroke-linecap:round;stroke-linejoin:round" id="line3526" y1="213.429" x1="213.608" y2="213.429" x2="192.366"/>
    <line style="fill:none;stroke:#000000;stroke-width:2.41499996;stroke-linecap:round;stroke-linejoin:round" id="line3528" y1="234.666" x1="213.608" y2="234.666" x2="192.366"/>
    <line style="fill:none;stroke:#000000;stroke-width:2.41499996;stroke-linecap:round;stroke-linejoin:round" id="line3530" y1="255.90199" x1="213.608" y2="255.90199" x2="192.366"/>
    <line style="fill:none;stroke:#000000;stroke-width:2.41499996;stroke-linecap:round;stroke-linejoin:round" id="line3532" y1="277.138" x1="213.608" y2="277.138" x2="192.366"/>
    <line style="fill:none;stroke:#000000;stroke-width:2.41499996;stroke-linecap:round;stroke-linejoin:round" id="line3534" y1="298.37601" x1="213.608" y2="298.37601" x2="192.366"/>
    <line style="fill:none;stroke:#000000;stroke-width:2.41499996;stroke-linecap:round;stroke-linejoin:round" id="line3536" y1="319.61099" x1="213.608" y2="319.61099" x2="192.366"/>
    <line style="fill:none;stroke:#000000;stroke-width:2.41499996;stroke-linecap:round;stroke-linejoin:round" id="line3538" y1="340.84698" x1="213.608" y2="340.84698" x2="192.366"/>
    <text x="0" y="0" style="font-size:9.98890972px;stroke-width:0;font-family:DroidSans" id="text3540" transform="translate(30.3682,67.3689)" font-size="9.98891">RST</text>
    <text x="0" y="0" style="font-size:9.98890972px;stroke-width:0;font-family:DroidSans" id="text3542" transform="translate(30.3682,88.6287)" font-size="9.98891">GRN</text>
    <text x="0" y="0" style="font-size:9.98890972px;stroke-width:0;font-family:DroidSans" id="text3544" transform="translate(32.2407,194.492)" font-size="9.98891">A0</text>
    <text x="0" y="0" style="font-size:9.98890972px;stroke-width:0;font-family:DroidSans" id="text3546" transform="translate(32.2407,215.927)" font-size="9.98891">A1</text>
    <text x="0" y="0" style="font-size:9.98890972px;stroke-width:0;font-family:DroidSans" id="text3548" transform="translate(32.2407,237.367)" font-size="9.98891">A2</text>
    <text x="0" y="0" style="font-size:9.98890972px;stroke-width:0;font-family:DroidSans" id="text3550" transform="translate(32.2407,258.804)" font-size="9.98891">A3</text>
    <text x="0" y="0" style="font-size:9.98890972px;stroke-width:0;font-family:DroidSans" id="text3552" transform="translate(32.2407,280.242)" font-size="9.98891">A4</text>
    <text x="0" y="0" style="font-size:9.98890972px;stroke-width:0;font-family:DroidSans" id="text3554" transform="translate(32.2407,301.681)" font-size="9.98891">A5</text>
    <line style="fill:none;stroke:#000000;stroke-width:1.95169997;stroke-linecap:round;stroke-linejoin:round" id="line3556" y1="22.212" x1="118.42" y2="0.97600001" x2="118.42"/>
    <line style="fill:none;stroke:#000000;stroke-width:1.95169997;stroke-linecap:round;stroke-linejoin:round" id="line3558" y1="22.212" x1="97.140099" y2="0.97600001" x2="97.140099"/>
    <line style="fill:none;stroke:#000000;stroke-width:1.95169997;stroke-linecap:round;stroke-linejoin:round" id="line3560" y1="85.677002" x1="22.365999" y2="85.677002" x2="1.131"/>
    <text x="0" y="0" style="font-size:9.98890972px;stroke-width:0;font-family:DroidSans" id="text3562" transform="translate(30.3682,109.888)" font-size="9.98891">BLK</text>
    <line style="fill:none;stroke:#000000;stroke-width:1.95169997;stroke-linecap:round;stroke-linejoin:round" id="line3564" y1="106.937" x1="22.365999" y2="106.937" x2="1.131"/>
    <text x="0" y="0" style="font-size:9.98890972px;stroke-width:0;font-family:DroidSans" id="text3566" transform="translate(108.026,39.3728)" font-size="9.98891">RAW</text>
    <text x="0" y="0" style="font-size:9.98890972px;stroke-width:0;font-family:DroidSans" id="text3568" transform="translate(88.2799,39.3728)" font-size="9.98891">VCC</text>
    <text x="0" y="0" style="font-size:9.98890972px;stroke-width:0;font-family:DroidSans" id="text3570" transform="matrix(0,1,-1,0,57.2837,221.593)" font-size="9.98891">Analog Input</text>
    <text x="0" y="0" style="font-size:9.98890972px;stroke-width:0;font-family:DroidSans" id="text3572" transform="translate(162.663,109.685)" font-size="9.98891">D11</text>
    <text x="0" y="0" style="font-size:9.98890972px;stroke-width:0;font-family:DroidSans" id="text3574" transform="translate(162.663,131.295)" font-size="9.98891">D10</text>
    <text x="0" y="0" style="font-size:9.98890972px;stroke-width:0;font-family:DroidSans" id="text3576" transform="translate(168.163,152.476)" font-size="9.98891">D9</text>
    <text x="0" y="0" style="font-size:9.98890972px;stroke-width:0;font-family:DroidSans" id="text3578" transform="translate(168.163,173.232)" font-size="9.98891">D8</text>
    <text x="0" y="0" style="font-size:9.98890972px;stroke-width:0;font-family:DroidSans" id="text3580" transform="translate(168.163,194.843)" font-size="9.98891">D7</text>
    <text x="0" y="0" style="font-size:9.98890972px;stroke-width:0;font-family:DroidSans" id="text3582" transform="translate(168.163,215.601)" font-size="9.98891">D6</text>
    <text x="0" y="0" style="font-size:9.98890972px;stroke-width:0;font-family:DroidSans" id="text3584" transform="translate(168.163,237.207)" font-size="9.98891">D5</text>
    <text x="0" y="0" style="font-size:9.98890972px;stroke-width:0;font-family:DroidSans" id="text3586" transform="translate(168.163,258.39)" font-size="9.98891">D4</text>
    <text x="0" y="0" style="font-size:9.98890972px;stroke-width:0;font-family:DroidSans" id="text3588" transform="translate(168.163,279.998)" font-size="9.98891">D3</text>
    <text x="0" y="0" style="font-size:6.99220991px;stroke-width:0;font-family:DroidSans" id="text3590" transform="translate(195.654,273.939)" font-size="6.99221">PWM</text>
    <text x="0" y="0" style="font-size:6.99220991px;stroke-width:0;font-family:DroidSans" id="text3592" transform="translate(196.646,316.098)" font-size="6.99221">TX</text>
    <text x="0" y="0" style="font-size:6.99220991px;stroke-width:0;font-family:DroidSans" id="text3594" transform="translate(196.646,336.496)" font-size="6.99221">RX</text>
    <text x="0" y="0" style="font-size:6.99220991px;stroke-width:0;font-family:DroidSans" id="text3596" transform="translate(195.654,146.802)" font-size="6.99221">PWM</text>
    <text x="0" y="0" style="font-size:6.99220991px;stroke-width:0;font-family:DroidSans" id="text3598" transform="translate(195.654,125.465)" font-size="6.99221">PWM</text>
    <text x="0" y="0" style="font-size:6.99220991px;stroke-width:0;font-family:DroidSans" id="text3600" transform="translate(195.654,231.427)" font-size="6.99221">PWM</text>
    <text x="0" y="0" style="font-size:6.99220991px;stroke-width:0;font-family:DroidSans" id="text3602" transform="translate(195.654,210.09)" font-size="6.99221">PWM</text>
    <text x="0" y="0" style="font-size:6.99220991px;stroke-width:0;font-family:DroidSans" id="text3604" transform="translate(195.654,104.338)" font-size="6.99221">PWM</text>
    <text x="0" y="0" style="font-size:9.98890972px;stroke-width:0;font-family:DroidSans" id="text3606" transform="translate(168.163,300.754)" font-size="9.98891">D2</text>
    <text x="0" y="0" style="font-size:9.98890972px;stroke-width:0;font-family:DroidSans" id="text3608" transform="translate(168.163,322.363)" font-size="9.98891">D1</text>
    <text x="0" y="0" style="font-size:9.98890972px;stroke-width:0;font-family:DroidSans" id="text3610" transform="translate(162.663,67.3201)" font-size="9.98891">D13</text>
    <text x="0" y="0" style="font-size:9.98890972px;stroke-width:0;font-family:DroidSans" id="text3612" transform="translate(162.663,88.5017)" font-size="9.98891">D12</text>
    <text x="0" y="0" style="font-size:9.98890972px;stroke-width:0;font-family:DroidSans" id="text3614" transform="translate(168.163,343.545)" font-size="9.98891">D0</text>
    <text x="0" y="0" style="font-size:9.98890972px;stroke-width:0;font-family:DroidSans" id="text3616" transform="matrix(0,-1,1,0,156.882,242.433)" font-size="9.98891">Digital Input/Output</text>
    <text x="0" y="0" style="font-size:9.98890972px;stroke-width:0;font-family:DroidSans" id="text3618" transform="translate(93.2286,53.9197)" font-size="9.98891">Power</text>
    <text x="0" y="0" style="font-size:17.97999954px;stroke-width:0;font-family:DroidSans" id="text3620" transform="translate(74.9879,112.123)" font-size="17.98">Arduino</text>
    <text x="0" y="0" style="font-size:17.97999954px;stroke-width:0;font-family:DroidSans" id="text3622" transform="translate(73.3507,133.698)" font-size="17.98">Pro Mini</text>
    <line style="fill:none;stroke:#000000;stroke-width:1.95169997;stroke-linecap:round;stroke-linejoin:round" id="line3624" y1="404.38599" x1="107.406" y2="383.14801" x2="107.406"/>
    <text x="0" y="0" style="font-size:9.98890972px;stroke-width:0;font-family:DroidSans" id="text3626" transform="translate(96.8761,372.961)" font-size="9.98891">GND</text>
    <polygon points="206.292,311.201 210.999,313.917 206.292,316.635 " style="stroke-width:0" id="polygon3628"/>
    <polygon points="210.999,337.246 206.292,334.525 210.999,331.81 " style="stroke-width:0" id="polygon3630"/>
   </g>
  </g>
 </g>
</svg>
